<svg width="206" height="200" viewBox="0 0 206 200" fill="none" xmlns="http://www.w3.org/2000/svg">
<g clip-path="url(#clip0_224_224)">
<path d="M169 97.5C169 111.066 164.664 124.307 156.573 135.448C148.483 146.588 137.025 155.094 123.737 159.825C110.449 164.556 95.9673 165.285 82.2339 161.915C68.5005 158.545 56.1728 151.236 46.9049 140.97C37.637 130.704 31.8722 117.971 30.3839 104.48C28.8957 90.9894 31.7553 77.3857 38.5789 65.4943C45.4026 53.6029 55.8639 43.9929 68.5593 37.9535C81.2547 31.9141 95.5769 29.7343 109.604 31.7065L99.5 97.5H169Z" fill="#F9D65A"/>
<path fill-rule="evenodd" clip-rule="evenodd" d="M183.396 81.9614C183.288 82.061 183.177 82.1558 183.061 82.2459L182.912 82.0432L108.724 94.5927L139.556 23.0532L139.331 22.7472C139.494 22.6205 139.663 22.5036 139.839 22.3965L140.032 21.9496L140.212 22.19C141.549 21.5165 143.233 21.3581 145.205 21.7253C147.639 22.1784 150.462 23.423 153.514 25.388C156.566 27.3531 159.787 30 162.992 33.1778C166.198 36.3556 169.326 40.0019 172.197 43.9086C175.068 47.8154 177.627 51.906 179.727 55.9469C181.827 59.9879 183.427 63.9 184.436 67.4599C185.445 71.0199 185.843 74.1579 185.607 76.6949C185.444 78.4431 184.983 79.8823 184.239 80.9773L184.798 81.7241L183.396 81.9614Z" fill="#E6DCA7"/>
<path d="M147.162 33.4757C163.131 37.0846 175.45 57.4131 174.103 70.1316" stroke="#E5E5E5" stroke-width="5"/>
<ellipse cx="6.17787" cy="6.43965" rx="6.17787" ry="6.43965" transform="matrix(0.592224 0.805774 -0.788246 0.61536 161.15 61.0142)" fill="#EBA08F"/>
<ellipse cx="6.17787" cy="6.15967" rx="6.17787" ry="6.15967" transform="matrix(0.592224 0.805774 -0.788246 0.61536 140.355 54.4583)" fill="#EBA08F"/>
<path d="M134.718 87.0091C134.563 85.9311 134.206 84.8899 133.667 83.9448C133.127 82.9997 132.417 82.1693 131.576 81.501C130.735 80.8326 129.779 80.3395 128.764 80.0496C127.749 79.7598 126.694 79.6789 125.66 79.8117C124.625 79.9445 123.631 80.2883 122.735 80.8234C121.838 81.3586 121.057 82.0747 120.435 82.9308C119.813 83.7869 119.363 84.7663 119.11 85.813C118.857 86.8597 118.807 87.9532 118.962 89.0312L126.84 88.0201L134.718 87.0091Z" fill="#EBA08F"/>
<path d="M131.3 47.8065C132.245 48.2969 133.269 48.5917 134.314 48.6739C135.359 48.7562 136.404 48.6243 137.389 48.2859C138.374 47.9474 139.28 47.409 140.056 46.7014C140.831 45.9938 141.461 45.1308 141.909 44.1617C142.356 43.1927 142.614 42.1365 142.665 41.0535C142.717 39.9706 142.563 38.882 142.211 37.85C141.859 36.818 141.317 35.8627 140.615 35.0388C139.913 34.2149 139.065 33.5384 138.119 33.0479L134.709 40.4272L131.3 47.8065Z" fill="#EBA08F"/>
<path d="M153.001 49.9268L153.727 53.986L150.858 56.2258L147.263 54.4064L146.537 50.3471L149.407 48.1073L153.001 49.9268Z" fill="#CACF94"/>
<path d="M147.313 77.1577L148.039 81.217L145.17 83.4568L141.575 81.6373L140.849 77.5781L143.719 75.3383L147.313 77.1577Z" fill="#CACF94"/>
<path fill-rule="evenodd" clip-rule="evenodd" d="M183.396 81.9614C183.288 82.061 183.177 82.1558 183.061 82.2459L182.912 82.0432L108.724 94.5927L139.556 23.0532L139.331 22.7472C139.494 22.6205 139.663 22.5036 139.839 22.3965L140.032 21.9496L140.212 22.19C141.549 21.5165 143.233 21.3581 145.205 21.7253C147.639 22.1784 150.462 23.423 153.514 25.388C156.566 27.3531 159.787 30 162.992 33.1778C166.198 36.3556 169.326 40.0019 172.197 43.9086C175.068 47.8154 177.627 51.906 179.727 55.9469C181.827 59.9879 183.427 63.9 184.436 67.4599C185.445 71.0199 185.843 74.1579 185.607 76.6949C185.444 78.4431 184.983 79.8823 184.239 80.9773L184.798 81.7241L183.396 81.9614Z" fill="#F9D65A"/>
<path d="M147.162 33.4757C163.131 37.0846 175.45 57.4131 174.103 70.1316" stroke="#FFFEFE" stroke-width="4"/>
<path d="M57.4194 144.185C42.2989 132.768 34.8457 103.955 39.2474 90.0699" stroke="#FFFEFE" stroke-width="4"/>
<ellipse cx="6.17787" cy="6.43965" rx="6.17787" ry="6.43965" transform="matrix(0.592224 0.805774 -0.788246 0.61536 161.15 61.0142)" fill="#EBA08F"/>
<ellipse cx="6.17787" cy="6.15967" rx="6.17787" ry="6.15967" transform="matrix(0.592224 0.805774 -0.788246 0.61536 140.355 54.4583)" fill="#EBA08F"/>
<ellipse cx="6.17787" cy="6.15967" rx="6.17787" ry="6.15967" transform="matrix(0.592224 0.805774 -0.788246 0.61536 58.4038 84.8059)" fill="#EBA08F"/>
<ellipse cx="6.17787" cy="6.15967" rx="6.17787" ry="6.15967" transform="matrix(0.592224 0.805774 -0.788246 0.61536 86.3818 45.9827)" fill="#EBA08F"/>
<ellipse cx="6.17787" cy="6.15967" rx="6.17787" ry="6.15967" transform="matrix(0.592224 0.805774 -0.788246 0.61536 79.2246 126.919)" fill="#EBA08F"/>
<ellipse cx="6.17787" cy="6.15967" rx="6.17787" ry="6.15967" transform="matrix(0.592224 0.805774 -0.788246 0.61536 150.145 105.863)" fill="#EBA08F"/>
<path d="M134.718 87.0091C134.563 85.9311 134.206 84.8899 133.667 83.9448C133.127 82.9997 132.417 82.1693 131.576 81.501C130.735 80.8326 129.779 80.3395 128.764 80.0496C127.749 79.7598 126.694 79.6789 125.66 79.8117C124.625 79.9445 123.631 80.2883 122.735 80.8234C121.838 81.3586 121.057 82.0747 120.435 82.9308C119.813 83.7869 119.363 84.7663 119.11 85.813C118.857 86.8597 118.807 87.9532 118.962 89.0312L126.84 88.0201L134.718 87.0091Z" fill="#EBA08F"/>
<path d="M44.6894 62.8659C45.5308 63.546 46.4951 64.0595 47.5272 64.3772C48.5593 64.6949 49.639 64.8105 50.7048 64.7174C51.7705 64.6243 52.8013 64.3243 53.7384 63.8346C54.6755 63.3449 55.5005 62.6751 56.1663 61.8634C56.8321 61.0516 57.3257 60.1139 57.6188 59.1037C57.912 58.0935 57.999 57.0306 57.8748 55.9758C57.7507 54.9209 57.4178 53.8947 56.8953 52.9557C56.3728 52.0168 55.6708 51.1835 54.8294 50.5034L49.7594 56.6846L44.6894 62.8659Z" fill="#EBA08F"/>
<path d="M150.81 139.729C150.099 138.911 149.238 138.236 148.276 137.741C147.315 137.246 146.272 136.941 145.206 136.845C144.141 136.748 143.074 136.862 142.067 137.179C141.06 137.495 140.132 138.009 139.336 138.691C138.54 139.373 137.893 140.209 137.43 141.152C136.967 142.095 136.698 143.126 136.638 144.187C136.578 145.248 136.729 146.317 137.081 147.333C137.434 148.35 137.981 149.295 138.692 150.113L144.751 144.921L150.81 139.729Z" fill="#EBA08F"/>
<path d="M102.636 59.857C101.574 59.6768 100.485 59.7026 99.4301 59.9329C98.3755 60.1632 97.3766 60.5935 96.4903 61.1992C95.6039 61.8049 94.8476 62.5742 94.2645 63.4631C93.6814 64.352 93.2828 65.3431 93.0916 66.3799C92.9004 67.4167 92.9203 68.4788 93.1502 69.5056C93.3801 70.5325 93.8154 71.5039 94.4313 72.3644C95.0473 73.2249 95.8317 73.9577 96.7399 74.5209C97.6482 75.0842 98.6623 75.4668 99.7246 75.647L101.18 67.752L102.636 59.857Z" fill="#EBA08F"/>
<path d="M102.186 100.996C102.168 102.085 102.355 103.171 102.737 104.191C103.119 105.211 103.688 106.147 104.412 106.943C105.136 107.74 106 108.382 106.956 108.833C107.912 109.284 108.94 109.535 109.982 109.573C111.024 109.61 112.06 109.432 113.03 109.05C114 108.667 114.885 108.088 115.635 107.344C116.385 106.6 116.985 105.707 117.401 104.715C117.817 103.723 118.04 102.652 118.059 101.562L110.122 101.279L102.186 100.996Z" fill="#EBA08F"/>
<path d="M131.3 47.8065C132.245 48.2969 133.269 48.5917 134.314 48.6739C135.359 48.7562 136.404 48.6243 137.389 48.2859C138.374 47.9474 139.28 47.409 140.056 46.7014C140.831 45.9938 141.461 45.1308 141.909 44.1617C142.356 43.1927 142.614 42.1365 142.665 41.0535C142.717 39.9706 142.563 38.882 142.211 37.85C141.859 36.818 141.317 35.8627 140.615 35.0388C139.913 34.2149 139.065 33.5384 138.119 33.0479L134.709 40.4272L131.3 47.8065Z" fill="#EBA08F"/>
<path d="M153.001 49.9268L153.727 53.986L150.858 56.2258L147.263 54.4064L146.537 50.3471L149.407 48.1073L153.001 49.9268Z" fill="#CACF94"/>
<path d="M147.313 77.1577L148.039 81.217L145.17 83.4568L141.575 81.6373L140.849 77.5781L143.719 75.3383L147.313 77.1577Z" fill="#CACF94"/>
<path d="M84.9037 84.9097L85.6296 88.9689L82.7605 91.2087L79.1656 89.3893L78.4398 85.33L81.3089 83.0902L84.9037 84.9097Z" fill="#CACF94"/>
<path d="M120.039 127.681L120.764 131.74L117.895 133.98L114.3 132.161L113.575 128.102L116.444 125.862L120.039 127.681Z" fill="#CACF94"/>
<path d="M102.471 153.344L103.197 157.403L100.328 159.643L96.733 157.824L96.0072 153.764L98.8762 151.525L102.471 153.344Z" fill="#CACF94"/>
<path d="M56.9262 121.101L57.652 125.16L54.783 127.4L51.1881 125.581L50.4623 121.521L53.3313 119.282L56.9262 121.101Z" fill="#CACF94"/>
<path d="M87.5063 111.889L88.2321 115.948L85.363 118.188L81.7682 116.368L81.0423 112.309L83.9114 110.069L87.5063 111.889Z" fill="#CACF94"/>
<g style="mix-blend-mode:color-dodge">
<path d="M30.3988 85.9546C30.3988 54.2077 84.4263 23.1969 108.842 30.5902M34.0534 118.365C45.2937 156.382 86.2728 169.023 111 164C149.508 156.178 166.176 127.666 168.737 113.759" stroke="#CA7E6D" stroke-width="7"/>
</g>
<g filter="url(#filter0_f_224_224)">
<path d="M25.1036 84.8406C25.1036 50.7534 77.4999 18.0002 109.329 25.3949M29.0276 119.64C41.0965 160.46 85.45 175.393 112 170C153.347 161.601 179 122 173.5 107.5" stroke="#A5746A" stroke-width="7"/>
</g>
<path d="M139 22L108 93" stroke="#D98A78" stroke-width="7"/>
<g filter="url(#filter1_f_224_224)">
<path d="M139 19L102 97" stroke="#C07E6F" stroke-width="7"/>
</g>
</g>
<defs>
<filter id="filter0_f_224_224" x="17.604" y="16.8391" width="164.135" height="161.722" filterUnits="userSpaceOnUse" color-interpolation-filters="sRGB">
<feFlood flood-opacity="0" result="BackgroundImageFix"/>
<feBlend mode="normal" in="SourceGraphic" in2="BackgroundImageFix" result="shape"/>
<feGaussianBlur stdDeviation="2" result="effect1_foregroundBlur_224_224"/>
</filter>
<filter id="filter1_f_224_224" x="94.8379" y="13.5" width="51.3242" height="89" filterUnits="userSpaceOnUse" color-interpolation-filters="sRGB">
<feFlood flood-opacity="0" result="BackgroundImageFix"/>
<feBlend mode="normal" in="SourceGraphic" in2="BackgroundImageFix" result="shape"/>
<feGaussianBlur stdDeviation="2" result="effect1_foregroundBlur_224_224"/>
</filter>
<clipPath id="clip0_224_224">
<rect width="206" height="200" fill="white"/>
</clipPath>
</defs>
</svg>
