<svg width="250" height="250" viewBox="0 0 250 250" fill="none" xmlns="http://www.w3.org/2000/svg">
<g filter="url(#filter0_d_240_2526)">
<path d="M118.596 37.0484C115.82 35.1317 106.086 33.7425 96.5061 37.8843C90.8265 40.3394 79.895 46.1404 82.48 53.1871C85.5132 61.4546 98.7602 61.1804 107.453 57.5967C116.147 54.0109 129.055 44.2687 118.596 37.0484Z" fill="#7A4C41"/>
<path d="M116.102 35.407C113.049 34.025 105.609 31.9727 96.0298 36.1145C90.3484 38.5701 80.1592 44.7348 82.7612 51.777C85.3628 58.8176 98.2825 59.4125 106.976 55.8268C115.67 52.2427 129.548 41.494 116.102 35.407" fill="#C65236"/>
<path d="M101.154 49.232C100.092 49.469 98.9748 49.6565 97.8172 49.7775C98.0644 49.5086 98.4284 49.2699 98.7618 49.1705C98.7958 49.1616 98.8293 49.1511 98.8649 49.1417C99.6796 48.9267 100.62 48.9577 101.154 49.232Z" fill="#E88F78"/>
<path d="M97.1337 46.3283C96.6569 46.4541 96.187 46.5012 95.8278 46.4244C96.5788 45.4836 97.2896 44.5021 97.9286 43.5041C98.6499 43.3941 99.2804 43.5035 99.5064 43.901C99.8974 44.59 99.4428 45.2649 98.2702 45.8856C97.9243 46.0684 97.5264 46.2246 97.1337 46.3283" fill="#E88F78"/>
<path d="M104.638 40.5737C103.619 40.8426 102.237 40.7567 102.325 39.9348C102.37 39.498 103.021 38.9172 103.551 38.7533C103.596 38.7379 103.644 38.7252 103.691 38.713C104.698 38.4471 105.848 38.6216 106 39.2181C106.156 39.8426 105.672 40.2959 104.655 40.5693C104.648 40.5711 104.645 40.5719 104.638 40.5737" fill="#E88F78"/>
<path d="M111.218 39.6406C110.923 39.5098 110.743 39.2977 110.772 38.99C110.783 38.8475 110.861 38.6923 110.98 38.5405C110.988 38.5898 110.999 38.6383 111.008 38.6887C111.076 39.0189 111.148 39.3349 111.218 39.6406" fill="#E88F78"/>
<path d="M108.437 46.4693C107.435 46.4881 106.516 46.2126 106.58 45.4868C106.627 44.958 107.438 44.2723 108.109 44.089C108.12 44.0859 108.132 44.0828 108.142 44.0802C109.167 43.8097 110.353 43.8977 110.924 44.313C110.843 44.4404 110.751 44.5688 110.649 44.6999C110.241 45.2312 109.479 45.8492 108.437 46.4693" fill="#E88F78"/>
<path d="M91.6953 54.1279C90.4158 54.4656 88.6416 54.3741 88.6985 53.3727C88.7019 53.3285 88.7104 53.2845 88.7216 53.2382C89.2723 52.8588 89.7998 52.4678 90.2988 52.0634C90.3952 51.9849 90.4932 51.9062 90.5904 51.8244C91.3773 51.6617 92.2082 51.6974 92.7528 51.9289C92.6651 52.4332 92.7865 52.9754 93.0475 53.4952C92.7672 53.7519 92.3143 53.9629 91.7046 54.1254C91.7015 54.1262 91.6984 54.127 91.6953 54.1279" fill="#E88F78"/>
<path d="M93.7625 28.9101C90.4762 28.4414 82.6505 29.3924 74.5905 36.1194C69.812 40.1089 60.6396 47.8306 65.5829 55.2876C69.7148 61.5201 82.9391 58.0008 90.2992 52.0631C97.6597 46.1268 108.238 30.9707 93.7625 28.9101" fill="#7A4C41"/>
<path d="M92.7472 28.4064C89.4598 27.9382 83.2041 29.0552 73.7406 34.7976C68.4376 38.0129 60.8555 47.6436 65.2179 53.7094C69.577 59.7763 82.0884 56.6778 89.449 50.7413C96.8075 44.804 107.222 30.4674 92.7472 28.4064Z" fill="#C65236"/>
<path d="M82.2816 48.5339C81.7635 48.6706 81.322 48.6203 81.167 48.2314C81.0042 47.8188 81.3846 46.9999 81.845 46.6074C82.3137 46.2093 82.9007 45.9004 83.4234 45.7625C83.9078 45.6346 84.3361 45.6531 84.5579 45.8864C85.0177 46.3714 84.7454 46.9997 83.841 47.7164C83.3881 48.075 82.7981 48.3975 82.2816 48.5339" fill="#E88F78"/>
<path d="M78.1972 45.2425C77.8266 45.3403 77.5054 45.2759 77.3135 44.9593C77.0392 44.5025 77.2702 43.4406 77.688 42.8718C78.2388 42.1201 79.0505 41.5049 79.71 41.3309C80.0292 41.2466 80.3123 41.2649 80.5135 41.4203C81.1332 41.8982 80.9768 42.7094 80.1433 43.7634C79.6197 44.4276 78.8341 45.0744 78.1972 45.2425" fill="#E88F78"/>
<path d="M74.0674 37.053C74.1275 36.6185 74.4623 36.0586 74.8312 35.7671C75.2633 35.4237 75.7909 35.1626 76.272 35.0356C76.5044 34.9743 76.7259 34.9447 76.9204 34.9527C75.9411 35.6105 74.9873 36.3162 74.0674 37.053" fill="#E88F78"/>
<path d="M82.5852 36.951C82.0999 37.0791 81.6859 37.0136 81.5639 36.5951C81.5414 36.5224 81.5339 36.4379 81.5407 36.3445C81.7638 36.1815 81.9808 36.0199 82.1919 35.8616C82.927 35.3083 83.6641 34.7753 84.4095 34.2546C84.5026 34.2942 84.5792 34.3525 84.6377 34.4302C85.0199 34.9451 84.7546 35.562 83.9296 36.232C83.5333 36.5531 83.0288 36.8339 82.5852 36.951" fill="#E88F78"/>
<path d="M90.037 32.6214C89.4992 32.7634 89.0344 32.7032 88.9009 32.2684C88.7666 31.8373 89.1673 31.021 89.6214 30.646C90.0504 30.2922 90.5736 30.0242 91.046 29.8996C91.5534 29.7656 92.0055 29.7971 92.2187 30.068C92.6312 30.5895 92.3412 31.2177 91.4527 31.8997C91.0366 32.218 90.5077 32.4972 90.037 32.6214" fill="#E88F78"/>
<path d="M88.9229 40.4137C88.2795 40.5835 87.7249 40.5134 87.5623 39.9998C87.4024 39.4903 87.8812 38.5236 88.4222 38.0808C88.9311 37.6641 89.5508 37.3466 90.1136 37.1981C90.7223 37.0374 91.263 37.0743 91.5201 37.3946C92.0096 38.0127 91.6664 38.7561 90.6041 39.5626C90.111 39.9365 89.4842 40.2656 88.9229 40.4137" fill="#E88F78"/>
<path d="M95.4201 37.605C95.1297 37.6816 94.8689 37.6269 94.6765 37.3843C94.3478 36.9673 94.4444 35.8802 94.7886 35.2584C95.2868 34.3522 96.1228 33.5687 96.7943 33.3915C97.0214 33.3315 97.2319 33.3402 97.4025 33.441C98.075 33.8329 98.021 34.6603 97.3289 35.818C96.8512 36.6179 96.064 37.435 95.4201 37.605" fill="#E88F78"/>
<path d="M88.56 48.5433C88.0663 48.6736 87.6449 48.6018 87.464 48.1892C87.2511 47.7002 87.6195 46.6824 88.1083 46.178C88.6629 45.6051 89.395 45.1583 90.0219 44.9928C90.4748 44.8733 90.8713 44.9018 91.104 45.1355C91.657 45.6937 91.397 46.4743 90.4324 47.3994C89.9005 47.9119 89.1743 48.3811 88.56 48.5433" fill="#E88F78"/>
<path d="M78.7998 54.6459C77.4294 55.0076 75.9971 55.0905 74.5873 55.2205C73.3453 55.3333 72.1384 55.4964 70.893 55.2477C69.0434 54.8779 67.1624 53.3053 66.3276 51.5625C65.3652 49.5519 66.1385 46.934 67.2488 45.1814C68.9803 42.447 70.716 39.8557 73.193 37.7714C73.4804 37.5287 73.7716 37.2882 74.0676 37.053C74.0503 37.1713 74.0542 37.2811 74.085 37.3724C74.2272 37.8096 74.7197 37.8624 75.2876 37.7125C75.7663 37.5861 76.3005 37.3152 76.7192 37.0059C77.639 36.3316 77.9386 35.7106 77.5128 35.1941C77.3863 35.0384 77.1755 34.9624 76.9203 34.9528C77.7273 34.4094 78.5528 33.8979 79.3906 33.4267C80.1355 33.0088 80.8799 32.4883 81.6437 32.1424C82.0334 31.964 82.6754 31.8476 82.9791 31.5974L84.9354 30.8245C85.6237 30.7439 87.144 30.519 87.3049 31.6105C87.4154 32.3527 86.3295 32.9553 85.8471 33.2768C85.363 33.5984 84.8849 33.9236 84.4115 34.2538C84.1983 34.1626 83.906 34.1707 83.5868 34.2549C83.1379 34.3734 82.6381 34.6417 82.2321 34.9991C81.8826 35.3046 81.5693 35.9054 81.5412 36.3442C79.2557 38.0252 76.5058 39.9508 75.4666 42.6388C74.7289 44.5416 74.505 46.9712 76.2286 48.3912C77.3663 49.329 78.8027 49.5787 80.2017 49.7627C81.1692 49.8907 82.0108 50.4481 82.4155 51.4237C83.2673 53.4781 80.4446 54.1509 79.178 54.5381C79.0528 54.5776 78.9265 54.6125 78.7998 54.6459V54.6459ZM76.8511 51.7007C76.2676 51.8547 75.6138 52.2054 75.0871 52.6635C74.5593 53.1236 74.1105 54.105 74.2853 54.609C74.4539 55.0953 74.966 55.1654 75.5636 55.0077C76.1424 54.8549 76.8024 54.4899 77.3113 54.0782C78.3464 53.2387 78.6698 52.4861 78.1609 51.8828C77.9103 51.5864 77.4142 51.552 76.8511 51.7007V51.7007ZM70.9655 49.3472C70.3053 49.5215 69.4938 50.1366 68.9425 50.8884C68.5242 51.4592 68.2925 52.5211 68.5666 52.9764C68.7589 53.293 69.0804 53.3572 69.4512 53.2593C70.0879 53.0913 70.8727 52.4446 71.4 51.7795C72.2313 50.7259 72.3887 49.9146 71.7689 49.4368C71.5673 49.2814 71.2831 49.2634 70.9655 49.3472V49.3472ZM71.4342 42.938C70.774 43.1123 69.9625 43.7275 69.4112 44.4792C68.9925 45.0485 68.7608 46.1104 69.0353 46.5672C69.2276 46.8838 69.5491 46.948 69.9199 46.8501C70.5566 46.6821 71.3414 46.0356 71.8687 45.3703C72.7001 44.3169 72.8558 43.506 72.236 43.028C72.0344 42.8727 71.7517 42.8542 71.4342 42.938" fill="#D1664C"/>
<path d="M69.4514 53.2594C69.0801 53.3574 68.759 53.293 68.5668 52.9764C68.293 52.521 68.5247 51.4592 68.942 50.8887C69.4929 50.1369 70.3049 49.5218 70.9648 49.3476C71.2824 49.2637 71.5664 49.2818 71.7687 49.4369C72.3882 49.9149 72.2315 50.726 71.3989 51.7798C70.8731 52.4448 70.0881 53.0914 69.4514 53.2594" fill="#D29180"/>
<path d="M69.9182 46.851C69.5481 46.9487 69.2261 46.8845 69.0346 46.5679C68.7606 46.1108 68.992 45.0489 69.4098 44.48C69.9609 43.7283 70.7732 43.1129 71.4329 42.9387C71.7503 42.855 72.0337 42.8732 72.2343 43.0287C72.8549 43.5065 72.6981 44.3178 71.8668 45.3711C71.3413 46.0359 70.556 46.6826 69.9182 46.851Z" fill="#D29180"/>
<path d="M75.2881 37.7124C74.7197 37.8624 74.2264 37.8097 74.0853 37.3724C74.0547 37.281 74.0514 37.1711 74.067 37.0532C74.9871 36.3163 75.9413 35.6106 76.9209 34.9528C77.176 34.9623 77.3859 35.0385 77.5138 35.1939C77.9381 35.7106 77.6388 36.3318 76.7197 37.0057C76.2996 37.3155 75.7663 37.5862 75.2881 37.7124" fill="#D29180"/>
<path d="M81.54 36.3445C81.5679 35.9059 81.8813 35.305 82.2299 34.9998C82.6372 34.642 83.1375 34.3737 83.5865 34.2552C83.9044 34.1713 84.1976 34.1629 84.4099 34.2544C83.6628 34.7755 82.927 35.3082 82.1916 35.8615C81.9808 36.0197 81.7628 36.1816 81.54 36.3445" fill="#D29180"/>
<path d="M75.5655 55.0072C74.9666 55.1653 74.4548 55.0952 74.2853 54.609C74.111 54.1048 74.5608 53.1233 75.088 52.6634C75.6141 52.2054 76.2685 51.8547 76.8526 51.7005C77.416 51.5518 77.9119 51.5861 78.1614 51.8827C78.6711 52.4859 78.348 53.2384 77.312 54.078C76.8038 54.4895 76.1437 54.8546 75.5655 55.0072" fill="#D29180"/>
<path d="M104.845 54.9054C102.408 55.5485 99.6452 55.9266 96.5291 55.8991C95.1755 55.8874 93.6891 54.7656 93.0482 53.4947C93.3566 53.2095 93.4585 52.8684 93.3315 52.4721C93.2573 52.2334 93.0476 52.0529 92.754 51.9285C92.8858 51.1574 93.5037 50.4779 94.8428 50.1245C95.2991 50.004 95.8379 49.9211 96.4694 49.8859C96.9246 49.8604 97.3732 49.8239 97.8155 49.7776C97.6342 49.973 97.5153 50.1856 97.5124 50.3724C97.5002 51.2082 99.0728 51.2806 100.184 50.9969C100.2 50.9927 100.216 50.9886 100.232 50.9845C101.309 50.6999 101.787 50.2434 101.549 49.6231C101.486 49.4618 101.347 49.3301 101.153 49.2319C101.535 49.1472 101.906 49.0559 102.271 48.9593C104.777 48.2979 106.908 47.3809 108.437 46.469C108.819 46.4626 109.211 46.4139 109.567 46.3311C109.627 46.3171 109.688 46.301 109.745 46.2859C110.912 45.9779 111.449 45.4575 111.24 44.73C111.193 44.5661 111.083 44.4265 110.925 44.3127C111.938 42.7397 111.612 41.3551 111.217 39.6406C111.731 39.8706 112.588 39.8594 113.275 39.6957C113.321 39.6851 113.366 39.6732 113.408 39.6622C114.401 39.4002 114.86 38.9582 114.687 38.3399C114.508 37.7039 113.196 37.5047 112.099 37.7943C112.087 37.7975 112.073 37.8012 112.059 37.8049C111.674 37.9131 111.235 38.2167 110.981 38.5402C110.748 37.2127 111.17 36.5319 111.936 36.3297C114.423 35.6733 120.534 40.0699 119.539 43.6526C118.979 45.6643 114.494 52.3586 104.845 54.9054V54.9054ZM105.271 51.1586C105.085 51.2077 104.902 51.2674 104.727 51.3393C104.08 51.5996 103.35 52.3762 103.362 52.9088C103.382 53.8017 104.785 53.8531 105.973 53.5396C106.124 53.4996 106.272 53.4527 106.413 53.4026C107.66 52.9516 108.197 52.3493 107.899 51.6134C107.641 50.9823 106.414 50.857 105.271 51.1586V51.1586ZM116.694 43.3178C116.156 43.4598 115.571 43.744 115.082 44.12C114.527 44.5456 114.022 45.4969 114.167 46.0103C114.322 46.5563 114.925 46.625 115.619 46.4421C116.157 46.3001 116.748 46.006 117.223 45.6673C118.306 44.8954 118.672 44.1638 118.199 43.5315C117.94 43.183 117.35 43.1445 116.694 43.3178" fill="#D1664C"/>
<path d="M100.23 50.9848C100.214 50.9891 100.2 50.9929 100.184 50.9972C99.0709 51.2811 97.5004 51.2082 97.5103 50.3732C97.5145 50.186 97.6333 49.9734 97.8154 49.7778C98.9728 49.6568 100.092 49.4689 101.153 49.2322C101.345 49.3306 101.485 49.462 101.547 49.6237C101.785 50.244 101.308 50.7003 100.23 50.9848" fill="#D29180"/>
<path d="M113.409 39.6616C113.366 39.6729 113.322 39.6846 113.277 39.6949C112.588 39.859 111.731 39.8703 111.219 39.6399C111.149 39.3344 111.077 39.0183 111.01 38.6879C111 38.6376 110.989 38.5892 110.981 38.5398C111.235 38.2164 111.674 37.9127 112.059 37.8046C112.073 37.801 112.088 37.797 112.1 37.7938C113.197 37.5044 114.508 37.7037 114.687 38.3396C114.861 38.9578 114.401 39.3997 113.409 39.6616" fill="#D29180"/>
<path d="M109.746 46.2856C109.687 46.3011 109.626 46.3171 109.566 46.3317C109.21 46.4144 108.818 46.4632 108.437 46.4691C109.48 45.8492 110.241 45.2312 110.651 44.6995C110.751 44.5687 110.843 44.4402 110.925 44.3129C111.084 44.4265 111.193 44.5662 111.24 44.7301C111.448 45.4579 110.911 45.9781 109.746 46.2856" fill="#D29180"/>
<path d="M115.618 46.4422C114.926 46.6247 114.323 46.5562 114.168 46.0101C114.023 45.4965 114.529 44.5452 115.082 44.1201C115.572 43.744 116.155 43.46 116.693 43.318C117.352 43.1441 117.94 43.183 118.2 43.5315C118.673 44.1636 118.307 44.8953 117.223 45.6672C116.748 46.006 116.156 46.3001 115.618 46.4422" fill="#D29180"/>
<path d="M105.973 53.5393C104.786 53.8528 103.381 53.8018 103.363 52.9084C103.351 52.3759 104.081 51.5993 104.727 51.3394C104.902 51.2674 105.086 51.2074 105.273 51.1582C106.414 50.8568 107.642 50.9821 107.9 51.6131C108.199 52.349 107.66 52.9515 106.414 53.4022C106.272 53.4526 106.124 53.4996 105.973 53.5393" fill="#D29180"/>
<path d="M93.0491 53.4946C92.7879 52.9747 92.6666 52.4328 92.7531 51.9287C93.0474 52.0531 93.2576 52.2334 93.3322 52.4719C93.4587 52.8684 93.3576 53.2093 93.0491 53.4946Z" fill="#D29180"/>
</g>
<g filter="url(#filter1_d_240_2526)">
<path d="M67.0012 115.559C63.7011 116.261 56.0064 122.383 52.4384 132.19C50.3225 138.005 47.032 149.935 53.9295 152.895C62.0222 156.368 70.9202 146.55 74.2848 137.771C77.6488 128.989 79.4318 112.915 67.0012 115.559Z" fill="#7A4C41"/>
<path d="M64.0953 116.245C60.9944 117.515 54.393 121.514 50.8251 131.321C48.7083 137.137 46.192 148.777 53.0979 151.722C60.0024 154.666 69.3073 145.684 72.6712 136.902C76.0364 128.121 77.7538 110.651 64.0953 116.245" fill="#C65236"/>
<path d="M63.8788 136.605C63.3223 137.539 62.6911 138.48 61.984 139.405C61.9583 139.04 62.0348 138.612 62.1915 138.301C62.2083 138.27 62.2238 138.239 62.2414 138.207C62.6445 137.467 63.3127 136.805 63.8788 136.605Z" fill="#E88F78"/>
<path d="M59.0075 137.533C58.7715 137.966 58.4831 138.34 58.1806 138.548C58.0124 137.356 57.7871 136.165 57.5006 135.015C57.9159 134.415 58.4285 134.032 58.8726 134.141C59.642 134.33 59.8203 135.124 59.4663 136.402C59.3615 136.779 59.2019 137.176 59.0075 137.533" fill="#E88F78"/>
<path d="M59.978 128.126C59.4738 129.051 58.4621 129.997 57.9253 129.368C57.6383 129.036 57.6631 128.164 57.908 127.666C57.9281 127.623 57.9519 127.579 57.9749 127.537C58.4734 126.622 59.3901 125.906 59.9281 126.205C60.4892 126.52 60.4864 127.183 59.9862 128.111C59.983 128.117 59.9813 128.12 59.978 128.126" fill="#E88F78"/>
<path d="M63.8185 122.702C63.521 122.826 63.2429 122.812 63.0391 122.58C62.9432 122.474 62.8841 122.31 62.8554 122.119C62.8964 122.148 62.9393 122.173 62.9826 122.201C63.2688 122.379 63.5483 122.543 63.8185 122.702" fill="#E88F78"/>
<path d="M66.8721 129.413C66.1982 130.154 65.3668 130.633 64.8829 130.088C64.5309 129.691 64.5895 128.63 64.9166 128.017C64.9224 128.007 64.9282 127.996 64.9332 127.987C65.4404 127.056 66.3187 126.255 67.013 126.124C67.0497 126.271 67.08 126.426 67.1053 126.59C67.2113 127.252 67.1371 128.23 66.8721 129.413" fill="#E88F78"/>
<path d="M60.942 146.843C60.3088 148.005 59.0239 149.231 58.3351 148.502C58.3053 148.47 58.2791 148.433 58.2532 148.393C58.3556 147.732 58.4336 147.08 58.4823 146.44C58.4915 146.316 58.5016 146.191 58.5088 146.064C58.931 145.38 59.5275 144.801 60.0699 144.564C60.3762 144.974 60.8537 145.258 61.4107 145.425C61.4049 145.805 61.2472 146.279 60.9466 146.834C60.9451 146.837 60.9435 146.84 60.942 146.843" fill="#E88F78"/>
<path d="M44.0311 128.021C41.4336 130.088 36.7505 136.43 36.1052 146.909C35.7235 153.122 35.0373 165.092 43.8526 166.62C51.2205 167.897 57.7441 155.867 58.4826 146.439C59.2223 137.012 55.4699 118.914 44.0311 128.021" fill="#7A4C41"/>
<path d="M42.9673 128.414C40.3693 130.482 36.8852 135.796 34.5602 146.619C33.2556 152.681 35.0492 164.807 42.4543 165.801C49.8579 166.799 56.1977 155.577 56.9374 146.149C57.675 136.723 54.4061 119.307 42.9673 128.414Z" fill="#C65236"/>
<path d="M50.411 149.843C50.1546 150.314 49.8148 150.6 49.4256 150.446C49.0139 150.281 48.68 149.442 48.7108 148.838C48.7433 148.224 48.9219 147.585 49.1806 147.11C49.4203 146.67 49.7279 146.372 50.0498 146.371C50.7181 146.37 50.9879 146.999 50.8877 148.148C50.8373 148.724 50.6666 149.374 50.411 149.843" fill="#E88F78"/>
<path d="M45.2138 150.552C45.0304 150.889 44.763 151.078 44.401 151C43.8805 150.886 43.2674 149.988 43.1408 149.294C42.9726 148.378 43.0829 147.365 43.4093 146.766C43.5672 146.476 43.775 146.283 44.0261 146.243C44.799 146.121 45.2813 146.792 45.475 148.122C45.5983 148.959 45.5289 149.974 45.2138 150.552" fill="#E88F78"/>
<path d="M36.4243 147.93C36.1497 147.588 35.9727 146.96 36.0141 146.492C36.0613 145.942 36.2338 145.379 36.472 144.942C36.587 144.731 36.7175 144.55 36.8569 144.414C36.6625 145.577 36.5205 146.755 36.4243 147.93" fill="#E88F78"/>
<path d="M42.1998 141.668C41.9596 142.109 41.6277 142.365 41.2397 142.166C41.1714 142.132 41.1049 142.08 41.0416 142.011C41.0764 141.737 41.1079 141.468 41.1378 141.206C41.2405 140.292 41.3592 139.39 41.4927 138.49C41.5853 138.45 41.6803 138.434 41.7769 138.445C42.4138 138.521 42.68 139.137 42.6005 140.197C42.5617 140.706 42.4193 141.265 42.1998 141.668" fill="#E88F78"/>
<path d="M44.1702 133.278C43.9041 133.767 43.5411 134.063 43.1334 133.862C42.7278 133.663 42.4096 132.811 42.4489 132.224C42.4863 131.669 42.6509 131.105 42.8846 130.676C43.1358 130.215 43.4691 129.908 43.8124 129.939C44.4748 129.997 44.7323 130.64 44.6179 131.754C44.5634 132.275 44.4032 132.851 44.1702 133.278" fill="#E88F78"/>
<path d="M49.0695 139.439C48.7511 140.024 48.3192 140.379 47.8342 140.144C47.3541 139.911 46.9802 138.899 47.0298 138.201C47.0765 137.545 47.2712 136.877 47.5498 136.366C47.851 135.813 48.2492 135.445 48.6585 135.478C49.444 135.547 49.7486 136.307 49.6054 137.633C49.5385 138.248 49.3473 138.93 49.0695 139.439" fill="#E88F78"/>
<path d="M51.4897 132.788C51.346 133.052 51.1271 133.204 50.8186 133.177C50.2898 133.129 49.5659 132.313 49.3503 131.635C49.0337 130.651 49.0383 129.505 49.3707 128.895C49.4831 128.689 49.6339 128.542 49.8244 128.487C50.571 128.268 51.1354 128.875 51.5017 130.173C51.755 131.07 51.8084 132.203 51.4897 132.788" fill="#E88F78"/>
<path d="M54.7295 145.286C54.4852 145.734 54.1437 145.991 53.7195 145.84C53.2178 145.658 52.731 144.692 52.7001 143.99C52.6644 143.193 52.8424 142.354 53.1527 141.785C53.3769 141.374 53.6698 141.105 53.9996 141.097C54.7851 141.078 55.1739 141.803 55.184 143.139C55.1911 143.878 55.0336 144.728 54.7295 145.286" fill="#E88F78"/>
<path d="M52.463 156.572C51.7848 157.816 50.8614 158.914 49.9877 160.028C49.2168 161.008 48.5065 161.998 47.4704 162.732C45.9314 163.823 43.4966 164.11 41.6565 163.52C39.534 162.839 38.1621 160.479 37.6507 158.468C36.8521 155.332 36.1605 152.29 36.3465 149.059C36.3675 148.683 36.3926 148.306 36.425 147.929C36.4991 148.023 36.5815 148.096 36.6691 148.136C37.0845 148.333 37.4611 148.011 37.7421 147.496C37.979 147.061 38.149 146.486 38.2117 145.97C38.3532 144.838 38.1075 144.194 37.4396 144.149C37.2396 144.134 37.0396 144.235 36.8574 144.414C37.0166 143.454 37.2117 142.502 37.4446 141.57C37.6523 140.741 37.7853 139.843 38.0583 139.05C38.1963 138.644 38.5526 138.098 38.5792 137.705L39.3609 135.752C39.775 135.197 40.6556 133.937 41.5595 134.57C42.1749 134.999 41.8672 136.202 41.7695 136.774C41.671 137.346 41.579 137.917 41.4939 138.488C41.2812 138.581 41.0863 138.799 40.9283 139.088C40.7062 139.496 40.5579 140.044 40.5389 140.584C40.521 141.048 40.7426 141.688 41.0422 142.01C40.6945 144.826 40.2058 148.147 41.446 150.749C42.3226 152.592 43.9348 154.423 46.1507 154.145C47.6138 153.962 48.7816 153.09 49.8761 152.199C50.6336 151.584 51.6167 151.355 52.6039 151.73C54.6821 152.522 53.2327 155.036 52.6443 156.223C52.5871 156.341 52.5257 156.456 52.463 156.572V156.572ZM48.9838 155.965C48.6951 156.495 48.501 157.211 48.4723 157.909C48.4442 158.609 48.8495 159.609 49.3359 159.828C49.8051 160.039 50.2078 159.715 50.5035 159.172C50.79 158.647 50.9779 157.916 51.0281 157.264C51.1287 155.935 50.8038 155.183 50.0158 155.138C49.6281 155.117 49.2626 155.454 48.9838 155.965V155.965ZM43.2312 158.627C42.9045 159.227 42.7943 160.239 42.9622 161.156C43.0898 161.852 43.7026 162.75 44.2218 162.864C44.584 162.941 44.8515 162.752 45.035 162.415C45.3501 161.837 45.419 160.822 45.2976 159.982C45.1027 158.654 44.621 157.983 43.848 158.105C43.5967 158.145 43.3884 158.339 43.2312 158.627V158.627ZM38.8942 153.885C38.5675 154.485 38.4575 155.497 38.6252 156.414C38.7515 157.109 39.3643 158.007 39.8849 158.121C40.2471 158.199 40.5145 158.009 40.698 157.673C41.0131 157.094 41.0822 156.08 40.9607 155.24C40.7659 153.912 40.2834 153.242 39.5103 153.364C39.2589 153.404 39.0514 153.597 38.8942 153.885" fill="#D1664C"/>
<path d="M45.0349 162.415C44.8512 162.752 44.5838 162.941 44.2217 162.864C43.7027 162.75 43.0899 161.852 42.9618 161.157C42.7937 160.24 42.9042 159.228 43.2307 158.628C43.3879 158.34 43.5961 158.146 43.8478 158.105C44.6207 157.983 45.1027 158.654 45.2968 159.983C45.4191 160.822 45.35 161.837 45.0349 162.415" fill="#D29180"/>
<path d="M40.6971 157.675C40.5139 158.011 40.2461 158.201 39.8844 158.122C39.364 158.008 38.7511 157.11 38.6245 156.416C38.4565 155.499 38.567 154.486 38.8935 153.887C39.0506 153.599 39.2584 153.405 39.5093 153.366C40.2827 153.243 40.7648 153.914 40.9596 155.242C41.0819 156.08 41.0127 157.095 40.6971 157.675Z" fill="#D29180"/>
<path d="M37.742 147.496C37.4607 148.012 37.0836 148.334 36.6688 148.136C36.5813 148.096 36.4993 148.023 36.4242 147.93C36.5205 146.756 36.6627 145.577 36.8574 144.413C37.0395 144.235 37.239 144.134 37.4397 144.148C38.1068 144.195 38.3528 144.839 38.2114 145.97C38.1482 146.488 37.9786 147.061 37.742 147.496" fill="#D29180"/>
<path d="M41.0415 142.011C40.7418 141.69 40.5203 141.05 40.5378 140.587C40.5575 140.045 40.706 139.497 40.9282 139.089C41.0856 138.8 41.2808 138.581 41.4931 138.49C41.3588 139.391 41.2407 140.292 41.1379 141.206C41.1081 141.468 41.076 141.738 41.0415 142.011" fill="#D29180"/>
<path d="M50.5039 159.171C50.2075 159.715 49.8051 160.039 49.3353 159.828C48.8491 159.609 48.4445 158.608 48.4722 157.908C48.5007 157.212 48.6951 156.495 48.9842 155.965C49.263 155.453 49.6285 155.116 50.0154 155.138C50.8039 155.182 51.129 155.934 51.0279 157.263C50.978 157.915 50.7901 158.646 50.5039 159.171" fill="#D29180"/>
<path d="M70.5375 137.818C69.3318 140.031 67.709 142.299 65.549 144.545C64.6109 145.521 62.7748 145.831 61.4108 145.424C61.4152 145.004 61.2372 144.696 60.862 144.516C60.6375 144.406 60.3623 144.434 60.0702 144.562C59.6002 143.937 59.5307 143.021 60.1934 141.805C60.4192 141.391 60.7289 140.942 61.137 140.459C61.4311 140.11 61.7127 139.759 61.9828 139.406C62.0003 139.672 62.0732 139.904 62.207 140.035C62.8061 140.618 63.9387 139.524 64.4959 138.521C64.5037 138.507 64.5115 138.493 64.5192 138.479C65.0527 137.5 65.0487 136.839 64.4342 136.586C64.2736 136.521 64.0824 136.532 63.8781 136.605C64.0787 136.27 64.267 135.937 64.448 135.605C65.6881 133.329 66.4851 131.151 66.8722 129.413C67.13 129.131 67.3633 128.813 67.5478 128.497C67.5786 128.444 67.6088 128.389 67.6372 128.337C68.2146 127.277 68.2051 126.529 67.5329 126.181C67.3814 126.103 67.2048 126.087 67.0132 126.124C66.5658 124.307 65.3353 123.593 63.8179 122.703C64.3376 122.488 64.9184 121.856 65.2712 121.245C65.2949 121.204 65.3173 121.163 65.338 121.125C65.8293 120.224 65.8232 119.587 65.2552 119.287C64.67 118.981 63.6243 119.797 63.0814 120.794C63.0754 120.805 63.0685 120.818 63.0616 120.83C62.8758 121.184 62.7947 121.712 62.8556 122.119C61.7307 121.377 61.5256 120.602 61.9048 119.907C63.1355 117.648 70.5285 116.225 72.4492 119.409C73.5264 121.198 75.3128 129.055 70.5375 137.818V137.818ZM68.107 134.935C68.0147 135.104 67.9321 135.278 67.8643 135.455C67.6095 136.103 67.6726 137.168 68.068 137.525C68.7305 138.124 69.7315 137.139 70.3192 136.06C70.3942 135.923 70.4616 135.783 70.5223 135.646C71.0504 134.43 70.9818 133.626 70.2419 133.337C69.6061 133.091 68.6723 133.897 68.107 134.935V134.935ZM70.2519 121.247C69.9855 121.736 69.7908 122.356 69.728 122.97C69.6565 123.665 70.0011 124.686 70.4737 124.933C70.9773 125.195 71.4414 124.804 71.7844 124.174C72.0507 123.686 72.2429 123.054 72.3229 122.476C72.5058 121.159 72.2252 120.39 71.4411 120.299C71.0095 120.249 70.5768 120.651 70.2519 121.247" fill="#D1664C"/>
<path d="M64.5187 138.48C64.5107 138.494 64.5035 138.508 64.4955 138.522C63.9377 139.526 62.8062 140.618 62.206 140.037C62.0729 139.905 61.9999 139.673 61.9828 139.406C62.6896 138.482 63.3215 137.539 63.8782 136.606C64.0817 136.534 64.2736 136.522 64.4335 136.588C65.048 136.841 65.0521 137.501 64.5187 138.48" fill="#D29180"/>
<path d="M65.3384 121.124C65.3173 121.163 65.2952 121.203 65.2719 121.243C64.9183 121.856 64.338 122.487 63.8184 122.701C63.5485 122.542 63.2689 122.378 62.9827 122.2C62.9395 122.172 62.8968 122.147 62.8557 122.118C62.7945 121.712 62.8756 121.184 63.0614 120.83C63.0682 120.818 63.0758 120.804 63.0817 120.793C63.6244 119.797 64.6699 118.981 65.2549 119.287C65.8239 119.585 65.8294 120.223 65.3384 121.124" fill="#D29180"/>
<path d="M67.6379 128.336C67.6088 128.389 67.5788 128.444 67.5476 128.498C67.3634 128.814 67.1299 129.132 66.8722 129.413C67.1378 128.229 67.2114 127.252 67.1064 126.589C67.0803 126.426 67.05 126.271 67.0134 126.124C67.2055 126.086 67.3818 126.103 67.5331 126.181C68.2051 126.53 68.2145 127.278 67.6379 128.336" fill="#D29180"/>
<path d="M71.784 124.175C71.4417 124.803 70.978 125.194 70.4744 124.932C70.0016 124.685 69.6571 123.664 69.7284 122.97C69.791 122.356 69.9853 121.737 70.2516 121.248C70.5776 120.65 71.0095 120.249 71.4412 120.3C72.2255 120.39 72.5062 121.158 72.323 122.476C72.243 123.054 72.0502 123.686 71.784 124.175" fill="#D29180"/>
<path d="M70.3199 136.059C69.7321 137.138 68.7306 138.124 68.0686 137.524C67.6735 137.166 67.6103 136.103 67.8645 135.455C67.9326 135.278 68.0153 135.103 68.1077 134.934C68.6727 133.897 69.6068 133.091 70.243 133.336C70.9828 133.624 71.0507 134.43 70.523 135.645C70.462 135.783 70.3943 135.923 70.3199 136.059" fill="#D29180"/>
<path d="M61.4114 145.423C60.8542 145.256 60.3769 144.972 60.0699 144.563C60.3624 144.435 60.6379 144.406 60.8625 144.515C61.2375 144.696 61.4159 145.003 61.4114 145.423Z" fill="#D29180"/>
</g>
<g filter="url(#filter2_d_240_2526)">
<path d="M151.701 60.3282C152.389 63.6314 158.477 71.3531 168.268 74.9644C174.074 77.106 185.989 80.4491 188.979 73.5648C192.488 65.4875 182.71 56.5462 173.945 53.1428C165.178 49.7401 149.113 47.886 151.701 60.3282Z" fill="#7A4C41"/>
<path d="M152.375 63.2374C153.631 66.3439 157.601 72.9628 167.392 76.5741C173.199 78.7166 184.828 81.2843 187.803 74.3916C190.778 67.5001 181.836 58.1556 173.07 54.7529C164.303 51.3489 146.842 49.5543 152.375 63.2374" fill="#C65236"/>
<path d="M172.734 63.5439C173.666 64.1046 174.604 64.74 175.525 65.4511C175.161 65.4752 174.733 65.3968 174.423 65.2387C174.392 65.2218 174.361 65.2062 174.328 65.1884C173.59 64.782 172.931 64.111 172.734 63.5439Z" fill="#E88F78"/>
<path d="M173.64 68.4192C174.072 68.657 174.445 68.9471 174.652 69.2505C173.459 69.4135 172.267 69.6335 171.116 69.9149C170.518 69.4969 170.137 68.9827 170.248 68.5391C170.44 67.7705 171.235 67.5957 172.512 67.9554C172.889 68.0618 173.284 68.2232 173.64 68.4192" fill="#E88F78"/>
<path d="M164.238 67.4068C165.161 67.9152 166.102 68.931 165.471 69.4651C165.138 69.7506 164.266 69.722 163.769 69.4749C163.725 69.4545 163.682 69.4305 163.64 69.4073C162.727 68.9048 162.015 67.985 162.317 67.4482C162.635 66.8886 163.298 66.8943 164.223 67.3986C164.229 67.4019 164.232 67.4035 164.238 67.4068" fill="#E88F78"/>
<path d="M158.831 63.5424C158.954 63.8404 158.938 64.1185 158.705 64.3213C158.598 64.4167 158.435 64.4751 158.244 64.5029C158.272 64.462 158.298 64.4193 158.326 64.3761C158.505 64.0907 158.67 63.8118 158.831 63.5424" fill="#E88F78"/>
<path d="M165.555 60.5184C166.293 61.1956 166.768 62.0292 166.222 62.5106C165.822 62.8608 164.762 62.7976 164.151 62.4678C164.14 62.4619 164.129 62.456 164.12 62.451C163.192 61.9398 162.394 61.0579 162.267 60.363C162.414 60.327 162.569 60.2974 162.733 60.2728C163.395 60.1697 164.373 60.2482 165.555 60.5184" fill="#E88F78"/>
<path d="M182.958 66.5259C184.118 67.1642 185.339 68.4546 184.607 69.1401C184.574 69.1698 184.537 69.1958 184.497 69.2215C183.837 69.1162 183.185 69.0353 182.545 68.9837C182.421 68.974 182.296 68.9634 182.169 68.9556C181.487 68.5304 180.91 67.9313 180.676 67.3879C181.087 67.0834 181.373 66.6072 181.543 66.0509C181.923 66.0584 182.396 66.2182 182.95 66.5212C182.953 66.5228 182.956 66.5243 182.958 66.5259" fill="#E88F78"/>
<path d="M164.063 83.3534C166.118 85.96 172.439 90.6711 182.915 91.3628C189.126 91.7719 201.093 92.5111 202.66 83.7026C203.969 76.3404 191.969 69.7636 182.544 68.9836C173.12 68.2022 155.006 71.8745 164.063 83.3534" fill="#7A4C41"/>
<path d="M164.45 84.4185C166.507 87.0256 171.805 90.5331 182.618 92.9059C188.675 94.2373 200.808 92.4974 201.835 85.0968C202.866 77.6977 191.671 71.3083 182.247 70.527C172.824 69.7476 155.394 72.9396 164.45 84.4185Z" fill="#C65236"/>
<path d="M185.913 77.0698C186.382 77.3282 186.667 77.6693 186.511 78.0577C186.344 78.4687 185.504 78.799 184.9 78.7655C184.286 78.7303 183.648 78.5488 183.174 78.288C182.735 78.0464 182.438 77.7375 182.438 77.4156C182.44 76.7472 183.071 76.4803 184.22 76.5856C184.795 76.6385 185.445 76.8121 185.913 77.0698" fill="#E88F78"/>
<path d="M186.598 82.2704C186.934 82.4553 187.122 82.7235 187.043 83.0852C186.926 83.6051 186.026 84.2143 185.331 84.3378C184.414 84.5019 183.402 84.3872 182.805 84.0581C182.515 83.8989 182.323 83.6903 182.285 83.439C182.166 82.6655 182.839 82.1863 184.169 81.9984C185.007 81.8789 186.022 81.9527 186.598 82.2704" fill="#E88F78"/>
<path d="M183.938 91.0479C183.594 91.3209 182.966 91.4951 182.497 91.4517C181.948 91.4021 181.386 91.2271 180.95 90.987C180.739 90.8711 180.559 90.7397 180.423 90.5997C181.586 90.7992 182.763 90.9465 183.938 91.0479" fill="#E88F78"/>
<path d="M177.701 85.2447C178.141 85.4868 178.395 85.8199 178.195 86.207C178.161 86.2752 178.108 86.3415 178.039 86.4044C177.765 86.3684 177.496 86.3357 177.234 86.3046C176.32 86.198 175.419 86.0752 174.52 85.9378C174.48 85.845 174.465 85.7499 174.476 85.6533C174.555 85.0169 175.172 84.7533 176.232 84.8376C176.74 84.8786 177.299 85.0234 177.701 85.2447" fill="#E88F78"/>
<path d="M169.32 83.2372C169.808 83.5055 170.102 83.8698 169.899 84.2766C169.699 84.6813 168.846 84.9957 168.258 84.9539C167.704 84.914 167.14 84.747 166.712 84.5113C166.252 84.2581 165.947 83.9234 165.979 83.5803C166.041 82.9182 166.684 82.6635 167.798 82.7829C168.318 82.8396 168.894 83.0024 169.32 83.2372" fill="#E88F78"/>
<path d="M175.503 78.3655C176.086 78.6865 176.439 79.1199 176.202 79.6039C175.966 80.083 174.953 80.4524 174.255 80.3997C173.6 80.3501 172.932 80.1524 172.422 79.8716C171.871 79.568 171.505 79.1682 171.54 78.759C171.612 77.9738 172.373 77.6725 173.698 77.8217C174.313 77.8912 174.994 78.0855 175.503 78.3655" fill="#E88F78"/>
<path d="M168.862 75.916C169.125 76.0608 169.276 76.2804 169.248 76.5888C169.198 77.1173 168.378 77.8376 167.7 78.0502C166.714 78.3624 165.569 78.3528 164.96 78.0177C164.754 77.9044 164.608 77.753 164.554 77.5622C164.338 76.8146 164.948 76.253 166.247 75.8924C167.145 75.6431 168.279 75.5947 168.862 75.916" fill="#E88F78"/>
<path d="M181.375 72.7311C181.822 72.9774 182.077 73.32 181.924 73.7435C181.74 74.2444 180.771 74.727 180.07 74.7548C179.273 74.7868 178.435 74.6051 177.867 74.2924C177.456 74.0664 177.189 73.7722 177.182 73.4425C177.167 72.6569 177.893 72.2712 179.23 72.2671C179.969 72.2632 180.818 72.4246 181.375 72.7311" fill="#E88F78"/>
<path d="M192.65 75.048C193.891 75.7317 194.985 76.6599 196.096 77.5385C197.072 78.3137 198.059 79.0284 198.788 80.0677C199.872 81.6115 200.149 84.0476 199.551 85.8851C198.86 88.0045 196.494 89.3659 194.481 89.8685C191.341 90.6532 188.297 91.3313 185.066 91.1311C184.69 91.1084 184.314 91.0816 183.937 91.0476C184.031 90.9739 184.104 90.8918 184.145 90.8044C184.343 90.3899 184.023 90.0119 183.509 89.7285C183.075 89.4897 182.502 89.3172 181.985 89.2522C180.854 89.1057 180.209 89.3485 180.161 90.0162C180.145 90.2162 180.245 90.4166 180.423 90.5996C179.464 90.4362 178.513 90.2368 177.582 89.9999C176.754 89.7885 175.856 89.6516 175.065 89.375C174.66 89.2353 174.115 88.8766 173.722 88.8482L171.773 88.0578C171.219 87.6413 169.963 86.7552 170.6 85.8541C171.032 85.2406 172.234 85.5536 172.805 85.6538C173.377 85.7549 173.948 85.8494 174.518 85.937C174.61 86.1501 174.827 86.346 175.116 86.5052C175.523 86.7292 176.07 86.8798 176.61 86.9012C177.074 86.9212 177.715 86.7025 178.038 86.4043C180.852 86.7643 184.171 87.2678 186.778 86.0391C188.625 85.1707 190.463 83.5665 190.196 81.3495C190.019 79.8856 189.152 78.7139 188.266 77.6154C187.654 76.8553 187.429 75.8711 187.809 74.8856C188.61 72.8109 191.118 74.2714 192.302 74.8651C192.42 74.9228 192.535 74.9847 192.65 75.048V75.048ZM192.028 78.5244C192.557 78.8155 193.272 79.0127 193.97 79.0445C194.669 79.0757 195.671 78.6749 195.892 78.1894C196.106 77.7211 195.783 77.317 195.242 77.0189C194.718 76.7301 193.988 76.539 193.336 76.4859C192.007 76.3794 191.254 76.701 191.206 77.4888C191.183 77.8764 191.518 78.2434 192.028 78.5244V78.5244ZM194.665 84.2887C195.263 84.6181 196.275 84.7328 197.193 84.5689C197.889 84.4443 198.79 83.8356 198.905 83.3168C198.985 82.955 198.796 82.6867 198.46 82.5017C197.883 82.1841 196.869 82.1107 196.029 82.2283C194.7 82.4174 194.026 82.8961 194.145 83.6696C194.184 83.9211 194.377 84.1303 194.665 84.2887V84.2887ZM189.904 88.6047C190.502 88.934 191.514 89.0486 192.431 88.8849C193.127 88.7616 194.028 88.1528 194.144 87.6328C194.223 87.2709 194.035 87.0027 193.699 86.8177C193.122 86.5 192.108 86.4265 191.267 86.5443C189.939 86.7332 189.266 87.2127 189.385 87.9863C189.424 88.2379 189.616 88.4462 189.904 88.6047" fill="#D1664C"/>
<path d="M198.46 82.5017C198.797 82.687 198.985 82.9551 198.905 83.3169C198.789 83.8354 197.889 84.4442 197.193 84.5693C196.276 84.7333 195.264 84.6184 194.666 84.2892C194.378 84.1307 194.185 83.9216 194.145 83.6698C194.027 82.8964 194.7 82.4173 196.03 82.2291C196.869 82.1105 197.883 82.1841 198.46 82.5017" fill="#D29180"/>
<path d="M193.701 86.8184C194.036 87.003 194.225 87.2716 194.145 87.633C194.028 88.1528 193.128 88.7618 192.433 88.8854C191.515 89.0493 190.503 88.9343 189.905 88.6052C189.617 88.4468 189.425 88.2381 189.387 87.9871C189.268 87.2131 189.941 86.734 191.269 86.5451C192.108 86.4265 193.123 86.5002 193.701 86.8184Z" fill="#D29180"/>
<path d="M183.509 89.7284C184.024 90.012 184.344 90.3905 184.145 90.8045C184.104 90.8917 184.03 90.9735 183.938 91.0481C182.763 90.9467 181.586 90.7992 180.423 90.5994C180.245 90.4165 180.145 90.2166 180.16 90.0159C180.209 89.3491 180.854 89.1059 181.985 89.2523C182.503 89.3178 183.075 89.4899 183.509 89.7284" fill="#D29180"/>
<path d="M178.039 86.4048C177.716 86.7031 177.075 86.9217 176.612 86.9022C176.07 86.8801 175.523 86.7291 175.116 86.5051C174.828 86.3465 174.61 86.1503 174.52 85.9376C175.42 86.0759 176.32 86.198 177.234 86.3048C177.496 86.3357 177.765 86.369 178.039 86.4048" fill="#D29180"/>
<path d="M195.241 77.018C195.783 77.3168 196.105 77.7207 195.893 78.1895C195.671 78.6748 194.668 79.075 193.969 79.0441C193.272 79.0126 192.557 78.815 192.027 78.5236C191.517 78.2425 191.182 77.8756 191.206 77.4887C191.253 76.7004 192.006 76.3786 193.335 76.4856C193.987 76.5384 194.717 76.7296 195.241 77.018" fill="#D29180"/>
<path d="M173.977 56.8901C176.184 58.1056 178.445 59.7384 180.681 61.9083C181.653 62.8507 181.955 64.6882 181.542 66.0504C181.122 66.0441 180.813 66.2207 180.631 66.5952C180.521 66.8191 180.548 67.0945 180.674 67.3871C180.047 67.8543 179.131 67.9198 177.918 67.2517C177.504 67.0241 177.057 66.7124 176.576 66.3022C176.229 66.0065 175.879 65.7235 175.527 65.4518C175.793 65.4354 176.026 65.3636 176.156 65.2304C176.742 64.6338 175.654 63.4964 174.653 62.9347C174.639 62.9269 174.625 62.9191 174.611 62.9113C173.634 62.3735 172.973 62.3745 172.718 62.988C172.652 63.1482 172.662 63.3395 172.734 63.5441C172.399 63.342 172.068 63.1522 171.737 62.9698C169.467 61.7196 167.291 60.913 165.555 60.5182C165.274 60.2592 164.957 60.0245 164.642 59.8386C164.59 59.8076 164.534 59.7772 164.482 59.7485C163.425 59.1664 162.678 59.1726 162.327 59.8433C162.248 59.9944 162.231 60.1709 162.267 60.3627C160.448 60.802 159.729 62.0294 158.832 63.5429C158.619 63.0222 157.99 62.4386 157.38 62.0831C157.34 62.0592 157.299 62.0366 157.261 62.0158C156.362 61.5205 155.724 61.5238 155.423 62.0904C155.113 62.6743 155.926 63.7236 156.919 64.2709C156.931 64.277 156.943 64.2839 156.956 64.2909C157.309 64.4782 157.837 64.5617 158.244 64.5025C157.496 65.6242 156.721 65.8258 156.027 65.4436C153.774 64.2029 152.384 56.8037 155.576 54.8971C157.37 53.8278 165.235 52.0761 173.977 56.8901V56.8901ZM171.082 59.3079C171.251 59.4009 171.425 59.4843 171.601 59.5529C172.249 59.8106 173.313 59.7521 173.672 59.3584C174.274 58.6984 173.294 57.6932 172.218 57.1006C172.081 57.0251 171.941 56.9571 171.804 56.8958C170.591 56.3623 169.786 56.4273 169.494 57.1659C169.246 57.8006 170.047 58.738 171.082 59.3079V59.3079ZM157.405 57.1025C157.892 57.371 158.511 57.5685 159.125 57.634C159.82 57.7085 160.842 57.3685 161.091 56.8969C161.356 56.3945 160.966 55.9287 160.339 55.583C159.851 55.3145 159.22 55.1195 158.643 55.037C157.326 54.8482 156.556 55.1254 156.462 55.9091C156.41 56.3405 156.81 56.775 157.405 57.1025" fill="#D1664C"/>
<path d="M174.611 62.9118C174.626 62.9199 174.639 62.9272 174.654 62.9352C175.655 63.4974 176.742 64.6338 176.158 65.2314C176.026 65.3639 175.793 65.4358 175.527 65.4518C174.605 64.7409 173.666 64.1048 172.734 63.5441C172.663 63.3402 172.652 63.1483 172.719 62.9887C172.975 62.3753 173.635 62.374 174.611 62.9118" fill="#D29180"/>
<path d="M157.26 62.0155C157.298 62.0368 157.339 62.059 157.378 62.0825C157.99 62.4388 158.618 63.0219 158.83 63.5425C158.67 63.8116 158.504 64.0905 158.325 64.3759C158.297 64.4189 158.271 64.4616 158.243 64.5025C157.836 64.5619 157.309 64.4785 156.956 64.2911C156.943 64.2843 156.929 64.2766 156.918 64.2706C155.925 63.7236 155.113 62.6745 155.423 62.0908C155.723 61.5232 156.361 61.5205 157.26 62.0155" fill="#D29180"/>
<path d="M164.481 59.7481C164.534 59.7775 164.589 59.8077 164.643 59.8391C164.958 60.0247 165.275 60.2597 165.555 60.5186C164.373 60.2477 163.395 60.1698 162.732 60.2719C162.569 60.2973 162.413 60.3269 162.267 60.3628C162.23 60.1706 162.247 59.9944 162.326 59.8434C162.678 59.1729 163.425 59.1669 164.481 59.7481" fill="#D29180"/>
<path d="M160.339 55.5836C160.966 55.9286 161.355 56.3941 161.09 56.8965C160.841 57.3682 159.819 57.7082 159.124 57.6338C158.511 57.5685 157.892 57.3715 157.405 57.103C156.808 56.7744 156.41 56.3407 156.462 55.9092C156.556 55.1253 157.325 54.848 158.642 55.0371C159.22 55.1196 159.852 55.3152 160.339 55.5836" fill="#D29180"/>
<path d="M172.217 57.1003C173.293 57.6929 174.274 58.6988 173.671 59.3581C173.312 59.7516 172.248 59.8101 171.601 59.553C171.425 59.4841 171.25 59.4006 171.081 59.3075C170.047 58.738 169.245 57.8003 169.493 57.1652C169.785 56.4266 170.59 56.3623 171.803 56.8953C171.94 56.957 172.08 57.0253 172.217 57.1003" fill="#D29180"/>
<path d="M181.542 66.0502C181.372 66.6067 181.086 67.0827 180.675 67.3879C180.548 67.0948 180.521 66.8193 180.631 66.5951C180.813 66.2209 181.121 66.0438 181.542 66.0502Z" fill="#D29180"/>
</g>
<g filter="url(#filter3_d_240_2526)">
<path d="M210.059 99.2503C206.858 100.317 199.896 107.261 197.447 117.406C195.995 123.421 194.06 135.644 201.245 137.814C209.675 140.36 217.419 129.609 219.781 120.508C222.142 111.405 222.116 95.2329 210.059 99.2503Z" fill="#7A4C41"/>
<path d="M207.248 100.257C204.308 101.866 198.196 106.578 195.747 116.723C194.294 122.739 193.095 134.588 200.287 136.742C207.478 138.895 215.72 128.928 218.08 119.825C220.442 110.723 220.195 93.1708 207.248 100.257" fill="#C65236"/>
<path d="M209.31 120.514C208.861 121.504 208.339 122.51 207.74 123.508C207.674 123.149 207.702 122.714 207.823 122.388C207.836 122.356 207.848 122.322 207.862 122.288C208.18 121.508 208.769 120.775 209.31 120.514Z" fill="#E88F78"/>
<path d="M204.573 121.98C204.386 122.437 204.142 122.841 203.864 123.082C203.564 121.916 203.207 120.758 202.794 119.647C203.139 119.005 203.606 118.567 204.059 118.625C204.845 118.727 205.111 119.496 204.902 120.806C204.84 121.192 204.726 121.604 204.573 121.98" fill="#E88F78"/>
<path d="M204.485 112.524C204.088 113.5 203.188 114.553 202.584 113.988C202.262 113.69 202.189 112.821 202.377 112.299C202.392 112.253 202.411 112.207 202.429 112.163C202.822 111.198 203.653 110.384 204.221 110.621C204.813 110.871 204.885 111.531 204.492 112.508C204.489 112.515 204.488 112.518 204.485 112.524" fill="#E88F78"/>
<path d="M207.695 106.705C207.413 106.862 207.135 106.878 206.907 106.67C206.8 106.576 206.723 106.42 206.673 106.234C206.717 106.257 206.762 106.278 206.808 106.3C207.112 106.445 207.409 106.577 207.695 106.705" fill="#E88F78"/>
<path d="M211.48 113.032C210.894 113.844 210.121 114.413 209.579 113.926C209.185 113.57 209.124 112.51 209.381 111.864C209.386 111.853 209.39 111.841 209.394 111.832C209.794 110.85 210.577 109.955 211.252 109.748C211.305 109.89 211.353 110.041 211.396 110.201C211.576 110.846 211.611 111.827 211.48 113.032" fill="#E88F78"/>
<path d="M207.537 131.015C207.037 132.241 205.898 133.604 205.132 132.956C205.098 132.927 205.068 132.894 205.038 132.857C205.066 132.189 205.07 131.532 205.047 130.89C205.042 130.766 205.038 130.641 205.032 130.514C205.375 129.787 205.903 129.145 206.415 128.848C206.765 129.222 207.271 129.451 207.844 129.555C207.88 129.933 207.777 130.422 207.54 131.006C207.539 131.009 207.538 131.012 207.537 131.015" fill="#E88F78"/>
<path d="M188.627 114.204C186.277 116.548 182.332 123.374 182.863 133.859C183.179 140.076 183.835 152.048 192.766 152.58C200.231 153.025 205.368 140.341 205.047 130.89C204.728 121.439 198.975 103.874 188.627 114.204" fill="#7A4C41"/>
<path d="M187.613 114.712C185.263 117.058 182.395 122.729 181.295 133.743C180.677 139.914 183.816 151.763 191.285 151.923C198.754 152.086 203.799 140.225 203.48 130.774C203.158 121.325 197.962 104.384 187.613 114.712Z" fill="#C65236"/>
<path d="M197.407 135.175C197.205 135.672 196.899 135.994 196.495 135.884C196.068 135.766 195.642 134.97 195.605 134.366C195.569 133.752 195.675 133.098 195.879 132.597C196.068 132.133 196.34 131.802 196.66 131.765C197.324 131.689 197.662 132.284 197.691 133.438C197.705 134.015 197.609 134.681 197.407 135.175" fill="#E88F78"/>
<path d="M192.322 136.461C192.177 136.816 191.933 137.034 191.564 136.997C191.034 136.942 190.325 136.119 190.121 135.443C189.852 134.551 189.848 133.532 190.105 132.901C190.23 132.595 190.415 132.38 190.66 132.312C191.414 132.104 191.968 132.717 192.31 134.017C192.526 134.834 192.57 135.851 192.322 136.461" fill="#E88F78"/>
<path d="M183.294 134.838C182.983 134.529 182.737 133.925 182.726 133.455C182.711 132.903 182.82 132.324 183.008 131.864C183.098 131.641 183.208 131.446 183.331 131.296C183.268 132.474 183.259 133.66 183.294 134.838" fill="#E88F78"/>
<path d="M188.333 127.97C188.144 128.434 187.843 128.726 187.435 128.572C187.363 128.546 187.291 128.501 187.221 128.44C187.224 128.164 187.226 127.893 187.226 127.629C187.226 126.709 187.243 125.8 187.275 124.891C187.363 124.84 187.455 124.814 187.552 124.814C188.194 124.818 188.527 125.401 188.567 126.463C188.585 126.973 188.506 127.545 188.333 127.97" fill="#E88F78"/>
<path d="M189.353 119.412C189.143 119.927 188.815 120.263 188.388 120.108C187.962 119.956 187.551 119.145 187.524 118.557C187.499 118.002 187.6 117.422 187.784 116.97C187.982 116.484 188.279 116.141 188.624 116.134C189.288 116.118 189.616 116.727 189.627 117.847C189.631 118.371 189.536 118.961 189.353 119.412" fill="#E88F78"/>
<path d="M194.91 124.987C194.659 125.603 194.27 126.004 193.762 125.825C193.258 125.647 192.774 124.683 192.745 123.984C192.718 123.327 192.837 122.641 193.056 122.102C193.294 121.519 193.648 121.109 194.059 121.096C194.847 121.077 195.235 121.798 195.241 123.131C195.243 123.75 195.129 124.449 194.91 124.987" fill="#E88F78"/>
<path d="M196.571 118.106C196.458 118.384 196.257 118.56 195.948 118.568C195.417 118.58 194.606 117.849 194.316 117.2C193.892 116.257 193.768 115.118 194.03 114.475C194.119 114.258 194.252 114.095 194.435 114.019C195.153 113.717 195.782 114.258 196.291 115.507C196.643 116.369 196.823 117.489 196.571 118.106" fill="#E88F78"/>
<path d="M201.189 130.164C200.996 130.637 200.685 130.93 200.247 130.827C199.728 130.703 199.136 129.797 199.027 129.103C198.903 128.315 198.986 127.462 199.23 126.861C199.407 126.427 199.668 126.128 199.995 126.082C200.773 125.976 201.241 126.653 201.4 127.98C201.49 128.713 201.428 129.575 201.189 130.164" fill="#E88F78"/>
<path d="M200.199 141.632C199.664 142.944 198.869 144.139 198.126 145.344C197.469 146.404 196.874 147.467 195.927 148.312C194.519 149.568 192.132 150.126 190.237 149.745C188.052 149.306 186.425 147.114 185.692 145.173C184.547 142.146 183.52 139.201 183.343 135.969C183.322 135.593 183.305 135.216 183.295 134.838C183.379 134.923 183.469 134.986 183.561 135.016C183.995 135.165 184.334 134.803 184.555 134.259C184.742 133.801 184.847 133.211 184.851 132.69C184.865 131.55 184.549 130.937 183.88 130.967C183.68 130.975 183.492 131.097 183.331 131.296C183.382 130.324 183.47 129.357 183.597 128.404C183.711 127.558 183.742 126.65 183.925 125.831C184.017 125.413 184.309 124.83 184.292 124.437L184.85 122.409C185.2 121.81 185.934 120.46 186.903 120.988C187.562 121.345 187.391 122.575 187.358 123.154C187.324 123.734 187.297 124.312 187.276 124.889C187.075 125.004 186.906 125.243 186.781 125.548C186.606 125.979 186.52 126.539 186.561 127.079C186.596 127.541 186.887 128.153 187.221 128.439C187.191 131.276 187.076 134.631 188.6 137.078C189.677 138.811 191.484 140.45 193.655 139.927C195.088 139.581 196.151 138.583 197.139 137.576C197.823 136.88 198.774 136.542 199.797 136.805C201.951 137.36 200.792 140.02 200.34 141.265C200.296 141.389 200.248 141.51 200.199 141.632V141.632ZM196.674 141.419C196.446 141.978 196.333 142.711 196.383 143.407C196.433 144.105 196.948 145.054 197.456 145.217C197.946 145.375 198.309 145.008 198.543 144.435C198.768 143.881 198.873 143.134 198.85 142.48C198.802 141.148 198.395 140.437 197.607 140.481C197.219 140.503 196.893 140.879 196.674 141.419V141.419ZM191.255 144.707C190.997 145.34 191.001 146.358 191.27 147.25C191.475 147.928 192.184 148.751 192.713 148.806C193.082 148.843 193.326 148.624 193.471 148.269C193.719 147.659 193.674 146.643 193.46 145.822C193.118 144.525 192.564 143.911 191.809 144.119C191.564 144.187 191.379 144.403 191.255 144.707V144.707ZM186.415 140.48C186.157 141.112 186.161 142.131 186.43 143.023C186.634 143.7 187.343 144.523 187.873 144.579C188.242 144.615 188.486 144.397 188.631 144.042C188.879 143.432 188.834 142.416 188.62 141.595C188.278 140.297 187.723 139.685 186.969 139.893C186.723 139.961 186.539 140.176 186.415 140.48" fill="#D1664C"/>
<path d="M193.471 148.269C193.326 148.625 193.081 148.843 192.713 148.806C192.184 148.751 191.475 147.928 191.27 147.251C191 146.359 190.997 145.34 191.254 144.708C191.378 144.404 191.563 144.188 191.809 144.12C192.563 143.912 193.117 144.525 193.459 145.824C193.674 146.644 193.719 147.66 193.471 148.269" fill="#D29180"/>
<path d="M188.63 144.044C188.486 144.398 188.241 144.617 187.873 144.58C187.343 144.524 186.633 143.701 186.43 143.025C186.161 142.133 186.157 141.113 186.414 140.481C186.538 140.177 186.723 139.962 186.968 139.895C187.723 139.686 188.277 140.299 188.619 141.597C188.834 142.417 188.879 143.433 188.63 144.044Z" fill="#D29180"/>
<path d="M184.555 134.259C184.334 134.804 183.995 135.166 183.561 135.016C183.469 134.986 183.379 134.922 183.294 134.839C183.259 133.661 183.268 132.474 183.332 131.295C183.493 131.097 183.68 130.975 183.881 130.967C184.549 130.938 184.865 131.551 184.851 132.69C184.846 133.212 184.742 133.801 184.555 134.259" fill="#D29180"/>
<path d="M187.22 128.44C186.886 128.155 186.595 127.543 186.56 127.081C186.519 126.54 186.606 125.979 186.781 125.549C186.905 125.245 187.074 125.005 187.275 124.891C187.242 125.801 187.226 126.709 187.226 127.629C187.226 127.893 187.224 128.164 187.22 128.44" fill="#D29180"/>
<path d="M198.543 144.434C198.309 145.007 197.946 145.374 197.455 145.217C196.948 145.054 196.434 144.104 196.383 143.406C196.333 142.711 196.446 141.977 196.674 141.417C196.894 140.878 197.22 140.502 197.607 140.481C198.395 140.436 198.802 141.147 198.85 142.479C198.874 143.133 198.769 143.88 198.543 144.434" fill="#D29180"/>
<path d="M216.063 120.974C215.112 123.308 213.753 125.743 211.858 128.217C211.035 129.292 209.245 129.805 207.844 129.553C207.801 129.135 207.59 128.849 207.197 128.712C206.962 128.628 206.691 128.687 206.415 128.847C205.878 128.278 205.707 127.376 206.229 126.093C206.407 125.656 206.665 125.176 207.016 124.65C207.27 124.271 207.51 123.89 207.739 123.509C207.786 123.771 207.885 123.994 208.032 124.109C208.693 124.621 209.696 123.408 210.138 122.349C210.144 122.334 210.15 122.319 210.156 122.304C210.577 121.271 210.499 120.615 209.86 120.433C209.693 120.386 209.504 120.418 209.309 120.514C209.471 120.158 209.621 119.807 209.764 119.456C210.742 117.056 211.29 114.802 211.48 113.032C211.705 112.723 211.901 112.381 212.049 112.046C212.074 111.99 212.098 111.932 212.12 111.877C212.575 110.759 212.482 110.017 211.775 109.747C211.616 109.686 211.439 109.689 211.252 109.748C210.605 107.992 209.302 107.421 207.694 106.705C208.187 106.433 208.693 105.741 208.976 105.094C208.995 105.051 209.012 105.008 209.029 104.968C209.416 104.017 209.339 103.384 208.741 103.151C208.125 102.911 207.177 103.84 206.749 104.891C206.744 104.902 206.739 104.916 206.733 104.929C206.589 105.302 206.567 105.836 206.673 106.233C205.472 105.621 205.182 104.875 205.481 104.141C206.451 101.759 213.638 99.5177 215.903 102.467C217.174 104.124 219.828 111.732 216.063 120.974V120.974ZM213.325 118.381C213.252 118.559 213.189 118.742 213.142 118.925C212.961 119.598 213.143 120.648 213.576 120.959C214.301 121.48 215.186 120.389 215.649 119.252C215.708 119.107 215.759 118.96 215.804 118.817C216.193 117.55 216.035 116.758 215.268 116.555C214.608 116.381 213.771 117.287 213.325 118.381V118.381ZM213.925 104.539C213.715 105.055 213.591 105.693 213.597 106.31C213.604 107.009 214.061 107.984 214.558 108.177C215.088 108.381 215.505 107.941 215.776 107.277C215.986 106.761 216.106 106.112 216.121 105.529C216.155 104.199 215.79 103.467 215.001 103.465C214.567 103.463 214.181 103.91 213.925 104.539" fill="#D1664C"/>
<path d="M210.156 122.305C210.149 122.32 210.144 122.334 210.137 122.35C209.695 123.41 208.693 124.621 208.032 124.111C207.885 123.995 207.786 123.773 207.739 123.509C208.338 122.512 208.861 121.504 209.31 120.514C209.504 120.42 209.693 120.387 209.859 120.435C210.498 120.617 210.576 121.272 210.156 122.305" fill="#D29180"/>
<path d="M209.029 104.966C209.012 105.007 208.995 105.05 208.976 105.092C208.693 105.741 208.187 106.433 207.695 106.704C207.409 106.576 207.113 106.444 206.808 106.299C206.762 106.276 206.717 106.256 206.673 106.232C206.567 105.835 206.588 105.302 206.733 104.929C206.739 104.916 206.745 104.901 206.749 104.89C207.177 103.839 208.125 102.911 208.741 103.151C209.339 103.383 209.416 104.016 209.029 104.966" fill="#D29180"/>
<path d="M212.12 111.876C212.097 111.932 212.074 111.99 212.049 112.048C211.901 112.382 211.704 112.724 211.48 113.032C211.611 111.826 211.575 110.846 211.397 110.199C211.353 110.04 211.305 109.89 211.252 109.748C211.439 109.689 211.616 109.686 211.775 109.747C212.482 110.018 212.575 110.76 212.12 111.876" fill="#D29180"/>
<path d="M215.775 107.278C215.505 107.94 215.088 108.381 214.559 108.176C214.061 107.983 213.605 107.008 213.598 106.31C213.591 105.693 213.715 105.056 213.925 104.54C214.182 103.909 214.567 103.463 215.001 103.465C215.791 103.467 216.156 104.199 216.121 105.529C216.106 106.112 215.985 106.762 215.775 107.278" fill="#D29180"/>
<path d="M215.649 119.251C215.186 120.389 214.301 121.48 213.576 120.958C213.143 120.647 212.962 119.597 213.142 118.925C213.19 118.742 213.252 118.559 213.325 118.38C213.771 117.286 214.609 116.381 215.268 116.553C216.036 116.757 216.193 117.55 215.805 118.816C215.76 118.96 215.708 119.107 215.649 119.251" fill="#D29180"/>
<path d="M207.844 129.553C207.272 129.449 206.766 129.22 206.415 128.848C206.691 128.688 206.961 128.628 207.197 128.712C207.59 128.849 207.801 129.135 207.844 129.553Z" fill="#D29180"/>
</g>
<g filter="url(#filter4_d_240_2526)">
<path d="M47.1396 98.6304C44.8328 100.869 40.9987 107.423 41.6639 117.579C42.0592 123.6 42.8693 135.196 51.7595 135.828C59.19 136.356 64.1338 124.147 63.6911 114.995C63.2498 105.844 57.2976 88.7684 47.1396 98.6304" fill="#7A4C41"/>
<path d="M46.1386 99.1092C43.8315 101.349 41.0531 106.8 40.1033 117.446C39.5691 123.41 42.8459 134.919 50.2781 135.172C57.7091 135.428 62.5718 124.014 62.1304 114.863C61.6871 105.713 56.2967 89.2478 46.1386 99.1092Z" fill="#C65236"/>
<path d="M56.1477 119.043C55.9531 119.521 55.6534 119.829 55.2501 119.717C54.8233 119.597 54.3894 118.821 54.3448 118.236C54.3005 117.642 54.3975 117.009 54.5938 116.527C54.7757 116.081 55.0421 115.764 55.3597 115.732C56.0192 115.667 56.3636 116.248 56.4076 117.365C56.4294 117.924 56.3417 118.567 56.1477 119.043" fill="#E88F78"/>
<path d="M51.1063 120.221C50.9671 120.562 50.7267 120.77 50.3598 120.73C49.8319 120.669 49.1152 119.863 48.904 119.206C48.6242 118.34 48.6072 117.354 48.8549 116.746C48.9748 116.452 49.1558 116.246 49.3988 116.184C50.1464 115.992 50.7057 116.592 51.0622 117.855C51.2878 118.649 51.3455 119.634 51.1063 120.221" fill="#E88F78"/>
<path d="M42.106 118.532C41.7925 118.229 41.5397 117.641 41.5224 117.186C41.5006 116.651 41.601 116.093 41.7817 115.649C41.869 115.435 41.9753 115.248 42.096 115.104C42.0487 116.243 42.0549 117.391 42.106 118.532" fill="#E88F78"/>
<path d="M47.028 111.95C46.8457 112.397 46.5499 112.676 46.1423 112.521C46.0706 112.495 45.9985 112.451 45.9275 112.391C45.9277 112.123 45.9255 111.861 45.9224 111.606C45.9101 110.715 45.9152 109.835 45.9352 108.956C46.0216 108.908 46.1134 108.884 46.2101 108.886C46.848 108.898 47.1874 109.467 47.2406 110.495C47.2656 110.989 47.1946 111.541 47.028 111.95" fill="#E88F78"/>
<path d="M47.9303 103.681C47.7284 104.177 47.4069 104.497 46.9795 104.342C46.5545 104.189 46.1347 103.399 46.1004 102.829C46.0684 102.291 46.1607 101.732 46.3381 101.296C46.5287 100.829 46.8195 100.501 47.1622 100.498C47.8232 100.491 48.1572 101.085 48.1826 102.17C48.1937 102.677 48.1071 103.247 47.9303 103.681" fill="#E88F78"/>
<path d="M53.5309 109.149C53.2893 109.742 52.9071 110.125 52.3993 109.945C51.8964 109.766 51.4016 108.827 51.364 108.151C51.3285 107.514 51.4377 106.852 51.6491 106.333C51.8777 105.772 52.225 105.379 52.633 105.372C53.4169 105.364 53.812 106.067 53.8353 107.358C53.8458 107.957 53.7417 108.631 53.5309 109.149" fill="#E88F78"/>
<path d="M55.0928 102.511C54.9837 102.779 54.7866 102.946 54.4788 102.95C53.951 102.955 53.135 102.237 52.8381 101.605C52.4033 100.687 52.2655 99.5829 52.5177 98.9638C52.603 98.7544 52.7336 98.5984 52.9148 98.5275C53.6244 98.2447 54.2569 98.7761 54.7797 99.9917C55.1411 100.831 55.3346 101.918 55.0928 102.511" fill="#E88F78"/>
<path d="M59.8439 114.242C59.6585 114.697 59.3534 114.977 58.9158 114.871C58.3982 114.745 57.7976 113.86 57.6799 113.187C57.5457 112.423 57.6172 111.598 57.8526 111.02C58.0228 110.602 58.2785 110.316 58.6029 110.276C59.3759 110.183 59.8497 110.845 60.0257 112.131C60.1246 112.842 60.0747 113.676 59.8439 114.242" fill="#E88F78"/>
<path d="M59.0092 125.329C58.4945 126.592 57.7196 127.738 56.9957 128.894C56.3567 129.912 55.7785 130.932 54.8472 131.739C53.4638 132.936 51.0964 133.444 49.207 133.051C47.0275 132.597 45.3803 130.455 44.6257 128.566C43.4478 125.621 42.3873 122.758 42.1692 119.627C42.1433 119.263 42.1213 118.898 42.1064 118.532C42.1912 118.615 42.2816 118.677 42.373 118.708C42.8075 118.858 43.1392 118.512 43.3525 117.988C43.5323 117.547 43.6286 116.977 43.6263 116.474C43.6254 115.37 43.3028 114.773 42.638 114.793C42.4388 114.798 42.2539 114.914 42.0963 115.104C42.1342 114.164 42.2086 113.229 42.3225 112.309C42.4246 111.491 42.4441 110.613 42.6151 109.823C42.7009 109.419 42.9846 108.859 42.9621 108.478L43.491 106.522C43.8306 105.948 44.5432 104.65 45.5139 105.174C46.1746 105.529 46.0205 106.717 45.9951 107.277C45.969 107.838 45.9491 108.396 45.936 108.954C45.7376 109.064 45.5723 109.292 45.4525 109.586C45.2839 110 45.2056 110.542 45.254 111.065C45.2939 111.513 45.5922 112.109 45.9279 112.39C45.9347 115.136 45.865 118.381 47.4123 120.769C48.5064 122.461 50.3252 124.071 52.4776 123.593C53.8989 123.277 54.9431 122.325 55.9127 121.363C56.5838 120.698 57.5257 120.384 58.5467 120.652C60.6962 121.217 59.5781 123.776 59.1448 124.975C59.103 125.094 59.0568 125.212 59.0092 125.329V125.329ZM55.5001 125.076C55.2809 125.614 55.1783 126.322 55.2367 126.997C55.2959 127.674 55.8202 128.598 56.3275 128.763C56.8169 128.922 57.174 128.572 57.3984 128.021C57.6158 127.487 57.7106 126.765 57.679 126.132C57.6131 124.842 57.1991 124.149 56.4158 124.181C56.0305 124.198 55.7116 124.557 55.5001 125.076V125.076ZM50.1532 128.188C49.9053 128.797 49.9223 129.783 50.202 130.65C50.4144 131.308 51.1307 132.115 51.6573 132.174C52.0244 132.215 52.2648 132.007 52.4041 131.665C52.6432 131.078 52.5852 130.094 52.361 129.296C52.0036 128.036 51.4448 127.435 50.6971 127.626C50.4539 127.689 50.2725 127.896 50.1532 128.188V128.188ZM45.2835 124.033C45.0356 124.642 45.0528 125.628 45.3323 126.495C45.5433 127.153 46.2597 127.959 46.7876 128.02C47.1547 128.06 47.3951 127.852 47.5344 127.51C47.7735 126.923 47.7157 125.939 47.4913 125.141C47.1341 123.881 46.5747 123.281 45.8268 123.473C45.5837 123.535 45.4028 123.741 45.2835 124.033" fill="#D1664C"/>
<path d="M52.4034 131.665C52.264 132.007 52.0236 132.215 51.6566 132.175C51.1302 132.114 50.4139 131.308 50.201 130.651C49.9212 129.784 49.9044 128.798 50.1523 128.189C50.2716 127.897 50.4529 127.69 50.6963 127.627C51.4439 127.436 52.003 128.036 52.3598 129.298C52.5847 130.094 52.6426 131.078 52.4034 131.665" fill="#D29180"/>
<path d="M47.5339 127.512C47.3949 127.853 47.1543 128.061 46.7876 128.021C46.2597 127.96 45.5432 127.154 45.332 126.497C45.0523 125.63 45.0354 124.643 45.2832 124.035C45.4024 123.742 45.5835 123.536 45.8263 123.475C46.5744 123.283 47.1335 123.883 47.4907 125.143C47.7157 125.939 47.7735 126.924 47.5339 127.512Z" fill="#D29180"/>
<path d="M43.3526 117.988C43.1391 118.512 42.807 118.859 42.373 118.708C42.2817 118.677 42.1916 118.614 42.106 118.533C42.0551 117.392 42.0491 116.243 42.0965 115.104C42.2541 114.914 42.4385 114.799 42.6383 114.793C43.3025 114.774 43.6253 115.371 43.6263 116.474C43.6282 116.979 43.5322 117.547 43.3526 117.988" fill="#D29180"/>
<path d="M45.9272 112.391C45.5915 112.11 45.2933 111.514 45.2531 111.067C45.2051 110.543 45.2837 110.001 45.4523 109.587C45.5717 109.294 45.7372 109.064 45.9354 108.956C45.9148 109.837 45.9101 110.715 45.9223 111.606C45.9255 111.861 45.9273 112.124 45.9272 112.391" fill="#D29180"/>
<path d="M57.3991 128.019C57.1741 128.571 56.8172 128.921 56.3273 128.763C55.8202 128.598 55.2964 127.672 55.237 126.996C55.1784 126.322 55.2813 125.614 55.5007 125.075C55.7123 124.556 56.0311 124.196 56.4158 124.181C57.1995 124.148 57.6137 124.841 57.6791 126.131C57.7109 126.764 57.6162 127.486 57.3991 128.019" fill="#D29180"/>
</g>
<g filter="url(#filter5_d_240_2526)">
<path d="M98.1396 168.63C95.8328 170.869 91.9987 177.423 92.6639 187.579C93.0592 193.6 93.8693 205.196 102.76 205.828C110.19 206.356 115.134 194.147 114.691 184.995C114.25 175.844 108.298 158.768 98.1396 168.63" fill="#7A4C41"/>
<path d="M97.1386 169.109C94.8315 171.349 92.0531 176.8 91.1033 187.446C90.5691 193.41 93.8459 204.919 101.278 205.172C108.709 205.428 113.572 194.014 113.13 184.863C112.687 175.713 107.297 159.248 97.1386 169.109Z" fill="#C65236"/>
<path d="M107.148 189.043C106.953 189.521 106.653 189.829 106.25 189.717C105.823 189.597 105.389 188.821 105.345 188.236C105.301 187.642 105.397 187.009 105.594 186.527C105.776 186.081 106.042 185.764 106.36 185.732C107.019 185.667 107.364 186.248 107.408 187.365C107.429 187.924 107.342 188.567 107.148 189.043" fill="#E88F78"/>
<path d="M102.106 190.221C101.967 190.562 101.727 190.77 101.36 190.73C100.832 190.669 100.115 189.863 99.904 189.206C99.6242 188.34 99.6072 187.354 99.8549 186.746C99.9748 186.452 100.156 186.246 100.399 186.184C101.146 185.992 101.706 186.592 102.062 187.855C102.288 188.649 102.345 189.634 102.106 190.221" fill="#E88F78"/>
<path d="M93.106 188.532C92.7925 188.229 92.5397 187.641 92.5224 187.186C92.5006 186.651 92.601 186.093 92.7817 185.649C92.869 185.435 92.9753 185.248 93.096 185.104C93.0487 186.243 93.0549 187.391 93.106 188.532" fill="#E88F78"/>
<path d="M98.028 181.95C97.8457 182.397 97.5499 182.676 97.1423 182.521C97.0706 182.495 96.9985 182.451 96.9275 182.391C96.9277 182.123 96.9255 181.861 96.9224 181.606C96.9101 180.715 96.9152 179.835 96.9352 178.956C97.0216 178.908 97.1134 178.884 97.2101 178.886C97.848 178.898 98.1874 179.467 98.2406 180.495C98.2656 180.989 98.1946 181.541 98.028 181.95" fill="#E88F78"/>
<path d="M98.9303 173.681C98.7284 174.177 98.4069 174.497 97.9795 174.342C97.5545 174.189 97.1347 173.399 97.1004 172.829C97.0684 172.291 97.1607 171.732 97.3381 171.296C97.5287 170.829 97.8195 170.501 98.1622 170.498C98.8232 170.491 99.1572 171.085 99.1826 172.17C99.1937 172.677 99.1071 173.247 98.9303 173.681" fill="#E88F78"/>
<path d="M104.531 179.149C104.289 179.742 103.907 180.125 103.399 179.945C102.896 179.766 102.402 178.827 102.364 178.151C102.329 177.514 102.438 176.852 102.649 176.333C102.878 175.772 103.225 175.379 103.633 175.372C104.417 175.364 104.812 176.067 104.835 177.358C104.846 177.957 104.742 178.631 104.531 179.149" fill="#E88F78"/>
<path d="M106.093 172.511C105.984 172.779 105.787 172.946 105.479 172.95C104.951 172.955 104.135 172.237 103.838 171.605C103.403 170.687 103.265 169.583 103.518 168.964C103.603 168.754 103.734 168.598 103.915 168.527C104.624 168.245 105.257 168.776 105.78 169.992C106.141 170.831 106.335 171.918 106.093 172.511" fill="#E88F78"/>
<path d="M110.844 184.242C110.658 184.697 110.353 184.977 109.916 184.871C109.398 184.745 108.798 183.86 108.68 183.187C108.546 182.423 108.617 181.598 108.853 181.02C109.023 180.602 109.279 180.316 109.603 180.276C110.376 180.183 110.85 180.845 111.026 182.131C111.125 182.842 111.075 183.676 110.844 184.242" fill="#E88F78"/>
<path d="M110.009 195.329C109.494 196.592 108.72 197.738 107.996 198.894C107.357 199.912 106.779 200.932 105.847 201.739C104.464 202.936 102.096 203.444 100.207 203.051C98.0275 202.597 96.3803 200.455 95.6257 198.566C94.4478 195.621 93.3873 192.758 93.1692 189.627C93.1433 189.263 93.1213 188.898 93.1064 188.532C93.1912 188.615 93.2816 188.677 93.373 188.708C93.8075 188.858 94.1392 188.512 94.3525 187.988C94.5323 187.547 94.6286 186.977 94.6263 186.474C94.6254 185.37 94.3028 184.773 93.638 184.793C93.4388 184.798 93.2539 184.914 93.0963 185.104C93.1342 184.164 93.2086 183.229 93.3225 182.309C93.4246 181.491 93.4441 180.613 93.6151 179.823C93.7009 179.419 93.9846 178.859 93.9621 178.478L94.491 176.522C94.8306 175.948 95.5432 174.65 96.5139 175.174C97.1746 175.529 97.0205 176.717 96.9951 177.277C96.969 177.838 96.9491 178.396 96.936 178.954C96.7376 179.064 96.5723 179.292 96.4525 179.586C96.2839 180 96.2056 180.542 96.254 181.065C96.2939 181.513 96.5922 182.109 96.9279 182.39C96.9347 185.136 96.865 188.381 98.4123 190.769C99.5064 192.461 101.325 194.071 103.478 193.593C104.899 193.277 105.943 192.325 106.913 191.363C107.584 190.698 108.526 190.384 109.547 190.652C111.696 191.217 110.578 193.776 110.145 194.975C110.103 195.094 110.057 195.212 110.009 195.329V195.329ZM106.5 195.076C106.281 195.614 106.178 196.322 106.237 196.997C106.296 197.674 106.82 198.598 107.327 198.763C107.817 198.922 108.174 198.572 108.398 198.021C108.616 197.487 108.711 196.765 108.679 196.132C108.613 194.842 108.199 194.149 107.416 194.181C107.031 194.198 106.712 194.557 106.5 195.076V195.076ZM101.153 198.188C100.905 198.797 100.922 199.783 101.202 200.65C101.414 201.308 102.131 202.115 102.657 202.174C103.024 202.215 103.265 202.007 103.404 201.665C103.643 201.078 103.585 200.094 103.361 199.296C103.004 198.036 102.445 197.435 101.697 197.626C101.454 197.689 101.273 197.896 101.153 198.188V198.188ZM96.2835 194.033C96.0356 194.642 96.0528 195.628 96.3323 196.495C96.5433 197.153 97.2597 197.959 97.7876 198.02C98.1547 198.06 98.3951 197.852 98.5344 197.51C98.7735 196.923 98.7157 195.939 98.4913 195.141C98.1341 193.881 97.5747 193.281 96.8268 193.473C96.5837 193.535 96.4028 193.741 96.2835 194.033" fill="#D1664C"/>
<path d="M103.403 201.665C103.264 202.007 103.024 202.215 102.657 202.175C102.13 202.114 101.414 201.308 101.201 200.651C100.921 199.784 100.904 198.798 101.152 198.189C101.272 197.897 101.453 197.69 101.696 197.627C102.444 197.436 103.003 198.036 103.36 199.298C103.585 200.094 103.643 201.078 103.403 201.665" fill="#D29180"/>
<path d="M98.5339 197.512C98.3949 197.853 98.1543 198.061 97.7876 198.021C97.2597 197.96 96.5432 197.154 96.332 196.497C96.0523 195.63 96.0354 194.643 96.2832 194.035C96.4024 193.742 96.5835 193.536 96.8263 193.475C97.5744 193.283 98.1335 193.883 98.4907 195.143C98.7157 195.939 98.7735 196.924 98.5339 197.512Z" fill="#D29180"/>
<path d="M94.3526 187.988C94.1391 188.512 93.807 188.859 93.373 188.708C93.2817 188.677 93.1916 188.614 93.106 188.533C93.0551 187.392 93.0491 186.243 93.0965 185.104C93.2541 184.914 93.4385 184.799 93.6383 184.793C94.3025 184.774 94.6253 185.371 94.6263 186.474C94.6282 186.979 94.5322 187.547 94.3526 187.988" fill="#D29180"/>
<path d="M96.9272 182.391C96.5915 182.11 96.2933 181.514 96.2531 181.067C96.2051 180.543 96.2837 180.001 96.4523 179.587C96.5717 179.294 96.7372 179.064 96.9354 178.956C96.9148 179.837 96.9101 180.715 96.9223 181.606C96.9255 181.861 96.9273 182.124 96.9272 182.391" fill="#D29180"/>
<path d="M108.399 198.019C108.174 198.571 107.817 198.921 107.327 198.763C106.82 198.598 106.296 197.672 106.237 196.996C106.178 196.322 106.281 195.614 106.501 195.075C106.712 194.556 107.031 194.196 107.416 194.181C108.199 194.148 108.614 194.841 108.679 196.131C108.711 196.764 108.616 197.486 108.399 198.019" fill="#D29180"/>
</g>
<g filter="url(#filter6_d_240_2526)">
<path d="M132.178 169.287C128.967 169.143 121.567 170.848 114.633 178.297C110.522 182.714 102.638 191.256 108.275 198.16C112.987 203.929 125.263 199.154 131.62 192.556C137.977 185.958 146.322 169.916 132.178 169.287" fill="#7A4C41"/>
<path d="M131.143 168.887C127.931 168.743 122.059 170.46 113.659 177.07C108.952 180.772 102.823 191.05 107.737 196.632C112.647 202.216 124.288 197.927 130.646 191.329C137.001 184.731 145.287 169.516 131.143 168.887Z" fill="#C65236"/>
<path d="M123.5 189.842C123.019 190.028 122.589 190.021 122.394 189.651C122.188 189.258 122.456 188.41 122.851 187.977C123.253 187.537 123.78 187.173 124.265 186.986C124.715 186.812 125.129 186.789 125.369 186.998C125.869 187.434 125.682 188.082 124.9 188.88C124.508 189.28 123.98 189.657 123.5 189.842" fill="#E88F78"/>
<path d="M119.186 186.981C118.842 187.114 118.526 187.082 118.303 186.787C117.985 186.361 118.08 185.287 118.414 184.683C118.853 183.884 119.558 183.196 120.171 182.959C120.467 182.845 120.741 182.835 120.953 182.969C121.605 183.382 121.552 184.201 120.877 185.326C120.454 186.035 119.777 186.752 119.186 186.981" fill="#E88F78"/>
<path d="M114.242 179.272C114.248 178.836 114.503 178.249 114.822 177.924C115.196 177.542 115.671 177.232 116.118 177.059C116.334 176.976 116.543 176.925 116.73 176.914C115.869 177.661 115.037 178.453 114.242 179.272" fill="#E88F78"/>
<path d="M122.408 178.34C121.957 178.515 121.552 178.49 121.384 178.088C121.354 178.018 121.337 177.935 121.332 177.842C121.527 177.658 121.716 177.477 121.9 177.3C122.539 176.68 123.183 176.08 123.837 175.492C123.931 175.522 124.011 175.572 124.077 175.644C124.505 176.116 124.324 176.753 123.612 177.497C123.27 177.854 122.819 178.181 122.408 178.34" fill="#E88F78"/>
<path d="M129.044 173.326C128.545 173.519 128.092 173.505 127.911 173.087C127.731 172.673 128.018 171.826 128.409 171.41C128.779 171.018 129.249 170.701 129.688 170.532C130.159 170.35 130.597 170.337 130.834 170.584C131.292 171.06 131.089 171.711 130.317 172.473C129.956 172.829 129.482 173.157 129.044 173.326" fill="#E88F78"/>
<path d="M128.906 181.152C128.309 181.383 127.768 181.368 127.55 180.875C127.336 180.386 127.68 179.382 128.147 178.89C128.585 178.428 129.142 178.053 129.665 177.851C130.23 177.633 130.754 177.617 131.039 177.909C131.583 178.473 131.342 179.243 130.419 180.145C129.99 180.564 129.427 180.951 128.906 181.152" fill="#E88F78"/>
<path d="M134.808 177.737C134.538 177.841 134.282 177.812 134.068 177.591C133.702 177.21 133.665 176.124 133.921 175.474C134.291 174.528 135 173.671 135.624 173.43C135.835 173.348 136.038 173.336 136.214 173.419C136.906 173.742 136.953 174.567 136.427 175.781C136.064 176.62 135.406 177.506 134.808 177.737" fill="#E88F78"/>
<path d="M129.529 189.239C129.071 189.416 128.658 189.386 128.435 188.995C128.172 188.532 128.404 187.488 128.813 186.941C129.277 186.319 129.926 185.805 130.508 185.58C130.929 185.418 131.313 185.407 131.564 185.616C132.162 186.115 132.006 186.913 131.19 187.924C130.741 188.483 130.1 189.019 129.529 189.239" fill="#E88F78"/>
<path d="M120.888 196.235C119.616 196.727 118.251 196.949 116.913 197.215C115.734 197.448 114.595 197.727 113.369 197.602C111.549 197.417 109.555 196.042 108.546 194.398C107.381 192.5 107.811 189.832 108.668 187.988C110.003 185.111 111.36 182.375 113.489 180.069C113.736 179.801 113.987 179.534 114.243 179.272C114.24 179.391 114.257 179.5 114.298 179.587C114.486 180.006 114.966 180.01 115.493 179.807C115.937 179.635 116.418 179.314 116.783 178.967C117.585 178.21 117.799 177.565 117.328 177.095C117.188 176.954 116.977 176.899 116.731 176.914C117.44 176.297 118.172 175.71 118.92 175.162C119.585 174.675 120.238 174.087 120.93 173.67C121.282 173.455 121.885 173.278 122.147 173L123.932 172.044C124.584 171.897 126.016 171.526 126.301 172.591C126.496 173.315 125.525 174.018 125.101 174.384C124.674 174.749 124.254 175.118 123.839 175.491C123.624 175.422 123.344 175.458 123.048 175.573C122.631 175.734 122.183 176.048 121.836 176.442C121.537 176.779 121.308 177.404 121.333 177.842C119.34 179.729 116.93 181.905 116.253 184.668C115.773 186.625 115.848 189.053 117.672 190.291C118.877 191.109 120.286 191.216 121.651 191.262C122.595 191.295 123.47 191.765 123.975 192.691C125.038 194.643 122.408 195.585 121.239 196.092C121.123 196.143 121.006 196.19 120.888 196.235V196.235ZM118.666 193.508C118.124 193.718 117.538 194.129 117.087 194.634C116.635 195.141 116.322 196.157 116.55 196.639C116.77 197.104 117.27 197.124 117.825 196.909C118.362 196.701 118.952 196.276 119.391 195.818C120.285 194.886 120.506 194.109 119.945 193.561C119.669 193.292 119.188 193.306 118.666 193.508V193.508ZM112.734 191.751C112.121 191.988 111.415 192.677 110.976 193.475C110.642 194.081 110.547 195.156 110.864 195.58C111.087 195.875 111.403 195.907 111.747 195.774C112.338 195.545 113.015 194.828 113.441 194.118C114.114 192.994 114.168 192.175 113.516 191.762C113.304 191.628 113.029 191.637 112.734 191.751V191.751ZM112.418 185.358C111.805 185.595 111.099 186.283 110.66 187.082C110.326 187.686 110.23 188.761 110.548 189.186C110.771 189.481 111.087 189.513 111.431 189.38C112.023 189.152 112.699 188.435 113.125 187.725C113.798 186.6 113.85 185.782 113.198 185.369C112.986 185.235 112.713 185.244 112.418 185.358" fill="#D1664C"/>
<path d="M111.746 195.773C111.402 195.907 111.086 195.874 110.863 195.579C110.546 195.155 110.642 194.081 110.974 193.475C111.413 192.677 112.119 191.988 112.732 191.751C113.027 191.637 113.302 191.628 113.515 191.762C114.166 192.175 114.113 192.993 113.439 194.118C113.014 194.828 112.338 195.545 111.746 195.773" fill="#D29180"/>
<path d="M111.43 189.381C111.086 189.514 110.769 189.482 110.548 189.187C110.23 188.761 110.325 187.687 110.658 187.083C111.098 186.284 111.804 185.596 112.416 185.359C112.711 185.245 112.985 185.235 113.197 185.37C113.849 185.782 113.796 186.601 113.124 187.725C112.699 188.435 112.022 189.152 111.43 189.381Z" fill="#D29180"/>
<path d="M115.492 179.807C114.965 180.011 114.485 180.007 114.297 179.587C114.257 179.5 114.241 179.391 114.241 179.273C115.037 178.453 115.868 177.661 116.73 176.914C116.976 176.899 117.187 176.954 117.328 177.095C117.797 177.566 117.584 178.21 116.782 178.967C116.416 179.315 115.936 179.635 115.492 179.807" fill="#D29180"/>
<path d="M121.332 177.842C121.306 177.405 121.535 176.779 121.833 176.443C122.181 176.049 122.63 175.734 123.047 175.573C123.342 175.459 123.622 175.422 123.837 175.492C123.182 176.081 122.539 176.68 121.899 177.3C121.716 177.477 121.526 177.659 121.332 177.842" fill="#D29180"/>
<path d="M117.826 196.909C117.27 197.124 116.77 197.104 116.549 196.639C116.321 196.157 116.636 195.141 117.087 194.634C117.538 194.129 118.124 193.718 118.666 193.508C119.189 193.306 119.67 193.291 119.945 193.561C120.506 194.109 120.286 194.885 119.391 195.818C118.953 196.275 118.363 196.701 117.826 196.909" fill="#D29180"/>
</g>
<g filter="url(#filter7_d_240_2526)">
<path d="M183.567 167.573C180.356 167.429 172.956 169.134 166.022 176.583C161.911 181 154.027 189.542 159.665 196.446C164.376 202.215 176.652 197.44 183.009 190.841C189.366 184.244 197.711 168.202 183.567 167.573" fill="#7A4C41"/>
<path d="M182.532 167.172C179.32 167.029 173.448 168.746 165.048 175.356C160.341 179.058 154.213 189.336 159.126 194.918C164.036 200.501 175.677 196.212 182.035 189.615C188.39 183.017 196.676 167.802 182.532 167.172Z" fill="#C65236"/>
<path d="M174.889 188.128C174.408 188.314 173.978 188.307 173.783 187.937C173.578 187.544 173.845 186.696 174.24 186.263C174.643 185.823 175.169 185.459 175.655 185.272C176.104 185.098 176.518 185.074 176.759 185.284C177.258 185.719 177.072 186.368 176.289 187.166C175.897 187.566 175.369 187.943 174.889 188.128" fill="#E88F78"/>
<path d="M170.575 185.267C170.231 185.4 169.915 185.367 169.693 185.073C169.375 184.647 169.47 183.573 169.803 182.968C170.242 182.17 170.947 181.482 171.56 181.245C171.856 181.131 172.13 181.121 172.342 181.255C172.994 181.668 172.941 182.487 172.267 183.612C171.843 184.321 171.166 185.038 170.575 185.267" fill="#E88F78"/>
<path d="M165.631 177.558C165.637 177.122 165.892 176.535 166.211 176.21C166.585 175.828 167.06 175.518 167.507 175.345C167.723 175.262 167.932 175.211 168.119 175.2C167.258 175.947 166.427 176.739 165.631 177.558" fill="#E88F78"/>
<path d="M173.797 176.626C173.346 176.801 172.941 176.776 172.774 176.374C172.743 176.304 172.726 176.221 172.721 176.128C172.916 175.944 173.105 175.763 173.289 175.586C173.929 174.966 174.573 174.366 175.226 173.778C175.32 173.808 175.4 173.858 175.466 173.93C175.894 174.402 175.713 175.039 175.001 175.783C174.659 176.14 174.209 176.467 173.797 176.626" fill="#E88F78"/>
<path d="M180.434 171.612C179.934 171.805 179.481 171.79 179.301 171.373C179.12 170.959 179.407 170.111 179.799 169.696C180.168 169.304 180.638 168.987 181.077 168.818C181.548 168.635 181.986 168.623 182.223 168.87C182.681 169.346 182.478 169.997 181.707 170.759C181.345 171.115 180.871 171.443 180.434 171.612" fill="#E88F78"/>
<path d="M180.295 179.438C179.698 179.669 179.157 179.654 178.94 179.161C178.725 178.672 179.069 177.668 179.536 177.176C179.975 176.714 180.532 176.339 181.054 176.137C181.619 175.919 182.143 175.902 182.428 176.195C182.972 176.759 182.731 177.529 181.808 178.431C181.379 178.85 180.816 179.237 180.295 179.438" fill="#E88F78"/>
<path d="M186.197 176.023C185.928 176.127 185.671 176.098 185.457 175.877C185.092 175.496 185.054 174.41 185.311 173.76C185.681 172.814 186.39 171.957 187.013 171.716C187.224 171.634 187.427 171.622 187.603 171.705C188.295 172.028 188.342 172.853 187.816 174.067C187.453 174.905 186.795 175.792 186.197 176.023" fill="#E88F78"/>
<path d="M180.918 187.525C180.46 187.702 180.047 187.672 179.824 187.281C179.561 186.818 179.793 185.774 180.202 185.227C180.666 184.605 181.315 184.091 181.898 183.866C182.318 183.704 182.702 183.693 182.954 183.902C183.551 184.401 183.395 185.199 182.579 186.21C182.13 186.769 181.489 187.305 180.918 187.525" fill="#E88F78"/>
<path d="M172.278 194.521C171.005 195.013 169.64 195.235 168.302 195.501C167.123 195.734 165.984 196.013 164.758 195.888C162.938 195.702 160.945 194.328 159.935 192.684C158.771 190.786 159.2 188.118 160.057 186.274C161.392 183.397 162.749 180.661 164.878 178.355C165.125 178.087 165.376 177.82 165.632 177.558C165.629 177.677 165.646 177.786 165.687 177.873C165.876 178.292 166.355 178.296 166.882 178.093C167.326 177.921 167.807 177.6 168.172 177.253C168.974 176.496 169.188 175.851 168.717 175.381C168.577 175.239 168.366 175.185 168.12 175.2C168.83 174.583 169.561 173.996 170.309 173.448C170.974 172.961 171.627 172.373 172.319 171.956C172.672 171.741 173.274 171.563 173.536 171.286L175.322 170.33C175.973 170.183 177.405 169.812 177.69 170.877C177.885 171.601 176.915 172.304 176.49 172.67C176.064 173.035 175.643 173.404 175.228 173.777C175.013 173.708 174.733 173.744 174.437 173.859C174.02 174.02 173.572 174.334 173.225 174.728C172.926 175.065 172.697 175.69 172.722 176.127C170.729 178.015 168.319 180.191 167.643 182.954C167.162 184.911 167.237 187.339 169.062 188.577C170.266 189.395 171.675 189.502 173.04 189.548C173.984 189.58 174.859 190.05 175.364 190.977C176.427 192.929 173.798 193.871 172.628 194.378C172.512 194.429 172.395 194.476 172.278 194.521V194.521ZM170.055 191.794C169.513 192.004 168.927 192.415 168.476 192.92C168.024 193.427 167.711 194.443 167.939 194.925C168.159 195.39 168.659 195.41 169.214 195.195C169.751 194.987 170.341 194.562 170.781 194.104C171.674 193.172 171.895 192.395 171.334 191.847C171.058 191.578 170.578 191.592 170.055 191.794V191.794ZM164.123 190.037C163.51 190.274 162.804 190.963 162.365 191.761C162.031 192.367 161.936 193.441 162.253 193.866C162.476 194.161 162.792 194.193 163.136 194.06C163.728 193.831 164.404 193.114 164.831 192.404C165.503 191.279 165.557 190.461 164.905 190.048C164.693 189.914 164.418 189.923 164.123 190.037V190.037ZM163.807 183.644C163.194 183.881 162.488 184.569 162.049 185.367C161.715 185.972 161.619 187.047 161.937 187.472C162.16 187.767 162.476 187.799 162.82 187.666C163.412 187.438 164.088 186.721 164.515 186.01C165.187 184.886 165.24 184.068 164.587 183.655C164.375 183.521 164.102 183.53 163.807 183.644" fill="#D1664C"/>
<path d="M163.136 194.059C162.791 194.193 162.475 194.16 162.253 193.865C161.935 193.441 162.031 192.367 162.363 191.761C162.802 190.963 163.508 190.274 164.121 190.037C164.416 189.923 164.691 189.914 164.904 190.047C165.556 190.46 165.502 191.279 164.829 192.404C164.403 193.114 163.727 193.831 163.136 194.059" fill="#D29180"/>
<path d="M162.819 187.667C162.475 187.8 162.158 187.768 161.937 187.473C161.619 187.047 161.714 185.973 162.047 185.368C162.487 184.57 163.193 183.881 163.806 183.645C164.1 183.531 164.375 183.521 164.586 183.656C165.239 184.068 165.185 184.887 164.513 186.011C164.088 186.721 163.411 187.438 162.819 187.667Z" fill="#D29180"/>
<path d="M166.882 178.092C166.354 178.297 165.874 178.292 165.686 177.873C165.646 177.785 165.63 177.677 165.63 177.559C166.426 176.739 167.258 175.947 168.12 175.2C168.366 175.185 168.576 175.24 168.717 175.381C169.187 175.851 168.974 176.496 168.172 177.253C167.805 177.601 167.326 177.921 166.882 178.092" fill="#D29180"/>
<path d="M172.721 176.128C172.695 175.691 172.924 175.065 173.222 174.729C173.571 174.334 174.019 174.02 174.436 173.859C174.731 173.745 175.012 173.708 175.226 173.778C174.571 174.367 173.928 174.966 173.289 175.586C173.105 175.763 172.915 175.945 172.721 176.128" fill="#D29180"/>
<path d="M169.215 195.194C168.659 195.409 168.159 195.39 167.938 194.925C167.711 194.443 168.025 193.427 168.476 192.92C168.927 192.415 169.513 192.004 170.055 191.794C170.579 191.592 171.059 191.577 171.334 191.847C171.895 192.394 171.675 193.171 170.781 194.104C170.342 194.561 169.752 194.987 169.215 195.194" fill="#D29180"/>
</g>
<path d="M250 125C250 194.036 194.036 250 125 250C55.9644 250 0 194.036 0 125C0 55.9644 55.9644 0 125 0C194.036 0 250 55.9644 250 125Z" fill="#E8E8E8" fill-opacity="0.05"/>
<defs>
<filter id="filter0_d_240_2526" x="59.918" y="28.3108" width="66.5835" height="39.6643" filterUnits="userSpaceOnUse" color-interpolation-filters="sRGB">
<feFlood flood-opacity="0" result="BackgroundImageFix"/>
<feColorMatrix in="SourceAlpha" type="matrix" values="0 0 0 0 0 0 0 0 0 0 0 0 0 0 0 0 0 0 127 0" result="hardAlpha"/>
<feOffset dy="4"/>
<feGaussianBlur stdDeviation="2"/>
<feComposite in2="hardAlpha" operator="out"/>
<feColorMatrix type="matrix" values="0 0 0 0 0 0 0 0 0 0 0 0 0 0 0 0 0 0 0.25 0"/>
<feBlend mode="normal" in2="BackgroundImageFix" result="effect1_dropShadow_240_2526"/>
<feBlend mode="normal" in="SourceGraphic" in2="effect1_dropShadow_240_2526" result="shape"/>
</filter>
<filter id="filter1_d_240_2526" x="30.1689" y="115.162" width="50.5859" height="59.5513" filterUnits="userSpaceOnUse" color-interpolation-filters="sRGB">
<feFlood flood-opacity="0" result="BackgroundImageFix"/>
<feColorMatrix in="SourceAlpha" type="matrix" values="0 0 0 0 0 0 0 0 0 0 0 0 0 0 0 0 0 0 127 0" result="hardAlpha"/>
<feOffset dy="4"/>
<feGaussianBlur stdDeviation="2"/>
<feComposite in2="hardAlpha" operator="out"/>
<feColorMatrix type="matrix" values="0 0 0 0 0 0 0 0 0 0 0 0 0 0 0 0 0 0 0.25 0"/>
<feBlend mode="normal" in2="BackgroundImageFix" result="effect1_dropShadow_240_2526"/>
<feBlend mode="normal" in="SourceGraphic" in2="effect1_dropShadow_240_2526" result="shape"/>
</filter>
<filter id="filter2_d_240_2526" x="147.313" y="50.6169" width="59.4453" height="50.6985" filterUnits="userSpaceOnUse" color-interpolation-filters="sRGB">
<feFlood flood-opacity="0" result="BackgroundImageFix"/>
<feColorMatrix in="SourceAlpha" type="matrix" values="0 0 0 0 0 0 0 0 0 0 0 0 0 0 0 0 0 0 127 0" result="hardAlpha"/>
<feOffset dy="4"/>
<feGaussianBlur stdDeviation="2"/>
<feComposite in2="hardAlpha" operator="out"/>
<feColorMatrix type="matrix" values="0 0 0 0 0 0 0 0 0 0 0 0 0 0 0 0 0 0 0.25 0"/>
<feBlend mode="normal" in2="BackgroundImageFix" result="effect1_dropShadow_240_2526"/>
<feBlend mode="normal" in="SourceGraphic" in2="effect1_dropShadow_240_2526" result="shape"/>
</filter>
<filter id="filter3_d_240_2526" x="177.219" y="98.6121" width="47.7822" height="61.9792" filterUnits="userSpaceOnUse" color-interpolation-filters="sRGB">
<feFlood flood-opacity="0" result="BackgroundImageFix"/>
<feColorMatrix in="SourceAlpha" type="matrix" values="0 0 0 0 0 0 0 0 0 0 0 0 0 0 0 0 0 0 127 0" result="hardAlpha"/>
<feOffset dy="4"/>
<feGaussianBlur stdDeviation="2"/>
<feComposite in2="hardAlpha" operator="out"/>
<feColorMatrix type="matrix" values="0 0 0 0 0 0 0 0 0 0 0 0 0 0 0 0 0 0 0.25 0"/>
<feBlend mode="normal" in2="BackgroundImageFix" result="effect1_dropShadow_240_2526"/>
<feBlend mode="normal" in="SourceGraphic" in2="effect1_dropShadow_240_2526" result="shape"/>
</filter>
<filter id="filter4_d_240_2526" x="36.0474" y="95.658" width="31.6714" height="48.1863" filterUnits="userSpaceOnUse" color-interpolation-filters="sRGB">
<feFlood flood-opacity="0" result="BackgroundImageFix"/>
<feColorMatrix in="SourceAlpha" type="matrix" values="0 0 0 0 0 0 0 0 0 0 0 0 0 0 0 0 0 0 127 0" result="hardAlpha"/>
<feOffset dy="4"/>
<feGaussianBlur stdDeviation="2"/>
<feComposite in2="hardAlpha" operator="out"/>
<feColorMatrix type="matrix" values="0 0 0 0 0 0 0 0 0 0 0 0 0 0 0 0 0 0 0.25 0"/>
<feBlend mode="normal" in2="BackgroundImageFix" result="effect1_dropShadow_240_2526"/>
<feBlend mode="normal" in="SourceGraphic" in2="effect1_dropShadow_240_2526" result="shape"/>
</filter>
<filter id="filter5_d_240_2526" x="87.0474" y="165.658" width="31.6714" height="48.1863" filterUnits="userSpaceOnUse" color-interpolation-filters="sRGB">
<feFlood flood-opacity="0" result="BackgroundImageFix"/>
<feColorMatrix in="SourceAlpha" type="matrix" values="0 0 0 0 0 0 0 0 0 0 0 0 0 0 0 0 0 0 127 0" result="hardAlpha"/>
<feOffset dy="4"/>
<feGaussianBlur stdDeviation="2"/>
<feComposite in2="hardAlpha" operator="out"/>
<feColorMatrix type="matrix" values="0 0 0 0 0 0 0 0 0 0 0 0 0 0 0 0 0 0 0.25 0"/>
<feBlend mode="normal" in2="BackgroundImageFix" result="effect1_dropShadow_240_2526"/>
<feBlend mode="normal" in="SourceGraphic" in2="effect1_dropShadow_240_2526" result="shape"/>
</filter>
<filter id="filter6_d_240_2526" x="101.924" y="168.878" width="41.9985" height="39.8674" filterUnits="userSpaceOnUse" color-interpolation-filters="sRGB">
<feFlood flood-opacity="0" result="BackgroundImageFix"/>
<feColorMatrix in="SourceAlpha" type="matrix" values="0 0 0 0 0 0 0 0 0 0 0 0 0 0 0 0 0 0 127 0" result="hardAlpha"/>
<feOffset dy="4"/>
<feGaussianBlur stdDeviation="2"/>
<feComposite in2="hardAlpha" operator="out"/>
<feColorMatrix type="matrix" values="0 0 0 0 0 0 0 0 0 0 0 0 0 0 0 0 0 0 0.25 0"/>
<feBlend mode="normal" in2="BackgroundImageFix" result="effect1_dropShadow_240_2526"/>
<feBlend mode="normal" in="SourceGraphic" in2="effect1_dropShadow_240_2526" result="shape"/>
</filter>
<filter id="filter7_d_240_2526" x="153.313" y="167.164" width="41.9985" height="39.8674" filterUnits="userSpaceOnUse" color-interpolation-filters="sRGB">
<feFlood flood-opacity="0" result="BackgroundImageFix"/>
<feColorMatrix in="SourceAlpha" type="matrix" values="0 0 0 0 0 0 0 0 0 0 0 0 0 0 0 0 0 0 127 0" result="hardAlpha"/>
<feOffset dy="4"/>
<feGaussianBlur stdDeviation="2"/>
<feComposite in2="hardAlpha" operator="out"/>
<feColorMatrix type="matrix" values="0 0 0 0 0 0 0 0 0 0 0 0 0 0 0 0 0 0 0.25 0"/>
<feBlend mode="normal" in2="BackgroundImageFix" result="effect1_dropShadow_240_2526"/>
<feBlend mode="normal" in="SourceGraphic" in2="effect1_dropShadow_240_2526" result="shape"/>
</filter>
</defs>
</svg>
