<svg width="250" height="250" viewBox="0 0 250 250" fill="none" xmlns="http://www.w3.org/2000/svg">
<path d="M86.0587 64.6009C85.7224 67.4504 86.2121 70.1261 84.7733 72.9766C84.0606 74.3868 82.8188 75.1617 81.7595 76.3455C80.2991 77.9767 80.1148 79.9096 80.4357 81.7225C80.9366 84.5524 80.9876 87.2909 78.0645 89.537C75.0994 91.8151 73.3381 94.1522 74.1121 97.5429C74.5549 99.4743 75.0716 101.73 73.3351 103.602C72.6551 104.335 69.0297 108.094 68.6764 111.028L56.9319 108.817C56.8754 108.731 57.5648 102.678 58.3735 101.247C59.2441 99.706 60.6876 98.6981 61.7743 97.351C63.3304 95.4215 63.8281 93.7516 63.8371 91.5246C63.8466 89.3381 63.1144 87.2513 64.9926 85.1787C66.5161 83.4973 68.3335 82.5393 69.21 80.3379C70.0176 78.3083 69.2104 76.6129 69.4585 74.6411C69.7464 72.3575 71.6858 70.6458 73.2871 68.8801C74.8937 67.1099 76.2503 62.9785 76.7058 60.8443C79.6453 62.6035 83.4698 63.3527 86.0587 64.6009" fill="#CC5552"/>
<path d="M66.7266 92.8411C66.54 92.5958 66.4022 92.3825 66.3422 92.2294C66.1279 91.673 65.9146 91.1414 65.7138 90.6426C65.8057 89.3063 65.9972 87.9865 66.6883 86.7253C67.9222 84.4703 70.4804 83.2263 70.87 80.489C70.9934 79.6105 71.104 78.7595 71.2335 77.8826C71.3475 77.1067 71.4041 75.6034 72.0673 75.0244C72.1117 74.9856 72.1595 74.9508 72.2095 74.921C72.3608 75.2605 72.1782 75.7443 72.3292 76.0703C72.3806 76.0369 72.4286 75.9996 72.473 75.9609C72.8464 75.6349 72.9763 75.1327 73.0476 74.6426C73.129 74.0953 72.9065 73.88 72.82 73.3988C72.7272 72.884 73.1359 72.074 73.6373 71.6363C73.7848 71.5075 73.9386 71.4123 74.0929 71.3651C74.1945 71.3339 74.3189 71.5474 74.482 71.4971C74.5736 71.4677 74.6426 71.4282 74.7001 71.378C74.8176 71.2754 74.8849 71.1338 74.9871 70.9848C75.3441 70.4661 75.5961 69.8481 75.8257 69.2704C76.2479 68.2071 76.2781 66.8924 76.8233 65.9172C77.1299 66.0154 77.2725 66.0681 77.4004 65.9564C77.4761 65.8903 77.5471 65.7686 77.6432 65.565C77.9498 64.9201 78.041 64.1549 78.2647 63.465C78.3722 63.1296 78.4934 62.5016 78.6733 61.8407C78.9428 61.9597 79.2153 62.0715 79.4917 62.1799C79.2118 62.866 78.9058 63.538 78.6302 64.1789C78.2878 64.97 78.1866 65.7739 77.9542 66.5934C77.769 67.2404 77.4234 67.3373 77.2398 67.944C77.0401 68.606 76.951 69.305 76.6238 69.9264C76.2629 70.6119 75.7214 71.1881 75.3331 71.8607C75.0563 72.3369 74.833 72.8401 74.5514 73.316C74.342 73.6691 74.0534 73.8313 73.8346 74.1051C73.5164 74.5048 73.3259 75.3567 73.6267 75.8487C73.8568 76.223 74.1217 76.1734 74.3581 75.9671C74.5879 75.7665 74.7907 75.4192 74.9136 75.1647C75.6749 73.5937 76.4428 72.1067 77.3174 70.6024C77.4955 70.2951 78.332 68.2305 78.8699 67.761C78.96 67.6823 79.0433 67.6487 79.1128 67.6755C79.9807 68.0267 77.9797 71.2504 77.7825 71.6411C77.0086 73.1818 76.2939 74.8087 75.3816 76.2699C75.1542 76.6341 74.9384 76.9191 74.6785 77.1459C74.4461 77.3488 74.1787 77.5063 73.8325 77.6315C73.607 77.7132 73.4188 77.827 73.2621 77.9637C72.4461 78.6761 72.4825 80.0407 72.2232 81.1827C71.8517 82.8206 70.8175 83.544 69.8924 84.8139C69.0501 85.9679 68.195 87.0756 67.8287 88.4744C67.6226 89.2662 67.5826 90.0926 67.3562 90.8768C67.1657 91.5389 66.9347 92.1861 66.7266 92.8411" fill="#E6867B"/>
<path d="M71.7496 98.5989C71.5325 98.7884 71.2891 98.9451 71.0468 99.1005C70.8058 99.2547 70.5649 99.4089 70.3504 99.5962C70.3123 99.6295 70.2737 99.665 70.2375 99.7005C70.0131 98.9681 69.9087 98.0809 69.7307 97.2608C69.7141 96.7479 69.5589 96.2806 69.5897 95.7395C69.7027 93.7601 70.7102 92.4338 72.1273 91.1967C72.1366 91.1887 72.1458 91.1806 72.155 91.1726C72.1563 91.1714 72.1576 91.1703 72.1576 91.1703C72.4352 90.9279 72.6279 90.6095 72.8153 90.2957C73.0014 89.983 73.1836 89.6737 73.4375 89.4521C73.448 89.4429 73.4574 89.435 73.4681 89.426C73.9794 89.0025 74.7719 89.0896 75.3358 88.6228C75.3466 88.6139 75.3572 88.6049 75.3678 88.5957C75.8941 88.1362 76.3661 87.11 76.0474 86.4235C75.7081 85.6975 74.9593 85.7349 74.4157 86.1957C74.4157 86.1957 74.4157 86.1957 74.4144 86.1969C74.3499 86.2532 74.1222 86.5208 73.8339 86.8412C73.5455 87.1615 73.1953 87.5359 72.8874 87.8046C72.415 88.217 72.0394 88.3842 72.1272 87.7412C72.2187 87.0784 72.9962 86.0304 73.8252 85.3068C74.3094 84.8841 74.8099 84.573 75.2011 84.5139C75.6928 84.4397 76.2074 84.7344 76.6568 84.3913C76.6762 84.3764 76.6951 84.3609 76.7135 84.3448C77.3464 83.7923 77.1778 82.6537 76.7322 82.0715C76.2708 81.4712 75.9948 81.0992 76.2773 80.2915C76.5815 79.4209 77.354 78.5795 77.9398 77.8827C79.6122 75.8918 79.8502 73.1871 81.2095 71.0314C81.9766 69.8146 82.3637 68.5238 82.689 67.1223C82.9523 65.979 82.8 64.8299 82.9768 63.6832C82.9839 63.6329 83.006 63.5441 83.0384 63.4324C83.2611 63.5069 83.48 63.5824 83.6976 63.6591C83.6717 63.7489 83.65 63.8329 83.6381 63.8989C83.5435 64.3802 83.4368 64.8768 83.3948 65.3678C83.2455 67.1489 82.9917 68.9749 82.3767 70.6872C81.6914 72.5953 80.7313 74.3214 79.7443 76.0803C79.2289 76.9985 78.852 78.0115 78.3959 78.9683C78.0728 79.6446 77.6933 80.3758 77.6382 81.1307C77.5878 81.8219 78.0163 81.9091 78.2519 82.4552C78.4634 82.9498 78.2042 83.6648 77.8872 84.0851C77.8257 84.1661 77.7613 84.233 77.6915 84.2939C77.5679 84.4019 77.4324 84.4858 77.2982 84.5684C77.1654 84.65 77.03 84.7339 76.9063 84.8419C76.8761 84.8683 76.848 84.8946 76.8198 84.9234C76.3426 85.4125 76.5642 85.5017 76.8614 85.9378C77.1568 86.3718 76.9108 86.9319 76.7593 87.5471C76.6093 88.1561 76.3674 88.7156 75.9678 89.1954C75.6929 89.5258 75.3881 89.822 75.0683 90.1011C74.4381 90.6513 73.7472 91.1374 73.1036 91.6962C73.0996 91.6996 73.097 91.7019 73.093 91.7054C72.3404 92.3624 71.8173 93.1787 71.4638 94.1203C71.2095 94.7984 70.4832 96.8905 70.9914 97.5205C71.4126 98.0402 71.7303 97.3019 72.1471 97.2031C72.9599 97.0107 72.3907 97.8061 72.1419 98.1665C72.027 98.3324 71.8931 98.4737 71.7496 98.5989" fill="#E6867B"/>
<path d="M68.6616 111.013L66.8814 110.677C66.9087 110.549 66.9418 110.449 66.9866 110.385C67.3013 109.92 67.892 109.658 68.1075 109.107C68.4397 108.256 68.2964 107.032 68.3153 106.141C68.3288 105.49 68.317 105.327 68.704 104.989C68.7598 104.94 68.8234 104.889 68.8962 104.831C68.9909 104.757 69.0857 104.68 69.1775 104.6C69.5692 104.258 69.8978 103.863 69.9539 103.31C70.0204 102.635 69.6179 102.411 69.4736 101.864C69.3599 101.428 69.6265 100.69 69.8131 100.291C69.9243 100.055 70.0695 99.865 70.237 99.7003C70.3058 99.9269 70.3867 100.137 70.482 100.328C71.0087 101.363 73.8945 102.968 73.3211 103.588C72.6417 104.32 69.0159 108.079 68.6616 111.013V111.013ZM65.4585 110.41L65.071 110.337C65.1034 110.053 65.1307 109.779 65.1503 109.522C65.2306 109.821 65.3368 110.109 65.4332 110.348C65.4406 110.369 65.4501 110.389 65.4585 110.41" fill="#B44B49"/>
<path d="M63.7837 90.2666C63.7777 90.2573 63.7739 90.2482 63.769 90.2379C63.6872 89.0777 63.5804 87.9435 63.9745 86.8178C63.9779 86.8169 63.9809 86.8204 63.9883 86.8265C63.5915 87.9586 63.7011 89.1008 63.7837 90.2666" fill="#D7C1C1"/>
<path d="M66.6651 107.516C66.4733 107.683 66.2382 107.787 65.9345 107.807C65.6053 107.829 65.3837 107.815 65.239 107.942C65.1978 107.978 65.1637 108.024 65.1341 108.085C64.8012 106.35 63.758 104.934 63.1605 103.313C62.9007 102.605 62.7247 101.952 62.6267 101.324C62.9479 100.816 63.3173 100.348 63.7459 99.9388C65.3544 98.4061 65.8863 96.3431 66.3495 94.2156C66.452 93.7487 66.5826 93.2926 66.7273 92.8407C67.33 93.6334 68.4319 94.772 68.9717 95.4142C69.3652 95.8816 69.5759 96.5457 69.7311 97.2604C69.7373 97.4457 69.7243 97.6375 69.6784 97.8414C69.4904 98.6712 69.0349 99.1351 68.6334 99.7987C68.227 100.469 68.3315 101.197 67.7486 101.776C67.3355 102.186 67.0152 102.37 66.8951 102.967C66.6298 104.283 67.6619 105.731 67.1019 106.902C66.9822 107.15 66.8428 107.361 66.6651 107.516ZM62.6942 98.5179C62.7845 98.0679 62.9108 97.6093 63.0705 97.1319C63.7626 95.0576 65.123 93.3142 64.0061 90.7497C63.9353 90.5854 63.8598 90.4253 63.7842 90.2674C63.7006 89.1004 63.591 87.9581 63.9888 86.8271C64.1206 86.9567 64.8342 88.482 65.7128 90.6429C65.614 92.0666 65.6254 93.5144 65.2584 94.942C64.8623 96.4884 63.7517 97.4704 62.6942 98.5179" fill="#B44B49"/>
<path d="M62.626 101.326C62.4746 100.358 62.506 99.4555 62.6952 98.5186C63.7513 97.4708 64.8612 96.4895 65.2581 94.9441C65.6239 93.5146 65.613 92.0672 65.7129 90.6427C65.9149 91.1412 66.1268 91.6723 66.3424 92.229C66.4015 92.3818 66.5401 92.595 66.7262 92.8412C66.582 93.2931 66.4497 93.7491 66.3486 94.2171C65.887 96.3431 65.3538 98.4058 63.7458 99.9395C63.3171 100.347 62.947 100.816 62.626 101.326Z" fill="#C66D65"/>
<path d="M66.8811 110.678L65.459 110.41C65.4506 110.389 65.441 110.368 65.4336 110.348C65.337 110.108 65.2306 109.819 65.1499 109.522C65.1948 108.925 65.1985 108.418 65.1351 108.092C65.1353 108.09 65.1354 108.088 65.1344 108.086C65.1639 108.024 65.1977 107.978 65.2385 107.942C65.3841 107.815 65.6045 107.83 65.9347 107.809C66.2375 107.789 66.4726 107.684 66.6648 107.516C66.8419 107.362 66.9822 107.151 67.1021 106.902C67.6617 105.73 66.6297 104.285 66.8944 102.968C67.015 102.37 67.3354 102.187 67.7479 101.777C68.3319 101.198 68.2269 100.468 68.634 99.7988C69.0341 99.1354 69.4909 98.671 69.6774 97.843C69.7253 97.6391 69.7373 97.4459 69.7312 97.2603C69.9091 98.0801 70.0144 98.9674 70.2376 99.7004C70.0697 99.8655 69.9242 100.054 69.814 100.29C69.6269 100.689 69.3608 101.429 69.4738 101.864C69.6174 102.412 70.021 102.634 69.9533 103.309C69.8973 103.861 69.569 104.256 69.1764 104.599C69.0856 104.678 68.9915 104.756 68.8965 104.831C68.8236 104.888 68.7598 104.94 68.7039 104.989C68.3171 105.327 68.329 105.491 68.3145 106.14C68.2968 107.032 68.4395 108.256 68.1067 109.107C67.8918 109.658 67.3018 109.92 66.9865 110.384C66.9416 110.448 66.9084 110.549 66.8811 110.678Z" fill="#C66D65"/>
<path d="M50.632 64.5131C50.0396 67.3213 48.7177 69.7003 49.1702 72.8582C49.3939 74.4254 50.322 75.556 50.9477 77.018C51.808 79.0304 51.3649 80.9206 50.4806 82.5346C49.1002 85.0559 48.1761 87.6338 50.2255 90.6968C52.3067 93.8038 53.2288 96.5824 51.4096 99.5456C50.3725 101.236 49.1609 103.206 50.2074 105.536C50.6161 106.448 52.8492 111.17 52.2452 114.062L64.0783 115.726C64.1606 115.663 65.4435 109.707 65.1363 108.092C64.8034 106.355 63.7587 104.936 63.1601 103.313C62.3038 100.986 62.3661 99.2456 63.0705 97.1338C63.7631 95.0584 65.122 93.3151 64.0065 90.751C63.101 88.6694 61.6847 87.1817 61.5595 84.8149C61.4438 82.6335 62.7503 81.2863 63.1473 79.3384C63.6046 77.0832 62.3151 74.8408 61.3632 72.6561C60.4071 70.4642 60.4442 66.115 60.6947 63.9468C57.3461 64.6746 53.4846 64.1617 50.632 64.5131" fill="#DB5F56"/>
<path d="M52.6237 64.4056C52.2287 65.4113 52.3416 66.7007 52.0165 67.735C51.5739 69.1575 50.6164 70.2002 50.8562 71.7327C51.0844 73.1859 51.9551 74.3958 52.6762 75.6468C53.4134 76.9285 53.3469 77.9929 52.9328 79.382C52.6935 80.19 52.2702 81.0435 52.2117 81.8898C52.1705 82.4972 52.4731 83.0197 52.5847 83.6067C52.9661 85.6361 51.7684 87.4342 51.5419 89.3802C51.3663 90.8959 51.9748 91.5735 52.811 92.7219C53.5452 93.7291 53.9146 95.0632 53.8009 96.2861C53.7117 97.2317 52.9244 99.4242 53.6974 100.178C53.9817 99.8636 54.0582 99.2063 54.228 98.8342C55.5975 101.92 52.2413 104.897 52.4539 107.971C52.5425 109.249 53.2312 110.39 53.5332 111.61C53.6394 112.042 54.1116 113.638 54.0911 114.377L56.52 114.717C56.4702 114.579 56.4229 114.454 56.3837 114.343C55.9574 113.144 55.4866 111.677 55.9568 110.435C56.3135 109.488 57.025 108.767 57.1968 107.728C57.3369 106.87 57.3504 105.984 57.4825 105.127C57.5652 104.596 57.6737 104.003 57.6026 103.457C57.5356 102.951 57.3306 102.432 56.8295 103.006C56.5074 103.375 56.536 104.011 56.4445 104.453C56.3561 104.884 56.2171 107.453 55.3509 106.478C54.6847 105.727 55.427 103.813 55.5099 102.977C55.5875 102.201 55.709 101.535 55.9779 100.81C56.1368 100.381 56.3279 99.9135 56.3439 99.4581C56.3809 98.46 55.9165 97.503 55.5411 96.6261C55.1127 95.6249 55.5273 94.7663 55.3044 93.7562C55.1658 93.131 54.8109 92.9931 54.4095 92.5845C53.909 92.0747 53.8526 91.446 53.8234 90.753C53.7462 88.8695 54.4564 87.077 54.3894 85.2443C54.3424 83.9741 54.2199 82.7762 54.6288 81.5643C55.0946 80.1855 54.9649 78.9086 54.5769 77.4799C54.1487 75.9049 53.8462 74.2225 52.9863 72.8027C52.3988 71.8317 52.7907 70.8542 53.0429 69.7706C53.3303 68.5367 53.5497 67.2835 53.7684 66.0393C53.8458 65.6029 53.9912 64.9366 53.9562 64.3958C53.503 64.3969 53.0579 64.3975 52.6237 64.4056" fill="#FFB7A4"/>
<path d="M56.1978 67.8839C55.8933 69.0447 55.1699 69.8407 55.5644 71.1367C55.9471 72.3874 56.981 73.0996 56.971 74.5073C56.9641 75.5343 56.615 76.7297 56.8722 77.7462C56.9978 78.2474 57.3507 78.5929 57.5378 79.0469C57.7091 79.4634 57.755 79.9637 57.7723 80.4142C57.7873 80.8155 57.5941 83.6796 57.0914 82.9031C56.6279 82.1885 57.7173 80.7035 57.1463 80.0593C56.3414 79.1493 56.5281 82.1966 56.527 82.5329C56.5241 83.5671 56.432 84.521 56.2118 85.5313C56.1071 86.0157 55.9382 86.6737 56.2988 87.0893C56.6533 87.4954 57.3054 87.364 57.6569 87.7813C57.9608 88.1417 58.1448 88.7415 58.2088 89.194C58.3504 90.2003 58.5229 91.3718 58.527 92.3699C58.5294 92.9574 58.1709 93.1657 57.8234 93.3623C57.4664 93.565 57.1239 93.755 57.1997 94.336C57.2544 94.756 57.5814 95.1306 57.7084 95.5623C57.8728 96.1299 57.838 96.6943 57.8317 97.2744C57.8213 98.4369 57.8706 99.3229 58.4398 100.313C59.1124 101.477 60.025 102.246 60.3771 103.628C60.9009 105.674 60.3032 107.627 59.1891 109.341C58.3907 110.569 57.9939 111.947 58.5423 113.378C58.7863 114.017 59.2876 114.572 59.779 115.101L61.4198 115.331C61.0366 114.885 60.5567 114.497 60.4411 113.877C60.1029 112.041 60.9899 109.943 61.5181 108.209C61.9542 106.773 61.6798 105.238 61.5707 103.769C61.5052 102.902 61.2392 102.049 60.8241 101.309C60.2208 100.234 59.7343 99.1505 59.7483 97.8526C59.7579 96.8873 60.3188 95.7633 59.8243 94.9155C59.611 94.5464 59.1756 94.1405 59.2062 93.6716C59.2386 93.2119 59.6808 92.828 59.7414 92.3394C59.8612 91.3634 59.7234 90.3516 59.7235 89.3755C59.7239 88.0572 59.1139 87.7866 58.2235 87.0773C57.6026 86.5813 57.1594 85.5329 57.409 84.7276C57.6823 83.8418 58.6769 83.3516 58.9617 82.3982C59.3191 81.1976 58.5335 80.0359 58.1965 78.9183C58.0576 78.4607 57.8931 77.9614 57.9701 77.482C58.0461 77.0161 58.3363 76.7393 58.3262 76.2505C58.3072 75.2525 57.7214 74.053 57.2482 73.2124C56.8512 72.5081 56.2335 71.4603 56.1401 70.6512C56.0443 69.827 56.4704 68.9082 56.7225 68.1351C56.82 67.8406 57.0618 67.2343 56.708 67.0028C56.1873 66.6607 56.2805 67.5725 56.1978 67.8839" fill="#FFB7A4"/>
<path d="M59.6568 83.8754C59.082 84.3771 58.1586 84.6769 57.358 84.9513C57.3699 84.8758 57.385 84.8016 57.4079 84.7292C57.6823 83.8424 58.6758 83.3534 58.9604 82.3989C59.0462 82.1097 59.0669 81.8205 59.0426 81.535C59.21 81.3826 59.3786 81.2291 59.5503 81.0792C59.9164 80.7596 60.2949 80.4544 60.7037 80.1837C61.9735 79.342 61.9023 80.5241 61.5119 81.4512C61.1575 82.2922 60.345 83.2725 59.6615 83.8712C59.6603 83.8723 59.6591 83.8733 59.6568 83.8754V83.8754ZM56.2507 85.3485C55.6228 85.5583 54.9857 85.7383 54.3776 85.9876C54.3932 85.7408 54.3987 85.4943 54.3898 85.2458C54.373 84.7981 54.3467 84.3588 54.338 83.9252C54.5957 83.7486 54.8599 83.541 55.1631 83.3058C55.353 83.7641 55.2528 84.1163 55.8446 83.9926C56.0276 83.9568 56.2523 83.8363 56.4824 83.6859C56.4392 84.2405 56.3651 84.7863 56.2507 85.3485V85.3485ZM51.5887 87.7729C51.343 87.9874 51.0799 88.1793 50.7672 88.24C49.7087 88.4475 49.2222 86.9034 49.8912 86.3194C49.896 86.3152 49.9019 86.31 49.9067 86.3058L50.0614 85.7947C50.201 85.6224 50.3483 85.4686 50.5045 85.3322C51.0232 84.8794 51.6382 84.6283 52.3901 84.5918C52.4824 84.5869 52.5703 84.5816 52.6562 84.5717C52.627 85.5323 52.3188 86.4527 52.0272 87.3775C52.0237 87.3806 52.0189 87.3848 52.0153 87.3879C51.945 87.4493 51.8745 87.513 51.8038 87.5788C51.7331 87.6447 51.6626 87.7084 51.5887 87.7729Z" fill="#E27166"/>
<path d="M54.3777 85.9874C54.1167 86.0954 53.8615 86.2146 53.6125 86.3549C53.1097 86.6415 52.6136 86.9103 52.158 87.2673C52.1144 87.3034 52.0719 87.3384 52.0281 87.3766C52.3185 86.4513 52.628 85.5316 52.6563 84.5712C53.3549 84.4972 53.833 84.2706 54.3388 83.9245C54.3473 84.3575 54.3739 84.7971 54.389 85.2447C54.3992 85.4935 54.3933 85.7402 54.3777 85.9874" fill="#FFB7A4"/>
<path d="M57.3588 84.9515C57.1629 85.0189 56.9737 85.0846 56.8 85.1514C56.6183 85.2209 56.4359 85.2848 56.2514 85.3464C56.3647 84.7856 56.4393 84.2399 56.4825 83.6843C56.8807 83.4238 57.2977 83.0638 57.5562 82.8569C57.7106 82.7324 57.8598 82.6043 58.0079 82.475C58.2701 82.2461 58.526 82.0102 58.7809 81.7753C58.8682 81.695 58.9555 81.6146 59.0428 81.5343C59.0665 81.8201 59.0469 82.1086 58.9609 82.3992C58.6761 83.352 57.6829 83.8421 57.4082 84.7281C57.3867 84.8008 57.3694 84.8759 57.3588 84.9515" fill="#FFB7A4"/>
<path d="M58.8157 69.5617C58.665 69.6933 58.4314 69.7494 58.1712 69.7775C57.5205 69.8488 56.8523 69.8412 56.1845 69.8439C56.2846 69.3283 56.4916 68.8051 56.6565 68.3293C57.0764 68.2389 57.4881 68.1857 57.878 68.235C58.3767 68.2985 58.8703 68.3514 58.9739 68.9312C59.0295 69.2402 58.9602 69.4355 58.8157 69.5617V69.5617ZM55.5106 69.8519C55.3182 69.8572 55.129 69.8661 54.9407 69.8784C54.3239 69.9223 53.7301 69.9975 53.1524 70.2384C53.0655 70.2736 52.9791 70.3169 52.8948 70.3627C52.9445 70.1694 52.9957 69.9706 53.0436 69.7703C53.1375 69.3629 53.2246 68.955 53.3074 68.5445C54.1005 69.0018 55.0501 68.7382 55.9985 68.4904C55.817 68.9594 55.6095 69.3888 55.5106 69.8519V69.8519ZM50.8186 71.2266C49.8469 70.9401 49.7597 68.9737 50.2104 68.2441L50.365 67.7345C50.451 67.4945 50.5748 67.288 50.74 67.1438C50.949 66.9613 51.2245 66.8771 51.5793 66.9549C51.8093 67.0025 51.9844 67.1173 52.1345 67.2646C52.1029 67.4271 52.0637 67.5834 52.0168 67.7356C51.6238 68.995 50.8281 69.9573 50.8186 71.2266" fill="#E27166"/>
<path d="M52.8946 70.3638C52.3854 70.644 51.9085 71.0772 51.3612 71.2222C51.1564 71.2746 50.9755 71.2725 50.819 71.2259C50.8286 69.9583 51.6236 68.9947 52.0171 67.7351C52.0645 67.5843 52.1033 67.4261 52.1344 67.2663C52.4158 67.5429 52.6075 67.9337 52.8957 68.2253C53.0274 68.3568 53.1663 68.4629 53.308 68.5456C53.2252 68.9549 53.1378 69.3639 53.0439 69.7701C52.9965 69.9715 52.945 70.1682 52.8946 70.3638" fill="#FFB7A4"/>
<path d="M56.185 69.8433C55.96 69.8439 55.7338 69.8456 55.5096 69.852C55.6092 69.3885 55.8166 68.9607 55.9973 68.4902C56.2181 68.4336 56.4379 68.3758 56.6568 68.3293C56.4916 68.8054 56.2836 69.3274 56.185 69.8433Z" fill="#FFB7A4"/>
<path d="M60.5015 100.708C60.2041 100.116 59.9619 99.5094 59.8378 98.8576C60.8557 98.4239 61.6416 98.8032 61.1096 99.894C60.9562 100.207 60.7484 100.477 60.5015 100.708V100.708ZM59.2493 101.504C58.0717 102.031 56.6361 102.279 55.5437 102.682C55.622 102.029 55.745 101.441 55.9785 100.81C56.0216 100.693 56.067 100.573 56.1115 100.451C56.6361 100.27 56.8749 100.361 57.3635 100.443C57.6889 100.498 58.004 100.329 58.3137 100.08C58.3532 100.158 58.3949 100.235 58.4396 100.314C58.6903 100.747 58.9745 101.127 59.2493 101.504V101.504ZM52.5723 104.939C52.3549 105.129 52.1142 105.285 51.8295 105.368C50.6971 105.7 50.3398 103.572 50.3398 103.572C50.3692 103.311 50.5093 103.099 50.7018 102.931C51.1241 102.562 51.8002 102.409 52.1004 102.426C53.1792 102.492 53.632 102.067 54.4334 101.479C54.2585 102.284 53.9175 103.086 53.5681 103.888C53.5225 103.932 53.4789 103.978 53.4353 104.024C53.1532 104.32 52.887 104.664 52.5723 104.939" fill="#E27166"/>
<path d="M55.5426 102.682C55.4678 102.709 55.395 102.737 55.3232 102.766C54.7336 103.008 54.2313 103.298 53.7759 103.695C53.705 103.757 53.6361 103.821 53.5679 103.889C53.9174 103.086 54.2574 102.284 54.4329 101.478C54.48 101.445 54.5283 101.409 54.5765 101.374C55.0301 101.049 55.459 100.704 55.9901 100.496C56.0307 100.48 56.0724 100.465 56.1109 100.451C56.0672 100.573 56.0215 100.693 55.9781 100.811C55.7445 101.442 55.6214 102.028 55.5426 102.682" fill="#FFB7A4"/>
<path d="M60.4127 100.787C60.0806 101.077 59.6837 101.309 59.2501 101.503C58.9748 101.126 58.6903 100.746 58.4391 100.312C58.3957 100.233 58.3533 100.155 58.3139 100.08C58.3644 100.038 58.4138 99.9971 58.4645 99.9529C58.585 99.8477 58.7037 99.7361 58.8225 99.6245C58.9425 99.5098 59.0624 99.3972 59.1818 99.293C59.3743 99.125 59.5686 98.9772 59.7653 98.8867C59.7894 98.8757 59.8144 98.8657 59.8373 98.8556C59.9614 99.509 60.2042 100.114 60.5029 100.706C60.4725 100.733 60.4442 100.76 60.4127 100.787" fill="#FFB7A4"/>
<path d="M138.54 179.63C135.934 180.832 133.908 182.647 130.726 182.909C129.151 183.038 127.842 182.384 126.279 182.099C124.125 181.706 122.381 182.558 121.002 183.779C118.851 185.684 116.543 187.158 113.1 185.839C109.609 184.501 106.696 184.22 104.209 186.651C102.793 188.037 101.14 189.656 98.6361 189.154C97.6558 188.957 92.5565 187.829 89.8702 189.06L85.6205 177.891C85.6643 177.798 91.1859 175.223 92.8286 175.165C94.5977 175.103 96.2112 175.807 97.9276 176.03C100.386 176.349 102.07 175.901 103.973 174.745C105.843 173.611 107.24 171.897 109.988 172.416C112.218 172.837 113.984 173.886 116.319 173.483C118.472 173.112 119.496 171.538 121.307 170.719C123.404 169.772 125.877 170.532 128.219 170.975C130.568 171.42 134.799 170.419 136.857 169.692C136.893 173.118 138.252 176.77 138.54 179.63" fill="#CC5552"/>
<path d="M104.36 177.897C104.472 177.61 104.582 177.381 104.681 177.249C105.044 176.776 105.386 176.316 105.706 175.885C106.893 175.265 108.119 174.739 109.555 174.669C112.123 174.544 114.52 176.075 117.058 174.977C117.871 174.624 118.655 174.274 119.47 173.926C120.191 173.618 121.503 172.881 122.343 173.144C122.399 173.161 122.454 173.184 122.505 173.211C122.295 173.517 121.787 173.614 121.588 173.914C121.643 173.94 121.7 173.961 121.756 173.979C122.229 174.127 122.725 173.976 123.18 173.78C123.69 173.564 123.757 173.262 124.122 172.937C124.513 172.588 125.417 172.514 126.052 172.713C126.239 172.771 126.4 172.853 126.521 172.96C126.601 173.03 126.484 173.248 126.612 173.36C126.685 173.423 126.755 173.461 126.827 173.484C126.976 173.531 127.132 173.514 127.313 173.523C127.941 173.557 128.6 173.449 129.213 173.343C130.34 173.148 131.477 172.487 132.593 172.442C132.669 172.755 132.699 172.904 132.861 172.955C132.957 172.985 133.098 172.981 133.322 172.957C134.032 172.882 134.732 172.56 135.437 172.39C135.779 172.307 136.378 172.082 137.036 171.89C137.075 172.182 137.122 172.473 137.174 172.765C136.443 172.885 135.71 172.975 135.019 173.075C134.166 173.196 133.427 173.53 132.607 173.76C131.959 173.94 131.696 173.696 131.082 173.856C130.414 174.031 129.771 174.321 129.07 174.366C128.297 174.417 127.523 174.256 126.746 174.276C126.196 174.289 125.65 174.361 125.097 174.37C124.687 174.376 124.398 174.214 124.05 174.171C123.543 174.108 122.717 174.391 122.454 174.904C122.255 175.296 122.436 175.496 122.736 175.59C123.027 175.681 123.429 175.672 123.71 175.644C125.447 175.473 127.116 175.351 128.856 175.311C129.211 175.302 131.409 174.937 132.09 175.15C132.204 175.186 132.276 175.24 132.29 175.313C132.444 176.236 128.649 176.214 128.213 176.25C126.495 176.395 124.735 176.635 123.012 176.621C122.583 176.617 122.227 176.582 121.898 176.479C121.603 176.387 121.329 176.241 121.042 176.011C120.854 175.861 120.659 175.76 120.46 175.698C119.427 175.374 118.282 176.118 117.173 176.494C115.582 177.033 114.425 176.529 112.859 176.403C111.435 176.288 110.044 176.137 108.66 176.555C107.877 176.793 107.151 177.191 106.364 177.408C105.7 177.591 105.028 177.732 104.36 177.897" fill="#E6867B"/>
<path d="M102.074 185.188C101.799 185.102 101.539 184.976 101.28 184.851C101.022 184.726 100.765 184.601 100.493 184.516C100.445 184.501 100.394 184.486 100.345 184.474C100.852 183.9 101.554 183.348 102.161 182.768C102.589 182.485 102.907 182.109 103.384 181.853C105.131 180.915 106.788 181.081 108.584 181.643C108.595 181.647 108.607 181.651 108.619 181.654C108.62 181.655 108.622 181.655 108.622 181.655C108.974 181.766 109.346 181.764 109.711 181.759C110.075 181.755 110.434 181.748 110.756 181.849C110.769 181.853 110.781 181.857 110.794 181.862C111.422 182.076 111.762 182.798 112.454 183.035C112.468 183.039 112.481 183.044 112.494 183.048C113.161 183.257 114.283 183.123 114.702 182.493C115.143 181.824 114.72 181.205 114.043 180.982C114.043 180.982 114.043 180.982 114.042 180.982C113.96 180.956 113.613 180.902 113.189 180.823C112.765 180.745 112.263 180.642 111.873 180.52C111.275 180.332 110.936 180.099 111.53 179.838C112.143 179.57 113.443 179.686 114.493 180.014C115.106 180.206 115.633 180.471 115.888 180.774C116.208 181.154 116.225 181.747 116.753 181.951C116.776 181.96 116.799 181.968 116.822 181.975C117.624 182.226 118.507 181.487 118.77 180.803C119.041 180.096 119.214 179.667 120.05 179.486C120.952 179.29 122.073 179.509 122.973 179.645C125.544 180.031 127.975 178.821 130.523 178.854C131.961 178.873 133.264 178.528 134.629 178.074C135.742 177.701 136.642 176.971 137.712 176.523C137.759 176.502 137.846 176.475 137.958 176.444C138.011 176.673 138.061 176.899 138.109 177.125C138.019 177.149 137.936 177.175 137.874 177.199C137.414 177.37 136.935 177.538 136.494 177.759C134.897 178.562 133.208 179.299 131.426 179.669C129.441 180.082 127.468 180.165 125.453 180.242C124.4 180.282 123.34 180.49 122.285 180.601C121.54 180.679 120.718 180.737 120.046 181.084C119.43 181.402 119.58 181.813 119.237 182.3C118.926 182.738 118.181 182.891 117.657 182.84C117.555 182.83 117.465 182.81 117.376 182.782C117.22 182.733 117.077 182.661 116.937 182.59C116.798 182.52 116.656 182.448 116.499 182.399C116.461 182.387 116.423 182.377 116.384 182.368C115.718 182.216 115.758 182.452 115.541 182.933C115.325 183.412 114.719 183.495 114.115 183.687C113.518 183.877 112.914 183.963 112.296 183.873C111.871 183.811 111.459 183.706 111.054 183.579C110.256 183.329 109.48 182.994 108.668 182.737C108.663 182.735 108.659 182.734 108.654 182.733C107.701 182.434 106.732 182.414 105.744 182.605C105.033 182.742 102.87 183.216 102.598 183.978C102.375 184.609 103.17 184.494 103.472 184.798C104.061 185.39 103.085 185.321 102.648 185.297C102.447 185.285 102.256 185.245 102.074 185.188" fill="#E6867B"/>
<path d="M89.875 189.04L89.2318 187.346C89.3554 187.302 89.4584 187.278 89.536 187.283C90.0971 187.308 90.6288 187.675 91.211 187.572C92.1102 187.41 93.0795 186.648 93.849 186.199C94.4109 185.871 94.5444 185.775 95.0346 185.929C95.1053 185.951 95.1824 185.978 95.2693 186.01C95.3823 186.052 95.4972 186.093 95.6135 186.129C96.1096 186.285 96.6184 186.358 97.119 186.117C97.7289 185.822 97.7098 185.362 98.1014 184.952C98.4131 184.628 99.1821 184.47 99.6194 184.421C99.8789 184.392 100.117 184.416 100.345 184.473C100.188 184.65 100.051 184.829 99.9376 185.01C99.3301 186 99.4689 189.299 98.6413 189.134C97.6618 188.937 92.5625 187.809 89.875 189.04V189.04ZM88.7162 185.993L88.5763 185.625C88.8356 185.504 89.0832 185.384 89.3123 185.267C89.0998 185.491 88.9095 185.732 88.7557 185.939C88.7424 185.956 88.73 185.975 88.7162 185.993" fill="#B44B49"/>
<path d="M105.018 174.042C105.023 174.033 105.029 174.025 105.035 174.015C105.981 173.339 106.893 172.656 108.059 172.404C108.061 172.406 108.06 172.41 108.058 172.42C106.886 172.673 105.969 173.363 105.018 174.042" fill="#D7C1C1"/>
<path d="M91.8149 185.51C91.5719 185.434 91.3607 185.288 91.1847 185.04C90.994 184.77 90.8902 184.574 90.7068 184.517C90.6546 184.5 90.5972 184.495 90.5297 184.502C91.8355 183.312 92.4979 181.683 93.5675 180.327C94.036 179.735 94.5008 179.244 94.9849 178.832C95.5863 178.841 96.178 178.911 96.751 179.063C98.8982 179.634 100.935 179.01 102.991 178.293C103.443 178.137 103.9 178.01 104.361 177.897C104 178.825 103.605 180.36 103.339 181.156C103.146 181.735 102.69 182.262 102.161 182.768C102.007 182.87 101.836 182.959 101.638 183.026C100.833 183.299 100.199 183.153 99.4235 183.157C98.64 183.161 98.0739 183.63 97.2754 183.436C96.7097 183.298 96.3853 183.121 95.814 183.33C94.5532 183.791 93.8573 185.428 92.5663 185.562C92.2926 185.59 92.04 185.581 91.8149 185.51ZM97.4132 177.424C97.8441 177.266 98.3012 177.134 98.7917 177.021C100.922 176.527 103.119 176.777 104.723 174.485C104.826 174.339 104.923 174.191 105.018 174.044C105.969 173.363 106.886 172.672 108.058 172.421C108.017 172.601 107.089 174.006 105.705 175.884C104.44 176.544 103.211 177.31 101.802 177.743C100.276 178.213 98.8589 177.778 97.4132 177.424" fill="#B44B49"/>
<path d="M94.9834 178.833C95.7295 178.198 96.5155 177.753 97.4132 177.425C98.8583 177.778 100.275 178.212 101.8 177.743C103.21 177.309 104.439 176.543 105.705 175.884C105.386 176.317 105.044 176.775 104.682 177.25C104.582 177.38 104.473 177.609 104.36 177.897C103.899 178.01 103.442 178.135 102.99 178.293C100.936 179.01 98.8981 179.633 96.7503 179.063C96.1791 178.91 95.5854 178.84 94.9834 178.833Z" fill="#C66D65"/>
<path d="M89.2314 187.346L88.7167 185.994C88.7305 185.975 88.7429 185.956 88.7563 185.94C88.9104 185.732 89.1012 185.49 89.3123 185.266C89.8454 184.992 90.2788 184.731 90.5242 184.506C90.5261 184.505 90.5281 184.504 90.5285 184.503C90.5974 184.495 90.6542 184.5 90.7058 184.516C90.8903 184.574 90.9927 184.77 91.1835 185.04C91.3587 185.288 91.5707 185.434 91.8142 185.51C92.0385 185.58 92.2916 185.59 92.566 185.562C93.8577 185.427 94.5513 183.792 95.8126 183.33C96.3854 183.12 96.7091 183.298 97.2736 183.436C98.0729 183.631 98.64 183.16 99.4236 183.158C100.198 183.153 100.833 183.299 101.636 183.026C101.835 182.96 102.006 182.87 102.161 182.767C101.555 183.347 100.854 183.901 100.345 184.474C100.117 184.417 99.8799 184.391 99.6212 184.421C99.1829 184.47 98.4135 184.629 98.1015 184.953C97.7093 185.361 97.7304 185.822 97.1195 186.117C96.6196 186.357 96.1111 186.284 95.6137 186.128C95.4986 186.092 95.383 186.052 95.2697 186.01C95.1826 185.978 95.1052 185.951 95.0344 185.929C94.5444 185.775 94.4107 185.871 93.8498 186.198C93.0798 186.649 92.1106 187.41 91.2111 187.571C90.629 187.675 90.097 187.309 89.5365 187.283C89.4586 187.278 89.3554 187.302 89.2314 187.346Z" fill="#C66D65"/>
<path d="M120.109 149.375C117.404 150.337 114.685 150.452 112.229 152.488C111.009 153.497 110.53 154.879 109.61 156.176C108.344 157.961 106.5 158.571 104.662 158.66C101.791 158.8 99.1102 159.358 97.5689 162.706C96.0067 166.104 94.1191 168.341 90.6419 168.338C88.6584 168.337 86.3462 168.333 84.9057 170.442C84.3417 171.267 81.482 175.638 78.7002 176.634L83.4628 187.593C83.5593 187.63 89.3078 185.613 90.5249 184.507C91.8324 183.316 92.4964 181.684 93.5675 180.326C95.1043 178.38 96.6212 177.524 98.7899 177.022C100.921 176.528 103.118 176.776 104.721 174.486C106.023 172.626 106.552 170.641 108.505 169.298C110.305 168.06 112.136 168.47 114.004 167.791C116.166 167.003 117.405 164.732 118.771 162.779C120.14 160.819 123.868 158.579 125.848 157.66C123.478 155.184 121.898 151.624 120.109 149.375" fill="#DB5F56"/>
<path d="M121.24 151.017C120.177 151.206 119.136 151.976 118.084 152.239C116.64 152.604 115.251 152.333 114.069 153.338C112.949 154.291 112.372 155.666 111.682 156.934C110.974 158.232 110.032 158.732 108.631 159.104C107.817 159.322 106.868 159.407 106.116 159.799C105.577 160.081 105.289 160.612 104.847 161.014C103.316 162.399 101.157 162.317 99.3791 163.141C97.9949 163.783 97.735 164.656 97.1925 165.969C96.7172 167.121 95.7725 168.133 94.6704 168.675C93.8175 169.093 91.5366 169.566 91.2978 170.619C91.7142 170.698 92.3147 170.419 92.7207 170.37C90.805 173.15 86.5134 171.843 84.003 173.63C82.959 174.373 82.3461 175.556 81.4633 176.451C81.1505 176.768 80.0362 178.004 79.3957 178.372L80.3746 180.621C80.4659 180.507 80.5478 180.401 80.6218 180.31C81.4216 179.32 82.427 178.152 83.7316 177.904C84.7253 177.714 85.712 177.944 86.6877 177.547C87.4925 177.219 88.2549 176.767 89.0549 176.432C89.5505 176.226 90.1135 176.008 90.5415 175.662C90.9385 175.341 91.2732 174.895 90.5221 174.768C90.0395 174.685 89.5121 175.042 89.0872 175.195C88.6734 175.345 86.4102 176.568 86.7893 175.32C87.0816 174.36 89.1018 173.993 89.8577 173.627C90.5596 173.288 91.1917 173.043 91.9504 172.894C92.3989 172.805 92.8973 172.724 93.294 172.5C94.1644 172.01 94.7378 171.114 95.2895 170.336C95.9195 169.448 96.8682 169.353 97.613 168.635C98.0738 168.19 98.006 167.816 98.1447 167.26C98.318 166.567 98.8247 166.19 99.4003 165.803C100.966 164.754 102.866 164.423 104.393 163.409C105.452 162.705 106.409 161.975 107.656 161.69C109.075 161.367 110.097 160.59 111.112 159.512C112.231 158.325 113.508 157.188 114.27 155.713C114.791 154.705 115.829 154.528 116.885 154.177C118.087 153.778 119.27 153.31 120.445 152.847C120.858 152.685 121.502 152.461 121.945 152.148C121.707 151.763 121.474 151.383 121.24 151.017" fill="#FFB7A4"/>
<path d="M120.142 155.882C118.993 156.229 117.936 156.028 117.037 157.041C116.171 158.021 116.103 159.274 114.898 160.001C114.018 160.532 112.817 160.859 112.084 161.609C111.723 161.978 111.612 162.459 111.323 162.856C111.057 163.219 110.655 163.52 110.28 163.77C109.945 163.992 107.402 165.324 107.802 164.49C108.169 163.721 110.004 163.874 110.255 163.051C110.611 161.889 108.11 163.64 107.822 163.815C106.939 164.353 106.077 164.773 105.101 165.112C104.633 165.276 103.984 165.476 103.818 166.001C103.657 166.515 104.109 167.002 103.937 167.52C103.789 167.968 103.373 168.438 103.021 168.729C102.237 169.375 101.328 170.134 100.479 170.659C99.9792 170.968 99.6143 170.771 99.2652 170.577C98.9059 170.379 98.5649 170.186 98.109 170.554C97.7795 170.82 97.631 171.295 97.3292 171.629C96.931 172.065 96.4315 172.33 95.9336 172.628C94.9369 173.226 94.2072 173.731 93.6606 174.734C93.019 175.915 92.8401 177.095 91.8455 178.118C90.3744 179.633 88.3969 180.143 86.3536 180.089C84.8888 180.05 83.5064 180.431 82.5729 181.646C82.1553 182.188 81.9441 182.905 81.7501 183.601L82.4106 185.12C82.591 184.56 82.6714 183.948 83.1391 183.526C84.528 182.279 86.7808 181.939 88.5354 181.483C89.9875 181.105 91.1534 180.069 92.3484 179.209C93.0541 178.7 93.6424 178.028 94.0563 177.287C94.6581 176.211 95.3277 175.231 96.4418 174.564C97.2699 174.068 98.5213 173.959 98.986 173.095C99.1893 172.72 99.3079 172.137 99.7238 171.918C100.133 171.706 100.691 171.882 101.139 171.679C102.034 171.271 102.825 170.625 103.657 170.115C104.782 169.427 104.694 168.765 104.833 167.635C104.932 166.847 105.595 165.921 106.412 165.713C107.31 165.484 108.247 166.076 109.209 165.821C110.42 165.498 111 164.222 111.777 163.35C112.094 162.993 112.434 162.592 112.883 162.407C113.32 162.229 113.708 162.331 114.119 162.067C114.96 161.53 115.677 160.404 116.147 159.561C116.54 158.855 117.111 157.781 117.752 157.278C118.405 156.766 119.411 156.65 120.202 156.461C120.504 156.39 121.147 156.279 121.16 155.857C121.179 155.234 120.451 155.79 120.142 155.882" fill="#FFB7A4"/>
<path d="M108.312 167.185C107.584 166.957 106.846 166.326 106.194 165.787C106.265 165.758 106.336 165.732 106.409 165.713C107.309 165.484 108.245 166.076 109.207 165.82C109.499 165.742 109.756 165.609 109.987 165.439C110.204 165.502 110.423 165.566 110.641 165.634C111.105 165.779 111.563 165.942 112.007 166.149C113.388 166.793 112.343 167.349 111.348 167.501C110.446 167.638 109.186 167.457 108.318 167.187C108.317 167.187 108.315 167.186 108.312 167.185V167.185ZM105.277 165.05C104.77 164.624 104.284 164.175 103.753 163.787C103.972 163.671 104.185 163.547 104.392 163.41C104.765 163.162 105.126 162.91 105.491 162.676C105.777 162.803 106.092 162.92 106.451 163.056C106.159 163.457 105.806 163.556 106.221 163.996C106.347 164.133 106.567 164.262 106.816 164.379C106.32 164.632 105.816 164.854 105.277 165.05V165.05ZM100.774 162.341C100.463 162.244 100.162 162.12 99.9468 161.885C99.2168 161.091 100.279 159.869 101.127 160.135C101.133 160.136 101.14 160.139 101.147 160.141L101.663 160.006C101.883 160.035 102.091 160.08 102.289 160.142C102.946 160.348 103.481 160.741 103.905 161.363C103.958 161.439 104.008 161.511 104.061 161.579C103.227 162.056 102.281 162.274 101.34 162.509C101.336 162.507 101.33 162.505 101.325 162.504C101.236 162.476 101.145 162.449 101.052 162.423C100.959 162.398 100.868 162.371 100.774 162.341Z" fill="#E27166"/>
<path d="M103.753 163.786C103.525 163.62 103.29 163.465 103.04 163.326C102.533 163.047 102.045 162.764 101.502 162.562C101.449 162.544 101.397 162.526 101.341 162.509C102.282 162.273 103.228 162.056 104.062 161.579C104.49 162.136 104.933 162.425 105.492 162.676C105.127 162.909 104.766 163.161 104.393 163.408C104.186 163.547 103.972 163.671 103.753 163.786" fill="#FFB7A4"/>
<path d="M106.194 165.787C106.034 165.656 105.88 165.529 105.732 165.415C105.578 165.297 105.428 165.175 105.279 165.049C105.816 164.853 106.321 164.632 106.817 164.378C107.247 164.582 107.772 164.749 108.084 164.862C108.27 164.928 108.458 164.988 108.645 165.047C108.977 165.151 109.312 165.246 109.646 165.341C109.76 165.373 109.874 165.406 109.988 165.438C109.757 165.608 109.5 165.742 109.208 165.82C108.246 166.075 107.31 165.484 106.411 165.713C106.337 165.732 106.264 165.757 106.194 165.787" fill="#FFB7A4"/>
<path d="M120.079 158.991C119.888 158.931 119.718 158.761 119.558 158.554C119.157 158.036 118.815 157.462 118.463 156.894C118.955 156.71 119.51 156.614 120.002 156.506C120.298 156.816 120.558 157.14 120.72 157.498C120.926 157.956 121.139 158.405 120.699 158.796C120.464 159.005 120.262 159.048 120.079 158.991V158.991ZM118.105 156.324C118 156.163 117.893 156.006 117.784 155.852C117.425 155.349 117.05 154.882 116.543 154.515C116.468 154.459 116.386 154.408 116.303 154.36C116.493 154.302 116.69 154.241 116.885 154.178C117.282 154.045 117.675 153.906 118.069 153.762C118.093 154.677 118.814 155.349 119.52 156.029C119.026 156.119 118.551 156.166 118.105 156.324V156.324ZM114.481 153.041C114.218 152.063 115.849 150.961 116.707 150.964L117.222 150.83C117.472 150.778 117.713 150.776 117.922 150.841C118.187 150.924 118.402 151.115 118.521 151.458C118.601 151.679 118.594 151.889 118.547 152.093C118.392 152.151 118.238 152.2 118.084 152.239C116.805 152.562 115.569 152.386 114.481 153.041" fill="#E27166"/>
<path d="M116.301 154.36C115.796 154.073 115.178 153.892 114.768 153.501C114.617 153.354 114.524 153.199 114.482 153.041C115.568 152.387 116.805 152.561 118.084 152.239C118.238 152.201 118.393 152.151 118.545 152.094C118.457 152.479 118.223 152.846 118.125 153.244C118.082 153.425 118.064 153.599 118.068 153.763C117.675 153.906 117.281 154.045 116.885 154.178C116.689 154.242 116.494 154.301 116.301 154.36" fill="#FFB7A4"/>
<path d="M118.464 156.894C118.346 156.703 118.226 156.511 118.104 156.323C118.551 156.166 119.024 156.119 119.52 156.028C119.684 156.186 119.848 156.344 120.002 156.506C119.509 156.614 118.956 156.709 118.464 156.894Z" fill="#FFB7A4"/>
<path d="M94.3999 176.698C94.7494 176.135 95.1401 175.612 95.631 175.166C96.5325 175.807 96.6197 176.675 95.4116 176.792C95.0643 176.824 94.7261 176.788 94.3999 176.698V176.698ZM93.067 176.046C92.0023 175.318 91.0412 174.223 90.1268 173.502C90.7245 173.228 91.2902 173.025 91.95 172.895C92.0726 172.87 92.1982 172.847 92.326 172.82C92.7541 173.173 92.8015 173.424 92.9867 173.884C93.1097 174.19 93.4186 174.37 93.7923 174.505C93.747 174.579 93.7028 174.655 93.6591 174.734C93.4204 175.174 93.2445 175.615 93.067 176.046V176.046ZM86.6502 172.147C86.3749 172.061 86.1159 171.937 85.8965 171.738C85.0217 170.946 86.6495 169.529 86.6495 169.529C86.8875 169.418 87.1415 169.427 87.3853 169.503C87.9202 169.671 88.4042 170.167 88.5464 170.432C89.0538 171.386 89.6529 171.55 90.5729 171.926C89.795 172.198 88.9327 172.326 88.0665 172.447C88.0053 172.431 87.9433 172.418 87.8813 172.405C87.4814 172.319 87.0489 172.272 86.6502 172.147" fill="#E27166"/>
<path d="M90.1264 173.501C90.0651 173.451 90.0028 173.404 89.9401 173.358C89.4262 172.981 88.9165 172.704 88.3397 172.524C88.2499 172.496 88.1592 172.47 88.0662 172.447C88.9333 172.326 89.7952 172.197 90.5735 171.926C90.6265 171.949 90.6827 171.971 90.7371 171.994C91.2518 172.211 91.7701 172.396 92.2248 172.74C92.2597 172.767 92.2941 172.794 92.3262 172.82C92.1993 172.846 92.0732 172.87 91.9499 172.895C91.2894 173.025 90.7256 173.226 90.1264 173.501" fill="#FFB7A4"/>
<path d="M94.2863 176.664C93.8656 176.532 93.4609 176.315 93.0689 176.046C93.2463 175.615 93.4221 175.173 93.6603 174.733C93.7052 174.654 93.7496 174.578 93.7927 174.505C93.855 174.526 93.9159 174.547 93.98 174.567C94.1326 174.615 94.2898 174.658 94.4471 174.7C94.6076 174.743 94.7662 174.786 94.9174 174.834C95.1612 174.91 95.3888 174.999 95.5687 175.119C95.5907 175.134 95.6123 175.15 95.6328 175.164C95.1405 175.611 94.7511 176.135 94.4023 176.699C94.3637 176.687 94.3262 176.676 94.2863 176.664" fill="#FFB7A4"/>
<path d="M168.383 161.026C167.309 163.686 167.076 166.396 164.938 168.767C163.879 169.94 162.477 170.361 161.143 171.224C159.305 172.413 158.618 174.229 158.45 176.062C158.188 178.924 157.516 181.58 154.105 182.977C150.644 184.394 148.33 186.184 148.184 189.659C148.102 191.639 148.007 193.951 145.838 195.3C144.989 195.828 140.502 198.5 139.389 201.237L128.641 196.012C128.609 195.914 130.868 190.256 132.025 189.088C133.271 187.831 134.929 187.239 136.332 186.225C138.341 184.773 139.261 183.294 139.856 181.148C140.441 179.041 140.284 176.835 142.642 175.33C144.554 174.109 146.56 173.663 147.985 171.771C149.299 170.025 148.966 168.177 149.725 166.34C150.604 164.213 152.926 163.073 154.936 161.791C156.952 160.506 159.348 156.878 160.35 154.939C162.722 157.41 166.215 159.14 168.383 161.026" fill="#CC5552"/>
<path d="M142.297 183.178C142.182 182.893 142.105 182.651 142.087 182.487C142.027 181.894 141.961 181.325 141.899 180.791C142.339 179.526 142.872 178.303 143.87 177.268C145.655 175.418 148.45 174.892 149.547 172.353C149.897 171.539 150.228 170.747 150.584 169.935C150.898 169.216 151.349 167.781 152.141 167.397C152.194 167.371 152.249 167.35 152.305 167.335C152.362 167.702 152.058 168.121 152.118 168.475C152.177 168.456 152.233 168.433 152.286 168.407C152.732 168.191 152.989 167.741 153.187 167.287C153.41 166.78 153.252 166.514 153.295 166.027C153.341 165.506 153.949 164.832 154.548 164.542C154.724 164.457 154.897 164.405 155.059 164.4C155.165 164.397 155.229 164.636 155.399 164.63C155.495 164.626 155.572 164.606 155.641 164.573C155.781 164.505 155.884 164.386 156.021 164.269C156.502 163.862 156.908 163.333 157.282 162.836C157.969 161.921 158.344 160.661 159.127 159.864C159.397 160.039 159.521 160.128 159.674 160.053C159.764 160.01 159.865 159.911 160.011 159.74C160.476 159.198 160.766 158.484 161.163 157.878C161.355 157.582 161.638 157.008 161.985 156.418C162.214 156.604 162.448 156.784 162.686 156.961C162.235 157.549 161.763 158.117 161.328 158.663C160.789 159.336 160.48 160.084 160.04 160.814C159.691 161.389 159.332 161.392 158.995 161.929C158.628 162.515 158.358 163.166 157.879 163.679C157.35 164.245 156.676 164.658 156.124 165.205C155.732 165.592 155.384 166.018 154.987 166.403C154.692 166.689 154.371 166.769 154.088 166.976C153.676 167.277 153.268 168.049 153.428 168.603C153.552 169.025 153.82 169.047 154.102 168.91C154.377 168.777 154.664 168.495 154.85 168.282C155.998 166.967 157.13 165.735 158.37 164.514C158.623 164.264 159.973 162.493 160.616 162.181C160.724 162.129 160.813 162.119 160.873 162.163C161.618 162.73 158.838 165.313 158.545 165.638C157.393 166.921 156.275 168.302 155.01 169.471C154.695 169.763 154.412 169.981 154.101 170.131C153.824 170.266 153.524 170.347 153.157 170.377C152.918 170.396 152.707 170.457 152.519 170.547C151.545 171.02 151.22 172.346 150.67 173.379C149.88 174.861 148.692 175.287 147.465 176.268C146.348 177.16 145.232 178.003 144.51 179.256C144.103 179.966 143.846 180.752 143.421 181.449C143.063 182.038 142.67 182.601 142.297 183.178" fill="#E6867B"/>
<path d="M145.627 190.056C145.367 190.181 145.091 190.268 144.817 190.355C144.544 190.44 144.271 190.525 144.014 190.649C143.969 190.671 143.922 190.696 143.878 190.72C143.854 189.955 143.987 189.071 144.032 188.233C144.151 187.734 144.124 187.242 144.296 186.729C144.926 184.849 146.248 183.835 147.94 183.014C147.951 183.009 147.962 183.004 147.973 182.998C147.975 182.998 147.977 182.997 147.977 182.997C148.308 182.836 148.578 182.58 148.841 182.326C149.103 182.074 149.36 181.823 149.664 181.676C149.676 181.67 149.687 181.665 149.7 181.659C150.305 181.385 151.047 181.678 151.713 181.376C151.726 181.37 151.739 181.365 151.751 181.358C152.38 181.054 153.106 180.188 152.979 179.442C152.843 178.652 152.111 178.491 151.465 178.792C151.465 178.792 151.465 178.792 151.463 178.793C151.386 178.831 151.096 179.029 150.734 179.262C150.371 179.495 149.935 179.764 149.567 179.942C149.003 180.216 148.596 180.278 148.85 179.681C149.113 179.065 150.139 178.259 151.129 177.779C151.708 177.499 152.273 177.331 152.666 177.377C153.159 177.435 153.578 177.855 154.102 177.642C154.125 177.633 154.147 177.623 154.169 177.612C154.925 177.246 155.062 176.103 154.786 175.424C154.499 174.723 154.33 174.292 154.816 173.587C155.338 172.827 156.305 172.219 157.054 171.701C159.191 170.221 160.133 167.674 162.012 165.952C163.073 164.981 163.786 163.837 164.469 162.571C165.024 161.537 165.18 160.389 165.652 159.329C165.672 159.282 165.717 159.202 165.778 159.103C165.973 159.234 166.164 159.364 166.354 159.496C166.305 159.575 166.262 159.651 166.233 159.711C166.015 160.151 165.782 160.602 165.612 161.064C164.999 162.743 164.273 164.438 163.229 165.928C162.065 167.588 160.685 169 159.269 170.437C158.53 171.187 157.9 172.065 157.208 172.868C156.718 173.436 156.159 174.041 155.908 174.755C155.677 175.408 156.067 175.605 156.151 176.194C156.225 176.727 155.786 177.349 155.37 177.67C155.289 177.732 155.209 177.78 155.126 177.82C154.978 177.892 154.826 177.937 154.674 177.982C154.525 178.025 154.372 178.071 154.224 178.142C154.188 178.16 154.154 178.178 154.119 178.198C153.53 178.544 153.72 178.689 153.892 179.188C154.063 179.684 153.678 180.16 153.37 180.713C153.065 181.261 152.684 181.737 152.172 182.095C151.82 182.341 151.448 182.547 151.066 182.732C150.313 183.097 149.519 183.384 148.751 183.753C148.746 183.756 148.743 183.757 148.738 183.759C147.839 184.195 147.119 184.845 146.53 185.66C146.107 186.247 144.855 188.074 145.179 188.816C145.449 189.428 145.95 188.8 146.378 188.814C147.213 188.842 146.454 189.46 146.119 189.742C145.965 189.872 145.798 189.973 145.627 190.056" fill="#E6867B"/>
<path d="M139.378 201.219L137.749 200.426C137.809 200.309 137.868 200.221 137.928 200.171C138.354 199.806 138.993 199.709 139.346 199.234C139.89 198.501 140.074 197.282 140.327 196.427C140.512 195.803 140.543 195.642 141.006 195.418C141.072 195.386 141.147 195.353 141.232 195.317C141.343 195.27 141.455 195.221 141.565 195.168C142.033 194.941 142.454 194.646 142.653 194.128C142.895 193.494 142.566 193.172 142.571 192.606C142.576 192.156 143.027 191.514 143.312 191.179C143.482 190.98 143.672 190.835 143.877 190.72C143.884 190.957 143.907 191.18 143.948 191.39C144.184 192.527 146.545 194.836 145.829 195.282C144.98 195.81 140.493 198.481 139.378 201.219V201.219ZM136.447 199.793L136.092 199.621C136.199 199.355 136.297 199.098 136.383 198.856C136.382 199.165 136.409 199.471 136.439 199.727C136.441 199.749 136.444 199.771 136.447 199.793" fill="#B44B49"/>
<path d="M140.136 179.92C140.132 179.909 140.131 179.899 140.129 179.888C140.356 178.747 140.551 177.625 141.228 176.643C141.231 176.643 141.234 176.647 141.239 176.655C140.558 177.643 140.363 178.773 140.136 179.92" fill="#D7C1C1"/>
<path d="M138.373 197.319C138.144 197.43 137.89 197.468 137.592 197.408C137.269 197.342 137.058 197.271 136.886 197.354C136.836 197.378 136.791 197.414 136.747 197.465C136.882 195.703 136.249 194.063 136.099 192.342C136.035 191.59 136.037 190.914 136.108 190.283C136.552 189.877 137.031 189.523 137.553 189.241C139.508 188.186 140.564 186.336 141.571 184.405C141.793 183.982 142.039 183.576 142.298 183.178C142.671 184.102 143.434 185.49 143.785 186.252C144.042 186.807 144.07 187.503 144.032 188.233C143.989 188.414 143.926 188.595 143.828 188.78C143.428 189.531 142.866 189.858 142.304 190.393C141.736 190.932 141.645 191.662 140.93 192.067C140.424 192.354 140.066 192.448 139.793 192.991C139.191 194.191 139.805 195.86 138.956 196.842C138.776 197.05 138.586 197.216 138.373 197.319ZM136.912 187.593C137.118 187.183 137.36 186.774 137.64 186.355C138.854 184.536 140.626 183.213 140.223 180.445C140.198 180.268 140.168 180.093 140.136 179.921C140.363 178.773 140.558 177.642 141.24 176.656C141.333 176.816 141.619 178.475 141.898 180.791C141.428 182.138 141.057 183.538 140.327 184.819C139.538 186.206 138.208 186.861 136.912 187.593" fill="#B44B49"/>
<path d="M136.107 190.284C136.216 189.31 136.484 188.448 136.913 187.594C138.208 186.861 139.537 186.207 140.327 184.82C141.056 183.538 141.427 182.139 141.898 180.791C141.962 181.325 142.026 181.893 142.088 182.487C142.104 182.65 142.182 182.892 142.297 183.178C142.039 183.576 141.791 183.981 141.57 184.406C140.565 186.336 139.507 188.185 137.552 189.241C137.031 189.521 136.551 189.877 136.107 190.284Z" fill="#C66D65"/>
<path d="M137.749 200.426L136.448 199.793C136.445 199.771 136.441 199.748 136.44 199.727C136.41 199.47 136.383 199.163 136.383 198.855C136.584 198.291 136.721 197.804 136.746 197.472C136.746 197.47 136.747 197.468 136.746 197.466C136.791 197.414 136.836 197.378 136.885 197.355C137.059 197.27 137.267 197.343 137.592 197.409C137.889 197.469 138.143 197.43 138.373 197.319C138.585 197.217 138.775 197.05 138.956 196.842C139.805 195.859 139.19 194.193 139.792 192.992C140.066 192.447 140.423 192.354 140.929 192.068C141.645 191.663 141.736 190.931 142.305 190.393C142.866 189.858 143.429 189.53 143.827 188.781C143.926 188.597 143.989 188.413 144.032 188.233C143.988 189.071 143.856 189.954 143.878 190.72C143.672 190.835 143.482 190.979 143.314 191.177C143.028 191.513 142.577 192.156 142.571 192.606C142.566 193.172 142.896 193.493 142.653 194.127C142.454 194.644 142.033 194.939 141.564 195.166C141.456 195.219 141.344 195.269 141.233 195.317C141.148 195.353 141.072 195.386 141.006 195.418C140.544 195.642 140.512 195.803 140.327 196.426C140.075 197.282 139.89 198.5 139.345 199.233C138.993 199.708 138.354 199.806 137.928 200.171C137.868 200.221 137.809 200.309 137.749 200.426Z" fill="#C66D65"/>
<path d="M134.23 151.612C132.919 154.165 131.017 156.112 130.622 159.278C130.425 160.848 131.023 162.184 131.242 163.759C131.542 165.927 130.617 167.633 129.338 168.958C127.343 171.026 125.772 173.27 126.943 176.765C128.133 180.31 128.29 183.233 125.755 185.613C124.309 186.971 122.622 188.552 123.018 191.075C123.172 192.063 124.083 197.206 122.739 199.837L133.716 204.558C133.812 204.519 136.618 199.112 136.747 197.472C136.883 195.709 136.249 194.065 136.099 192.342C135.885 189.871 136.404 188.209 137.639 186.357C138.854 184.537 140.624 183.213 140.223 180.446C139.898 178.199 138.923 176.391 139.426 174.075C139.889 171.94 141.504 170.984 142.4 169.21C143.435 167.155 142.781 164.652 142.438 162.294C142.093 159.927 143.274 155.741 144.087 153.716C140.665 153.536 137.075 152.024 134.23 151.612" fill="#DB5F56"/>
<path d="M136.18 152.033C135.534 152.899 135.303 154.173 134.717 155.085C133.916 156.341 132.718 157.094 132.545 158.636C132.383 160.098 132.904 161.495 133.27 162.891C133.644 164.322 133.3 165.331 132.534 166.562C132.091 167.279 131.458 167.991 131.178 168.792C130.979 169.367 131.133 169.95 131.086 170.546C130.92 172.604 129.291 174.024 128.56 175.841C127.991 177.257 128.4 178.071 128.904 179.399C129.347 180.564 129.352 181.948 128.92 183.098C128.585 183.987 127.248 185.895 127.796 186.825C128.153 186.597 128.4 185.983 128.661 185.669C129.17 189.006 125.148 190.994 124.544 194.016C124.293 195.273 124.657 196.554 124.627 197.811C124.615 198.256 124.651 199.92 124.436 200.627L126.69 201.595C126.678 201.449 126.666 201.316 126.657 201.198C126.561 199.929 126.494 198.39 127.274 197.315C127.868 196.496 128.744 195.988 129.183 195.03C129.544 194.24 129.791 193.389 130.144 192.596C130.363 192.106 130.624 191.562 130.7 191.017C130.768 190.511 130.707 189.957 130.072 190.379C129.665 190.649 129.525 191.271 129.32 191.673C129.121 192.066 128.311 194.507 127.732 193.339C127.287 192.439 128.507 190.787 128.807 190.003C129.086 189.275 129.379 188.664 129.829 188.035C130.095 187.664 130.403 187.263 130.538 186.828C130.837 185.875 130.641 184.829 130.51 183.884C130.36 182.806 130.986 182.087 131.037 181.054C131.068 180.414 130.762 180.187 130.482 179.688C130.134 179.064 130.245 178.443 130.399 177.766C130.821 175.929 131.978 174.387 132.396 172.601C132.685 171.363 132.882 170.176 133.596 169.114C134.408 167.907 134.619 166.641 134.621 165.16C134.623 163.528 134.774 161.825 134.319 160.229C134.007 159.138 134.643 158.298 135.172 157.319C135.774 156.204 136.315 155.053 136.854 153.91C137.044 153.51 137.359 152.905 137.468 152.374C137.03 152.256 136.601 152.139 136.18 152.033" fill="#FFB7A4"/>
<path d="M138.712 156.33C138.113 157.369 137.205 157.947 137.244 159.301C137.284 160.608 138.094 161.567 137.714 162.923C137.437 163.912 136.785 164.973 136.766 166.021C136.755 166.538 137.004 166.964 137.065 167.451C137.121 167.898 137.033 168.393 136.931 168.832C136.84 169.223 135.9 171.935 135.619 171.054C135.36 170.243 136.802 169.097 136.421 168.325C135.884 167.235 135.262 170.224 135.172 170.548C134.897 171.545 134.557 172.441 134.078 173.358C133.85 173.798 133.514 174.388 133.752 174.884C133.987 175.369 134.651 175.414 134.88 175.909C135.078 176.337 135.098 176.964 135.04 177.417C134.912 178.425 134.77 179.601 134.511 180.565C134.359 181.132 133.958 181.239 133.571 181.337C133.173 181.438 132.793 181.531 132.713 182.112C132.655 182.531 132.872 182.979 132.881 183.429C132.89 184.02 132.708 184.555 132.549 185.113C132.233 186.232 132.047 187.099 132.335 188.204C132.678 189.504 133.356 190.487 133.331 191.913C133.298 194.024 132.207 195.751 130.681 197.111C129.587 198.086 128.841 199.311 128.994 200.836C129.061 201.516 129.398 202.184 129.733 202.823L131.255 203.477C131.003 202.946 130.642 202.445 130.694 201.817C130.851 199.957 132.26 198.166 133.226 196.632C134.025 195.362 134.164 193.808 134.445 192.363C134.611 191.509 134.579 190.616 134.373 189.793C134.074 188.597 133.89 187.424 134.245 186.175C134.509 185.247 135.346 184.31 135.092 183.362C134.984 182.95 134.67 182.444 134.824 181.999C134.976 181.564 135.504 181.31 135.691 180.855C136.063 179.945 136.197 178.933 136.454 177.991C136.801 176.719 136.284 176.298 135.612 175.379C135.144 174.737 134.992 173.609 135.445 172.898C135.942 172.115 137.031 171.904 137.556 171.059C138.217 169.995 137.765 168.668 137.735 167.501C137.721 167.023 137.694 166.498 137.894 166.056C138.09 165.626 138.443 165.436 138.562 164.961C138.807 163.994 138.557 162.682 138.322 161.747C138.125 160.963 137.805 159.789 137.928 158.984C138.052 158.164 138.705 157.39 139.152 156.71C139.324 156.452 139.717 155.93 139.436 155.614C139.024 155.147 138.874 156.051 138.712 156.33" fill="#FFB7A4"/>
<path d="M137.838 172.667C137.151 173 136.182 173.046 135.337 173.1C135.368 173.03 135.403 172.963 135.444 172.899C135.942 172.116 137.029 171.905 137.555 171.06C137.714 170.803 137.81 170.53 137.862 170.248C138.063 170.145 138.266 170.041 138.472 169.942C138.909 169.73 139.355 169.535 139.82 169.382C141.267 168.904 140.887 170.026 140.266 170.817C139.703 171.535 138.661 172.267 137.844 172.665C137.842 172.665 137.841 172.666 137.838 172.667V172.667ZM134.164 173.192C133.503 173.229 132.841 173.234 132.189 173.315C132.269 173.081 132.339 172.845 132.396 172.602C132.498 172.166 132.588 171.735 132.694 171.315C132.989 171.212 133.299 171.082 133.653 170.935C133.715 171.427 133.526 171.74 134.13 171.777C134.316 171.79 134.564 171.733 134.826 171.649C134.638 172.172 134.423 172.679 134.164 173.192V173.192ZM129.028 174.303C128.735 174.445 128.43 174.561 128.113 174.537C127.037 174.458 126.974 172.841 127.774 172.453C127.779 172.451 127.786 172.447 127.792 172.445L128.076 171.992C128.256 171.863 128.439 171.753 128.625 171.663C129.245 171.362 129.904 171.282 130.639 171.445C130.73 171.464 130.816 171.483 130.901 171.496C130.62 172.415 130.08 173.221 129.556 174.037C129.551 174.039 129.546 174.042 129.541 174.044C129.457 174.084 129.372 174.127 129.287 174.172C129.201 174.217 129.117 174.26 129.028 174.303Z" fill="#E27166"/>
<path d="M132.189 173.315C131.908 173.35 131.631 173.398 131.354 173.468C130.793 173.612 130.244 173.74 129.71 173.965C129.659 173.988 129.608 174.011 129.556 174.036C130.08 173.22 130.621 172.414 130.901 171.495C131.594 171.608 132.115 171.515 132.694 171.314C132.588 171.734 132.498 172.165 132.395 172.601C132.339 172.844 132.269 173.08 132.189 173.315" fill="#FFB7A4"/>
<path d="M135.337 173.1C135.131 173.114 134.931 173.127 134.746 173.146C134.552 173.165 134.359 173.179 134.165 173.19C134.422 172.679 134.638 172.172 134.826 171.647C135.279 171.501 135.776 171.263 136.08 171.132C136.261 171.052 136.439 170.968 136.616 170.882C136.929 170.73 137.238 170.57 137.546 170.411C137.651 170.356 137.757 170.302 137.862 170.247C137.81 170.529 137.715 170.802 137.555 171.06C137.03 171.904 135.942 172.115 135.444 172.898C135.404 172.962 135.368 173.03 135.337 173.1" fill="#FFB7A4"/>
<path d="M140.795 158.637C140.615 158.725 140.375 158.717 140.117 158.676C139.47 158.573 138.828 158.39 138.183 158.217C138.415 157.746 138.753 157.295 139.037 156.88C139.466 156.903 139.877 156.96 140.24 157.111C140.705 157.303 141.167 157.484 141.114 158.071C141.086 158.383 140.968 158.554 140.795 158.637V158.637ZM137.531 158.047C137.344 158.001 137.159 157.96 136.974 157.922C136.367 157.802 135.775 157.719 135.154 157.799C135.061 157.81 134.966 157.829 134.873 157.851C134.972 157.678 135.073 157.499 135.172 157.319C135.37 156.95 135.562 156.58 135.749 156.206C136.394 156.856 137.38 156.851 138.36 156.862C138.061 157.267 137.748 157.626 137.531 158.047V158.047ZM132.642 158.138C131.78 157.605 132.214 155.685 132.841 155.1L133.124 154.649C133.27 154.44 133.444 154.274 133.642 154.178C133.891 154.057 134.179 154.049 134.501 154.217C134.71 154.323 134.849 154.48 134.955 154.662C134.882 154.81 134.803 154.951 134.717 155.085C134.007 156.197 132.986 156.916 132.642 158.138" fill="#E27166"/>
<path d="M134.872 157.852C134.307 157.988 133.733 158.281 133.167 158.276C132.955 158.273 132.781 158.223 132.643 158.137C132.986 156.917 134.006 156.197 134.718 155.085C134.803 154.952 134.882 154.81 134.954 154.664C135.153 155.005 135.235 155.432 135.436 155.789C135.529 155.951 135.635 156.09 135.75 156.207C135.562 156.58 135.37 156.951 135.172 157.319C135.074 157.5 134.972 157.677 134.872 157.852" fill="#FFB7A4"/>
<path d="M138.184 158.217C137.967 158.158 137.748 158.1 137.53 158.047C137.748 157.626 138.061 157.268 138.359 156.862C138.587 156.865 138.814 156.867 139.038 156.88C138.753 157.296 138.415 157.745 138.184 158.217Z" fill="#FFB7A4"/>
<path d="M134.22 189.129C134.089 188.479 134.015 187.83 134.067 187.169C135.163 187.018 135.821 187.591 135.021 188.503C134.79 188.765 134.519 188.97 134.22 189.129V189.129ZM132.802 189.567C131.527 189.765 130.077 189.626 128.917 189.727C129.165 189.118 129.438 188.583 129.829 188.036C129.902 187.934 129.977 187.831 130.052 187.724C130.606 187.688 130.812 187.839 131.262 188.047C131.562 188.185 131.91 188.105 132.274 187.947C132.292 188.032 132.312 188.117 132.334 188.205C132.462 188.689 132.636 189.131 132.802 189.567V189.567ZM125.456 191.122C125.197 191.248 124.923 191.335 124.627 191.34C123.447 191.362 123.662 189.216 123.662 189.216C123.76 188.971 123.951 188.804 124.18 188.692C124.685 188.448 125.378 188.478 125.663 188.574C126.686 188.921 127.235 188.63 128.163 188.274C127.782 189.005 127.242 189.689 126.694 190.37C126.638 190.401 126.584 190.434 126.53 190.467C126.18 190.678 125.832 190.94 125.456 191.122" fill="#E27166"/>
<path d="M128.916 189.727C128.837 189.733 128.76 189.741 128.683 189.75C128.05 189.828 127.489 189.976 126.945 190.239C126.861 190.28 126.777 190.324 126.694 190.371C127.242 189.688 127.782 189.004 128.163 188.273C128.217 188.254 128.273 188.231 128.329 188.211C128.852 188.016 129.357 187.796 129.924 187.735C129.967 187.731 130.012 187.727 130.052 187.724C129.978 187.83 129.902 187.934 129.829 188.036C129.438 188.584 129.165 189.117 128.916 189.727" fill="#FFB7A4"/>
<path d="M134.113 189.181C133.717 189.374 133.273 189.492 132.803 189.565C132.637 189.13 132.463 188.688 132.335 188.204C132.314 188.116 132.293 188.029 132.275 187.947C132.335 187.92 132.393 187.893 132.454 187.864C132.598 187.794 132.742 187.717 132.886 187.641C133.032 187.562 133.177 187.485 133.319 187.416C133.549 187.304 133.776 187.213 133.989 187.178C134.016 187.173 134.042 187.17 134.067 187.167C134.015 187.83 134.09 188.477 134.222 189.127C134.185 189.145 134.151 189.163 134.113 189.181" fill="#FFB7A4"/>
<path d="M175.654 61.845C178.141 63.2753 180.794 63.8779 182.848 66.3222C183.864 67.5323 184.088 68.9788 184.76 70.4185C185.685 72.4029 187.389 73.3328 189.182 73.7512C191.981 74.4041 194.519 75.4347 195.433 79.0058C196.361 82.6281 197.817 85.1669 201.238 85.7894C203.188 86.1422 205.465 86.5548 206.503 88.8878C206.91 89.8014 208.939 94.6134 211.497 96.0927L204.844 106.02C204.742 106.038 199.449 103.023 198.451 101.716C197.377 100.309 197.018 98.5857 196.207 97.0566C195.046 94.8668 193.707 93.7522 191.663 92.8677C189.656 91.9986 187.45 91.8507 186.283 89.3085C185.337 87.2463 185.171 85.1985 183.492 83.5266C181.944 81.9856 180.068 82.0606 178.353 81.0567C176.367 79.8935 175.556 77.437 174.563 75.2701C173.568 73.0966 170.303 70.2239 168.52 68.9654C171.294 66.9552 173.488 63.7339 175.654 61.845" fill="#CC5552"/>
<path d="M194.01 90.7295C193.711 90.8045 193.461 90.8473 193.296 90.8422C192.7 90.8203 192.128 90.8072 191.59 90.7955C190.398 90.1853 189.26 89.49 188.372 88.3583C186.785 86.3367 186.648 83.4954 184.284 82.0602C183.525 81.6011 182.786 81.1646 182.031 80.7005C181.363 80.2904 180.003 79.6469 179.732 78.8093C179.713 78.7533 179.7 78.6956 179.692 78.638C180.064 78.6324 180.437 78.9907 180.796 78.98C180.786 78.9197 180.77 78.8609 180.752 78.8048C180.599 78.3333 180.189 78.0163 179.766 77.7579C179.295 77.4678 179.01 77.5876 178.533 77.4778C178.023 77.3605 177.44 76.6661 177.234 76.033C177.174 75.8466 177.147 75.6677 177.164 75.5073C177.176 75.4016 177.421 75.3714 177.439 75.2016C177.448 75.1058 177.439 75.0268 177.415 74.9542C177.367 74.8058 177.263 74.6882 177.167 74.5356C176.83 74.0033 176.361 73.5285 175.92 73.0901C175.109 72.2836 173.912 71.7385 173.23 70.8536C173.441 70.6104 173.546 70.5001 173.493 70.3385C173.462 70.2429 173.378 70.1298 173.229 69.9614C172.757 69.4257 172.089 69.0408 171.543 68.5637C171.277 68.3329 170.747 67.9744 170.21 67.5489C170.426 67.3479 170.636 67.1414 170.844 66.93C171.365 67.4573 171.862 68.003 172.343 68.5086C172.936 69.1345 173.635 69.5439 174.297 70.08C174.819 70.5048 174.772 70.8607 175.257 71.2682C175.787 71.7122 176.395 72.0692 176.838 72.6145C177.326 73.216 177.642 73.9406 178.108 74.5622C178.437 75.004 178.812 75.4073 179.138 75.8534C179.381 76.1849 179.416 76.514 179.582 76.8229C179.824 77.2728 180.532 77.783 181.103 77.7001C181.538 77.6358 181.596 77.3727 181.5 77.0743C181.406 76.7841 181.166 76.4609 180.98 76.2478C179.836 74.9298 178.771 73.6388 177.732 72.2428C177.519 71.9582 175.951 70.3768 175.731 69.6976C175.694 69.5838 175.696 69.4939 175.748 69.4407C176.412 68.7809 178.588 71.8889 178.87 72.224C179.982 73.5417 181.196 74.8388 182.181 76.2525C182.426 76.6048 182.603 76.9154 182.709 77.2435C182.804 77.537 182.844 77.8448 182.823 78.2124C182.809 78.4518 182.84 78.6696 182.904 78.8675C183.238 79.8979 184.507 80.4014 185.454 81.0891C186.814 82.0751 187.072 83.3105 187.876 84.6606C188.605 85.889 189.287 87.111 190.429 87.9981C191.076 88.4991 191.82 88.8611 192.452 89.3778C192.985 89.8134 193.49 90.2804 194.01 90.7295" fill="#E6867B"/>
<path d="M201.28 88.3765C201.369 88.6507 201.417 88.9361 201.464 89.22C201.511 89.5022 201.558 89.7844 201.646 90.0552C201.662 90.1034 201.679 90.1528 201.697 90.2001C200.936 90.1182 200.079 89.8652 199.255 89.7061C198.777 89.5195 198.286 89.4784 197.801 89.2372C196.026 88.3545 195.203 86.9063 194.623 85.1168C194.619 85.1052 194.616 85.0935 194.612 85.0819C194.611 85.0802 194.611 85.0786 194.611 85.0786C194.497 84.728 194.28 84.4255 194.065 84.1298C193.851 83.8356 193.639 83.5465 193.535 83.2258C193.53 83.2125 193.527 83.2009 193.523 83.1875C193.335 82.5508 193.727 81.8565 193.519 81.1544C193.515 81.141 193.511 81.1276 193.507 81.1143C193.292 80.4497 192.534 79.6119 191.777 79.6348C190.976 79.6611 190.716 80.3642 190.926 81.0453C190.926 81.0453 190.926 81.0453 190.926 81.0469C190.953 81.1284 191.109 81.443 191.29 81.8342C191.471 82.2253 191.678 82.6946 191.804 83.0834C191.997 83.6799 192.003 84.0911 191.446 83.7573C190.873 83.4124 190.215 82.2852 189.876 81.2384C189.678 80.627 189.589 80.0444 189.689 79.6615C189.814 79.1803 190.287 78.8231 190.149 78.275C190.143 78.2513 190.136 78.2278 190.128 78.2046C189.869 77.4053 188.756 77.1123 188.046 77.2929C187.312 77.4809 186.862 77.5883 186.23 77.0108C185.55 76.3886 185.08 75.3473 184.67 74.5347C183.498 72.2137 181.105 70.9308 179.658 68.8329C178.841 67.6489 177.807 66.7851 176.646 65.9346C175.699 65.2428 174.582 64.9306 173.598 64.3169C173.554 64.2906 173.481 64.2353 173.391 64.1616C173.548 63.9862 173.703 63.8146 173.859 63.6447C173.932 63.7039 174 63.7569 174.056 63.7939C174.461 64.0702 174.876 64.3637 175.311 64.5955C176.89 65.4335 178.468 66.3853 179.801 67.6245C181.285 69.0052 182.494 70.567 183.723 72.1665C184.364 73.0015 185.147 73.7466 185.848 74.5424C186.342 75.1056 186.865 75.7422 187.537 76.0898C188.153 76.4082 188.402 76.0485 188.996 76.0468C189.534 76.0469 190.09 76.5665 190.351 77.0234C190.402 77.1118 190.438 77.1973 190.466 77.2854C190.517 77.4416 190.541 77.5991 190.564 77.755C190.587 77.9092 190.611 78.0667 190.661 78.2229C190.674 78.2611 190.687 78.2972 190.702 78.3345C190.964 78.9656 191.133 78.797 191.651 78.6954C192.166 78.5946 192.585 79.0411 193.09 79.4225C193.591 79.8 194.01 80.2425 194.294 80.7987C194.49 81.1814 194.642 81.5782 194.773 81.982C195.031 82.7779 195.206 83.6043 195.466 84.4158C195.468 84.4208 195.469 84.4241 195.471 84.4291C195.779 85.3795 196.323 86.1817 197.05 86.8771C197.573 87.3777 199.211 88.8686 199.99 88.6493C200.633 88.4665 200.08 87.884 200.153 87.4619C200.296 86.639 200.803 87.4752 201.037 87.8457C201.144 88.0166 201.221 88.1954 201.28 88.3765" fill="#E6867B"/>
<path d="M211.478 96.1004L210.468 97.6047C210.361 97.5292 210.282 97.4592 210.241 97.393C209.937 96.9206 209.929 96.2746 209.507 95.8598C208.856 95.2196 207.674 94.8695 206.862 94.5016C206.269 94.2332 206.114 94.1796 205.956 93.6909C205.933 93.6205 205.911 93.5418 205.886 93.4523C205.855 93.3359 205.822 93.2185 205.785 93.1026C205.624 92.608 205.39 92.1504 204.904 91.8813C204.31 91.5548 203.946 91.8366 203.385 91.7538C202.941 91.6871 202.367 91.1514 202.074 90.8231C201.9 90.6279 201.782 90.4196 201.697 90.2008C201.932 90.2267 202.157 90.2349 202.371 90.2226C203.529 90.1456 206.14 88.1241 206.484 88.8949C206.89 89.8077 208.919 94.6201 211.478 96.1004V96.1004ZM209.663 98.8078L209.443 99.1352C209.195 98.9936 208.954 98.8608 208.725 98.7418C209.031 98.7854 209.338 98.8011 209.596 98.8067C209.618 98.8079 209.64 98.8071 209.663 98.8078" fill="#B44B49"/>
<path d="M190.485 92.4219C190.474 92.4238 190.464 92.4237 190.453 92.4241C189.354 92.0428 188.269 91.6947 187.389 90.8895C187.39 90.886 187.394 90.8846 187.403 90.8802C188.287 91.6904 189.381 92.0391 190.485 92.4219" fill="#D7C1C1"/>
<path d="M207.477 96.5595C207.555 96.8018 207.558 97.0587 207.457 97.3458C207.348 97.6571 207.248 97.8554 207.307 98.0381C207.324 98.0902 207.353 98.1398 207.398 98.1911C205.672 97.8143 203.959 98.2163 202.235 98.128C201.481 98.088 200.812 97.993 200.196 97.8361C199.855 97.3407 199.57 96.8171 199.363 96.262C198.586 94.1801 196.899 92.8795 195.125 91.6166C194.736 91.3386 194.368 91.0391 194.01 90.7283C194.976 90.486 196.456 89.9211 197.259 89.6774C197.843 89.4996 198.537 89.5672 199.255 89.7057C199.428 89.7729 199.599 89.8603 199.768 89.9828C200.457 90.4821 200.705 91.0834 201.157 91.7137C201.613 92.3508 202.323 92.5411 202.626 93.3049C202.841 93.8462 202.884 94.2131 203.385 94.5582C204.491 95.32 206.229 94.941 207.085 95.9165C207.265 96.124 207.404 96.3351 207.477 96.5595ZM197.642 96.6698C197.264 96.4097 196.892 96.1131 196.516 95.7785C194.882 94.3261 193.814 92.3894 191.017 92.4072C190.838 92.4077 190.661 92.4141 190.486 92.4215C189.38 92.0391 188.287 91.6905 187.404 90.8798C187.575 90.8096 189.258 90.7537 191.59 90.7962C192.86 91.4472 194.196 92.0064 195.364 92.9055C196.63 93.878 197.095 95.2854 197.642 96.6698" fill="#B44B49"/>
<path d="M200.197 97.8372C199.248 97.5956 198.43 97.2116 197.643 96.669C197.096 95.2859 196.63 93.8793 195.366 92.9065C194.195 92.0077 192.86 91.4482 191.59 90.7959C192.128 90.8063 192.699 90.8205 193.296 90.8413C193.46 90.8471 193.71 90.8035 194.01 90.7294C194.369 91.0397 194.736 91.3407 195.126 91.6179C196.899 92.8787 198.586 94.1805 199.363 96.2623C199.569 96.8166 199.855 97.3416 200.197 97.8372Z" fill="#C66D65"/>
<path d="M210.468 97.605L209.663 98.8071C209.64 98.8064 209.617 98.8072 209.596 98.806C209.337 98.8004 209.03 98.7846 208.725 98.7419C208.193 98.4655 207.729 98.263 207.404 98.1927C207.402 98.1918 207.4 98.1908 207.399 98.1912C207.353 98.1395 207.324 98.0903 207.307 98.0388C207.248 97.8549 207.348 97.6582 207.458 97.3462C207.559 97.0599 207.555 96.8027 207.477 96.5599C207.404 96.3363 207.266 96.1243 207.085 95.9164C206.227 94.9408 204.492 95.3208 203.386 94.5592C202.883 94.2131 202.841 93.8465 202.627 93.3062C202.324 92.5412 201.612 92.3508 201.157 91.7131C200.704 91.0842 200.457 90.4816 199.769 89.9843C199.601 89.8601 199.428 89.773 199.255 89.7055C200.078 89.8646 200.935 90.1169 201.697 90.2001C201.783 90.4195 201.899 90.6273 202.072 90.8215C202.366 91.1507 202.941 91.6862 203.385 91.7535C203.946 91.837 204.309 91.5535 204.903 91.8813C205.388 92.15 205.622 92.6073 205.783 93.1031C205.82 93.2178 205.855 93.335 205.886 93.4517C205.91 93.5414 205.933 93.6203 205.956 93.6909C206.114 94.1794 206.269 94.233 206.86 94.5016C207.673 94.869 208.855 95.2194 209.506 95.8602C209.928 96.2746 209.937 96.9202 210.24 97.3927C210.281 97.4591 210.361 97.5292 210.468 97.605Z" fill="#C66D65"/>
<path d="M161.634 94.3796C163.983 96.0292 165.65 98.1805 168.731 99.007C170.26 99.418 171.664 99.0096 173.255 99.0096C175.443 99.0105 177.007 100.162 178.142 101.61C179.917 103.871 181.924 105.735 185.546 105.056C189.221 104.365 192.138 104.61 194.147 107.449C195.293 109.067 196.627 110.956 199.181 110.911C200.18 110.894 205.4 110.699 207.821 112.392L214.007 102.168C213.981 102.068 209.011 98.545 207.405 98.1918C205.677 97.8143 203.961 98.2166 202.234 98.1283C199.758 98.0001 198.182 97.2579 196.518 95.7794C194.882 94.3261 193.814 92.3909 191.018 92.4076C188.748 92.421 186.823 93.1376 184.598 92.3215C182.547 91.5696 181.823 89.8384 180.188 88.707C178.295 87.3992 175.726 87.7024 173.343 87.718C170.951 87.7345 166.968 85.9892 165.073 84.9058C164.424 88.2706 162.434 91.6189 161.634 94.3796" fill="#DB5F56"/>
<path d="M162.319 92.5063C163.088 93.2651 164.318 93.6687 165.141 94.3746C166.274 95.3411 166.856 96.6316 168.359 97.0141C169.785 97.3762 171.24 97.0518 172.674 96.8811C174.142 96.7076 175.095 97.1875 176.209 98.1148C176.857 98.6526 177.476 99.3776 178.231 99.7645C178.773 100.041 179.372 99.9687 179.956 100.097C181.972 100.545 183.153 102.353 184.853 103.327C186.178 104.085 187.04 103.792 188.425 103.475C189.64 103.197 191.012 103.382 192.091 103.968C192.925 104.422 194.631 106.008 195.628 105.594C195.451 105.209 194.877 104.88 194.602 104.578C197.977 104.533 199.393 108.79 202.303 109.804C203.514 110.225 204.833 110.041 206.074 110.243C206.513 110.316 208.166 110.51 208.837 110.819L210.105 108.72C209.959 108.711 209.825 108.706 209.708 108.698C208.438 108.618 206.904 108.474 205.947 107.553C205.217 106.852 204.834 105.915 203.946 105.348C203.213 104.881 202.403 104.52 201.667 104.062C201.212 103.777 200.709 103.444 200.179 103.294C199.687 103.157 199.13 103.141 199.461 103.828C199.673 104.269 200.269 104.493 200.639 104.751C201.001 105.002 203.308 106.14 202.071 106.553C201.118 106.87 199.65 105.434 198.915 105.029C198.232 104.653 197.667 104.279 197.106 103.746C196.775 103.431 196.42 103.072 196.008 102.878C195.105 102.451 194.042 102.502 193.088 102.502C191.999 102.502 191.373 101.783 190.357 101.59C189.727 101.472 189.461 101.744 188.927 101.952C188.262 102.211 187.662 102.016 187.013 101.77C185.251 101.1 183.883 99.7418 182.171 99.0822C180.985 98.6257 179.836 98.267 178.882 97.4142C177.798 96.4435 176.573 96.0603 175.107 95.8548C173.491 95.6288 171.825 95.2449 170.181 95.4768C169.057 95.6349 168.313 94.8901 167.416 94.2318C166.395 93.4821 165.329 92.7873 164.271 92.0967C163.9 91.8538 163.345 91.458 162.834 91.2774C162.657 91.6945 162.482 92.1039 162.319 92.5063" fill="#FFB7A4"/>
<path d="M166.923 90.589C167.87 91.3257 168.317 92.304 169.664 92.4512C170.964 92.5915 172.026 91.9212 173.316 92.4842C174.258 92.8947 175.219 93.686 176.255 93.8495C176.765 93.9311 177.222 93.7427 177.713 93.7494C178.163 93.7557 178.641 93.9104 179.062 94.0717C179.437 94.2158 181.994 95.5203 181.082 95.677C180.243 95.822 179.306 94.2361 178.489 94.5075C177.336 94.8896 180.211 95.9169 180.52 96.0503C181.469 96.4598 182.31 96.9198 183.152 97.5197C183.556 97.8066 184.095 98.2208 184.619 98.0527C185.132 97.8866 185.267 97.2354 185.789 97.0765C186.24 96.9389 186.864 97.0057 187.305 97.125C188.286 97.3908 189.431 97.6931 190.35 98.082C190.891 98.311 190.942 98.7226 190.986 99.1193C191.032 99.5273 191.072 99.9169 191.636 100.076C192.043 100.191 192.516 100.038 192.963 100.091C193.55 100.163 194.055 100.417 194.586 100.651C195.65 101.118 196.484 101.421 197.618 101.287C198.953 101.127 200.019 100.591 201.428 100.811C203.515 101.134 205.075 102.452 206.213 104.151C207.028 105.368 208.139 106.275 209.67 106.334C210.354 106.361 211.061 106.118 211.74 105.875L212.598 104.457C212.037 104.634 211.491 104.922 210.876 104.785C209.055 104.373 207.475 102.732 206.088 101.564C204.94 100.598 203.421 100.247 202.028 99.7691C201.204 99.4878 200.316 99.3969 199.472 99.4874C198.246 99.619 197.059 99.64 195.871 99.1165C194.988 98.7278 194.175 97.7699 193.201 97.8909C192.778 97.9418 192.233 98.1824 191.814 97.9697C191.404 97.7592 191.225 97.2015 190.8 96.9536C189.95 96.4594 188.965 96.188 188.068 95.8039C186.856 95.2847 186.368 95.7391 185.365 96.2786C184.665 96.6543 183.527 96.6492 182.884 96.1029C182.178 95.5031 182.118 94.3958 181.354 93.7589C180.391 92.9579 179.014 93.2231 177.854 93.0931C177.378 93.0408 176.854 92.9956 176.444 92.7362C176.046 92.483 175.905 92.1073 175.452 91.9243C174.527 91.5491 173.194 91.6156 172.235 91.7199C171.431 91.8078 170.225 91.9634 169.444 91.7309C168.649 91.4947 167.972 90.7414 167.36 90.2055C167.128 90 166.666 89.5391 166.314 89.7733C165.794 90.1174 166.669 90.3905 166.923 90.589" fill="#FFB7A4"/>
<path d="M182.986 93.7009C183.221 94.4268 183.133 95.3937 183.07 96.2376C183.006 96.197 182.943 96.1539 182.886 96.1044C182.178 95.5032 182.12 94.3974 181.354 93.7602C181.122 93.5675 180.864 93.4347 180.592 93.3448C180.518 93.1309 180.443 92.9155 180.373 92.6987C180.223 92.2364 180.092 91.7682 180.004 91.2859C179.73 89.7873 180.788 90.3179 181.487 91.0417C182.121 91.6983 182.702 92.831 182.984 93.6949C182.984 93.6964 182.985 93.6979 182.986 93.7009V93.7009ZM183 97.4119C182.946 98.0717 182.86 98.7282 182.85 99.3854C182.63 99.2739 182.405 99.1719 182.173 99.0823C181.755 98.9216 181.341 98.7729 180.939 98.6103C180.878 98.3039 180.791 97.9793 180.694 97.6081C181.19 97.6138 181.474 97.8445 181.593 97.2518C181.633 97.0694 181.61 96.8154 181.562 96.5447C182.055 96.8027 182.528 97.0855 183 97.4119V97.4119ZM183.394 102.652C183.495 102.962 183.568 103.279 183.501 103.591C183.275 104.646 181.664 104.485 181.39 103.64C181.388 103.634 181.386 103.627 181.384 103.621L180.975 103.278C180.871 103.081 180.788 102.885 180.724 102.688C180.512 102.033 180.523 101.369 180.785 100.663C180.817 100.577 180.847 100.494 180.871 100.411C181.743 100.816 182.468 101.461 183.203 102.093C183.205 102.098 183.207 102.104 183.208 102.108C183.237 102.197 183.268 102.287 183.301 102.378C183.333 102.469 183.364 102.558 183.394 102.652Z" fill="#E27166"/>
<path d="M182.85 99.3854C182.847 99.6678 182.856 99.9493 182.887 100.233C182.953 100.809 183.005 101.37 183.154 101.93C183.17 101.984 183.185 102.037 183.203 102.092C182.467 101.461 181.743 100.815 180.871 100.411C181.078 99.7394 181.058 99.2107 180.938 98.6096C181.34 98.7721 181.755 98.9206 182.172 99.0828C182.405 99.1713 182.629 99.2738 182.85 99.3854" fill="#FFB7A4"/>
<path d="M183.071 96.2371C183.056 96.4438 183.041 96.6435 183.034 96.8295C183.027 97.0239 183.014 97.2168 182.998 97.4106C182.527 97.0858 182.055 96.8025 181.561 96.5441C181.478 96.0756 181.311 95.5506 181.223 95.2315C181.169 95.0406 181.11 94.853 181.049 94.666C180.942 94.3349 180.826 94.0067 180.71 93.68C180.671 93.5682 180.631 93.4563 180.592 93.3445C180.864 93.4351 181.121 93.5666 181.354 93.76C182.118 94.3967 182.178 95.5026 182.885 96.1038C182.943 96.1522 183.005 96.1976 183.071 96.2371" fill="#FFB7A4"/>
<path d="M169.496 88.8424C169.557 89.0327 169.517 89.2695 169.44 89.5198C169.25 90.1461 168.98 90.7574 168.72 91.3724C168.285 91.0775 167.885 90.6813 167.513 90.3425C167.595 89.9209 167.708 89.5215 167.907 89.1824C168.161 88.749 168.404 88.316 168.978 88.4488C169.284 88.5193 169.436 88.6598 169.496 88.8424V88.8424ZM168.462 91.995C168.391 92.174 168.325 92.3514 168.262 92.5294C168.06 93.1138 167.895 93.6893 167.889 94.3151C167.888 94.4089 167.893 94.5054 167.902 94.6008C167.744 94.4791 167.581 94.3538 167.416 94.231C167.079 93.9843 166.738 93.7437 166.393 93.5062C167.126 92.9569 167.257 91.9802 167.402 91.0108C167.762 91.3622 168.075 91.7219 168.462 91.995V91.995ZM167.88 96.8495C167.234 97.6301 165.392 96.9366 164.898 96.2351L164.491 95.8925C164.304 95.719 164.163 95.524 164.095 95.3153C164.01 95.0514 164.041 94.765 164.252 94.4694C164.386 94.2767 164.56 94.1609 164.755 94.0809C164.892 94.1739 165.02 94.2714 165.142 94.3744C166.145 95.2312 166.716 96.3413 167.88 96.8495" fill="#E27166"/>
<path d="M167.903 94.6015C167.96 95.18 168.171 95.7888 168.089 96.349C168.056 96.5579 167.983 96.7234 167.879 96.8489C166.717 96.3414 166.144 95.2313 165.141 94.374C165.021 94.2711 164.891 94.1732 164.756 94.0817C165.121 93.9318 165.556 93.9094 165.937 93.7591C166.11 93.6898 166.262 93.6038 166.394 93.5061C166.738 93.7433 167.079 93.9845 167.416 94.2307C167.583 94.3535 167.743 94.4783 167.903 94.6015" fill="#FFB7A4"/>
<path d="M168.719 91.3716C168.631 91.5787 168.544 91.7873 168.462 91.9959C168.075 91.722 167.763 91.363 167.402 91.0117C167.436 90.7865 167.47 90.5617 167.513 90.3421C167.886 90.6813 168.284 91.078 168.719 91.3716Z" fill="#FFB7A4"/>
<path d="M198.793 99.5477C198.132 99.5882 197.479 99.5722 196.831 99.4298C196.833 98.3234 197.491 97.7502 198.284 98.6684C198.512 98.9327 198.678 99.2297 198.793 99.5477V99.5477ZM199.032 101.012C199.054 102.302 198.716 103.719 198.657 104.882C198.088 104.553 197.595 104.209 197.108 103.746C197.017 103.66 196.925 103.572 196.829 103.482C196.87 102.929 197.047 102.745 197.315 102.328C197.494 102.051 197.462 101.695 197.355 101.312C197.442 101.306 197.529 101.298 197.619 101.288C198.116 101.228 198.578 101.117 199.032 101.012V101.012ZM199.563 108.502C199.652 108.777 199.701 109.059 199.665 109.354C199.525 110.525 197.428 110.017 197.428 110.017C197.199 109.887 197.06 109.675 196.981 109.432C196.808 108.898 196.933 108.216 197.067 107.947C197.552 106.981 197.339 106.398 197.114 105.43C197.785 105.907 198.389 106.536 198.989 107.173C199.011 107.232 199.036 107.29 199.061 107.349C199.222 107.724 199.434 108.105 199.563 108.502" fill="#E27166"/>
<path d="M198.657 104.883C198.652 104.962 198.649 105.04 198.648 105.118C198.638 105.755 198.707 106.331 198.893 106.906C198.922 106.995 198.954 107.084 198.989 107.173C198.389 106.536 197.785 105.908 197.113 105.429C197.101 105.373 197.087 105.314 197.074 105.257C196.953 104.711 196.805 104.181 196.823 103.611C196.824 103.568 196.827 103.523 196.829 103.483C196.924 103.571 197.016 103.66 197.108 103.746C197.596 104.209 198.086 104.553 198.657 104.883" fill="#FFB7A4"/>
<path d="M198.831 99.6603C198.967 100.08 199.023 100.536 199.031 101.011C198.576 101.116 198.115 101.227 197.618 101.288C197.528 101.297 197.439 101.305 197.355 101.312C197.336 101.249 197.318 101.187 197.297 101.123C197.248 100.971 197.192 100.818 197.136 100.665C197.078 100.509 197.022 100.355 196.973 100.204C196.894 99.961 196.835 99.7242 196.829 99.5077C196.828 99.4813 196.829 99.4543 196.829 99.4293C197.478 99.5723 198.13 99.5873 198.792 99.5456C198.804 99.584 198.818 99.6205 198.831 99.6603" fill="#FFB7A4"/>
<path d="M250 125C250 194.036 194.036 250 125 250C55.9644 250 0 194.036 0 125C0 55.9644 55.9644 0 125 0C194.036 0 250 55.9644 250 125Z" fill="#E8E8E8" fill-opacity="0.05"/>
</svg>
