<svg width="187" height="187" viewBox="0 0 187 187" fill="none" xmlns="http://www.w3.org/2000/svg">
<path fill-rule="evenodd" clip-rule="evenodd" d="M187 81.6325C186.981 83.6051 185.353 85.2099 183.376 85.2099C181.514 85.8505 180.783 87.95 180.585 90.3413L183.313 92.0475C184.133 92.5613 184.705 93.3605 184.921 94.2992C185.137 95.2379 184.972 96.2084 184.457 97.0266C183.789 98.0859 182.645 98.7202 181.386 98.7202C181.386 98.7202 176.32 100.579 174.597 101.93C175.353 102.532 175.83 103.389 175.945 104.346C176.059 105.304 175.786 106.249 175.188 107.004L175.048 107.175C175.203 107.613 175.361 108.041 175.51 108.443L175.511 108.446L175.513 108.451L175.515 108.456L175.515 108.457C175.934 109.588 176.276 110.512 176.243 110.867C176.231 111.038 176.218 111.33 176.205 111.71C178.125 112.218 179.282 114.184 178.786 116.106L176.237 125.956C175.868 127.384 174.673 128.424 173.243 128.627C173.262 128.931 173.294 129.229 173.325 129.526L173.325 129.527C174.877 130.352 175.646 132.204 175.048 133.91C174.73 134.805 174.082 135.521 173.275 135.934C172.81 136.466 172.289 137.152 171.806 137.925L173.421 138.49C175.303 139.15 176.301 141.217 175.639 143.095C175.131 144.541 173.758 145.511 172.219 145.511C171.812 145.511 171.412 145.442 171.024 145.308C172.613 147.598 169.25 148.271 166.358 148.746L168.799 151.74C169.409 152.489 169.695 153.434 169.594 154.391C169.498 155.355 169.028 156.218 168.278 156.827C167.636 157.354 166.822 157.639 165.995 157.639C164.902 157.639 163.878 157.157 163.186 156.307L160.045 152.457C159.581 153.345 159.206 154.398 158.888 155.609C159.009 155.597 159.13 155.59 159.244 155.59C161.113 155.59 162.664 156.998 162.842 158.857C162.938 159.815 162.651 160.76 162.035 161.502C161.418 162.25 160.547 162.707 159.587 162.802L150.223 163.709C150.14 163.868 150.045 164.026 149.937 164.172C149.714 164.477 149.454 164.737 149.155 164.959L149.543 165.2C150.369 165.707 150.948 166.5 151.17 167.439C151.393 168.377 151.24 169.341 150.732 170.166C150.064 171.244 148.913 171.885 147.642 171.885C146.974 171.885 146.32 171.695 145.747 171.346L141.583 168.79C140.293 168.91 139.034 169.094 138.43 170.451C138.329 170.686 138.163 170.876 137.953 171.035L139.651 174.384C140.547 176.16 139.829 178.336 138.049 179.236C137.54 179.49 136.993 179.623 136.421 179.623C135.042 179.623 133.802 178.862 133.185 177.638L129.664 170.686C129.117 170.553 128.576 170.413 128.055 170.274L130.445 174.987C131.342 176.763 130.623 178.938 128.843 179.839C128.335 180.093 127.788 180.226 127.216 180.226C125.836 180.226 124.597 179.465 123.98 178.241L121.571 173.49C121.348 173.705 121.1 173.883 120.827 174.035C121.393 174.422 121.85 174.98 122.124 175.653C122.874 177.498 121.971 179.604 120.121 180.353L110.662 184.158C110.229 184.336 109.772 184.425 109.308 184.425C107.826 184.425 106.504 183.537 105.951 182.16C105.614 181.329 105.608 180.429 105.906 179.592L102.124 183.48C101.437 184.19 100.509 184.577 99.5236 184.577C98.5764 184.577 97.68 184.215 96.9998 183.556C96.3641 182.934 96.0081 182.135 95.9254 181.31C90.4975 183.66 84.8542 178.179 81.288 174.715L81.2878 174.715C80.7441 174.186 80.2487 173.705 79.8097 173.306L82.0856 182.522C82.5624 184.457 81.3736 186.416 79.4346 186.892C79.1485 186.962 78.8561 187 78.5637 187C76.8917 187 75.4486 185.865 75.0481 184.247L72.1365 172.437C72.084 172.441 72.0315 172.446 71.979 172.451L71.8983 172.459L71.8024 172.468L71.7421 172.474L71.6939 172.478L71.6597 172.481L68.5637 182.141C68.0869 183.645 66.701 184.653 65.118 184.653C64.7429 184.653 64.3679 184.596 64.0118 184.482C62.111 183.873 61.0557 181.837 61.666 179.94L62.6959 176.718C62.3653 176.458 62.0284 176.135 61.6978 175.754L61.577 176.135C61.1002 177.638 59.7143 178.646 58.1314 178.646C57.7563 178.646 57.3812 178.589 57.0252 178.475C56.1034 178.177 55.3532 177.543 54.9082 176.687C54.4632 175.83 54.3869 174.853 54.6793 173.934L55.4804 171.435C55.3087 171.397 55.1371 171.359 54.9591 171.32C54.9527 171.777 54.8637 172.24 54.6793 172.678C54.1199 174.029 52.8039 174.904 51.3354 174.904C50.8586 174.904 50.3945 174.809 49.9495 174.625L40.5344 170.718C39.638 170.344 38.9451 169.652 38.5763 168.758C38.2076 167.864 38.214 166.887 38.5827 165.992C39.1421 164.641 40.4581 163.766 41.9266 163.766C42.1555 163.766 42.3907 163.792 42.6132 163.836C42.4734 163.316 42.3335 162.77 42.2 162.212L35.3405 162.371C33.3951 162.371 31.7677 160.785 31.7232 158.838C31.6787 156.96 33.09 155.375 34.9272 155.165L32.2699 153.243C30.9667 152.298 30.4517 150.624 30.973 149.133C30.2483 148.949 29.5998 148.55 29.1103 147.979L22.2699 148.638C22.1491 148.651 22.0347 148.657 21.9139 148.657C20.0448 148.657 18.4937 147.249 18.3157 145.391C18.2203 144.433 18.5064 143.488 19.123 142.746C19.7397 141.997 20.6106 141.541 21.5706 141.446C21.6087 141.186 21.685 140.875 21.7804 140.532L17.0696 144.091C16.4403 144.566 15.6837 144.82 14.8891 144.82C13.7384 144.82 12.6895 144.3 11.9965 143.387C11.4116 142.619 11.1637 141.668 11.2972 140.71C11.4307 139.752 11.9329 138.908 12.7022 138.325L23.09 130.485L12.0728 131.551C11.952 131.563 11.8376 131.57 11.7168 131.57C9.84775 131.57 8.29658 130.162 8.11857 128.303C8.03593 127.415 8.27751 126.546 8.79245 125.836C7.29848 125.493 6.16689 124.237 6.01431 122.671C5.82359 120.685 7.27941 118.916 9.26924 118.726L11.8185 118.478C11.7867 118.32 11.7486 118.148 11.7041 117.977C11.3036 118.136 10.8776 118.224 10.4263 118.231H10.4008H10.3754C8.39829 118.231 6.77719 116.626 6.75176 114.66L6.62461 104.486C6.6119 103.522 6.98062 102.608 7.65449 101.917C8.0105 101.023 7.4447 99.8175 6.61826 98.5362C6.29403 98.625 5.9571 98.6758 5.6138 98.6758C4.35506 98.6758 3.21075 98.0415 2.54323 96.9822C2.02829 96.164 1.863 95.1935 2.07915 94.2548C2.2953 93.3161 2.86746 92.5169 3.68755 92.0031C4.61571 90.7028 5.73459 87.6582 6.02703 85.1782L3.62397 85.1972C1.6405 85.1972 0.0193901 83.5925 0.000318189 81.6198C-0.0123964 80.6557 0.356326 79.7487 1.03656 79.0573C1.71043 78.3723 2.61952 77.9854 3.58583 77.979L4.11984 77.9727C4.32963 77.3511 4.64749 76.6914 5.06708 76.0381C4.14527 75.3912 3.53497 74.3255 3.52225 73.1204C3.50318 71.1287 5.11158 69.4923 7.10776 69.4733L10.7759 69.4416C10.8077 69.0864 10.8077 68.7185 10.7823 68.3379C10.172 68.8136 9.40275 69.0927 8.58266 69.0927C8.49924 69.0927 8.41582 69.0871 8.32717 69.0812L8.30929 69.08C7.34299 69.0039 6.46568 68.5599 5.83631 67.8305C5.20693 67.1011 4.90179 66.1686 4.97172 65.2045L5.74095 55.056C5.89352 53.0897 7.6227 51.5801 9.62525 51.726C10.5916 51.8021 11.4689 52.2461 12.0982 52.9755C12.2381 53.1341 12.3525 53.299 12.4606 53.4766C12.8865 53.1595 13.357 52.874 13.8783 52.6076L12.0919 47.5968C11.7677 46.6897 11.8185 45.7066 12.2317 44.8376C12.6513 43.9687 13.3824 43.309 14.2915 42.9855C14.6857 42.846 15.0925 42.7762 15.5057 42.7762C16.9234 42.7762 18.2076 43.6008 18.7925 44.8693L19.7842 41.7487C20.0448 40.9304 20.5725 40.2644 21.2464 39.8204C21.7041 39.2179 22.3271 38.3235 22.9692 37.3721C21.329 36.5348 20.5661 34.5749 21.2591 32.8306C21.8122 31.4415 23.1345 30.5472 24.6284 30.5472C25.0862 30.5472 25.5375 30.6296 25.9635 30.8009L26.2813 30.9278L28.5827 23.7032C29.0658 22.2 30.4517 21.1851 32.0347 21.1851C32.4098 21.1851 32.7785 21.2422 33.1345 21.3564C35.0353 21.959 36.0906 23.995 35.4867 25.8915L35.118 27.0396C35.5439 26.9698 35.9889 26.9825 36.4085 27.0713C36.4085 25.5617 37.3621 24.1663 38.8179 23.6525C39.2121 23.513 39.6189 23.4432 40.0322 23.4432C41.1256 23.4432 42.1428 23.9443 42.8166 24.7562L43.7003 24.3248L43.7893 24.0458C43.5922 22.4537 44.4823 20.9124 45.9635 20.2844C46.186 20.1893 46.4212 20.1195 46.6628 20.0688C47.0887 19.9356 47.5337 19.8785 47.9724 19.9039L45.4549 18.1152C44.6666 17.557 44.139 16.7261 43.98 15.7747C43.8147 14.8232 44.0372 13.8655 44.5967 13.079C45.2769 12.1275 46.3831 11.5567 47.5528 11.5567C48.3093 11.5567 49.0341 11.785 49.6507 12.2227C50.3182 10.9351 53.0519 10.0154 55.8872 9.45085C55.207 7.64948 56.0652 5.61343 57.858 4.85228C58.3094 4.662 58.7798 4.56685 59.2693 4.56685C60.7315 4.56685 62.0347 5.42948 62.6069 6.76782L63.4397 8.73411C63.9165 8.7024 64.406 8.65165 64.8955 8.58188C64.7239 7.04057 65.5694 5.49925 67.076 4.85863C67.5274 4.66834 67.9979 4.5732 68.4874 4.5732C69.4727 4.5732 70.3946 4.9728 71.0621 5.64514C71.5389 5.29628 72.2318 4.94108 73.0519 4.62394C73.1218 4.22434 73.2553 3.83743 73.4588 3.47588C73.9356 2.63863 74.7048 2.02971 75.6393 1.76966C75.9572 1.68086 76.2878 1.63646 76.6183 1.63646C77.8644 1.63646 79.0023 2.28343 79.6571 3.29194C80.5154 3.29194 81.2782 3.38708 81.8631 3.61543C81.8631 1.62377 83.4906 0 85.4868 0C87.3622 0 88.9133 1.42714 89.0913 3.25388C90.8269 2.73377 92.7658 1.97263 94.9019 1.01486C96.5611 0.272743 98.3221 0.0951425 100.051 0.304457C100.496 0.114171 100.979 0.006343 101.494 0.006343C102.785 0.006343 103.91 0.678685 104.552 1.6872C105.538 2.16926 106.459 2.74645 107.28 3.36805C107.922 2.31514 109.085 1.63646 110.363 1.63646C110.693 1.63646 111.024 1.68086 111.342 1.76966C113.268 2.3088 114.393 4.3068 113.853 6.22234L113.135 8.77217L114.006 9.49525L115.163 6.77417C115.735 5.43582 117.044 4.5732 118.5 4.5732C118.983 4.5732 119.46 4.66834 119.911 4.85863C120.808 5.23285 121.494 5.93691 121.857 6.83125C122.219 7.7256 122.206 8.70874 121.831 9.59674L119.956 14.005C120.306 14.1826 120.674 14.3792 121.056 14.6012L124.387 6.77417C124.959 5.43582 126.269 4.5732 127.725 4.5732C128.208 4.5732 128.685 4.66834 129.136 4.85863C130.973 5.6388 131.838 7.76365 131.056 9.59674L127.121 18.851L127.559 19.1744L137.343 12.229C137.96 11.7914 138.685 11.563 139.441 11.563C140.617 11.563 141.717 12.1339 142.397 13.0853C142.957 13.8718 143.173 14.8296 143.014 15.781C142.849 16.7324 142.327 17.5634 141.539 18.1215L139.021 19.9102C139.466 19.8848 139.905 19.9419 140.331 20.0751C140.573 20.1259 140.808 20.1956 141.03 20.2908C142.512 20.9187 143.395 22.46 143.205 24.0521L143.681 25.5427C144.273 24.2804 145.55 23.4495 146.968 23.4495C147.381 23.4495 147.788 23.5193 148.182 23.6588C149.638 24.1726 150.598 25.568 150.592 27.0776C151.011 26.9952 151.45 26.9825 151.882 27.0459L151.514 25.8979C151.221 24.9782 151.304 24.0014 151.749 23.1451C152.194 22.2888 152.944 21.6545 153.866 21.3627C154.222 21.2486 154.597 21.1915 154.966 21.1915C156.548 21.1915 157.934 22.2 158.418 23.7096L160.719 30.9341L161.037 30.8072C161.469 30.6423 161.914 30.5535 162.372 30.5535C163.866 30.5535 165.188 31.4479 165.741 32.837C166.097 33.7376 166.078 34.7144 165.697 35.6024C165.315 36.4904 164.603 37.1755 163.707 37.5307L162.429 38.0381C162.219 38.9071 161.692 39.6619 160.954 40.1629L161.113 40.3976C161.539 39.9346 162.067 39.5984 162.671 39.4081C163.027 39.294 163.402 39.2369 163.77 39.2369C165.353 39.2369 166.739 40.2454 167.222 41.755L168.214 44.8757C168.805 43.6135 170.083 42.7825 171.501 42.7825C171.914 42.7825 172.321 42.8523 172.715 42.9919C173.631 43.3153 174.362 43.975 174.775 44.844C175.188 45.7129 175.239 46.6961 174.915 47.6031L174.012 50.1403C174.959 50.3242 175.684 50.5779 176.008 50.9331C176.199 51.1488 176.396 51.4723 176.587 51.8845C176.841 51.8084 177.108 51.7513 177.381 51.7323C179.39 51.5864 181.119 53.096 181.266 55.0623L182.035 65.2109C182.149 66.7205 181.316 68.0842 180.032 68.7185C180.079 68.9054 180.129 69.0957 180.181 69.2895L180.236 69.4986C182.067 69.6889 183.497 71.2493 183.478 73.1268C183.465 74.1353 183.033 75.0486 182.353 75.702C182.747 76.6661 183.116 77.4653 183.414 77.9854C184.381 77.9981 185.283 78.3786 185.964 79.07C186.638 79.755 187.006 80.6684 187 81.6325ZM74.8244 84.7294L78.7778 72.4146L78.9462 72.4639C79.1954 76.4565 78.5255 81.1542 77.4543 86.17C76.5686 85.6343 75.6916 85.1513 74.8244 84.7294ZM74.6846 85.1648L74.1105 84.5749L74.2354 84.4516C74.4312 84.541 74.6276 84.6336 74.8244 84.7294L74.6846 85.1648ZM77.1242 87.6716C77.2378 87.1682 77.348 86.6675 77.4543 86.17C82.9977 89.523 88.879 94.9427 94.7974 100.397C107.605 112.199 120.587 124.162 130.694 115.687C129.773 117.428 128.843 119.153 127.907 120.864C122.526 124.015 116.824 126.713 107.964 119.361L77.1242 87.6716ZM130.419 119.39C128.397 122.212 126.209 125.106 123.887 128.059C125.238 125.688 126.579 123.291 127.907 120.864C128.213 120.685 128.519 120.504 128.824 120.324C129.356 120.008 129.887 119.694 130.419 119.39ZM130.419 119.39C132.092 117.055 133.652 114.769 135.082 112.539C143.351 108.67 159.632 108.004 150.88 120.241C133.813 144.104 143.464 137.75 149.438 133.817C151.666 132.35 153.383 131.22 153.011 132.12C148.351 138.892 143.772 141.549 138.98 144.33C134.917 146.687 130.7 149.134 126.151 154.253C126.582 151.136 127.569 148.741 128.464 146.571C129.849 143.212 131.011 140.393 129.539 136.27C128.297 134.971 132.489 131.447 136.777 127.842C141.518 123.855 146.377 119.769 144.139 118.484C138.654 115.336 134.501 117.058 130.419 119.39ZM135.082 112.539C133.694 113.189 132.532 113.929 131.752 114.713C131.403 115.064 131.05 115.388 130.694 115.687C135.773 106.084 140.594 96.0163 144.893 85.3258C145.733 92.6443 141.866 101.964 135.082 112.539ZM77.1242 87.6716C76.3633 91.0419 75.4481 94.5355 74.5304 98.039C69.9659 115.464 65.3373 133.134 79.3083 137.097C86.7129 139.193 100.953 158.42 83.4508 156.406C54.2249 153.045 64.4206 158.385 70.7319 161.69C73.086 162.923 74.8997 163.873 73.9255 163.982C65.7193 163.189 61.1986 160.483 56.4675 157.651C52.4558 155.25 48.2929 152.759 41.6036 151.266C44.5708 150.139 47.1612 149.845 49.508 149.579C53.1412 149.166 56.1903 148.82 59.1497 145.553C59.714 143.846 64.8203 145.797 70.044 147.793C75.8202 149.999 81.7401 152.261 81.822 149.694C82.0454 142.584 77.5564 139.952 72.9497 137.25C67.3029 133.939 61.4792 130.525 63.9407 118.632L74.6846 85.1648L77.1242 87.6716ZM144.905 71.2382C136.359 51.3984 127.395 36.4197 117.381 32.381C127.941 45.1552 136.855 58.2629 144.905 71.2382ZM88.7181 27.4011C93.1824 29.3389 97.1402 32.1327 100.27 35.599C108.259 44.4525 108.529 56.6345 108.846 70.8811C108.941 75.1964 109.041 79.7011 109.361 84.3601C109.869 78.7175 110.954 72.2372 112.046 65.715L112.046 65.7148L112.047 65.7147C114.627 50.3063 117.246 34.6647 112.387 29.2834C108.009 24.4403 98.5941 25.8914 91.4096 26.9987L91.4093 26.9987C90.4686 27.1437 89.5661 27.2828 88.7181 27.4011ZM35.6406 66.0815L35.6407 66.0814C36.5038 65.528 37.3846 64.9632 38.1523 64.3867C39.1552 63.6381 38.9476 64.0352 38.5116 64.8696C37.9886 65.8703 37.137 67.4999 37.6499 68.5367C40.3348 76.6779 38.3966 81.1173 34.924 86.3907C34.5142 86.0321 34.3595 86.0589 34.5523 86.95C34.1236 87.5898 33.6744 88.2438 33.2101 88.9199L33.21 88.92C32.5262 89.9157 31.8095 90.9593 31.0769 92.0757C32.9219 86.5985 33.7097 79.639 31.641 70.366C31.2579 69.492 32.0752 68.5816 33.3418 67.6276C34.0172 67.1224 34.8207 66.6072 35.6402 66.0817L35.6404 66.0816L35.6406 66.0815ZM34.5523 86.95C34.5532 86.9541 34.5541 86.9582 34.555 86.9624C34.7619 87.8926 34.8739 88.9147 34.9836 89.9162L34.9836 89.9163C35.0878 90.8674 35.19 91.7998 35.3694 92.6173C35.7146 94.1533 36.3197 95.2822 37.7236 95.3611C51.2127 97.9158 59.687 101.847 65.493 105.995C64.5609 104.843 63.7121 103.738 62.9022 102.685L62.9021 102.684C57.6026 95.788 53.9708 91.0619 39.5853 89.3348C37.8786 89.2916 36.3645 87.7968 35.4347 86.879C35.2367 86.6835 35.0652 86.5142 34.924 86.3907C34.802 86.576 34.678 86.7624 34.5523 86.95ZM39.6666 54.0938C43.5004 51.096 47.8446 48.9517 52.3844 47.856C63.9776 45.0621 74.8112 50.6394 87.481 57.162C91.3186 59.1377 95.3247 61.2001 99.5714 63.1428C94.8555 60.003 89.679 55.9561 84.4691 51.8831C72.161 42.2609 59.6666 32.4931 52.6185 34.1943C46.2732 35.7292 43.0542 44.695 40.5977 51.5367C40.2761 52.4327 39.9675 53.2922 39.6666 54.0938Z" fill="#FFDD87" fill-opacity="0.7"/>
</svg>
