<svg width="250" height="250" viewBox="0 0 250 250" fill="none" xmlns="http://www.w3.org/2000/svg">
<path d="M83.6253 219.794C83.6253 219.794 81.8697 216.819 83.5841 215.486C85.7786 213.777 87.649 212.966 87.649 212.966L86.3176 208.766L78.7473 207.721C78.7473 207.721 76.2111 205.023 77.6515 201.663C79.3571 197.679 83.6253 195.374 86.5945 194.103C90.0085 192.639 94.5389 193.162 96.268 194.59C99.52 197.272 99.196 201.745 99.196 201.745L103.423 201.99C103.423 201.99 106.212 197.298 108.79 195.971C111.635 194.508 115.27 194.574 117.977 196.136C120.092 197.355 123.583 200.957 122.449 204.834C121.271 208.86 116.555 210.648 116.555 210.648L107.897 209.55C107.897 209.55 106.716 211.705 106.837 212.071C106.961 212.436 108.831 213.697 107.488 217.356C106.148 221.015 112.166 216.747 112.166 216.747L118.019 212.356L124.237 206.623L125.336 198.573L120.092 192.232L111.311 190.037L102.286 194.428L99.6025 190.891L93.016 188.451L83.26 190.891L76.9181 196.988L73.7456 204.427L77.2833 207.721L81.5516 209.427L78.3821 215.281L83.6253 219.794" fill="#95C250"/>
<path d="M126.921 196.623C123.603 192.198 122.65 192.597 122.65 192.597L124.359 201.745L120.213 209.549L112.406 210.891L109.358 217.965L97.0392 224.064L88.6251 223.453L81.5504 219.916L78.3807 215.281L81.5504 209.427L83.6249 207.354L75.4549 206.5L71.797 202.599C71.797 202.964 71.0649 207.232 71.0649 207.232C71.0649 207.232 70.3386 209.068 73.7465 211.622C76.1871 213.453 78.6247 213.453 78.6247 213.453C78.6247 213.453 76.6722 213.208 76.4282 216.38C76.1871 219.551 75.1097 222.544 76.4282 224.429C78.1366 226.869 82.6785 230.72 89.7234 231.381C97.5303 232.113 104.602 232.113 109.724 227.843C115.364 223.142 115.701 218.819 115.701 218.819C115.701 218.819 119.061 218.824 122.04 217.476C125.823 215.77 128.505 211.989 129.24 209.062C129.969 206.135 130.335 201.175 126.921 196.623" fill="#95C250"/>
<path d="M122.934 202.232C122.61 205.566 121.392 207.354 119.439 208.248C115.429 210.087 110.578 206.989 110.578 206.989L107.896 209.549C107.896 209.549 110.578 211.502 108.871 215.161C107.572 217.94 102.284 222.356 94.844 222.234C87.6535 222.115 81.0634 219.429 81.0634 215.403C81.0634 211.087 86.3188 208.765 86.3188 208.765L84.8563 205.839C84.8563 205.839 78.3198 207.232 76.673 205.404C75.0292 203.573 75.9417 198.94 79.2353 196.013C82.5289 193.086 88.5958 188.921 94.4814 190.524C99.8438 191.988 99.7636 196.378 99.7636 196.378L103.696 196.509C103.696 196.509 107.882 191.248 114.359 191.988C118.627 192.475 123.446 197.016 122.934 202.232V202.232ZM120.161 190.654C110.099 186.264 103.149 192.118 103.149 192.118C103.149 192.118 99.4336 187.884 95.0907 187.233C90.2128 186.501 84.4877 187.363 79.5504 191.753C75.9952 194.913 69.854 201.081 72.4163 205.472C74.9786 209.862 79.5504 209.497 79.5504 209.497C79.5504 209.497 71.9615 218.026 80.6472 222.669C90.3317 227.843 103.126 225.85 107.54 223.4C112.477 220.656 113.39 214.253 113.39 214.253C113.39 214.253 120.824 216.175 124.968 209.956C128.995 203.92 129.718 194.826 120.161 190.654" fill="#ADD664"/>
<path d="M87.6501 212.965C87.6501 212.965 90.8213 211.664 91.3914 210.77C91.9588 209.874 90.2539 205.891 90.2539 205.891L87.08 206.542L86.318 208.766L84.9668 210.363L85.863 210.933L84.9668 212.558L86.5126 211.827L85.6986 213.29L87.6501 212.965" fill="#D6A374"/>
<path d="M90.251 205.891C89.8438 204.834 84.8535 205.839 84.8535 205.839L83.1782 206.949L84.4763 207.192L83.5034 208.086C83.5034 208.086 84.6403 208.331 84.8836 208.331C85.1295 208.331 83.9899 209.225 83.9899 209.225L86.3183 208.765C86.3183 208.765 90.6582 206.949 90.251 205.891" fill="#F2B981"/>
<path d="M105.618 206.215C105.618 206.215 103.992 208.413 104.236 209.387C104.481 210.363 106.434 211.582 106.837 212.071C107.244 212.558 108.463 213.208 108.463 213.208L107.895 211.502L108.546 212.071L107.815 210.281L108.546 210.933V209.469L105.618 206.215Z" fill="#D6A374"/>
<path d="M111.312 209.47L110.742 208.331L112.042 208.818L110.579 206.99C110.579 206.99 107.815 204.997 106.025 205.811C104.235 206.623 107.895 209.549 107.895 209.549L109.602 211.258L108.872 209.712L110.659 210.363C110.659 210.363 109.928 209.225 109.685 209.144C109.439 209.063 111.312 209.47 111.312 209.47" fill="#F2B981"/>
<path d="M99.4188 197.477C99.4188 197.477 98.9939 201.805 99.053 202.354C99.1149 202.904 99.7254 204.367 100.885 204.245C102.041 204.123 103.037 202.904 103.423 201.989C103.811 201.073 103.69 196.745 103.69 196.745L99.4188 197.477" fill="#D6A374"/>
<path d="M102.854 195.809L102.609 194.672L101.959 195.891L101.635 194.428L101.146 195.646L100.496 194.345L99.7644 196.378C99.7644 196.378 98.546 199.305 101.064 199.468C103.585 199.63 103.695 196.509 103.695 196.509L103.83 194.59L102.854 195.809" fill="#F2B981"/>
<path d="M121.698 214.461C121.698 214.461 121.505 211.013 123.637 210.612C126.372 210.1 128.408 210.235 128.408 210.235L129.146 205.893L122.895 201.494C122.895 201.494 121.878 197.934 124.696 195.608C128.042 192.85 132.889 192.755 136.113 192.986C139.817 193.251 143.603 195.793 144.489 197.854C146.148 201.729 143.808 205.554 143.808 205.554L147.455 207.709C147.455 207.709 152.085 204.816 154.984 204.82C158.181 204.824 161.385 206.548 163.074 209.174C164.393 211.227 165.848 216.031 163.061 218.956C160.168 221.993 155.16 221.421 155.16 221.421L147.966 216.478C147.966 216.478 145.93 217.853 145.869 218.234C145.811 218.615 146.896 220.592 144.026 223.23C141.156 225.866 148.46 224.83 148.46 224.83L155.677 223.611L163.832 221.366L168.496 214.715L166.743 206.674L159.94 200.7L149.911 200.466L149.147 196.093L144.408 190.907L134.62 188.603L126.189 191.117L119.961 196.276L121.595 200.825L124.606 204.297L119.107 208.048L121.698 214.461Z" fill="#95C250"/>
<path d="M170.798 213.707C169.877 208.254 168.85 208.174 168.85 208.174L166.175 217.087L158.913 222.123L151.361 219.74L145.41 224.629L131.665 224.403L124.468 220.004L119.8 213.619L119.105 208.048L124.607 204.297L127.401 203.405L120.527 198.902L119.063 193.756C118.899 194.081 116.289 197.539 116.289 197.539C116.289 197.539 114.806 198.838 116.663 202.671C117.994 205.416 120.162 206.534 120.162 206.534C120.162 206.534 118.54 205.422 116.87 208.128C115.2 210.837 112.871 213.004 113.181 215.283C113.578 218.234 115.849 223.739 121.809 227.554C128.412 231.782 134.698 235.024 141.208 233.577C148.376 231.983 150.653 228.294 150.653 228.294C150.653 228.294 153.638 229.838 156.907 230.008C161.049 230.223 165.167 228.091 167.157 225.826C169.15 223.559 171.748 219.319 170.798 213.707" fill="#95C250"/>
<path d="M164.687 216.869C162.87 219.681 160.968 220.712 158.824 220.614C154.417 220.409 151.526 215.431 151.526 215.431L147.966 216.478C147.966 216.478 149.456 219.443 146.263 221.913C143.835 223.787 137.109 225.289 130.554 221.77C124.217 218.37 119.59 212.964 121.436 209.385C123.412 205.548 129.146 205.893 129.146 205.893L129.188 202.621C129.188 202.621 122.74 200.865 122.117 198.485C121.491 196.105 124.428 192.405 128.695 191.312C132.965 190.219 140.266 189.299 144.76 193.421C148.858 197.18 146.775 201.045 146.775 201.045L150.212 202.964C150.212 202.964 156.341 200.205 161.76 203.832C165.329 206.221 167.529 212.464 164.687 216.869V216.869ZM167.526 205.305C160.595 196.793 151.733 198.81 151.733 198.81C151.733 198.81 150.377 193.345 146.811 190.773C142.81 187.888 137.329 186.031 130.931 187.671C126.32 188.85 118.035 191.518 118.298 196.594C118.564 201.671 122.796 203.441 122.796 203.441C122.796 203.441 112.143 207.543 117.737 215.65C123.974 224.69 136.259 228.781 141.301 228.625C146.951 228.448 150.695 223.178 150.695 223.178C150.695 223.178 156.419 228.292 162.954 224.665C169.298 221.143 174.11 213.392 167.526 205.305Z" fill="#ADD664"/>
<path d="M128.406 210.235C128.406 210.235 131.821 210.532 132.736 209.999C133.65 209.465 133.959 205.141 133.959 205.141L130.844 204.267L129.147 205.893L127.213 206.693L127.746 207.609L126.208 208.645L127.914 208.702L126.523 209.63L128.406 210.235" fill="#D6A374"/>
<path d="M133.961 205.141C134.084 204.016 129.189 202.621 129.189 202.621L127.188 202.84L128.232 203.652L126.954 204.001C126.954 204.001 127.854 204.738 128.07 204.851C128.289 204.963 126.867 205.235 126.867 205.235L129.147 205.893C129.147 205.893 133.838 206.268 133.961 205.141" fill="#F2B981"/>
<path d="M147.468 212.472C147.468 212.472 145.015 213.68 144.787 214.658C144.555 215.636 145.732 217.615 145.868 218.234C146.007 218.854 146.794 219.99 146.794 219.99L147.069 218.212L147.387 219.016L147.554 217.092L147.909 218.006L148.579 216.705L147.468 212.472" fill="#D6A374"/>
<path d="M151.036 217.972L151.052 216.699L151.984 217.729L151.524 215.432C151.524 215.432 149.979 212.394 148.017 212.298C146.055 212.2 147.964 216.478 147.964 216.478L148.701 218.78L148.757 217.07L150.051 218.469C150.051 218.469 149.92 217.122 149.74 216.937C149.559 216.753 151.036 217.972 151.036 217.972" fill="#F2B981"/>
<path d="M145.966 201.863C145.966 201.863 143.603 205.516 143.405 206.031C143.206 206.546 143.079 208.126 144.167 208.549C145.251 208.972 146.694 208.345 147.456 207.709C148.218 207.073 150.095 203.168 150.095 203.168L145.966 201.863" fill="#D6A374"/>
<path d="M149.781 201.955L150.086 200.833L148.95 201.619L149.331 200.169L148.338 201.029L148.357 199.574L146.773 201.045C146.773 201.045 144.349 203.088 146.516 204.387C148.679 205.688 150.21 202.964 150.21 202.964L151.206 201.318L149.781 201.955Z" fill="#F2B981"/>
<path d="M152.285 216.283C152.285 216.283 149.358 214.447 150.268 212.475C151.432 209.95 152.72 208.369 152.72 208.369L149.607 205.251L142.404 207.803C142.404 207.803 138.911 206.572 138.646 202.925C138.33 198.604 141.061 194.595 143.114 192.101C145.473 189.232 149.737 187.615 151.929 188.088C156.05 188.975 157.818 193.097 157.818 193.097L161.685 191.371C161.685 191.371 162.006 185.923 163.685 183.56C165.54 180.952 168.798 179.34 171.92 179.483C174.359 179.594 179.115 181.189 179.889 185.153C180.693 189.27 177.327 193.026 177.327 193.026L169.133 196.029C169.133 196.029 169.074 198.486 169.35 198.756C169.628 199.023 171.869 199.284 172.357 203.15C172.848 207.016 176.232 200.459 176.232 200.459L179.412 193.87L182.299 185.92L179.576 178.266L172.005 175.044L163.197 177.13L157.199 185.178L153.191 183.27L146.22 184.131L138.676 190.781L135.846 199.111L136.448 207.176L141.104 208.475L145.678 208.029L145.554 214.685L152.285 216.283" fill="#95C250"/>
<path d="M180.087 175.805C175.107 173.4 174.444 174.193 174.444 174.193L180.166 181.532L180.071 190.369L173.754 195.148L174.298 202.832L166.16 213.91L158.407 217.234L150.498 217.345L145.553 214.685L145.677 208.029L146.567 205.235L138.918 208.231L133.877 206.447C134.044 206.772 135.356 210.899 135.356 210.899C135.356 210.899 135.555 212.864 139.755 213.566C142.764 214.07 144.929 212.949 144.929 212.949C144.929 212.949 143.083 213.629 144.323 216.558C145.567 219.486 145.986 222.639 148.023 223.707C150.661 225.088 156.465 226.421 163.026 223.771C170.296 220.833 176.576 217.583 179.163 211.436C182.011 204.669 180.324 200.675 180.324 200.675C180.324 200.675 183.31 199.135 185.337 196.569C187.912 193.315 188.556 188.725 187.864 185.787C187.166 182.852 185.212 178.279 180.087 175.805" fill="#95C250"/>
<path d="M179.125 182.619C180.369 185.729 180.109 187.877 178.785 189.569C176.069 193.045 170.337 192.523 170.337 192.523L169.132 196.029C169.132 196.029 172.411 196.531 172.577 200.565C172.7 203.63 170.034 209.982 163.37 213.293C156.929 216.493 149.841 217.136 147.991 213.561C146.008 209.727 149.608 205.25 149.608 205.25L146.964 203.323C146.964 203.323 141.799 207.564 139.496 206.697C137.195 205.828 135.876 201.293 137.456 197.18C139.036 193.067 142.51 186.579 148.474 185.298C153.909 184.133 155.855 188.069 155.855 188.069L159.408 186.378C159.408 186.378 160.707 179.782 166.8 177.462C170.815 175.933 177.181 177.751 179.125 182.619V182.619ZM171.34 173.611C160.386 174.337 156.905 182.73 156.905 182.73C156.905 182.73 151.659 180.677 147.502 182.094C142.834 183.686 138.145 187.083 135.778 193.252C134.073 197.692 131.454 205.993 135.747 208.714C140.041 211.436 143.933 209.011 143.933 209.011C143.933 209.011 141.113 220.073 150.961 220.204C161.94 220.349 172.387 212.699 175.181 208.495C178.305 203.788 176.172 197.682 176.172 197.682C176.172 197.682 183.658 195.972 184.48 188.545C185.283 181.333 181.745 172.924 171.34 173.611" fill="#ADD664"/>
<path d="M152.721 208.368C152.721 208.368 154.939 205.755 155.034 204.699C155.126 203.643 151.782 200.888 151.782 200.888L149.262 202.926L149.607 205.251L149.142 207.291L150.199 207.384L150.15 209.24L151.187 207.88L151.137 209.554L152.721 208.368" fill="#D6A374"/>
<path d="M151.779 200.89C150.932 200.139 146.961 203.324 146.961 203.324L145.984 205.08L147.248 204.699L146.795 205.94C146.795 205.94 147.917 205.635 148.133 205.524C148.352 205.411 147.751 206.728 147.751 206.728L149.608 205.25C149.608 205.25 152.627 201.643 151.779 200.89" fill="#F2B981"/>
<path d="M165.576 194.115C165.576 194.115 165.142 196.814 165.807 197.567C166.473 198.322 168.768 198.507 169.351 198.756C169.936 199.002 171.317 199.018 171.317 199.018L170.028 197.764L170.868 197.97L169.396 196.716L170.345 196.959L169.672 195.659L165.576 194.115Z" fill="#D6A374"/>
<path d="M172.129 194.389L171.099 193.639L172.478 193.474L170.338 192.523C170.338 192.523 166.967 192.023 165.751 193.569C164.535 195.113 169.131 196.03 169.131 196.03L171.432 196.762L170.073 195.725L171.959 195.483C171.959 195.483 170.787 194.807 170.534 194.847C170.278 194.888 172.129 194.389 172.129 194.389" fill="#F2B981"/>
<path d="M156.054 189.203C156.054 189.203 157.666 193.243 157.971 193.703C158.279 194.163 159.494 195.182 160.467 194.541C161.438 193.901 161.762 192.36 161.684 191.371C161.608 190.379 159.511 186.59 159.511 186.59L156.054 189.203" fill="#D6A374"/>
<path d="M158.339 186.143L157.599 185.246L157.582 186.627L156.622 185.476L156.747 186.784L155.572 185.927L155.857 188.069C155.857 188.069 156.12 191.228 158.431 190.215C160.745 189.201 159.408 186.378 159.408 186.378L158.646 184.612L158.339 186.143" fill="#F2B981"/>
<path d="M183.647 194.048C183.647 194.048 181.891 191.074 183.6 189.738C185.794 188.027 187.664 187.211 187.664 187.211L186.324 183.015L178.751 181.982C178.751 181.982 176.211 179.287 177.645 175.926C179.348 171.939 183.61 169.627 186.579 168.351C189.991 166.883 194.521 167.401 196.255 168.824C199.51 171.503 199.19 175.976 199.19 175.976L203.419 176.213C203.419 176.213 206.201 171.517 208.778 170.188C211.62 168.722 215.257 168.78 217.964 170.336C220.08 171.553 223.579 175.151 222.448 179.03C221.275 183.056 216.565 184.851 216.565 184.851L207.903 183.767C207.903 183.767 206.727 185.924 206.848 186.29C206.972 186.655 208.844 187.912 207.508 191.574C206.17 195.234 212.18 190.957 212.18 190.957L218.03 186.557L224.24 180.816L225.327 172.766L220.074 166.43L211.287 164.251L202.272 168.652L199.583 165.12L192.991 162.691L183.239 165.144L176.907 171.252L173.746 178.696L177.288 181.985L181.559 183.684L178.398 189.543L183.647 194.048Z" fill="#95C250"/>
<path d="M226.908 170.812C223.584 166.392 222.635 166.793 222.635 166.793L224.356 175.939L220.221 183.749L212.417 185.103L209.38 192.181L197.068 198.297L188.655 197.698L181.574 194.173L178.397 189.544L181.559 183.684L183.631 181.608L175.456 180.768L171.791 176.87C171.794 177.234 171.065 181.505 171.065 181.505C171.065 181.505 170.346 183.341 173.757 185.891C176.2 187.717 178.64 187.714 178.64 187.714C178.64 187.714 176.688 187.471 176.449 190.642C176.21 193.816 175.138 196.811 176.461 198.693C178.17 201.131 182.717 204.976 189.764 205.625C197.571 206.346 204.644 206.336 209.76 202.058C215.393 197.348 215.721 193.026 215.721 193.026C215.721 193.026 219.081 193.025 222.063 191.674C225.839 189.961 228.518 186.175 229.244 183.249C229.972 180.319 230.33 175.359 226.908 170.812" fill="#95C250"/>
<path d="M222.933 176.429C222.612 179.762 221.397 181.551 219.447 182.449C215.439 184.293 210.584 181.201 210.584 181.201L207.903 183.766C207.903 183.766 210.589 185.715 208.888 189.376C207.594 192.156 202.31 196.582 194.872 196.469C187.681 196.362 181.086 193.687 181.081 189.66C181.073 185.344 186.324 183.015 186.324 183.015L184.857 180.09C184.857 180.09 178.324 181.494 176.677 179.666C175.027 177.841 175.934 173.204 179.222 170.273C182.512 167.34 188.573 163.167 194.459 164.762C199.827 166.217 199.753 170.607 199.753 170.607L203.687 170.732C203.687 170.732 207.862 165.465 214.342 166.195C218.61 166.677 223.434 171.211 222.933 176.429V176.429ZM220.14 164.854C210.072 160.479 203.129 166.343 203.129 166.343C203.129 166.343 199.413 162.113 195.063 161.468C190.184 160.744 184.463 161.615 179.534 166.012C175.981 169.178 169.85 175.355 172.416 179.743C174.986 184.129 179.557 183.756 179.557 183.756C179.557 183.756 171.981 192.295 180.676 196.924C190.369 202.086 203.16 200.074 207.567 197.617C212.503 194.864 213.406 188.462 213.406 188.462C213.406 188.462 220.84 190.374 224.978 184.149C228.993 178.105 229.704 169.01 220.14 164.854Z" fill="#ADD664"/>
<path d="M187.662 187.212C187.662 187.212 190.832 185.906 191.399 185.012C191.966 184.118 190.253 180.135 190.253 180.135L187.084 180.791L186.324 183.015L184.974 184.614L185.869 185.183L184.98 186.81L186.521 186.076L185.712 187.54L187.662 187.212" fill="#D6A374"/>
<path d="M190.254 180.135C189.847 179.079 184.858 180.09 184.858 180.09L183.182 181.204L184.482 181.445L183.508 182.342C183.508 182.342 184.646 182.583 184.889 182.584C185.135 182.583 183.998 183.479 183.998 183.479L186.325 183.015C186.325 183.015 190.663 181.192 190.254 180.135" fill="#F2B981"/>
<path d="M205.62 180.438C205.62 180.438 203.997 182.637 204.243 183.611C204.487 184.586 206.442 185.803 206.847 186.291C207.255 186.777 208.477 187.425 208.477 187.425L207.904 185.719L208.556 186.287L207.819 184.501L208.555 185.15L208.552 183.686L205.62 180.438" fill="#D6A374"/>
<path d="M211.316 183.682L210.745 182.544L212.047 183.031L210.583 181.202C210.583 181.202 207.814 179.215 206.028 180.031C204.24 180.845 207.902 183.768 207.902 183.768L209.614 185.473L208.878 183.928L210.67 184.577C210.67 184.577 209.934 183.44 209.69 183.359C209.445 183.278 211.316 183.682 211.316 183.682" fill="#F2B981"/>
<path d="M199.41 171.706C199.41 171.706 198.99 176.036 199.051 176.585C199.112 177.133 199.725 178.595 200.885 178.471C202.042 178.348 203.036 177.128 203.42 176.213C203.805 175.298 203.677 170.967 203.677 170.967L199.41 171.706" fill="#D6A374"/>
<path d="M202.841 170.034L202.595 168.897L201.947 170.117L201.62 168.655L201.133 169.875L200.481 168.574L199.751 170.608C199.751 170.608 198.537 173.537 201.058 173.695C203.578 173.856 203.685 170.733 203.685 170.733L203.814 168.813L202.841 170.034Z" fill="#F2B981"/>
<path d="M45.2847 138.283C45.2847 138.283 42.3581 136.447 43.2679 134.475C44.4319 131.95 45.72 130.369 45.72 130.369L42.6072 127.251L35.4038 129.803C35.4038 129.803 31.9111 128.572 31.6461 124.925C31.33 120.604 34.0611 116.595 36.114 114.101C38.4734 111.232 42.7375 109.615 44.9292 110.088C49.0501 110.975 50.818 115.097 50.818 115.097L54.6846 113.371C54.6846 113.371 55.006 107.923 56.6852 105.56C58.5396 102.952 61.7983 101.34 64.9203 101.483C67.3589 101.594 72.1147 103.189 72.8894 107.153C73.6931 111.27 70.3266 115.026 70.3266 115.026L62.133 118.029C62.133 118.029 62.0744 120.486 62.3503 120.756C62.6279 121.023 64.8687 121.284 65.3573 125.15C65.8484 129.016 69.2316 122.459 69.2316 122.459L72.4119 115.87L75.2993 107.92L72.5756 100.266L65.0046 97.0441L56.1971 99.1304L50.1993 107.178L46.1906 105.27L39.2198 106.131L31.6765 112.781L28.846 121.111L29.4478 129.176L34.1036 130.475L38.6784 130.029L38.554 136.685L45.2847 138.283" fill="#95C250"/>
<path d="M73.0874 97.8047C68.1066 95.4004 67.4441 96.1926 67.4441 96.1926L73.1657 103.532L73.0705 112.369L66.7535 117.148L67.2983 124.832L59.1603 135.91L51.4066 139.234L43.4981 139.345L38.5526 136.685L38.6772 130.029L39.567 127.235L31.9184 130.231L26.8767 128.447C27.0444 128.772 28.3559 132.899 28.3559 132.899C28.3559 132.899 28.5549 134.864 32.7554 135.566C35.7642 136.07 37.9291 134.949 37.9291 134.949C37.9291 134.949 36.0826 135.629 37.3235 138.558C38.567 141.486 38.9857 144.639 41.0229 145.707C43.6614 147.088 49.4653 148.421 56.0261 145.771C63.2959 142.833 69.5765 139.583 72.1631 133.436C75.0115 126.669 73.3237 122.675 73.3237 122.675C73.3237 122.675 76.3099 121.135 78.3367 118.569C80.9123 115.315 81.5563 110.725 80.864 107.787C80.1662 104.852 78.2119 100.279 73.0874 97.8047" fill="#95C250"/>
<path d="M72.1246 104.619C73.369 107.729 73.1085 109.877 71.785 111.569C69.0687 115.045 63.3367 114.523 63.3367 114.523L62.132 118.029C62.132 118.029 65.4107 118.531 65.5769 122.565C65.7004 125.63 63.0336 131.982 56.3695 135.293C49.9291 138.493 42.8415 139.136 40.9914 135.561C39.0076 131.727 42.6081 127.25 42.6081 127.25L39.9641 125.323C39.9641 125.323 34.7991 129.564 32.4962 128.697C30.1952 127.828 28.8762 123.293 30.4561 119.18C32.036 115.067 35.5096 108.579 41.4738 107.298C46.9089 106.133 48.8554 110.069 48.8554 110.069L52.4081 108.378C52.4081 108.378 53.7075 101.782 59.7999 99.4621C63.8148 97.9329 70.1812 99.7512 72.1246 104.619V104.619ZM64.3404 95.6113C53.3863 96.3365 49.9045 104.73 49.9045 104.73C49.9045 104.73 44.6586 102.677 40.5021 104.094C35.8335 105.686 31.1451 109.083 28.778 115.252C27.0727 119.692 24.4535 127.993 28.747 130.714C33.0407 133.436 36.9332 131.011 36.9332 131.011C36.9332 131.011 34.1129 142.073 43.9609 142.204C54.94 142.349 65.3866 134.699 68.1811 130.495C71.3048 125.788 69.1723 119.682 69.1723 119.682C69.1723 119.682 76.6584 117.972 77.4804 110.545C78.2834 103.333 74.7454 94.9242 64.3404 95.6113" fill="#ADD664"/>
<path d="M45.7207 130.368C45.7207 130.368 47.9391 127.755 48.0345 126.699C48.1265 125.643 44.7816 122.888 44.7816 122.888L42.2622 124.926L42.6074 127.251L42.1416 129.291L43.1992 129.384L43.1505 131.24L44.187 129.88L44.1367 131.554L45.7207 130.368" fill="#D6A374"/>
<path d="M44.779 122.89C43.9318 122.139 39.9614 125.324 39.9614 125.324L38.984 127.08L40.2484 126.699L39.7952 127.94C39.7952 127.94 40.9175 127.635 41.1335 127.524C41.3519 127.411 40.7507 128.728 40.7507 128.728L42.6076 127.25C42.6076 127.25 45.6271 123.643 44.779 122.89" fill="#F2B981"/>
<path d="M58.5764 116.115C58.5764 116.115 58.1422 118.814 58.8071 119.567C59.473 120.322 61.7676 120.507 62.3508 120.756C62.9358 121.002 64.3173 121.018 64.3173 121.018L63.0284 119.764L63.8681 119.97L62.3965 118.716L63.3449 118.959L62.6722 117.659L58.5764 116.115Z" fill="#D6A374"/>
<path d="M65.1286 116.389L64.099 115.639L65.4777 115.474L63.3376 114.523C63.3376 114.523 59.967 114.023 58.7513 115.569C57.5347 117.113 62.1307 118.03 62.1307 118.03L64.4318 118.762L63.0727 117.725L64.9594 117.483C64.9594 117.483 63.7874 116.807 63.5344 116.847C63.278 116.888 65.1286 116.389 65.1286 116.389" fill="#F2B981"/>
<path d="M49.0543 111.203C49.0543 111.203 50.6663 115.243 50.9712 115.703C51.2787 116.163 52.4935 117.182 53.4668 116.541C54.4377 115.901 54.7621 114.36 54.6842 113.371C54.608 112.379 52.5112 108.59 52.5112 108.59L49.0543 111.203" fill="#D6A374"/>
<path d="M51.3387 108.143L50.5989 107.246L50.5818 108.627L49.6219 107.476L49.7473 108.784L48.572 107.927L48.8567 110.069C48.8567 110.069 49.1198 113.228 51.4309 112.215C53.7446 111.201 52.4075 108.378 52.4075 108.378L51.6457 106.612L51.3387 108.143" fill="#F2B981"/>
<path d="M76.6468 116.048C76.6468 116.048 74.891 113.074 76.6 111.738C78.7942 110.027 80.6637 109.211 80.6637 109.211L79.3237 105.015L71.7508 103.982C71.7508 103.982 69.2105 101.287 70.6452 97.9264C72.3483 93.9388 76.6105 91.6273 79.5791 90.3506C82.9911 88.8828 87.521 89.4008 89.2553 90.824C92.5103 93.5027 92.1898 97.9756 92.1898 97.9756L96.4194 98.2135C96.4194 98.2135 99.2013 93.5165 101.778 92.1876C104.62 90.7216 108.257 90.7802 110.964 92.3364C113.08 93.5534 116.579 97.151 115.448 101.03C114.275 105.056 109.565 106.851 109.565 106.851L100.903 105.767C100.903 105.767 99.7272 107.924 99.8482 108.29C99.9718 108.655 101.844 109.912 100.508 113.574C99.1702 117.234 105.18 112.957 105.18 112.957L111.03 108.557L117.24 102.816L118.327 94.7656L113.074 88.4296L104.287 86.2506L95.2715 90.6517L92.5834 87.1197L85.9912 84.6913L76.239 87.1444L69.9071 93.252L66.7463 100.696L70.2883 103.985L74.5586 105.684L71.3983 111.543L76.6468 116.048Z" fill="#95C250"/>
<path d="M119.908 92.8125C116.584 88.3925 115.635 88.7934 115.635 88.7934L117.356 97.9389L113.221 105.749L105.417 107.103L102.38 114.181L90.0683 120.297L81.6547 119.698L74.5744 116.173L71.3971 111.544L74.5591 105.684L76.6307 103.608L68.456 102.768L64.7912 98.8703C64.7941 99.2343 64.0653 103.505 64.0653 103.505C64.0653 103.505 63.3456 105.341 66.757 107.891C69.2004 109.717 71.6396 109.714 71.6396 109.714C71.6396 109.714 69.688 109.471 69.4486 112.642C69.2102 115.816 68.1376 118.811 69.4607 120.693C71.1699 123.131 75.7168 126.976 82.7635 127.625C90.5709 128.346 97.6439 128.336 102.76 124.058C108.393 119.348 108.721 115.026 108.721 115.026C108.721 115.026 112.081 115.025 115.063 113.674C118.839 111.961 121.518 108.175 122.244 105.249C122.972 102.319 123.33 97.3594 119.908 92.8125" fill="#95C250"/>
<path d="M115.933 98.4285C115.612 101.762 114.397 103.551 112.447 104.449C108.439 106.293 103.584 103.201 103.584 103.201L100.903 105.766C100.903 105.766 103.589 107.715 101.888 111.376C100.594 114.156 95.3102 118.582 87.8718 118.469C80.6809 118.362 74.0864 115.687 74.0815 111.66C74.073 107.344 79.3236 105.015 79.3236 105.015L77.8574 102.09C77.8574 102.09 71.324 103.494 69.6769 101.666C68.0271 99.8409 68.9343 95.2045 72.2219 92.273C75.5121 89.3398 81.5735 85.1673 87.4591 86.7623C92.8265 88.2171 92.7528 92.6074 92.7528 92.6074L96.6866 92.7321C96.6866 92.7321 100.862 87.4648 107.342 88.1953C111.61 88.677 116.434 93.2106 115.933 98.4285V98.4285ZM113.14 86.8538C103.072 82.4793 96.1289 88.3433 96.1289 88.3433C96.1289 88.3433 92.4126 84.113 88.0634 83.4679C83.1841 82.7444 77.4634 83.6146 72.5341 88.012C68.9808 91.1782 62.8498 97.3554 65.4161 101.743C67.9855 106.129 72.557 105.756 72.557 105.756C72.557 105.756 64.9811 114.295 73.6755 118.924C83.369 124.086 96.1602 122.074 100.567 119.617C105.503 116.864 106.406 110.462 106.406 110.462C106.406 110.462 113.84 112.374 117.978 106.149C121.993 100.105 122.704 91.0103 113.14 86.8538Z" fill="#ADD664"/>
<path d="M80.6623 109.212C80.6623 109.212 83.8319 107.906 84.3991 107.012C84.9663 106.118 83.253 102.135 83.253 102.135L80.0843 102.791L79.3244 105.015L77.9743 106.614L78.8694 107.183L77.9796 108.81L79.5208 108.076L78.7116 109.54L80.6623 109.212" fill="#D6A374"/>
<path d="M83.2545 102.135C82.8468 101.079 77.8582 102.09 77.8582 102.09L76.182 103.204L77.4821 103.445L76.5077 104.342C76.5077 104.342 77.6458 104.583 77.8893 104.584C78.1353 104.583 76.998 105.479 76.998 105.479L79.3246 105.015C79.3246 105.015 83.663 103.192 83.2545 102.135" fill="#F2B981"/>
<path d="M98.6196 102.438C98.6196 102.438 96.9967 104.637 97.2433 105.611C97.4872 106.586 99.4416 107.803 99.847 108.291C100.255 108.777 101.477 109.425 101.477 109.425L100.904 107.719L101.556 108.287L100.819 106.501L101.555 107.15L101.552 105.686L98.6196 102.438" fill="#D6A374"/>
<path d="M104.316 105.682L103.745 104.544L105.047 105.031L103.583 103.202C103.583 103.202 100.814 101.215 99.0277 102.031C97.2401 102.845 100.902 105.768 100.902 105.768L102.614 107.473L101.878 105.928L103.67 106.577C103.67 106.577 102.934 105.44 102.69 105.359C102.445 105.278 104.316 105.682 104.316 105.682" fill="#F2B981"/>
<path d="M92.4104 93.7057C92.4104 93.7057 91.9901 98.0359 92.0509 98.5848C92.1116 99.1334 92.7248 100.595 93.8849 100.471C95.0421 100.348 96.0358 99.1276 96.4204 98.2129C96.805 97.2982 96.6774 92.9673 96.6774 92.9673L92.4104 93.7057" fill="#D6A374"/>
<path d="M95.8412 92.0342L95.5955 90.8975L94.9475 92.1175L94.6204 90.6547L94.1334 91.875L93.4811 90.5739L92.7513 92.6084C92.7513 92.6084 91.5369 95.5371 94.0583 95.6948C96.5781 95.8561 96.6851 92.7328 96.6851 92.7328L96.8137 90.8133L95.8412 92.0342Z" fill="#F2B981"/>
<path d="M62.9996 106.094C62.9996 106.094 59.559 105.784 59.4766 103.613C59.3698 100.834 59.802 98.8417 59.802 98.8417L55.6143 97.4723L50.3488 103.011C50.3488 103.011 46.6774 103.496 44.7891 100.366C42.5493 96.6563 43.1673 91.8447 43.8676 88.6917C44.6712 85.0653 47.7395 81.6913 49.9076 81.1199C53.9835 80.044 57.4268 82.9169 57.4268 82.9169L60.092 79.6269C60.092 79.6269 57.9098 74.6242 58.336 71.7567C58.8076 68.5918 60.9824 65.6785 63.8303 64.3913C66.0542 63.3849 71.0166 62.6521 73.5035 65.8354C76.0853 69.1411 74.7859 74.0145 74.7859 74.0145L68.8424 80.4043C68.8424 80.4043 69.9033 82.621 70.2716 82.7369C70.6402 82.8494 72.7557 82.0662 74.9433 85.2919C77.1324 88.515 77.1778 81.1374 77.1778 81.1374L77.0273 73.8223L75.9991 65.4267L70.1033 59.8378L61.8941 60.396L54.9879 66.2464L53.2872 76.1379L48.8494 76.2537L43.025 80.1793L39.3137 89.5258L40.5644 98.2335L44.7554 105.151L49.4946 104.2L53.3706 101.729L56.2753 107.719L62.9996 106.094" fill="#95C250"/>
<path d="M69.4445 57.4118C63.9148 57.5252 63.6832 58.5316 63.6832 58.5316L72.1091 62.4818L76.0282 70.4027L72.5624 77.5255L76.5296 84.1287L74.2943 97.6916L68.8883 104.168L61.8883 107.85L56.2745 107.72L53.3698 101.73L52.8969 98.8357L47.4361 104.972L42.1334 105.667C42.4298 105.879 45.469 108.965 45.469 108.965C45.469 108.965 46.5366 110.626 50.5992 109.348C53.5098 108.434 54.9321 106.455 54.9321 106.455C54.9321 106.455 53.5942 107.898 56.0274 109.947C58.4625 111.993 60.2645 114.614 62.5643 114.643C65.5425 114.679 71.3204 113.238 75.9682 107.902C81.1177 101.989 85.244 96.2462 84.7649 89.5948C84.2377 82.2711 80.9238 79.476 80.9238 79.476C80.9238 79.476 82.8879 76.7495 83.532 73.5438C84.3538 69.4761 82.8481 65.0922 80.9 62.7874C78.9482 60.4872 75.1339 57.2959 69.4445 57.4118" fill="#95C250"/>
<path d="M71.6735 63.923C74.1918 66.1313 74.933 68.1644 74.5196 70.2722C73.6729 74.6015 68.3269 76.734 68.3269 76.734L68.8414 80.4051C68.8414 80.4051 71.9917 79.367 73.9676 82.8876C75.4663 85.5639 75.9673 92.4353 71.5267 98.4064C67.2351 104.177 61.208 107.961 57.9389 105.613C54.4334 103.094 55.6146 97.4714 55.6146 97.4714L52.3843 96.9514C52.3843 96.9514 49.7018 103.073 47.256 103.343C44.8105 103.61 41.5802 100.166 41.1251 95.7833C40.6697 91.4007 40.8267 84.043 45.5632 80.1989C49.8806 76.6978 53.3993 79.3247 53.3993 79.3247L55.7999 76.2071C55.7999 76.2071 53.9699 69.7386 58.3498 64.9099C61.2362 61.7276 67.7354 60.464 71.6735 63.923V63.923ZM60.6528 59.4198C51.2161 65.0296 51.9153 74.0895 51.9153 74.0895C51.9153 74.0895 46.3086 74.6365 43.2455 77.7833C39.8049 81.3177 37.1645 86.4702 37.8491 93.0417C38.3406 97.7724 39.7669 106.359 44.8276 106.84C49.8885 107.321 52.2596 103.395 52.2596 103.395C52.2596 103.395 54.7575 114.534 63.5963 110.19C73.4492 105.344 79.2958 93.791 79.882 88.7768C80.5341 83.1656 75.8664 78.6884 75.8664 78.6884C75.8664 78.6884 81.7654 73.7725 79.1328 66.7787C76.5809 59.9857 69.6171 54.0929 60.6528 59.4198" fill="#ADD664"/>
<path d="M59.8024 98.8408C59.8024 98.8408 60.5961 95.5062 60.2027 94.5215C59.8058 93.5378 55.5761 92.5981 55.5761 92.5981L54.2533 95.5559L55.6144 97.472L56.1234 99.5016L57.1087 99.1059L57.9062 100.782L58.2138 99.1001L58.9275 100.615L59.8024 98.8408" fill="#D6A374"/>
<path d="M55.5746 92.6006C54.479 92.3148 52.3829 96.9536 52.3829 96.9536L52.3074 98.9621L53.2619 98.0495L53.4202 99.3612C53.4202 99.3612 54.2824 98.5808 54.4243 98.3833C54.5679 98.1835 54.6289 99.6306 54.6289 99.6306L55.6146 97.4717C55.6146 97.4717 56.6718 92.8875 55.5746 92.6006" fill="#F2B981"/>
<path d="M64.8045 80.3101C64.8045 80.3101 65.6402 82.9127 66.574 83.2826C67.5097 83.6538 69.6391 82.779 70.2717 82.7365C70.9046 82.6907 72.1436 82.0793 72.1436 82.0793L70.4265 81.5457L71.2685 81.3491L69.3883 80.8977L70.3439 80.6848L69.1553 79.8307L64.8045 80.3101Z" fill="#D6A374"/>
<path d="M70.7696 77.5846L69.5123 77.383L70.6666 76.6112L68.3278 76.7329C68.3278 76.7329 65.0967 77.8147 64.7132 79.7434C64.3282 81.6709 68.8408 80.4061 68.8408 80.4061L71.2241 80.0165L69.5426 79.7077L71.1146 78.6365C71.1146 78.6365 69.7636 78.5651 69.5564 78.716C69.3462 78.8683 70.7696 77.5846 70.7696 77.5846" fill="#F2B981"/>
<path d="M54.0903 80.2455C54.0903 80.2455 57.3576 83.1162 57.8381 83.3886C58.3205 83.659 59.8651 84.017 60.4421 83.0042C61.0177 81.9938 60.609 80.4737 60.0913 79.6271C59.5739 78.7773 55.9881 76.3499 55.9881 76.3499L54.0903 80.2455" fill="#D6A374"/>
<path d="M54.7405 76.4825L53.6745 76.018L54.2851 77.2571L52.9079 76.666L53.6121 77.7748L52.1762 77.5435L53.4003 79.3238C53.4003 79.3238 55.0664 82.021 56.6676 80.0706C58.2705 78.1179 55.7997 76.2076 55.7997 76.2076L54.3203 74.9784L54.7405 76.4825" fill="#F2B981"/>
<path d="M80.8835 72.0624C80.8835 72.0624 77.9709 70.207 78.8891 68.2418C80.0697 65.722 81.3666 64.1475 81.3666 64.1475L78.2709 61.014L71.0517 63.524C71.0517 63.524 67.5662 62.2729 67.3225 58.6269C67.034 54.3005 69.7862 50.3086 71.8541 47.8254C74.2307 44.971 78.5037 43.3803 80.6946 43.8633C84.81 44.7764 86.551 48.9091 86.551 48.9091L90.4292 47.2047C90.4292 47.2047 90.781 41.7571 92.4757 39.405C94.3449 36.8106 97.6145 35.2144 100.733 35.3753C103.17 35.5017 107.919 37.1234 108.669 41.0932C109.448 45.2144 106.061 48.9483 106.061 48.9483L97.8483 51.9066C97.8483 51.9066 97.7776 54.3621 98.0515 54.634C98.327 54.9031 100.565 55.1752 101.033 59.0455C101.5 62.9147 104.92 56.3783 104.92 56.3783L108.141 49.8059L111.075 41.8735L108.397 34.2049L100.843 30.9365L92.0224 32.9756L85.9798 40.9837L81.9831 39.0531L75.0061 39.8751L67.4239 46.4806L64.5465 54.7942L65.1015 62.8621L69.7492 64.1892L74.326 63.7695L74.1635 70.4245L80.8835 72.0624Z" fill="#95C250"/>
<path d="M108.921 31.7476C103.955 29.3134 103.291 30.1009 103.291 30.1009L108.968 37.4739L108.821 46.3098L102.478 51.0526L102.977 58.7382L94.773 69.7687L87.0014 73.0473L79.0922 73.1125L74.1625 70.4259L74.3264 63.7696L75.2322 60.9797L67.5643 63.935L62.5313 62.1209C62.6988 62.4441 63.9842 66.5816 63.9842 66.5816C63.9842 66.5816 64.1742 68.5439 68.371 69.272C71.3765 69.7925 73.5498 68.6849 73.5498 68.6849C73.5498 68.6849 71.6998 69.3526 72.9232 72.288C74.1485 75.2249 74.5493 78.3808 76.5816 79.4591C79.21 80.8582 85.0057 82.226 91.5817 79.6118C98.8681 76.7165 105.169 73.5027 107.791 67.3719C110.68 60.6204 109.013 56.6185 109.013 56.6185C109.013 56.6185 112.008 55.0952 114.054 52.5397C116.644 49.3016 117.317 44.7131 116.638 41.7754C115.96 38.8337 114.032 34.2503 108.921 31.7476" fill="#95C250"/>
<path d="M107.923 38.5547C109.147 41.6716 108.874 43.8171 107.543 45.5016C104.806 48.961 99.0758 48.4044 99.0758 48.4044L97.8487 51.9059C97.8487 51.9059 101.126 52.4265 101.269 56.4607C101.375 59.5255 98.6693 65.8646 91.9873 69.1348C85.5284 72.2975 78.4374 72.9005 76.6086 69.3131C74.6455 65.4693 78.2709 61.0139 78.2709 61.0139L75.6384 59.0706C75.6384 59.0706 70.4501 63.2821 68.1539 62.3995C65.8561 61.5197 64.5641 56.9755 66.1665 52.8727C67.7706 48.767 71.2836 42.301 77.2531 41.0561C82.6971 39.9211 84.6206 43.8683 84.6206 43.8683L88.1839 42.1971C88.1839 42.1971 89.52 35.6094 95.6273 33.3247C99.6505 31.8202 106.004 33.6764 107.923 38.5547V38.5547ZM100.188 29.5017C89.2312 30.1638 85.6983 38.5373 85.6983 38.5373C85.6983 38.5373 80.4686 36.45 76.2991 37.8455C71.6216 39.4114 66.9162 42.7791 64.5143 48.9327C62.7813 53.3652 60.1145 61.6498 64.3901 64.3981C68.668 67.144 72.5744 64.7405 72.5744 64.7405C72.5744 64.7405 69.6897 75.7853 79.538 75.9727C90.5183 76.1823 101.009 68.5927 103.824 64.4062C106.978 59.7155 104.882 53.599 104.882 53.599C104.882 53.599 112.375 51.9346 113.243 44.511C114.084 37.3039 110.598 28.8736 100.188 29.5017Z" fill="#ADD664"/>
<path d="M81.3656 64.149C81.3656 64.149 83.5992 61.5483 83.6999 60.4945C83.8006 59.4407 80.4687 56.6666 80.4687 56.6666L77.941 58.6867L78.2713 61.0138L77.7923 63.0512L78.8479 63.1524L78.792 65.0063L79.8333 63.6536L79.7752 65.325L81.3656 64.149" fill="#D6A374"/>
<path d="M80.4696 56.6655C79.6279 55.9093 75.6387 59.0705 75.6387 59.0705L74.649 60.8227L75.9174 60.4488L75.4551 61.69C75.4551 61.69 76.5791 61.3896 76.7964 61.2798C77.0153 61.1675 76.4072 62.4811 76.4072 62.4811L78.2712 61.0135C78.2712 61.0135 81.3127 57.4227 80.4696 56.6655" fill="#F2B981"/>
<path d="M94.3047 49.9742C94.3047 49.9742 93.8544 52.6699 94.5153 53.4262C95.1747 54.1852 97.4682 54.3841 98.0505 54.6352C98.6347 54.8838 100.017 54.9076 100.017 54.9076L98.7337 53.6468L99.5721 53.8575L98.1064 52.5991L99.056 52.8441L98.3904 51.5407L94.3047 49.9742" fill="#D6A374"/>
<path d="M100.853 50.2847L99.828 49.5292L101.209 49.3729L99.0748 48.4062C99.0748 48.4062 95.7065 47.8888 94.4838 49.4261C93.2592 50.962 97.8475 51.9079 97.8475 51.9079L100.146 52.6523L98.7904 51.6091L100.682 51.3753C100.682 51.3753 99.5113 50.6952 99.2563 50.7341C99.0011 50.7728 100.853 50.2847 100.853 50.2847" fill="#F2B981"/>
<path d="M84.8128 45.0025C84.8128 45.0025 86.4001 49.0532 86.7031 49.5149C87.0057 49.9765 88.2146 51.0014 89.1926 50.3653C90.1685 49.7316 90.5014 48.1933 90.4298 47.2036C90.3582 46.2139 88.2821 42.4109 88.2821 42.4109L84.8128 45.0025" fill="#D6A374"/>
<path d="M87.1141 41.9583L86.38 41.0562L86.3551 42.4374L85.4008 41.2816L85.5195 42.5901L84.3485 41.7258L84.6197 43.8701C84.6197 43.8701 84.8642 47.0312 87.1833 46.0293C89.5027 45.0314 88.1829 42.1987 88.1829 42.1987L87.4279 40.4292L87.1141 41.9583Z" fill="#F2B981"/>
<path d="M207.354 126.607C207.354 126.607 205.586 129.575 203.594 128.711C201.042 127.605 199.432 126.354 199.432 126.354L196.387 129.538L199.104 136.681C199.104 136.681 197.954 140.201 194.315 140.55C190.001 140.965 185.93 138.328 183.39 136.333C180.468 134.04 178.752 129.814 179.175 127.612C179.967 123.472 184.046 121.61 184.046 121.61L182.232 117.784C182.232 117.784 176.778 117.588 174.377 115.964C171.727 114.17 170.04 110.949 170.111 107.825C170.165 105.384 171.65 100.593 175.596 99.7273C179.693 98.8288 183.525 102.108 183.525 102.108L186.717 110.23C186.717 110.23 189.174 110.232 189.438 109.95C189.699 109.666 189.908 107.42 193.762 106.842C197.615 106.262 190.982 103.031 190.982 103.031L184.321 100.004L176.307 97.3003L168.718 100.2L165.671 107.843L167.96 116.6L176.144 122.411L174.329 126.462L175.35 133.412L182.173 140.799L190.565 143.437L198.615 142.649L199.806 137.965L199.255 133.402L205.911 133.373L207.354 126.607" fill="#95C250"/>
<path d="M166.246 99.7447C163.957 104.78 164.764 105.424 164.764 105.424L171.969 99.5344L180.806 99.4258L185.73 105.631L193.399 104.909L204.662 112.789L208.164 120.464L208.457 128.368L205.912 133.374L199.255 133.403L196.441 132.578L199.613 140.155L197.946 145.237C198.266 145.061 202.362 143.655 202.362 143.655C202.362 143.655 204.322 143.411 204.926 139.195C205.361 136.176 204.191 134.037 204.191 134.037C204.191 134.037 204.913 135.868 207.813 134.559C210.711 133.249 213.854 132.757 214.874 130.696C216.195 128.026 217.394 122.193 214.593 115.695C211.488 108.495 208.093 102.291 201.889 99.8472C195.057 97.1556 191.104 98.935 191.104 98.935C191.104 98.935 189.495 95.9851 186.883 94.0181C183.571 91.5182 178.967 90.9802 176.046 91.7401C173.128 92.5053 168.601 94.5646 166.246 99.7447" fill="#95C250"/>
<path d="M173.08 100.55C176.161 99.2345 178.314 99.4454 180.036 100.73C183.574 103.365 183.185 109.108 183.185 109.108L186.717 110.231C186.717 110.231 187.144 106.942 191.172 106.682C194.234 106.488 200.646 109.008 204.11 115.594C207.457 121.959 208.263 129.03 204.732 130.962C200.945 133.033 196.386 129.537 196.386 129.537L194.52 132.225C194.52 132.225 198.88 137.291 198.066 139.613C197.25 141.933 192.747 143.357 188.598 141.872C184.45 140.387 177.883 137.064 176.465 131.131C175.176 125.724 179.066 123.688 179.066 123.688L177.293 120.175C177.293 120.175 170.669 119.028 168.209 112.991C166.588 109.012 168.259 102.605 173.08 100.55V100.55ZM164.255 108.54C165.232 119.475 173.704 122.762 173.704 122.762C173.704 122.762 171.772 128.054 173.285 132.177C174.984 136.807 178.488 141.416 184.71 143.64C189.188 145.243 197.547 147.67 200.169 143.315C202.791 138.959 200.277 135.124 200.277 135.124C200.277 135.124 211.401 137.688 211.305 127.84C211.196 116.86 203.308 106.593 199.04 103.896C194.262 100.882 188.207 103.154 188.207 103.154C188.207 103.154 186.325 95.7098 178.881 95.0593C171.652 94.4228 163.328 98.1538 164.255 108.54" fill="#ADD664"/>
<path d="M199.432 126.353C199.432 126.353 196.768 124.196 195.71 124.125C194.652 124.057 191.975 127.465 191.975 127.465L194.07 129.936L196.386 129.538L198.437 129.956L198.506 128.897L200.362 128.903L198.978 127.898L200.653 127.91L199.432 126.353" fill="#D6A374"/>
<path d="M191.977 127.467C191.246 128.331 194.522 132.227 194.522 132.227L196.3 133.164L195.89 131.909L197.141 132.333C197.141 132.333 196.81 131.218 196.694 131.005C196.576 130.789 197.907 131.36 197.907 131.36L196.386 129.537C196.386 129.537 192.71 126.602 191.977 127.467" fill="#F2B981"/>
<path d="M184.886 113.83C184.886 113.83 187.594 114.202 188.332 113.52C189.071 112.837 189.203 110.538 189.438 109.95C189.67 109.359 189.655 107.977 189.655 107.977L188.431 109.295L188.618 108.451L187.398 109.951L187.619 108.997L186.335 109.7L184.886 113.83Z" fill="#D6A374"/>
<path d="M185.008 107.273L184.282 108.32L184.086 106.945L183.184 109.106C183.184 109.106 182.762 112.488 184.335 113.667C185.907 114.848 186.718 110.232 186.718 110.232L187.397 107.915L186.392 109.297L186.105 107.417C186.105 107.417 185.457 108.604 185.503 108.856C185.55 109.112 185.008 107.273 185.008 107.273" fill="#F2B981"/>
<path d="M180.195 123.463C180.195 123.463 184.196 121.758 184.649 121.442C185.102 121.124 186.092 119.886 185.429 118.928C184.767 117.972 183.219 117.684 182.232 117.784C181.242 117.883 177.503 120.067 177.503 120.067L180.195 123.463" fill="#D6A374"/>
<path d="M177.083 121.249L176.203 122.01L177.585 121.995L176.456 122.981L177.76 122.826L176.931 124.02L179.065 123.686C179.065 123.686 182.218 123.35 181.152 121.063C180.084 118.774 177.293 120.175 177.293 120.175L175.545 120.978L177.083 121.249" fill="#F2B981"/>
<path d="M184.402 95.7656C184.402 95.7656 181.469 97.5895 180.094 95.9118C178.333 93.7577 177.474 91.9074 177.474 91.9074L173.31 93.3438L172.452 100.939C172.452 100.939 169.816 103.54 166.423 102.184C162.398 100.573 159.988 96.3651 158.644 93.4267C157.097 90.0495 157.511 85.5088 158.894 83.7422C161.497 80.4262 165.976 80.6435 165.976 80.6435L166.116 76.4096C166.116 76.4096 161.356 73.7367 159.968 71.1916C158.437 68.3844 158.412 64.746 159.905 62.0041C161.073 59.8612 164.589 56.2798 168.493 57.3207C172.545 58.4006 174.448 63.0687 174.448 63.0687L173.564 71.7532C173.564 71.7532 175.747 72.8787 176.111 72.7493C176.473 72.6173 177.686 70.7166 181.378 71.9682C185.068 73.2208 180.654 67.3108 180.654 67.3108L176.12 61.5645L170.237 55.4881L162.164 54.5875L155.951 59.9848L153.975 68.8202L158.583 77.7315L155.114 80.5003L152.838 87.1468L155.515 96.8398L161.767 103.029L169.282 106.017L172.488 102.401L174.089 98.0923L180.019 101.117L184.402 95.7656Z" fill="#95C250"/>
<path d="M160.175 53.0523C155.833 56.4773 156.256 57.4169 156.256 57.4169L165.359 55.4855L173.262 59.4393L174.796 67.2092L181.942 70.0825L188.34 82.2499L187.936 90.6751L184.574 97.8349L180.02 101.118L174.089 98.092L171.965 96.0689L171.314 104.261L167.502 108.014C167.866 108.003 172.153 108.633 172.153 108.633C172.153 108.633 174.004 109.31 176.476 105.841C178.244 103.356 178.186 100.918 178.186 100.918C178.186 100.918 177.988 102.875 181.163 103.041C184.341 103.206 187.36 104.209 189.211 102.843C191.609 101.078 195.349 96.4436 195.835 89.3838C196.375 81.5619 196.202 74.491 191.808 69.4752C186.97 63.9516 182.64 63.7241 182.64 63.7241C182.64 63.7241 182.562 60.3646 181.142 57.4148C179.343 53.6787 175.496 51.0882 172.554 50.4297C169.608 49.7693 164.642 49.526 160.175 53.0523" fill="#95C250"/>
<path d="M165.881 56.8959C169.221 57.1401 171.037 58.3136 171.981 60.2425C173.916 64.2064 170.937 69.1321 170.937 69.1321L173.563 71.7526C173.563 71.7526 175.45 69.0228 179.149 70.6385C181.958 71.8683 186.504 77.0487 186.564 84.4877C186.622 91.6792 184.1 98.3337 180.074 98.4314C175.76 98.5394 173.31 93.3439 173.31 93.3439L170.419 94.8772C170.419 94.8772 171.973 101.376 170.185 103.065C168.398 104.757 163.742 103.957 160.735 100.738C157.727 97.5159 153.416 91.5524 154.875 85.6315C156.205 80.232 160.596 80.2044 160.596 80.2044L160.63 76.2688C160.63 76.2688 155.268 72.2155 155.849 65.7208C156.232 61.4426 160.653 56.5161 165.881 56.8959V56.8959ZM154.374 59.955C150.233 70.1211 156.255 76.9275 156.255 76.9275C156.255 76.9275 152.112 80.7404 151.567 85.1033C150.956 89.998 151.958 95.6971 156.468 100.524C159.715 104.003 166.032 109.99 170.359 107.323C174.685 104.653 174.207 100.092 174.207 100.092C174.207 100.092 182.918 107.469 187.346 98.6698C192.283 88.8598 189.976 76.1184 187.419 71.7698C184.553 66.8982 178.131 66.1428 178.131 66.1428C178.131 66.1428 179.871 58.6666 173.552 54.6741C167.418 50.7993 158.309 50.2976 154.374 59.955Z" fill="#ADD664"/>
<path d="M177.475 91.9089C177.475 91.9089 176.096 88.7703 175.189 88.2238C174.283 87.6774 170.34 89.482 170.34 89.482L171.069 92.6347L173.31 93.3432L174.94 94.6561L175.488 93.748L177.135 94.6001L176.366 93.0763L177.848 93.8514L177.475 91.9089" fill="#D6A374"/>
<path d="M170.34 89.481C169.294 89.9129 170.42 94.8769 170.42 94.8769L171.572 96.527L171.783 95.2216L172.702 96.1751C172.702 96.1751 172.917 95.0317 172.912 94.7883C172.906 94.5424 173.827 95.6587 173.827 95.6587L173.31 93.3434C173.31 93.3434 171.387 89.0482 170.34 89.481" fill="#F2B981"/>
<path d="M170.289 74.1126C170.289 74.1126 172.525 75.6844 173.493 75.4154C174.462 75.1491 175.633 73.1671 176.112 72.7506C176.588 72.3314 177.208 71.0949 177.208 71.0949L175.516 71.7072L176.068 71.0423L174.3 71.8198L174.931 71.0695L173.468 71.106L170.289 74.1126" fill="#D6A374"/>
<path d="M173.401 68.3426L172.277 68.9401L172.733 67.6273L170.938 69.1336C170.938 69.1336 169.015 71.947 169.873 73.7142C170.728 75.4825 173.565 71.7544 173.565 71.7544L175.23 70.0034L173.703 70.775L174.31 68.9687C174.31 68.9687 173.191 69.7298 173.116 69.9765C173.04 70.2234 173.401 68.3426 173.401 68.3426" fill="#F2B981"/>
<path d="M161.702 80.5214C161.702 80.5214 166.041 80.8417 166.588 80.7683C167.135 80.6949 168.582 80.0482 168.431 78.8913C168.282 77.7372 167.039 76.7719 166.116 76.4085C165.192 76.0451 160.865 76.2726 160.865 76.2726L161.702 80.5214" fill="#D6A374"/>
<path d="M159.952 77.1303L158.821 77.4021L160.056 78.0218L158.601 78.3825L159.832 78.8413L158.546 79.5234L160.597 80.2061C160.597 80.2061 163.553 81.3526 163.652 78.8282C163.756 76.3054 160.631 76.2705 160.631 76.2705L158.709 76.1861L159.952 77.1303Z" fill="#F2B981"/>
<path d="M250 125C250 194.036 194.036 250 125 250C55.9644 250 0 194.036 0 125C0 55.9644 55.9644 0 125 0C194.036 0 250 55.9644 250 125Z" fill="#E8E8E8" fill-opacity="0.05"/>
</svg>
