<svg width="250" height="250" viewBox="0 0 250 250" fill="none" xmlns="http://www.w3.org/2000/svg">
<path d="M85.6694 39.8932C86.7195 35.9483 91.3753 35.2422 94.6936 33.1092C96.9496 31.6597 99.8391 30.0915 102.448 29.4331C103.827 29.0859 105.153 28.7717 106.563 28.7859C107.548 28.7958 108.542 29.089 109.475 29.0694L113.256 28.9016C115.463 31.5792 112.89 34.0833 110.242 35.8212C109.136 36.5464 108.603 36.2313 108.125 35.9162C107.857 35.7396 107.604 35.563 107.277 35.5692C106.186 35.5903 105.628 36.2421 105.292 37.3231C104.826 38.8065 108.22 39.1947 109.329 39.6921C110.391 40.1691 111.977 40.7282 112.44 41.8746C113.117 43.5496 111.58 44.9893 110.332 45.8481C109.121 46.6828 107.543 47.3998 105.908 47.5323C104.346 47.6592 103.91 47.23 102.775 46.4033C100.911 45.0456 99.7246 43.9179 97.6854 42.8762C97.6878 43.1996 96.1188 43.7174 95.9702 44.2817C95.8216 44.8459 97.0958 45.4559 96.9886 45.7793C96.477 47.2977 92.7372 49.3621 89.7186 48.894C88.3104 48.6759 84.8411 48.7549 83.3525 44.7108C82.7531 43.0844 85.2236 41.568 85.6694 39.8932" fill="#634E40"/>
<path d="M88.3449 39.3942C90.2543 35.5015 94.0299 32.8451 98.0147 31.0942C100.787 29.8768 104.594 27.6532 107.624 28.6683C108.517 28.9672 109.594 29.7482 110.017 30.5743C110.308 31.1397 110.33 32.5697 109.866 32.8074L109.519 33.37C108.928 33.162 107.995 33.2156 107.357 33.5721C107.196 33.6625 106.759 34.1543 106.578 34.2905C106.237 34.5459 106.037 34.5428 105.727 34.8648C105.511 35.0888 105.513 35.4757 105.186 35.7393C104.868 35.9953 104.354 35.9515 104.012 36.2726C103.337 36.9113 103.815 37.6552 103.082 38.1927C102.418 38.6792 101.249 38.476 100.689 39.0644C100.436 39.3316 100.638 39.7359 100.374 40.0261C100.124 40.3023 99.5201 40.4587 99.1786 40.6089C98.4283 40.9384 97.6035 41.1344 97.0287 41.7155C96.769 41.9779 96.7401 42.3639 96.389 42.6104C96.0548 42.8434 95.4992 42.7137 95.1554 42.9181C94.7441 43.162 94.7201 43.4641 94.3906 43.7319C93.9529 44.089 93.7052 44.0207 93.2219 44.2675C92.8515 44.4561 92.6664 44.8104 92.2672 45.017C91.8824 45.2146 91.3389 45.1593 90.9252 45.2744C89.5713 45.6512 88.4627 46.2393 87.4815 44.8618C86.2334 43.1081 87.5056 41.1103 88.3449 39.3942" fill="#8C735B"/>
<path d="M112.186 41.5126C110.922 38.6039 101.845 36.0293 102.089 34.684C102.331 33.3385 106.266 31.1399 108.239 31.6922C110.213 32.2443 106.836 33.8441 108.566 34.9402C109.324 35.4216 116.742 30.4885 112.029 27.6157C107.945 25.1267 100.349 24.7732 90.7432 31.9824C82.4477 38.2104 81.5946 43.309 84.5545 45.8003C89.6677 50.105 96.0739 45.0642 95.9077 44.5934C95.7586 44.1783 95.0913 44.38 94.2383 44.582C93.048 44.8642 91.4984 45.1463 90.511 43.7443C89.7435 42.6524 93.114 39.4769 95.849 40.1956C97.8166 40.7115 104.206 47.4325 106.115 46.6942C108.023 45.9558 113.029 43.4496 112.186 41.5126Z" fill="#A5896A"/>
<path d="M110.764 28.2604C110.764 28.2604 110.754 28.2567 110.741 28.2508L110.739 28.2452C110.759 28.2559 110.766 28.2604 110.764 28.2604Z" fill="#BF9E7C"/>
<path d="M89.2944 40.2162C87.4845 40.2162 87.2459 38.1029 88.1906 36.8165C89.1016 35.5745 90.5909 34.4506 91.7597 33.4775C94.5288 31.1764 97.3605 29.518 100.727 28.4102C102.397 27.8613 104.636 27.4222 106.716 27.4222C108.15 27.4222 109.504 27.6304 110.543 28.1539C110.569 28.1677 110.69 28.2262 110.741 28.2496L110.986 29.3025C111.165 30.7038 107.176 30.3518 106.282 30.4576C104.576 30.6593 102.13 30.9614 100.804 32.1258C99.0547 33.6624 99.421 35.3933 100.901 36.6916C101.583 37.2888 102.812 37.9322 102.166 39.0023C101.788 39.624 100.961 39.7756 100.226 39.7756C99.9921 39.7756 99.768 39.7602 99.5704 39.7397C97.7894 39.5537 96.2712 38.0782 94.4806 38.0782C94.3528 38.0782 94.2251 38.0855 94.0926 38.1018C92.3357 38.3179 91.3043 39.9827 89.6197 40.1951C89.5064 40.2092 89.398 40.2162 89.2944 40.2162" fill="#BF9E7C"/>
<path d="M147.635 49.9468C145.903 44.8564 140.678 45.0148 136.712 42.9213C134.016 41.4984 130.608 40.0668 127.638 39.8008C126.074 39.66 124.568 39.5524 123.017 39.9099C121.935 40.1592 120.884 40.7945 119.856 40.9914L115.669 41.6699C113.632 45.8257 116.83 48.6011 119.999 50.3201C122.063 51.4394 122.217 49.4634 123.226 49.2684C124.43 49.0355 125.136 49.7852 125.667 51.1681C126.395 53.066 122.716 54.4049 121.569 55.3441C120.469 56.2445 118.809 57.3825 118.466 59.0454C117.967 61.4763 119.869 63.0583 121.364 63.9227C122.823 64.7633 124.663 65.3558 126.48 65.1441C128.217 64.9416 128.634 64.2557 129.763 62.8642C131.617 60.5783 132.757 58.7666 134.85 56.8668C134.893 57.3056 136.696 57.6312 136.943 58.3598C137.188 59.0882 135.875 60.2202 136.043 60.6317C136.826 62.5659 141.244 64.466 144.498 63.1088C146.014 62.4763 149.845 61.752 150.891 55.9171C151.311 53.5708 148.373 52.1086 147.635 49.9468" fill="#634E40"/>
<path d="M144.619 49.9121C141.947 45.0966 137.405 42.4032 132.761 40.9867C129.533 40.0017 125.018 37.9027 121.832 40.0036C120.895 40.6225 119.823 41.9379 119.479 43.1586C119.244 43.9939 119.426 45.9362 119.974 46.1471L120.437 46.8253C121.058 46.4021 122.09 46.2516 122.846 46.5816C123.035 46.6649 123.588 47.2267 123.809 47.3678C124.22 47.6321 124.441 47.5801 124.828 47.9415C125.1 48.1932 125.152 48.7182 125.552 48.9963C125.939 49.2667 126.5 49.0842 126.921 49.4379C127.759 50.1411 127.34 51.2635 128.227 51.8157C129.028 52.3154 130.286 51.7601 130.986 52.423C131.302 52.7242 131.142 53.3201 131.476 53.6502C131.792 53.9639 132.477 54.0316 132.874 54.1526C133.751 54.4191 134.686 54.4867 135.404 55.1364C135.725 55.4296 135.815 55.9456 136.242 56.1948C136.449 56.3171 136.708 56.2929 136.966 56.2683C137.205 56.2458 137.445 56.2231 137.642 56.3165C138.129 56.5482 138.2 56.9518 138.6 57.2357C139.135 57.6141 139.398 57.4626 139.967 57.6808C140.401 57.8476 140.657 58.2828 141.128 58.4672C141.396 58.5711 141.712 58.5416 142.023 58.5121C142.236 58.4918 142.447 58.4715 142.639 58.4946C144.187 58.6802 145.493 59.2109 146.37 57.1097C147.486 54.4363 145.796 52.0345 144.619 49.9121" fill="#8C735B"/>
<path d="M118.693 58.4948C119.66 54.2517 129.27 48.5895 128.806 46.8255C128.343 45.0615 123.693 43.0263 121.599 44.2473C119.508 45.4686 123.459 46.8255 121.717 48.7251C120.952 49.5583 112.066 44.6544 116.833 39.6341C120.963 35.2838 129.27 32.9851 140.894 40.448C150.939 46.8958 152.622 53.5971 149.729 57.6806C144.731 64.7364 136.943 59.4446 137.06 58.766C137.156 58.2031 137.841 58.2712 138.728 58.3383C140.098 58.4435 141.955 58.548 142.871 56.3236C143.556 54.661 139.384 51.1675 136.479 52.7959C134.391 53.9656 128.343 64.6008 126.134 64.0581C123.925 63.515 118.05 61.3196 118.693 58.4948" fill="#A5896A"/>
<path d="M118.319 40.2041C118.316 40.2041 118.324 40.1961 118.344 40.1774V40.1852C118.329 40.1966 118.319 40.2041 118.319 40.2041Z" fill="#BF9E7C"/>
<path d="M130.801 53.3711C130.237 53.3711 129.697 53.2037 129.354 52.6935C128.488 51.3992 129.744 50.2334 130.408 49.2611C131.847 47.1477 131.994 44.7158 129.847 43.0539C128.759 42.2126 127.175 42.0124 125.678 42.0124C124.933 42.0124 124.207 42.0617 123.575 42.1067C122.975 42.1492 121.173 42.6821 119.826 42.6821C118.926 42.6821 118.232 42.4455 118.229 41.6693L118.344 40.1846C118.397 40.1409 118.52 40.0328 118.546 40.0074C120.408 38.3373 123.465 37.7353 126.242 37.7353C127.369 37.7353 128.452 37.8347 129.388 38.0027C133.253 38.6966 136.614 40.2639 139.999 42.7172C141.428 43.7548 143.229 44.9209 144.414 46.3844C145.712 47.9866 145.688 51.1577 143.336 51.3028C143.284 51.3058 143.231 51.3077 143.179 51.3077C142.303 51.3077 141.535 50.8642 140.759 50.4207C139.983 49.9775 139.196 49.5338 138.287 49.5338C138.226 49.5338 138.166 49.5359 138.106 49.5399C135.911 49.6837 134.39 52.3434 132.319 53.0706C131.889 53.2214 131.336 53.3711 130.801 53.3711" fill="#BF9E7C"/>
<path d="M88.6296 56.2773C90.5081 51.7532 95.1353 52.3491 98.7963 50.7688C101.284 49.6948 104.407 48.6745 107.06 48.6863C108.459 48.6923 109.806 48.7233 111.161 49.1854C112.105 49.5077 112.998 50.1813 113.897 50.4511L117.568 51.435C119.107 55.4263 116.083 57.6983 113.155 59.0035C111.247 59.8531 111.24 58.0254 110.357 57.7596C109.305 57.4419 108.626 58.069 108.066 59.2934C107.293 60.9732 110.473 62.5196 111.427 63.4808C112.346 64.4024 113.748 65.59 113.942 67.1467C114.225 69.4215 112.432 70.7099 111.045 71.3746C109.696 72.0206 108.021 72.4058 106.421 72.0545C104.891 71.7187 104.567 71.0531 103.655 69.6778C102.16 67.4196 101.265 65.658 99.5314 63.7334C99.465 64.1323 97.8398 64.2755 97.5743 64.9233C97.3088 65.5711 98.4004 66.7234 98.2259 67.087C97.4022 68.7953 93.3527 70.1588 90.5498 68.632C89.2443 67.9202 85.8906 66.9249 85.3473 61.4778C85.126 59.2874 87.8355 58.1982 88.6296 56.2773" fill="#634E40"/>
<path d="M91.3141 56.5065C94.0028 52.3155 98.2169 50.2345 102.436 49.3343C105.365 48.7085 109.516 47.1707 112.207 49.3745C113.001 50.0235 113.864 51.324 114.089 52.474C114.245 53.2613 113.953 55.0282 113.453 55.1751L112.996 55.758C112.474 55.3157 111.566 55.0884 110.874 55.3262C110.699 55.3863 110.172 55.8547 109.968 55.965C109.584 56.1723 109.392 56.1056 109.023 56.4039C108.765 56.6117 108.685 57.0889 108.311 57.31C107.947 57.5249 107.464 57.3089 107.065 57.5972C106.276 58.1708 106.575 59.2368 105.751 59.6678C105.404 59.8484 104.988 59.8124 104.573 59.7764C104.092 59.735 103.616 59.693 103.257 59.9876C102.956 60.2366 103.062 60.7974 102.744 61.0718C102.441 61.3329 101.826 61.3352 101.467 61.4123C100.67 61.5816 99.8345 61.5629 99.1568 62.0976C98.8484 62.3392 98.7366 62.8052 98.3432 62.9972C98.1489 63.0916 97.9205 63.0468 97.6922 63.002C97.4809 62.9606 97.272 62.9192 97.0899 62.9881C96.6405 63.1585 96.5531 63.5234 96.1766 63.7494C95.6763 64.0505 95.4553 63.8889 94.9355 64.0403C94.5372 64.156 94.2821 64.533 93.8522 64.6618C93.6069 64.734 93.33 64.6805 93.058 64.6263C92.8661 64.5892 92.6815 64.552 92.5066 64.5566C91.1198 64.5934 89.9248 64.968 89.2835 62.9635C88.4699 60.4126 90.1312 58.3537 91.3141 56.5065" fill="#8C735B"/>
<path d="M113.774 66.6227C113.196 62.6441 105.031 56.6163 105.561 55.0369C106.09 53.4572 110.354 51.9899 112.133 53.2916C113.91 54.5933 110.312 55.4981 111.733 57.3926C112.357 58.2236 120.572 54.4873 116.671 49.4668C113.288 45.1166 106.06 42.29 95.2441 48.1392C85.8991 53.1928 83.962 59.1998 86.2618 63.1986C90.2372 70.1076 97.5021 65.9207 97.4453 65.2878C97.3195 63.951 93.5414 66.0382 92.4433 62.5441C91.9424 60.9584 95.8783 58.1113 98.3534 59.8566C100.133 61.1108 104.804 71.3969 106.8 71.0887C108.797 70.781 114.161 69.2719 113.774 66.6227" fill="#A5896A"/>
<path d="M115.314 49.8597C115.314 49.8597 115.306 49.8524 115.293 49.8407V49.8333C115.311 49.8524 115.316 49.8597 115.314 49.8597Z" fill="#BF9E7C"/>
<path d="M103.573 60.885C103.034 60.885 102.457 60.6698 102.029 60.4674C100.239 59.6211 99.0623 57.0482 97.1214 56.7269C96.9875 56.7045 96.8535 56.6942 96.7245 56.6942C96.0085 56.6942 95.3534 57.0015 94.7032 57.3086C94.0529 57.6156 93.41 57.9229 92.7184 57.9229C92.6015 57.9229 92.4797 57.9138 92.3604 57.8942C90.2806 57.5581 90.4682 54.6446 91.7272 53.2858C92.8742 52.0441 94.5522 51.129 95.8916 50.2998C99.0575 48.3391 102.145 47.1898 105.625 46.8865C106.013 46.8526 106.427 46.835 106.858 46.835C109.673 46.835 113.241 47.5957 115.121 49.6618C115.145 49.6874 115.247 49.7971 115.291 49.8421L115.296 51.2151C115.25 51.8209 114.785 52.0253 114.156 52.0253C112.939 52.0253 111.102 51.2555 110.518 51.1554C109.653 51.0076 108.597 50.8305 107.564 50.8305C106.585 50.8305 105.63 50.9897 104.885 51.4843C102.869 52.825 102.837 55.0707 103.979 57.1349C104.503 58.0846 105.543 59.2635 104.688 60.377C104.398 60.7522 103.996 60.885 103.573 60.885" fill="#BF9E7C"/>
<path d="M69.9736 166.742C66.1761 168.239 62.8432 164.912 59.1565 163.509C56.6505 162.555 53.673 161.161 51.5938 159.453C50.4955 158.549 49.4556 157.67 48.6294 156.526C48.0529 155.728 47.6985 154.754 47.1286 154.015L44.7483 151.073C45.5919 147.707 49.1344 148.29 52.1054 149.388C53.3457 149.848 53.409 150.464 53.439 151.036C53.4561 151.356 53.4644 151.665 53.6633 151.924C54.3284 152.789 55.1842 152.851 56.2536 152.48C57.7235 151.973 56.0205 149.012 55.7624 147.825C55.5154 146.687 55.0234 145.079 55.6709 144.026C56.6164 142.486 58.6877 142.868 60.1194 143.362C61.5101 143.84 63.0244 144.685 64.1018 145.921C65.1313 147.103 65.0449 147.708 65.0539 149.113C65.0683 151.419 64.8656 153.043 65.2384 155.302C65.4971 155.108 66.8455 156.063 67.3877 155.848C67.9299 155.632 67.6641 154.245 67.9879 154.139C69.5134 153.649 73.3952 155.432 74.8111 158.139C75.4718 159.401 77.5956 162.146 75.2257 165.745C74.273 167.193 71.5859 166.106 69.9736 166.742" fill="#634E40"/>
<path d="M67.9836 164.885C63.7177 165.661 59.3383 164.2 55.5633 162.034C52.9372 160.526 48.8875 158.783 47.9049 155.742C47.6156 154.847 47.6042 153.517 48.0176 152.685C48.2997 152.116 49.4374 151.249 49.9043 151.481L50.5626 151.426C50.7465 152.025 51.3437 152.744 52.009 153.045C52.1774 153.121 52.833 153.181 53.0497 153.246C53.458 153.369 53.5741 153.531 54.0173 153.589C54.3261 153.631 54.6359 153.399 55.0422 153.506C55.4367 153.609 55.7071 154.049 56.1683 154.133C57.0834 154.298 57.3977 153.471 58.2658 153.742C59.0514 153.987 59.5819 155.048 60.3881 155.149C60.753 155.194 60.9583 154.791 61.3489 154.832C61.7197 154.869 62.2039 155.262 62.5276 155.447C63.2383 155.855 63.8857 156.403 64.6946 156.52C65.06 156.573 65.3877 156.367 65.7945 156.503C66.1805 156.634 66.406 157.158 66.7746 157.313C67.2151 157.499 67.4724 157.339 67.8835 157.445C68.4307 157.585 68.523 157.825 69.0085 158.067C69.3802 158.253 69.7752 158.192 70.1785 158.391C70.566 158.583 70.8443 159.053 71.1825 159.317C72.2896 160.183 73.4211 160.726 72.8954 162.333C72.2256 164.379 69.8627 164.542 67.9836 164.885" fill="#8C735B"/>
<path d="M55.5304 144.445C53.9405 147.189 57.2595 156.022 56.032 156.624C54.8057 157.228 50.6999 155.368 49.9731 153.453C49.2445 151.536 52.5375 153.303 52.3919 151.26C52.3292 150.365 43.9551 147.326 44.442 152.823C44.8646 157.587 49.0912 163.909 60.5957 167.357C70.5329 170.333 75.1416 167.992 75.3885 164.131C75.8157 157.46 67.9557 155.299 67.6756 155.713C67.4302 156.079 67.9887 156.496 68.6578 157.063C69.5916 157.853 70.7388 158.932 70.1972 160.559C69.7744 161.825 65.2179 160.999 64.172 158.371C63.4187 156.482 65.0324 147.35 63.3048 146.253C61.5771 145.155 56.5882 142.616 55.5304 144.445Z" fill="#A5896A"/>
<path d="M45.7123 153.459C45.7123 153.459 45.7153 153.469 45.7179 153.483L45.7148 153.488C45.7117 153.466 45.7109 153.457 45.7123 153.459Z" fill="#BF9E7C"/>
<path d="M68.0806 163.633C69.1554 165.089 67.5968 166.536 66.0007 166.54C64.4604 166.545 62.6718 166.014 61.1947 165.651C57.6989 164.79 54.6831 163.496 51.7925 161.445C50.3591 160.427 48.6763 158.887 47.4413 157.213C46.5898 156.06 45.953 154.846 45.7574 153.7C45.7528 153.67 45.7283 153.538 45.717 153.484L46.4183 152.661C47.4398 151.685 49.5251 155.103 50.1412 155.76C51.3167 157.013 53.0123 158.802 54.7363 159.177C57.0115 159.672 58.1867 158.349 58.3526 156.388C58.4281 155.484 58.2159 154.113 59.4605 153.998C60.1854 153.933 60.7982 154.508 61.2347 155.099C61.3735 155.287 61.4942 155.477 61.595 155.648C62.503 157.191 62.2174 159.289 63.2807 160.73C63.3565 160.833 63.4383 160.931 63.5301 161.028C64.7472 162.313 66.6992 162.155 67.8705 163.384C67.949 163.467 68.0191 163.55 68.0806 163.633" fill="#BF9E7C"/>
<path d="M41.266 110.915C38.1988 115.331 41.4289 119.441 42.0994 123.875C42.5556 126.889 43.4275 130.481 44.9769 133.028C45.7927 134.371 46.6005 135.647 47.8093 136.682C48.6519 137.404 49.7877 137.873 50.5565 138.583L53.5883 141.549C58.1419 140.72 58.4758 136.499 57.9772 132.928C57.6522 130.603 55.9708 131.653 55.2144 130.956C54.3125 130.126 54.4962 129.113 55.2934 127.864C56.3883 126.151 59.6502 128.316 61.0872 128.682C62.4647 129.032 64.3662 129.692 65.9076 128.98C68.16 127.938 68.3035 125.469 68.111 123.752C67.9214 122.08 67.305 120.247 66.0557 118.911C64.8612 117.633 64.0617 117.705 62.2717 117.623C59.3315 117.489 57.1972 117.648 54.4257 117.092C54.7534 116.797 53.9444 115.152 54.3839 114.521C54.8248 113.892 56.5149 114.275 56.7466 113.896C57.8375 112.117 56.7432 107.435 53.719 105.623C52.3094 104.778 49.452 102.126 44.1359 104.749C41.9989 105.805 42.5669 109.037 41.266 110.915" fill="#634E40"/>
<path d="M43.0288 113.362C40.7411 118.371 41.2709 123.625 42.8891 128.203C44.0133 131.385 45.0057 136.264 48.5878 137.58C49.6424 137.966 51.337 138.047 52.524 137.6C53.3352 137.292 54.7901 135.993 54.6346 135.427L54.9051 134.652C54.1957 134.403 53.4617 133.662 53.2785 132.858C53.233 132.656 53.3567 131.878 53.3388 131.616C53.3076 131.128 53.1345 130.981 53.1955 130.455C53.2369 130.088 53.628 129.734 53.6142 129.246C53.6019 128.774 53.122 128.432 53.1565 127.883C53.2251 126.791 54.3767 126.462 54.2942 125.42C54.221 124.479 53.0269 123.797 53.1444 122.839C53.1991 122.406 53.7739 122.182 53.8409 121.717C53.9058 121.276 53.5537 120.685 53.4151 120.293C53.1088 119.43 52.6082 118.638 52.7041 117.674C52.7493 117.241 53.1113 116.863 53.0586 116.371C53.0335 116.131 52.8607 115.938 52.6877 115.745C52.5274 115.566 52.3668 115.387 52.3248 115.172C52.222 114.643 52.5044 114.346 52.4953 113.855C52.4823 113.201 52.204 113.079 52.0419 112.492C51.9182 112.043 52.1167 111.579 51.9852 111.09C51.9093 110.813 51.698 110.576 51.4897 110.344C51.3468 110.184 51.2054 110.027 51.1098 109.858C50.3399 108.502 49.9915 107.137 47.7802 107.679C44.9663 108.368 44.0376 111.155 43.0288 113.362" fill="#8C735B"/>
<path d="M65.3303 129.125C61.3421 130.867 51.0796 126.497 49.9355 127.917C48.7915 129.338 49.9148 134.287 52.1408 135.247C54.3654 136.205 53.1109 132.22 55.674 132.494C56.7985 132.614 58.1292 142.675 51.2595 141.822C45.3069 141.082 38.5244 135.763 37.6261 121.979C36.8493 110.068 41.2412 104.734 46.245 104.637C54.8901 104.469 55.2569 113.877 54.6413 114.186C54.1314 114.443 53.7796 113.852 53.3068 113.098C52.5782 111.933 51.5595 110.377 49.2256 110.961C47.4812 111.397 47.148 116.829 50.1827 118.198C52.3643 119.184 64.5127 117.735 65.3876 119.834C66.2623 121.934 67.9845 127.964 65.3303 129.125" fill="#A5896A"/>
<path d="M50.8357 140.287C50.8372 140.289 50.8262 140.288 50.7992 140.283L50.8054 140.278C50.8237 140.284 50.8357 140.287 50.8357 140.287Z" fill="#BF9E7C"/>
<path d="M54.0173 122.425C54.3521 122.879 54.5381 123.413 54.3316 123.992C53.804 125.457 52.1202 125.139 50.9439 125.183C48.3888 125.279 46.3449 126.605 46.2829 129.32C46.2521 130.695 47.0315 132.088 47.9205 133.293C48.3627 133.892 48.8336 134.447 49.245 134.928C49.6358 135.386 51.1341 136.519 51.9344 137.603C52.4684 138.327 52.6907 139.027 52.0677 139.49L50.8047 140.278C50.7383 140.262 50.5782 140.227 50.5422 140.221C48.093 139.715 45.7932 137.613 44.1444 135.379C43.4749 134.472 42.9119 133.541 42.4912 132.689C40.7545 129.167 40.0196 125.532 39.9835 121.352C39.9698 119.586 39.8384 117.444 40.3122 115.621C40.8306 113.626 43.396 111.762 44.9093 113.568C44.9429 113.608 44.9756 113.649 45.0067 113.691C45.5267 114.396 45.6261 115.278 45.7301 116.165C45.8344 117.053 45.9445 117.949 46.4847 118.681C46.5205 118.73 46.5581 118.777 46.5971 118.823C48.016 120.504 51.0589 120.148 52.874 121.382C53.2508 121.639 53.6997 121.995 54.0173 122.425" fill="#BF9E7C"/>
<path d="M81.3983 154.63C76.6428 155.806 74.3744 151.729 70.929 149.721C68.5873 148.357 65.9121 146.451 64.3462 144.309C63.5203 143.18 62.7451 142.078 62.3125 140.713C62.0111 139.762 62.0231 138.644 61.7058 137.76L60.3176 134.222C62.615 130.613 66.2389 131.698 69.028 133.279C70.8445 134.309 69.3784 135.4 69.6887 136.268C70.0579 137.304 70.9655 137.477 72.2835 137.201C74.0935 136.825 73.4499 133.349 73.6568 132.011C73.8522 130.723 73.9755 128.891 75.1127 127.81C76.7751 126.232 78.8761 126.909 80.2343 127.63C81.5557 128.332 82.8599 129.451 83.5277 130.947C84.1657 132.377 83.8229 133.033 83.258 134.584C82.3288 137.128 81.4428 138.894 80.9236 141.431C81.284 141.248 82.3643 142.47 83.0432 142.299C83.7221 142.128 84.0009 140.566 84.3972 140.49C86.2607 140.139 89.7625 142.587 90.1985 145.749C90.4011 147.222 91.5917 150.511 87.5317 154.183C85.9007 155.662 83.4154 154.129 81.3983 154.63" fill="#634E40"/>
<path d="M79.9886 152.335C75.0199 152.66 70.8431 150.505 67.6135 147.645C65.3706 145.66 61.6684 143.234 61.8435 139.76C61.894 138.735 62.4284 137.269 63.2195 136.404C63.7607 135.812 65.3554 134.997 65.7707 135.312L66.5108 135.334C66.4651 136.017 66.8216 136.882 67.424 137.298C67.5762 137.403 68.2661 137.549 68.4759 137.648C68.8706 137.833 68.9309 138.027 69.3901 138.147C69.7102 138.231 70.1417 138.012 70.5418 138.182C70.9311 138.347 71.0442 138.865 71.5128 139.014C72.443 139.308 73.1234 138.435 73.9591 138.841C74.3106 139.014 74.5283 139.369 74.7459 139.725C74.9982 140.136 75.2472 140.544 75.6976 140.659C76.0768 140.753 76.4645 140.334 76.8743 140.427C77.2647 140.516 77.6314 141.009 77.9069 141.253C78.5162 141.793 78.9973 142.477 79.8299 142.704C80.2075 142.809 80.6488 142.622 81.0369 142.825C81.2283 142.925 81.3278 143.135 81.4273 143.346C81.5195 143.54 81.6103 143.733 81.7739 143.839C82.1778 144.099 82.5233 143.953 82.9287 144.121C83.4681 144.345 83.4693 144.619 83.8997 144.947C84.2294 145.199 84.6842 145.18 85.043 145.45C85.2469 145.604 85.3682 145.859 85.4862 146.11C85.5702 146.286 85.65 146.457 85.7575 146.595C86.6107 147.689 87.6217 148.428 86.3896 150.134C84.8204 152.304 82.1772 152.19 79.9886 152.335" fill="#8C735B"/>
<path d="M74.7907 128.256C71.9325 131.083 71.9314 141.233 70.3456 141.744C68.761 142.257 65.0483 139.698 65.0391 137.493C65.0314 135.29 67.8958 137.648 68.5761 135.379C68.874 134.384 60.9896 129.993 59.2669 136.113C57.7758 141.418 59.7935 148.912 70.9225 154.141C80.5379 158.659 86.5215 156.651 88.3731 152.426C91.5713 145.124 83.8885 141.765 83.413 142.187C82.4122 143.082 86.335 144.882 84.1758 147.841C83.1974 149.185 78.5694 147.709 78.5039 144.681C78.4564 142.505 83.9586 132.638 82.5251 131.215C81.0921 129.792 76.6922 126.371 74.7907 128.256" fill="#A5896A"/>
<path d="M60.389 136.972C60.389 136.972 60.3875 136.982 60.3856 136.999L60.3796 137.004C60.3845 136.978 60.3875 136.97 60.389 136.972Z" fill="#BF9E7C"/>
<path d="M76.2318 139.871C76.5514 140.304 76.721 140.897 76.8127 141.362C77.1947 143.304 75.823 145.779 76.7171 147.531C76.7786 147.652 76.8499 147.766 76.9265 147.87C77.3517 148.446 77.9879 148.791 78.6211 149.131C79.2542 149.472 79.8833 149.807 80.294 150.363C80.3634 150.458 80.4284 150.561 80.4834 150.669C81.4481 152.541 78.9926 154.121 77.1516 153.915C75.4714 153.729 73.7387 152.922 72.2761 152.337C68.8186 150.954 66.0602 149.152 63.7496 146.532C63.4924 146.241 63.2324 145.918 62.9764 145.571C61.3047 143.306 59.7982 139.984 60.3441 137.244C60.3502 137.21 60.3778 137.062 60.3879 137L61.4897 136.181C62.0046 135.858 62.4453 136.111 62.8184 136.617C63.5415 137.597 64.0125 139.531 64.279 140.061C64.6735 140.844 65.1586 141.8 65.7718 142.63C66.3531 143.418 67.0481 144.092 67.8886 144.398C70.1647 145.224 71.9904 143.916 72.973 141.771C73.4262 140.786 73.7572 139.249 75.1607 139.276C75.6348 139.286 75.9802 139.53 76.2318 139.871" fill="#BF9E7C"/>
<path d="M176.644 148.463C173.044 146.538 173.423 141.844 172.106 138.126C171.211 135.598 170.346 132.426 170.302 129.736C170.279 128.314 170.277 126.952 170.614 125.582C170.849 124.626 171.361 123.725 171.556 122.813L172.258 119.093C175.37 117.557 177.218 120.635 178.304 123.611C178.757 124.853 178.328 125.301 177.912 125.693C177.679 125.914 177.449 126.12 177.38 126.439C177.151 127.507 177.658 128.199 178.633 128.774C179.971 129.566 181.125 126.351 181.863 125.386C182.571 124.461 183.478 123.045 184.7 122.857C186.485 122.581 187.535 124.407 188.086 125.818C188.621 127.187 188.958 128.888 188.712 130.51C188.479 132.059 187.961 132.386 186.896 133.302C185.148 134.805 183.779 135.702 182.298 137.449C182.613 137.52 182.759 139.166 183.274 139.44C183.789 139.714 184.674 138.613 184.965 138.792C186.326 139.637 187.479 143.75 186.333 146.581C185.798 147.902 185.081 151.298 180.804 151.821C179.083 152.032 178.173 149.281 176.644 148.463" fill="#634E40"/>
<path d="M176.771 145.745C173.419 142.995 171.697 138.712 170.904 134.432C170.354 131.454 169.061 127.239 170.742 124.522C171.237 123.722 172.244 122.852 173.145 122.629C173.762 122.475 175.159 122.781 175.284 123.288L175.753 123.753C175.415 124.282 175.254 125.202 175.455 125.904C175.506 126.082 175.884 126.62 175.976 126.827C176.146 127.218 176.098 127.412 176.34 127.787C176.509 128.049 176.886 128.135 177.067 128.514C177.244 128.882 177.084 129.373 177.318 129.779C177.785 130.583 178.619 130.287 178.974 131.124C179.296 131.881 178.831 132.973 179.275 133.653C179.477 133.96 179.917 133.856 180.139 134.18C180.351 134.486 180.365 135.11 180.433 135.476C180.582 136.282 180.584 137.13 181.018 137.823C181.214 138.135 181.583 138.252 181.743 138.65C181.893 139.029 181.64 139.54 181.76 139.921C181.903 140.378 182.192 140.47 182.377 140.852C182.625 141.36 182.502 141.585 182.631 142.112C182.73 142.516 183.033 142.777 183.142 143.213C183.247 143.633 183.068 144.15 183.086 144.579C183.143 145.983 183.461 147.196 181.896 147.836C179.903 148.65 178.25 146.954 176.771 145.745" fill="#8C735B"/>
<path d="M184.289 123.021C181.169 123.585 176.585 131.833 175.331 131.287C174.077 130.744 172.837 126.41 173.826 124.616C174.816 122.82 175.6 126.474 177.063 125.041C177.705 124.413 174.6 116.063 170.725 119.993C167.368 123.399 165.285 130.713 170.105 141.714C174.269 151.214 179.037 153.211 182.139 150.9C187.5 146.908 184.059 139.518 183.563 139.572C183.125 139.622 183.168 140.318 183.17 141.195C183.172 142.418 183.092 143.991 181.501 144.631C180.263 145.129 177.943 141.121 179.268 138.623C180.221 136.826 188.226 132.144 187.944 130.117C187.662 128.09 186.368 122.643 184.289 123.021Z" fill="#A5896A"/>
<path d="M171.063 121.373C171.063 121.373 171.057 121.382 171.049 121.393L171.043 121.394C171.058 121.377 171.064 121.371 171.063 121.373Z" fill="#BF9E7C"/>
<path d="M177.789 145.008C177.374 146.77 175.263 146.519 174.226 145.305C173.226 144.134 172.473 142.427 171.793 141.066C170.187 137.844 169.22 134.708 168.912 131.177C168.76 129.426 168.845 127.146 169.321 125.121C169.649 123.725 170.162 122.455 170.909 121.563C170.929 121.541 171.013 121.437 171.048 121.393L172.129 121.394C173.534 121.542 172.278 125.344 172.177 126.238C171.983 127.945 171.717 130.396 172.547 131.952C173.642 134.007 175.411 134.047 177.014 132.903C177.751 132.376 178.659 131.327 179.553 132.201C180.071 132.711 180.03 133.551 179.861 134.266C179.808 134.494 179.742 134.708 179.676 134.896C179.088 136.587 177.304 137.727 176.894 139.471C176.865 139.595 176.843 139.721 176.828 139.854C176.637 141.613 178.021 142.998 177.842 144.687C177.83 144.8 177.812 144.908 177.789 145.008" fill="#BF9E7C"/>
<path d="M200.613 90.4435C195.261 90.9644 194.219 96.0868 191.274 99.4682C189.272 101.767 187.098 104.757 186.159 107.587C185.664 109.078 185.215 110.519 185.208 112.111C185.203 113.221 185.581 114.39 185.537 115.436L185.24 119.666C188.819 122.601 192.253 120.122 194.651 117.431C196.213 115.678 194.325 115.076 194.366 114.049C194.415 112.824 195.306 112.308 196.774 112.107C198.788 111.833 199.25 115.721 199.901 117.053C200.526 118.329 201.254 120.206 202.794 120.92C205.046 121.962 207.022 120.473 208.205 119.215C209.357 117.988 210.355 116.332 210.565 114.514C210.766 112.777 210.193 112.214 209.097 110.797C207.296 108.469 205.793 106.945 204.423 104.472C204.86 104.531 205.59 102.85 206.355 102.777C207.12 102.705 207.922 104.242 208.361 104.173C210.423 103.853 213.284 99.9877 212.707 96.5095C212.439 94.8883 212.61 90.9939 207.17 88.6397C204.982 87.6942 202.886 90.2194 200.613 90.4435" fill="#634E40"/>
<path d="M199.889 93.3712C194.59 94.8705 190.928 98.6751 188.486 102.872C186.789 105.789 183.712 109.704 185.028 113.286C185.416 114.34 186.451 115.684 187.561 116.299C188.32 116.718 190.253 116.986 190.583 116.501L191.35 116.205C191.08 115.503 191.169 114.464 191.664 113.804C191.788 113.639 192.462 113.229 192.649 113.046C193.001 112.707 193.001 112.48 193.441 112.186C193.748 111.979 194.271 112.048 194.634 111.722C194.986 111.407 194.936 110.82 195.377 110.491C196.253 109.836 197.25 110.501 197.99 109.764C198.66 109.099 198.407 107.747 199.213 107.217C199.579 106.978 200.122 107.271 200.52 107.021C200.897 106.785 201.12 106.134 201.329 105.775C201.789 104.982 202.069 104.088 202.865 103.537C203.224 103.291 203.747 103.322 204.087 102.964C204.254 102.79 204.29 102.533 204.325 102.276C204.358 102.038 204.39 101.799 204.526 101.629C204.864 101.208 205.273 101.231 205.641 100.906C206.131 100.472 206.044 100.181 206.387 99.6778C206.648 99.2931 207.13 99.1441 207.418 98.7275C207.58 98.4899 207.624 98.1756 207.666 97.8664C207.695 97.6542 207.724 97.4445 207.79 97.2627C208.325 95.7982 209.141 94.6485 207.296 93.3141C204.949 91.6156 202.224 92.7113 199.889 93.3712" fill="#8C735B"/>
<path d="M202.31 120.574C198.401 118.661 195.088 108.01 193.265 108.058C191.442 108.106 188.397 112.166 189.106 114.484C189.816 116.799 192.041 113.263 193.492 115.394C194.128 116.329 187.32 123.857 183.524 118.068C180.235 113.052 179.898 104.439 189.823 94.8313C198.399 86.5291 205.307 86.4236 208.62 90.1748C214.345 96.6552 207.411 103.025 206.778 102.756C206.252 102.534 206.475 101.883 206.743 101.034C207.159 99.7252 207.685 97.9414 205.73 96.5402C204.268 95.4931 199.912 98.7551 200.833 101.955C201.494 104.256 210.462 112.577 209.429 114.603C208.395 116.629 204.913 121.845 202.31 120.574" fill="#A5896A"/>
<path d="M184.42 116.751C184.419 116.754 184.413 116.744 184.399 116.721L184.407 116.722C184.415 116.74 184.42 116.751 184.42 116.751Z" fill="#BF9E7C"/>
<path d="M200.094 107.614C199.965 108.162 199.678 108.65 199.103 108.868C197.645 109.414 196.797 107.924 196.003 107.056C194.275 105.171 191.941 104.472 189.832 106.182C188.764 107.048 188.206 108.544 187.864 110.001C187.693 110.726 187.575 111.444 187.474 112.07C187.378 112.664 187.485 114.539 187.176 115.851C186.971 116.727 186.581 117.349 185.825 117.174L184.406 116.722C184.376 116.661 184.299 116.516 184.28 116.485C183.08 114.29 183.194 111.177 183.829 108.474C184.087 107.376 184.432 106.345 184.81 105.472C186.37 101.869 188.665 98.9555 191.827 96.222C193.164 95.0684 194.712 93.5818 196.408 92.7631C198.264 91.8664 201.346 92.6151 200.949 94.9377C200.94 94.9895 200.93 95.0409 200.918 95.092C200.717 95.9445 200.11 96.5908 199.5 97.2448C198.891 97.8989 198.279 98.563 198.071 99.4486C198.057 99.5073 198.046 99.5665 198.036 99.6261C197.674 101.795 199.915 103.884 200.148 106.067C200.197 106.52 200.216 107.093 200.094 107.614" fill="#BF9E7C"/>
<path d="M193.271 149.331C189.297 146.467 190.936 142.099 190.236 138.174C189.76 135.506 189.481 132.233 190.1 129.653C190.426 128.292 190.764 126.988 191.524 125.775C192.054 124.93 192.914 124.215 193.382 123.401L195.18 120.052C199.418 119.468 200.937 122.931 201.538 126.081C201.928 128.132 200.147 127.721 199.687 128.52C199.137 129.471 199.592 130.276 200.655 131.101C202.114 132.237 204.347 129.497 205.501 128.788C206.608 128.104 208.085 127.011 209.645 127.179C211.924 127.424 212.768 129.464 213.098 130.966C213.418 132.427 213.409 134.145 212.701 135.623C212.024 137.035 211.302 137.199 209.755 137.772C207.214 138.71 205.295 139.178 203.024 140.425C203.397 140.581 203.165 142.196 203.735 142.603C204.304 143.009 205.676 142.21 205.99 142.464C207.464 143.656 207.865 147.91 205.737 150.29C204.746 151.398 203.009 154.434 197.582 153.717C195.399 153.431 194.959 150.544 193.271 149.331" fill="#634E40"/>
<path d="M194.109 146.771C190.644 143.194 189.583 138.616 189.672 134.303C189.733 131.308 189.186 126.915 191.948 124.8C192.761 124.175 194.224 123.634 195.396 123.677C196.198 123.706 197.851 124.394 197.879 124.914L198.342 125.492C197.792 125.899 197.363 126.732 197.436 127.46C197.455 127.644 197.79 128.264 197.851 128.488C197.965 128.909 197.856 129.081 198.062 129.508C198.205 129.806 198.651 129.994 198.781 130.408C198.907 130.812 198.586 131.233 198.775 131.687C199.153 132.587 200.259 132.54 200.49 133.44C200.586 133.82 200.456 134.216 200.326 134.612C200.176 135.07 200.026 135.524 200.231 135.942C200.404 136.292 200.974 136.316 201.169 136.689C201.353 137.044 201.215 137.643 201.208 138.01C201.19 138.824 200.981 139.633 201.346 140.416C201.511 140.771 201.939 140.987 202.036 141.413C202.083 141.624 201.987 141.836 201.891 142.048C201.803 142.244 201.715 142.438 201.74 142.631C201.803 143.108 202.138 143.276 202.272 143.695C202.451 144.251 202.243 144.429 202.271 144.969C202.293 145.384 202.601 145.718 202.628 146.166C202.643 146.422 202.527 146.679 202.412 146.931C202.332 147.109 202.254 147.281 202.218 147.452C201.936 148.81 202.028 150.059 199.93 150.225C197.26 150.433 195.636 148.345 194.109 146.771" fill="#8C735B"/>
<path d="M209.097 127.222C205.091 126.874 197.355 133.443 195.939 132.565C194.522 131.689 194.069 127.203 195.744 125.769C197.418 124.337 197.475 128.046 199.644 127.096C200.596 126.679 198.839 117.827 193.059 120.476C188.05 122.774 183.644 129.163 186.863 141.03C189.644 151.284 195.048 154.544 199.467 153.22C207.102 150.932 204.689 142.901 204.06 142.812C202.73 142.628 203.897 146.784 200.245 147.053C198.586 147.178 196.716 142.695 198.981 140.685C200.609 139.24 211.691 137.047 211.848 135.033C212.005 133.019 211.764 127.451 209.097 127.222" fill="#A5896A"/>
<path d="M193.131 121.887C193.131 121.887 193.122 121.893 193.108 121.902L193.101 121.9C193.123 121.888 193.132 121.885 193.131 121.887Z" fill="#BF9E7C"/>
<path d="M201.176 135.839C201.053 136.363 200.712 136.876 200.416 137.247C199.183 138.796 196.409 139.352 195.652 141.168C195.6 141.293 195.559 141.421 195.529 141.547C195.366 142.244 195.515 142.952 195.665 143.655C195.815 144.358 195.967 145.054 195.809 145.727C195.782 145.841 195.745 145.958 195.699 146.069C194.896 148.017 192.102 147.168 191.068 145.631C190.122 144.23 189.615 142.388 189.114 140.894C187.93 137.363 187.518 134.094 188.019 130.637C188.075 130.252 188.152 129.845 188.251 129.426C188.895 126.685 190.452 123.386 192.894 122.029C192.924 122.011 193.055 121.937 193.108 121.904L194.446 122.214C195.025 122.398 195.118 122.897 194.974 123.509C194.695 124.694 193.526 126.305 193.294 126.852C192.953 127.659 192.538 128.648 192.302 129.653C192.078 130.606 192.015 131.571 192.326 132.41C193.169 134.68 195.348 135.225 197.619 134.585C198.663 134.293 200.049 133.55 200.937 134.637C201.236 135.005 201.273 135.427 201.176 135.839" fill="#BF9E7C"/>
<path d="M134.698 175.733C133.471 171.84 137.024 168.749 138.683 165.17C139.811 162.738 141.411 159.865 143.261 157.912C144.24 156.88 145.19 155.904 146.389 155.16C147.225 154.641 148.222 154.356 148.999 153.84L152.102 151.672C155.4 152.751 154.57 156.243 153.265 159.13C152.719 160.335 152.1 160.354 151.528 160.344C151.207 160.339 150.898 160.325 150.626 160.506C149.716 161.108 149.594 161.957 149.889 163.05C150.291 164.552 153.365 163.062 154.567 162.888C155.72 162.721 157.358 162.344 158.363 163.064C159.833 164.115 159.306 166.154 158.713 167.548C158.138 168.901 157.189 170.353 155.879 171.34C154.629 172.284 154.031 172.155 152.629 172.066C150.328 171.918 148.722 171.601 146.442 171.814C146.617 172.086 145.57 173.364 145.747 173.92C145.924 174.476 147.326 174.308 147.409 174.639C147.791 176.195 145.739 179.942 142.939 181.164C141.633 181.734 138.746 183.66 135.323 181.043C133.945 179.99 135.219 177.386 134.698 175.733" fill="#634E40"/>
<path d="M136.689 173.879C136.216 169.569 137.98 165.303 140.407 161.69C142.096 159.176 144.119 155.259 147.221 154.493C148.135 154.267 149.463 154.349 150.263 154.82C150.812 155.141 151.596 156.337 151.331 156.787L151.34 157.447C150.73 157.589 149.97 158.134 149.623 158.776C149.536 158.939 149.43 159.589 149.35 159.8C149.199 160.199 149.029 160.303 148.939 160.741C148.876 161.046 149.086 161.372 148.951 161.77C148.82 162.156 148.362 162.395 148.246 162.849C148.017 163.75 148.82 164.122 148.489 164.969C148.189 165.735 147.093 166.19 146.935 166.987C146.865 167.347 147.252 167.581 147.184 167.967C147.121 168.335 146.695 168.79 146.487 169.1C146.031 169.78 145.439 170.387 145.265 171.186C145.186 171.547 145.369 171.888 145.204 172.284C145.047 172.66 144.508 172.848 144.328 173.205C144.111 173.631 144.253 173.899 144.118 174.302C143.94 174.838 143.694 174.913 143.418 175.38C143.206 175.738 143.24 176.137 143.013 176.525C142.794 176.898 142.306 177.142 142.018 177.461C141.077 178.505 140.456 179.595 138.889 178.958C136.896 178.146 136.9 175.777 136.689 173.879" fill="#8C735B"/>
<path d="M157.955 162.894C155.329 161.115 146.285 163.805 145.771 162.538C145.254 161.272 147.399 157.307 149.36 156.717C151.323 156.125 149.328 159.286 151.377 159.284C152.275 159.284 155.895 151.145 150.377 151.244C145.595 151.33 138.991 155.102 134.743 166.335C131.076 176.039 133.087 180.801 136.921 181.318C143.545 182.214 146.253 174.525 145.861 174.217C145.512 173.946 145.057 174.474 144.445 175.102C143.591 175.977 142.434 177.046 140.849 176.391C139.616 175.88 140.76 171.393 143.455 170.535C145.393 169.916 154.388 172.168 155.604 170.522C156.821 168.876 159.704 164.078 157.955 162.894Z" fill="#A5896A"/>
<path d="M149.653 152.466C149.653 152.466 149.643 152.469 149.629 152.47L149.624 152.467C149.647 152.465 149.655 152.465 149.653 152.466Z" fill="#BF9E7C"/>
<path d="M137.932 174.064C136.403 175.034 135.07 173.377 135.178 171.785C135.282 170.248 135.937 168.501 136.403 167.053C137.508 163.627 139.011 160.709 141.26 157.97C142.376 156.612 144.031 155.041 145.787 153.927C146.998 153.159 148.253 152.609 149.41 152.495C149.44 152.492 149.573 152.477 149.629 152.469L150.4 153.227C151.302 154.314 147.745 156.154 147.047 156.723C145.714 157.807 143.811 159.373 143.316 161.066C142.661 163.301 143.898 164.566 145.843 164.87C146.739 165.008 148.121 164.893 148.149 166.143C148.163 166.87 147.546 167.441 146.926 167.835C146.728 167.96 146.531 168.067 146.353 168.156C144.75 168.953 142.677 168.521 141.165 169.48C141.057 169.548 140.953 169.623 140.85 169.708C139.483 170.832 139.504 172.79 138.195 173.872C138.107 173.944 138.019 174.008 137.932 174.064" fill="#BF9E7C"/>
<path d="M192.405 151.023C188.216 147.653 183.889 150.586 179.419 150.943C176.38 151.186 172.735 151.803 170.085 153.17C168.689 153.889 167.359 154.605 166.241 155.738C165.462 156.528 164.914 157.628 164.152 158.345L160.98 161.16C161.487 165.761 165.674 166.391 169.271 166.145C171.613 165.984 170.685 164.233 171.432 163.527C172.324 162.686 173.322 162.941 174.511 163.824C176.143 165.036 173.754 168.138 173.288 169.546C172.842 170.895 172.05 172.745 172.651 174.333C173.532 176.653 175.986 176.97 177.712 176.899C179.393 176.827 181.265 176.341 182.686 175.189C184.044 174.087 184.029 173.285 184.236 171.505C184.577 168.582 184.569 166.441 185.318 163.716C185.589 164.063 187.286 163.372 187.885 163.855C188.482 164.339 187.98 165.998 188.342 166.256C190.04 167.469 194.788 166.707 196.808 163.817C197.75 162.471 200.596 159.807 198.354 154.319C197.451 152.113 194.187 152.453 192.405 151.023" fill="#634E40"/>
<path d="M189.84 152.61C185.004 149.975 179.726 150.134 175.046 151.426C171.793 152.324 166.856 152.971 165.291 156.452C164.832 157.476 164.631 159.161 164.994 160.377C165.244 161.207 166.438 162.75 167.013 162.635L167.768 162.959C168.066 162.269 168.857 161.589 169.671 161.463C169.876 161.432 170.644 161.61 170.906 161.61C171.395 161.613 171.554 161.451 172.074 161.549C172.438 161.616 172.764 162.031 173.25 162.052C173.722 162.073 174.098 161.618 174.643 161.691C175.727 161.836 175.975 163.008 177.02 162.999C177.963 162.992 178.728 161.849 179.675 162.034C180.103 162.119 180.287 162.708 180.746 162.807C181.181 162.903 181.795 162.593 182.195 162.483C183.078 162.238 183.904 161.794 184.859 161.958C185.287 162.033 185.639 162.421 186.133 162.403C186.374 162.395 186.579 162.236 186.783 162.077C186.974 161.93 187.164 161.782 187.381 161.755C187.916 161.69 188.192 161.992 188.682 162.018C189.336 162.051 189.477 161.782 190.074 161.662C190.531 161.57 190.979 161.8 191.476 161.703C191.759 161.647 192.009 161.453 192.256 161.262C192.425 161.13 192.592 161 192.767 160.917C194.173 160.244 195.56 159.993 195.175 157.749C194.685 154.893 191.971 153.771 189.84 152.61" fill="#8C735B"/>
<path d="M172.547 173.747C171.09 169.646 176.171 159.716 174.835 158.475C173.498 157.234 168.482 158.007 167.368 160.159C166.256 162.311 170.32 161.34 169.866 163.878C169.667 164.991 159.537 165.611 160.872 158.818C162.028 152.932 167.811 146.54 181.624 146.614C193.56 146.677 198.572 151.433 198.317 156.431C197.877 165.066 188.466 164.771 188.201 164.135C187.981 163.608 188.595 163.299 189.381 162.88C190.593 162.235 192.217 161.329 191.799 158.959C191.487 157.189 186.092 156.474 184.512 159.405C183.375 161.512 183.967 173.732 181.811 174.457C179.655 175.182 173.518 176.476 172.547 173.747" fill="#A5896A"/>
<path d="M162.433 158.503C162.43 158.505 162.432 158.494 162.44 158.467L162.444 158.474C162.437 158.491 162.433 158.503 162.433 158.503Z" fill="#BF9E7C"/>
<path d="M180.026 162.933C179.55 163.235 179.005 163.383 178.441 163.136C177.017 162.507 177.453 160.85 177.492 159.674C177.575 157.118 176.397 154.986 173.693 154.733C172.323 154.606 170.879 155.285 169.615 156.087C168.986 156.486 168.399 156.917 167.89 157.293C167.406 157.651 166.17 159.066 165.032 159.788C164.273 160.27 163.56 160.442 163.142 159.788L162.444 158.473C162.464 158.408 162.511 158.251 162.519 158.215C163.196 155.808 165.455 153.661 167.799 152.174C168.751 151.57 169.719 151.074 170.599 150.714C174.234 149.229 177.912 148.752 182.085 149.01C183.847 149.12 185.993 149.14 187.777 149.741C189.732 150.398 191.411 153.088 189.503 154.471C189.46 154.501 189.417 154.531 189.372 154.559C188.633 155.028 187.747 155.065 186.854 155.107C185.961 155.148 185.059 155.195 184.291 155.683C184.24 155.715 184.19 155.749 184.142 155.785C182.366 157.082 182.507 160.142 181.147 161.866C180.865 162.224 180.478 162.647 180.026 162.933" fill="#BF9E7C"/>
<path d="M145.975 187.981C145.138 183.155 149.364 181.179 151.608 177.883C153.134 175.643 155.224 173.109 157.47 171.697C158.655 170.953 159.809 170.257 161.2 169.922C162.17 169.688 163.285 169.779 164.189 169.524L167.816 168.388C171.254 170.934 169.917 174.472 168.144 177.143C166.988 178.883 166.003 177.344 165.115 177.592C164.057 177.888 163.82 178.781 164.002 180.115C164.25 181.947 167.763 181.549 169.084 181.85C170.354 182.135 172.173 182.387 173.171 183.598C174.629 185.367 173.806 187.415 172.991 188.719C172.197 189.988 170.99 191.21 169.45 191.771C167.979 192.307 167.349 191.919 165.842 191.246C163.369 190.141 161.67 189.133 159.175 188.436C159.333 188.809 158.037 189.8 158.16 190.49C158.283 191.179 159.822 191.567 159.87 191.967C160.089 193.851 157.401 197.172 154.216 197.384C152.732 197.483 149.367 198.439 145.99 194.131C144.63 192.4 146.334 190.029 145.975 187.981" fill="#634E40"/>
<path d="M148.364 186.737C148.389 181.757 150.832 177.742 153.912 174.722C156.05 172.624 158.731 169.102 162.185 169.521C163.203 169.643 164.628 170.279 165.435 171.129C165.988 171.711 166.688 173.359 166.344 173.751L166.271 174.488C165.593 174.394 164.704 174.689 164.247 175.261C164.132 175.405 163.938 176.083 163.825 176.285C163.612 176.666 163.414 176.713 163.262 177.162C163.156 177.476 163.344 177.921 163.147 178.309C162.954 178.685 162.43 178.762 162.248 179.219C161.889 180.126 162.713 180.866 162.248 181.671C162.052 182.01 161.682 182.202 161.312 182.394C160.884 182.617 160.459 182.836 160.313 183.277C160.192 183.649 160.583 184.065 160.462 184.467C160.345 184.851 159.827 185.182 159.565 185.439C158.983 186.009 158.268 186.441 157.982 187.256C157.851 187.625 158.006 188.078 157.777 188.451C157.664 188.635 157.447 188.72 157.23 188.804C157.029 188.882 156.831 188.959 156.714 189.115C156.426 189.5 156.547 189.855 156.351 190.247C156.09 190.769 155.816 190.751 155.459 191.158C155.184 191.469 155.171 191.924 154.877 192.263C154.708 192.455 154.446 192.558 154.187 192.658C154.005 192.73 153.83 192.797 153.684 192.895C152.533 193.669 151.725 194.626 150.109 193.277C148.056 191.559 148.355 188.93 148.364 186.737" fill="#8C735B"/>
<path d="M172.749 183.245C170.13 180.195 160.006 179.481 159.607 177.863C159.207 176.246 162.021 172.722 164.221 172.868C166.419 173.015 163.865 175.707 166.081 176.545C167.053 176.912 171.988 169.356 166.004 167.207C160.816 165.347 153.199 166.833 147.2 177.566C142.017 186.84 143.6 192.95 147.684 195.094C154.743 198.798 158.634 191.371 158.247 190.867C157.424 189.805 155.352 193.592 152.553 191.23C151.281 190.159 153.079 185.647 156.103 185.794C158.278 185.9 167.733 192.082 169.253 190.752C170.774 189.423 174.496 185.275 172.749 183.245" fill="#A5896A"/>
<path d="M165.068 168.266C165.068 168.266 165.057 168.264 165.041 168.261L165.037 168.255C165.062 168.261 165.07 168.265 165.068 168.266Z" fill="#BF9E7C"/>
<path d="M161.061 183.866C160.607 184.154 160.004 184.282 159.534 184.341C157.569 184.585 155.197 183.043 153.386 183.811C153.261 183.864 153.142 183.927 153.033 183.996C152.429 184.38 152.04 184.99 151.656 185.598C151.271 186.206 150.893 186.81 150.309 187.18C150.21 187.243 150.103 187.3 149.991 187.348C148.055 188.178 146.653 185.618 146.988 183.796C147.291 182.133 148.218 180.461 148.904 179.043C150.527 175.692 152.518 173.067 155.294 170.946C155.603 170.71 155.943 170.473 156.307 170.243C158.684 168.734 162.104 167.465 164.799 168.202C164.833 168.211 164.978 168.249 165.039 168.263L165.779 169.42C166.065 169.956 165.781 170.378 165.251 170.715C164.223 171.367 162.26 171.701 161.713 171.929C160.903 172.268 159.916 172.685 159.044 173.238C158.218 173.762 157.497 174.408 157.133 175.225C156.148 177.437 157.325 179.351 159.395 180.482C160.346 181.003 161.856 181.441 161.731 182.839C161.687 183.312 161.419 183.639 161.061 183.866" fill="#BF9E7C"/>
<path d="M96.6979 114.733C95.471 110.84 99.0239 107.749 100.683 104.17C101.811 101.738 103.411 98.8655 105.261 96.9116C106.24 95.8796 107.19 94.9042 108.389 94.1604C109.225 93.6414 110.222 93.3564 110.999 92.8399L114.102 90.6724C117.4 91.7506 116.57 95.2434 115.265 98.1297C114.719 99.3347 114.1 99.3545 113.528 99.3443C113.207 99.3387 112.898 99.3254 112.626 99.5056C111.716 100.108 111.594 100.957 111.889 102.05C112.291 103.552 115.365 102.062 116.567 101.888C117.72 101.721 119.358 101.344 120.363 102.064C121.833 103.115 121.306 105.154 120.713 106.548C120.138 107.901 119.189 109.353 117.879 110.34C116.629 111.284 116.031 111.155 114.629 111.066C112.328 110.918 110.722 110.601 108.442 110.814C108.617 111.086 107.57 112.364 107.747 112.92C107.924 113.476 109.326 113.308 109.409 113.639C109.791 115.195 107.739 118.942 104.939 120.164C103.633 120.734 100.746 122.66 97.3228 120.043C95.9453 118.99 97.2188 116.386 96.6979 114.733" fill="#634E40"/>
<path d="M98.6891 112.879C98.2157 108.569 99.9805 104.303 102.407 100.69C104.096 98.176 106.119 94.2589 109.221 93.4926C110.135 93.267 111.463 93.3492 112.263 93.82C112.812 94.1415 113.596 95.3373 113.331 95.7867L113.34 96.4473C112.73 96.5886 111.97 97.1338 111.623 97.7762C111.536 97.9389 111.43 98.5886 111.35 98.8002C111.199 99.1989 111.029 99.3032 110.939 99.7413C110.876 100.046 111.086 100.372 110.951 100.77C110.82 101.156 110.362 101.395 110.246 101.849C110.017 102.75 110.82 103.122 110.489 103.969C110.189 104.735 109.093 105.19 108.935 105.987C108.865 106.347 109.252 106.581 109.184 106.967C109.121 107.335 108.695 107.79 108.487 108.1C108.031 108.78 107.439 109.387 107.265 110.186C107.186 110.547 107.369 110.888 107.204 111.284C107.047 111.66 106.508 111.848 106.328 112.205C106.111 112.631 106.253 112.899 106.118 113.302C105.94 113.838 105.694 113.913 105.418 114.38C105.206 114.738 105.24 115.137 105.013 115.525C104.794 115.898 104.306 116.142 104.018 116.461C103.077 117.505 102.456 118.595 100.889 117.958C98.8961 117.146 98.8998 114.777 98.6891 112.879" fill="#8C735B"/>
<path d="M119.955 101.894C117.329 100.115 108.285 102.805 107.771 101.538C107.254 100.272 109.399 96.3073 111.36 95.717C113.323 95.125 111.328 98.2855 113.377 98.284C114.275 98.2844 117.895 90.1448 112.377 90.2438C107.595 90.3304 100.991 94.1019 96.7432 105.335C93.0756 115.039 95.087 119.801 98.921 120.318C105.545 121.214 108.253 113.525 107.861 113.217C107.512 112.946 107.057 113.474 106.445 114.102C105.591 114.977 104.434 116.046 102.849 115.391C101.616 114.88 102.76 110.393 105.455 109.535C107.393 108.916 116.388 111.168 117.604 109.522C118.821 107.876 121.704 103.078 119.955 101.894Z" fill="#A5896A"/>
<path d="M111.653 91.4665C111.653 91.4665 111.643 91.4687 111.629 91.4703L111.624 91.4669C111.647 91.4653 111.655 91.4651 111.653 91.4665Z" fill="#BF9E7C"/>
<path d="M99.9316 113.064C98.4034 114.034 97.0697 112.377 97.1782 110.785C97.2819 109.248 97.9373 107.501 98.4029 106.053C99.5081 102.627 101.011 99.7092 103.26 96.97C104.376 95.6118 106.031 94.0415 107.787 92.9272C108.998 92.1589 110.253 91.609 111.41 91.4946C111.44 91.492 111.573 91.4769 111.629 91.4695L112.4 92.2269C113.302 93.3145 109.745 95.1542 109.047 95.7226C107.714 96.8071 105.811 98.3727 105.316 100.066C104.661 102.301 105.898 103.566 107.843 103.87C108.739 104.008 110.121 103.893 110.149 105.143C110.163 105.87 109.546 106.441 108.926 106.835C108.728 106.96 108.531 107.067 108.353 107.156C106.75 107.953 104.677 107.521 103.165 108.48C103.057 108.548 102.953 108.623 102.85 108.708C101.483 109.832 101.504 111.79 100.195 112.872C100.107 112.944 100.019 113.008 99.9316 113.064" fill="#BF9E7C"/>
<path d="M154.405 90.023C150.216 86.6528 145.889 89.5859 141.419 89.9429C138.38 90.186 134.735 90.8031 132.085 92.1696C130.689 92.8889 129.359 93.605 128.241 94.738C127.462 95.5277 126.914 96.6277 126.152 97.3447L122.98 100.16C123.487 104.761 127.674 105.391 131.271 105.145C133.613 104.984 132.685 103.233 133.432 102.527C134.324 101.686 135.322 101.941 136.511 102.824C138.143 104.036 135.754 107.138 135.288 108.546C134.842 109.895 134.05 111.745 134.651 113.333C135.532 115.653 137.986 115.97 139.712 115.899C141.393 115.827 143.265 115.341 144.686 114.189C146.044 113.087 146.029 112.285 146.236 110.505C146.577 107.582 146.569 105.441 147.318 102.716C147.589 103.063 149.286 102.372 149.885 102.855C150.482 103.339 149.98 104.998 150.342 105.256C152.04 106.469 156.788 105.707 158.808 102.817C159.75 101.471 162.596 98.8068 160.354 93.3194C159.451 91.1134 156.187 91.4527 154.405 90.023" fill="#634E40"/>
<path d="M151.84 91.6095C147.004 88.9752 141.726 89.1342 137.046 90.4264C133.793 91.3241 128.856 91.9709 127.291 95.4516C126.832 96.4764 126.631 98.1611 126.994 99.3766C127.244 100.207 128.438 101.75 129.013 101.635L129.768 101.959C130.066 101.269 130.857 100.589 131.671 100.463C131.876 100.432 132.644 100.61 132.906 100.61C133.395 100.613 133.554 100.451 134.074 100.549C134.438 100.616 134.764 101.031 135.25 101.052C135.722 101.073 136.098 100.618 136.643 100.691C137.727 100.836 137.975 102.008 139.02 101.999C139.963 101.992 140.728 100.849 141.675 101.034C142.103 101.119 142.287 101.708 142.746 101.807C143.181 101.903 143.795 101.593 144.195 101.483C145.078 101.238 145.904 100.794 146.859 100.958C147.287 101.033 147.639 101.421 148.133 101.403C148.374 101.395 148.579 101.236 148.783 101.077C148.974 100.93 149.164 100.782 149.381 100.755C149.916 100.69 150.192 100.992 150.682 101.018C151.336 101.051 151.477 100.782 152.074 100.662C152.531 100.57 152.979 100.8 153.476 100.703C153.759 100.647 154.009 100.453 154.256 100.262C154.425 100.13 154.592 100 154.767 99.9169C156.173 99.2442 157.56 98.9928 157.175 96.7489C156.685 93.8934 153.971 92.7711 151.84 91.6095" fill="#8C735B"/>
<path d="M134.547 112.747C133.09 108.646 138.171 98.7163 136.835 97.4752C135.498 96.2341 130.482 97.0065 129.368 99.1595C128.256 101.311 132.32 100.34 131.866 102.878C131.667 103.991 121.537 104.611 122.872 97.818C124.028 91.9322 129.811 85.5405 143.624 85.6139C155.56 85.6766 160.572 90.4328 160.317 95.4309C159.877 104.066 150.466 103.771 150.201 103.135C149.981 102.608 150.595 102.299 151.381 101.88C152.593 101.235 154.217 100.329 153.799 97.9595C153.487 96.1887 148.092 95.4743 146.512 98.4053C145.375 100.512 145.967 112.732 143.811 113.457C141.655 114.182 135.518 115.476 134.547 112.747" fill="#A5896A"/>
<path d="M124.433 97.5032C124.43 97.5045 124.432 97.4937 124.44 97.4671L124.444 97.4737C124.437 97.4915 124.433 97.5032 124.433 97.5032Z" fill="#BF9E7C"/>
<path d="M142.026 101.933C141.55 102.235 141.005 102.383 140.441 102.136C139.017 101.507 139.453 99.85 139.492 98.6736C139.575 96.1179 138.397 93.9858 135.693 93.7331C134.323 93.6056 132.879 94.2851 131.615 95.0872C130.986 95.4862 130.399 95.9169 129.89 96.2934C129.406 96.651 128.17 98.066 127.032 98.788C126.273 99.2699 125.56 99.4423 125.142 98.7884L124.444 97.473C124.464 97.4079 124.511 97.2507 124.519 97.2152C125.196 94.8076 127.455 92.6614 129.799 91.1737C130.751 90.5697 131.719 90.0735 132.599 89.7139C136.234 88.2292 139.912 87.7517 144.085 88.0097C145.847 88.1201 147.993 88.1397 149.777 88.7405C151.732 89.398 153.411 92.0882 151.503 93.4707C151.46 93.5014 151.417 93.531 151.372 93.5591C150.633 94.0283 149.747 94.0655 148.854 94.1068C147.961 94.1484 147.059 94.1951 146.291 94.6826C146.24 94.7149 146.19 94.749 146.142 94.7847C144.366 96.0819 144.507 99.1423 143.147 100.866C142.865 101.224 142.478 101.647 142.026 101.933" fill="#BF9E7C"/>
<path d="M107.975 126.981C107.138 122.155 111.364 120.179 113.608 116.883C115.134 114.643 117.224 112.109 119.47 110.697C120.655 109.953 121.809 109.257 123.2 108.922C124.17 108.688 125.285 108.779 126.189 108.524L129.816 107.388C133.254 109.934 131.917 113.472 130.144 116.143C128.988 117.883 128.003 116.344 127.115 116.592C126.057 116.888 125.82 117.781 126.002 119.115C126.25 120.947 129.763 120.549 131.084 120.85C132.354 121.135 134.173 121.387 135.171 122.598C136.629 124.367 135.806 126.415 134.991 127.719C134.197 128.988 132.99 130.21 131.45 130.771C129.979 131.307 129.349 130.919 127.842 130.246C125.369 129.141 123.67 128.133 121.175 127.436C121.333 127.809 120.037 128.8 120.16 129.49C120.283 130.179 121.822 130.567 121.87 130.967C122.089 132.851 119.401 136.172 116.216 136.384C114.732 136.483 111.367 137.439 107.99 133.131C106.63 131.4 108.334 129.029 107.975 126.981" fill="#634E40"/>
<path d="M110.364 125.737C110.389 120.757 112.832 116.742 115.912 113.722C118.05 111.624 120.731 108.102 124.185 108.521C125.203 108.643 126.628 109.279 127.435 110.129C127.988 110.711 128.688 112.359 128.344 112.751L128.271 113.488C127.593 113.394 126.704 113.689 126.247 114.261C126.132 114.405 125.938 115.083 125.825 115.285C125.612 115.666 125.414 115.713 125.262 116.162C125.156 116.476 125.344 116.921 125.147 117.309C124.954 117.685 124.43 117.762 124.248 118.219C123.889 119.126 124.713 119.866 124.248 120.671C124.052 121.01 123.682 121.202 123.312 121.394C122.884 121.617 122.459 121.836 122.313 122.277C122.192 122.649 122.583 123.065 122.462 123.467C122.345 123.851 121.827 124.182 121.565 124.439C120.983 125.009 120.268 125.441 119.982 126.256C119.851 126.625 120.006 127.078 119.777 127.451C119.664 127.635 119.447 127.72 119.23 127.804C119.029 127.882 118.831 127.959 118.714 128.115C118.426 128.5 118.547 128.855 118.351 129.247C118.09 129.769 117.816 129.751 117.459 130.158C117.184 130.469 117.171 130.924 116.877 131.263C116.708 131.455 116.446 131.558 116.187 131.658C116.005 131.73 115.83 131.797 115.684 131.895C114.533 132.669 113.725 133.626 112.109 132.277C110.056 130.559 110.355 127.93 110.364 125.737" fill="#8C735B"/>
<path d="M134.749 122.245C132.13 119.195 122.006 118.481 121.607 116.863C121.207 115.246 124.021 111.722 126.221 111.868C128.419 112.015 125.865 114.707 128.081 115.545C129.053 115.912 133.988 108.356 128.004 106.207C122.816 104.347 115.199 105.833 109.2 116.566C104.017 125.84 105.6 131.95 109.684 134.094C116.743 137.798 120.634 130.371 120.247 129.867C119.424 128.805 117.352 132.592 114.553 130.23C113.281 129.159 115.079 124.647 118.103 124.794C120.278 124.9 129.733 131.082 131.253 129.752C132.774 128.423 136.496 124.275 134.749 122.245" fill="#A5896A"/>
<path d="M127.068 107.266C127.068 107.266 127.057 107.264 127.041 107.261L127.037 107.255C127.062 107.261 127.07 107.265 127.068 107.266Z" fill="#BF9E7C"/>
<path d="M123.061 122.866C122.607 123.154 122.004 123.282 121.534 123.341C119.569 123.585 117.197 122.043 115.386 122.811C115.261 122.864 115.142 122.927 115.033 122.996C114.429 123.38 114.04 123.99 113.656 124.598C113.271 125.206 112.893 125.81 112.309 126.18C112.21 126.243 112.103 126.3 111.991 126.348C110.055 127.178 108.653 124.618 108.988 122.796C109.291 121.133 110.218 119.461 110.904 118.043C112.527 114.692 114.518 112.067 117.294 109.946C117.603 109.71 117.943 109.473 118.307 109.243C120.684 107.734 124.104 106.465 126.799 107.202C126.833 107.211 126.978 107.249 127.039 107.263L127.779 108.42C128.065 108.956 127.781 109.378 127.251 109.715C126.223 110.367 124.26 110.701 123.713 110.929C122.903 111.268 121.916 111.685 121.044 112.238C120.218 112.762 119.497 113.408 119.133 114.225C118.148 116.437 119.325 118.351 121.395 119.482C122.346 120.003 123.856 120.441 123.731 121.839C123.687 122.312 123.419 122.639 123.061 122.866" fill="#BF9E7C"/>
<path d="M250 125C250 194.036 194.036 250 125 250C55.9644 250 0 194.036 0 125C0 55.9644 55.9644 0 125 0C194.036 0 250 55.9644 250 125Z" fill="#E8E8E8" fill-opacity="0.05"/>
</svg>
