<svg width="200" height="202" viewBox="0 0 200 202" fill="none" xmlns="http://www.w3.org/2000/svg">
<path d="M198.784 112.348C199.662 102.485 200.889 90.9362 199.026 81.7105C197.119 72.2744 192.081 63.1311 187.686 54.8154C181.296 42.7233 174.269 32.2108 163.61 23.6779C155.863 17.4765 145.689 13.927 136.227 10.2497C127.668 6.92696 119.957 3.22205 110.348 2.38622C94.7347 1.028 79.7835 3.28803 66.0707 8.59858C52.3581 13.9078 37.2086 20.5078 27.1168 31.0409C20.4016 38.0506 15.8941 46.7196 11.417 55.5082C5.76521 66.6009 1.68042 78.8125 0.507299 91.9728C-0.395147 102.104 -0.171901 113.366 1.81409 122.819C3.82164 132.374 9.6892 141.794 14.2483 150.181C21.0906 162.763 28.3245 173.652 39.783 182.244C54.0826 192.968 71.8084 198.394 90.9235 200.058C102.254 201.043 114.652 203.437 125.106 200.805C137.083 197.792 150.11 190.338 160.009 183.355C171.583 175.192 182.776 167.144 190.045 154.789C197.349 142.38 197.421 127.645 198.784 112.348" fill="#E56E2B"/>
<path d="M197.516 114.3C198.634 104.557 200.139 93.1541 198.526 83.9737C196.875 74.5871 192.118 65.4108 187.974 57.0703C181.951 44.9412 175.258 34.3613 164.92 25.6538C157.407 19.3246 147.425 15.5592 138.148 11.688C129.759 8.18794 122.217 4.33047 112.725 3.26781C97.301 1.53978 82.4429 3.41082 68.7343 8.33233C55.0247 13.2538 39.8614 19.4139 29.6058 29.5965C22.7826 36.3698 18.1022 44.8422 13.448 53.4328C7.57612 64.2766 3.22399 76.2669 1.73262 89.265C0.584535 99.2729 0.523613 110.429 2.252 119.836C3.99945 129.345 9.57185 138.815 13.8752 147.229C20.3332 159.853 27.2211 170.811 38.3498 179.598C52.2374 190.567 69.6493 196.372 88.5311 198.488C99.724 199.742 111.938 202.414 122.355 200.068C134.286 197.377 147.371 190.315 157.347 183.647C169.008 175.849 180.292 168.155 187.8 156.104C195.342 143.997 195.783 129.411 197.516 114.3Z" fill="#FAB539"/>
<path d="M195.263 114.356C196.354 104.839 197.823 93.6982 196.247 84.7309C194.635 75.5615 189.987 66.597 185.942 58.449C180.057 46.6017 173.518 36.2651 163.421 27.7583C156.08 21.5748 146.328 17.8974 137.266 14.1155C129.07 10.6966 121.702 6.92986 112.43 5.89057C97.3636 4.20241 82.8491 6.03083 69.4564 10.8382C56.0648 15.6456 41.2512 21.6641 31.2315 31.6089C24.5664 38.2282 19.9948 46.5041 15.4492 54.8967C9.71096 65.489 4.54874 76.7315 3.09145 89.4312C1.97007 99.2068 2.82147 110.574 4.51119 119.764C6.21732 129.053 11.6611 138.305 15.8642 146.523C22.173 158.856 28.9022 169.562 39.7739 178.145C53.3399 188.859 70.3502 194.531 88.7954 196.599C99.731 197.824 111.661 200.435 121.836 198.143C133.493 195.513 146.276 188.616 156.021 182.101C167.414 174.484 178.436 166.967 185.771 155.195C193.14 143.366 193.57 129.119 195.263 114.356" fill="#FCE591"/>
<path d="M193.549 103.578C193.549 94.2564 193.735 83.3274 191.215 74.8275C188.64 66.1337 183.152 57.9706 178.336 50.5306C171.331 39.7129 163.863 30.428 153.156 23.296C145.372 18.1119 135.535 15.614 126.354 12.9388C118.051 10.5206 110.51 7.67637 101.428 7.67637C86.673 7.67637 72.8421 11.0169 60.4258 17.1166C48.0088 23.2149 34.3548 30.6398 25.77 41.342C20.0591 48.463 16.5567 56.9602 13.0918 65.5673C8.71951 76.4317 5.90827 88.2172 5.90771 100.653C5.90771 110.228 7.05914 120.771 9.71111 129.474C12.3915 138.271 18.6822 146.626 23.6587 154.117C31.1251 165.36 38.8189 174.98 50.2828 182.104C64.5888 190.991 81.6637 194.633 99.7284 194.633C110.437 194.633 122.263 195.866 131.847 192.544C142.827 188.742 154.42 180.688 163.121 173.33C173.291 164.733 183.116 156.27 188.9 144.093C194.713 131.858 193.549 118.034 193.549 103.578" fill="#FAB539"/>
<path d="M190.946 113.765C191.988 104.677 193.39 94.0406 191.885 85.4788C190.348 76.7205 185.908 68.1628 182.046 60.3832C176.426 49.0693 170.184 39.2001 160.542 31.0783C153.533 25.1725 144.22 21.6628 135.567 18.0514C127.743 14.7865 120.708 11.1888 111.855 10.1962C97.468 8.58507 83.61 10.331 70.822 14.9212C58.0333 19.5114 43.8892 25.2591 34.3226 34.7543C27.958 41.0739 23.5923 48.9772 19.2527 56.9905C13.7736 67.1043 9.71482 78.289 8.32345 90.4127C7.25298 99.7484 7.1954 110.154 8.80862 118.929C10.4387 127.798 15.6362 136.632 19.6498 144.479C25.6733 156.255 32.0993 166.477 42.4787 174.674C55.4335 184.903 71.6739 190.318 89.2865 192.292C99.7283 193.462 111.12 195.957 120.836 193.766C131.966 191.257 144.17 184.671 153.477 178.45C164.354 171.176 174.88 164 181.882 152.758C188.917 141.464 189.329 127.86 190.946 113.765" fill="#E56E2B"/>
<path d="M190.605 103.504C190.605 94.4765 190.783 83.8898 188.345 75.6565C185.851 67.2377 180.534 59.3303 175.868 52.1227C169.085 41.6445 161.852 32.6511 151.481 25.7431C143.941 20.7226 134.413 18.3031 125.519 15.7118C117.476 13.3693 110.171 10.6143 101.376 10.6143C87.0829 10.6143 73.6866 13.8504 61.6603 19.7575C49.6342 25.6647 36.4077 32.8559 28.0929 43.2227C22.5607 50.121 19.1686 58.3515 15.813 66.6878C11.5771 77.2099 8.85505 88.6271 8.85449 100.672C8.85449 109.946 9.96934 120.158 12.5377 128.589C15.1349 137.109 21.2268 145.202 26.0467 152.458C33.2796 163.347 40.7322 172.665 51.8358 179.565C65.6931 188.175 82.2327 191.701 99.7294 191.701C110.103 191.701 121.556 192.896 130.841 189.679C141.476 185.995 152.705 178.194 161.133 171.068C170.983 162.74 180.499 154.544 186.103 142.749C191.733 130.897 190.605 117.507 190.605 103.504" fill="#FCE591"/>
<path d="M60.8911 126.237C55.1671 126.237 50.7905 122.909 46.0765 120.912C33.7645 116.856 32.8327 109.028 17.9848 109.028C14.8488 109.028 11.874 109.642 9.30127 110.865C9.43438 112.386 9.59949 113.907 9.79617 115.415L9.81898 115.584C9.90592 116.245 9.99994 116.905 10.1005 117.561L10.1527 117.904C10.2575 118.573 10.3678 119.239 10.4862 119.899L10.509 120.038C10.6378 120.75 10.7743 121.46 10.9194 122.161L10.9818 122.453C11.0996 123.02 11.2247 123.581 11.3544 124.138C11.4002 124.333 11.4458 124.527 11.4931 124.722C11.6077 125.199 11.7278 125.673 11.8512 126.142C11.9011 126.33 11.9495 126.521 12.0011 126.708C12.1727 127.343 12.3505 127.972 12.5379 128.589C15.135 137.109 21.227 145.202 26.0469 152.458C33.2798 163.347 40.7323 172.665 51.836 179.565C65.6932 188.175 82.2328 191.701 99.7295 191.701C110.103 191.701 121.556 192.896 130.841 189.679C131.476 189.46 132.115 189.224 132.753 188.974C133.013 188.872 133.275 188.76 133.538 188.655C133.912 188.502 134.285 188.352 134.659 188.191C134.996 188.048 135.332 187.894 135.669 187.745C135.964 187.613 136.257 187.482 136.551 187.344C136.939 187.164 137.328 186.976 137.716 186.788C137.951 186.672 138.186 186.56 138.421 186.441C138.855 186.223 139.288 186.001 139.721 185.775C139.901 185.68 140.082 185.586 140.262 185.491C140.74 185.237 141.217 184.977 141.694 184.712L142.064 184.504C142.587 184.21 143.109 183.912 143.628 183.605L143.818 183.494C144.387 183.158 144.953 182.818 145.517 182.47C118.578 145.754 62.9048 126.237 60.8911 126.237" fill="#FCED9B"/>
<path d="M104.208 121.916C110.435 120.63 130.804 119.696 130.804 107.243C130.804 104.937 130.021 102.675 129.238 100.613C106.63 53.2429 78.989 41.9592 77.0521 40.7151C69.8528 36.2046 62.828 29.0395 55.7016 22.7653C45.4466 28.1019 35.0504 34.5494 28.0929 43.2225C22.5607 50.1209 19.1686 58.3513 15.8129 66.6876C12.24 75.5656 9.75093 85.0815 9.05713 95.073C14.8621 93.7574 21.4044 92.3964 30.651 92.3964C61.298 92.3964 74.5826 114.281 104.208 121.916Z" fill="#FCED9B"/>
<path d="M60.5542 112.26C53.4832 108.599 47.424 103.609 39.6792 102.277C40.0161 104.607 42.0367 105.272 43.7195 106.27C58.8705 113.923 72.3387 124.239 89.1722 127.566C87.154 126.568 84.7963 126.237 82.7753 125.238C75.032 120.578 68.2979 115.921 60.5542 112.26Z" fill="#FCED9B"/>
<path d="M95.6664 31.063C87.6921 27.7678 78.7266 26.2721 73.0693 20.747C75.9256 19.3627 77.767 20.5766 79.8106 21.2694C96.6804 28.4647 115.711 32.3469 128.508 44.0444C126.282 43.0698 124.645 41.3362 122.423 40.3615C112.942 37.2189 104 34.9191 95.6664 31.063Z" fill="#FCED9B"/>
<path d="M132.786 127.878C136.28 125.649 141.319 118.196 143.919 115.068C142.764 114.621 139.895 115.421 139.003 115.92C131.602 120.742 130.923 119.914 122.168 125.238C128.414 126.653 129.119 130.407 132.786 127.878" fill="#FCED9B"/>
<path d="M182.773 83.9747C178.582 81.8426 149.562 57.2323 146.073 54.0265L183.783 71.3301C177.652 73.4636 187.219 86.4231 182.773 83.9747" fill="#FCED9B"/>
<path d="M152.018 90.796C147.809 90.796 147.009 92.6657 147.009 94.8212C147.009 100.247 148.884 109.916 148.884 117.899C148.884 133.392 143.644 133.605 132.387 133.605C129.71 133.605 126.972 133.509 124.239 133.509C86.5139 133.509 124.378 145.487 156.847 171.158C161.813 163.574 169.503 159.281 177.583 155.569C180.905 151.72 183.83 147.532 186.103 142.748C187.186 140.469 188.017 138.132 188.655 135.744C180.592 119.855 162.82 90.796 152.018 90.796" fill="#FCED9B"/>
<path d="M105.67 43.7105C107.691 45.0413 109.711 46.372 111.732 47.7041C121.496 59.3493 128.565 72.6608 138.329 84.3075C140.268 82.3911 137.908 78.6504 146.073 78.6504C161.087 80.4774 174.356 87.3153 186.1 96.1548C140.91 58.4145 105.349 39.8695 95.562 35.0346C99.3885 37.351 102.077 40.9776 105.67 43.7105" fill="#FCED9B"/>
<path d="M175.868 52.1239C169.085 41.6444 161.852 32.651 151.481 25.7444C143.941 20.7225 134.413 18.303 125.519 15.7117C117.477 13.3692 110.171 10.6142 101.376 10.6142C92.5118 10.6142 83.9937 11.861 75.9307 14.2159C114.212 22.5248 160.176 48.0383 181.256 60.595C179.492 57.6778 177.634 54.85 175.868 52.1239Z" fill="#FCED9B"/>
<path d="M32.409 81.6294C22.0616 83.6599 16.118 83.4908 14.7515 77.9465C13.3845 72.4009 33.3309 62.8535 39.851 60.0091C46.3706 57.1662 66.6865 51.3869 77.7479 52.9362C113.616 57.9608 108.036 74.6293 95.3991 78.363C82.7623 82.0982 77.6479 66.7302 66.1752 65.6194C54.7005 64.51 55.039 83.7643 47.4182 84.9246C39.7951 86.0862 37.142 80.7015 32.409 81.6294" fill="#FCE591"/>
<path d="M75.1446 84.5301C73.1244 84.9728 71.1038 84.7515 69.3081 85.4168C69.0843 85.6382 68.6343 85.8609 68.6343 86.0822C68.6343 90.0166 73.3092 90.0345 85.2456 97.6175C88.6479 99.9724 89.5144 103.938 96.65 103.938C108.65 103.938 108.928 91.6127 75.1446 84.5301" fill="#FCE591"/>
<path d="M173.222 132.446C171.731 130.636 171.247 128.803 169.511 127.204C169.084 127.008 168.565 126.61 168.23 126.617C162.267 126.749 164.135 130.974 157.48 142.013C155.291 145.166 149.631 146.082 152.523 152.529C157.387 163.372 176.182 163.208 173.222 132.446" fill="#FCE591"/>
<path d="M44.6486 168.583C42.9398 165.666 40.6838 163.517 39.3879 160.614C39.3401 160.09 39.062 159.3 39.2445 159.043C42.4817 154.505 47.294 160.046 65.7833 165.504C71.2128 166.837 75.3651 163.292 82.689 171.786C95.0058 186.07 85.1509 200.624 44.6486 168.583" fill="#FCE591"/>
<path d="M48.3892 130.387C49.5553 132.782 51.2005 134.605 52.0421 136.965C52.0476 137.379 52.2188 138.017 52.0595 138.208C49.2401 141.585 45.7921 136.943 31.585 131.558C27.3964 130.188 23.9174 132.73 18.6737 125.618C9.85464 113.658 18.4856 102.798 48.3892 130.387" fill="#FCE591"/>
<path d="M112.001 71.6875C111.791 71.4057 111.585 71.1307 111.375 70.8544C111.459 70.4915 111.512 69.9842 111.512 69.422C111.512 68.3167 111.309 64.5802 111.059 64.5802C110.807 64.5802 110.604 68.3167 110.604 69.422C110.604 69.5732 110.608 69.7203 110.615 69.8619C110.394 69.5746 110.173 69.29 109.952 69.0095C110.084 66.843 110.529 63.0666 111.059 63.0666C111.69 63.0666 112.202 68.4556 112.202 70.0503C112.202 70.6579 112.127 71.2215 112.001 71.6875Z" fill="#FBC859"/>
<path d="M111.059 72.9385C110.426 72.9385 109.913 71.6449 109.913 70.0502C109.913 69.7904 109.926 69.4302 109.952 69.0095C110.173 69.29 110.394 69.5745 110.615 69.8619C110.661 70.7554 110.842 71.4235 111.059 71.4235C111.181 71.4235 111.294 71.2063 111.374 70.8544C111.585 71.1307 111.79 71.4056 112 71.6875C111.795 72.4436 111.45 72.9385 111.059 72.9385Z" fill="#FCCC5D"/>
<path d="M111.375 70.8545C111.121 70.5204 110.868 70.1892 110.615 69.862C110.608 69.7204 110.604 69.5733 110.604 69.422C110.604 68.3168 110.807 64.5803 111.059 64.5803C111.309 64.5803 111.512 68.3168 111.512 69.422C111.512 69.9843 111.459 70.4916 111.375 70.8545Z" fill="#EF9E4E"/>
<path d="M111.059 71.4236C110.842 71.4236 110.661 70.7555 110.615 69.8619C110.868 70.1891 111.122 70.5204 111.375 70.8544C111.294 71.2064 111.181 71.4236 111.059 71.4236" fill="#EFA252"/>
<path d="M136.31 50.3105C135.677 50.3105 135.165 49.0169 135.165 47.4236C135.165 45.8276 135.677 40.4387 136.31 40.4387C136.941 40.4387 137.455 45.8276 137.455 47.4236C137.455 49.0169 136.941 50.3105 136.31 50.3105ZM136.31 41.9523C136.058 41.9523 135.856 45.6887 135.856 46.794C135.856 47.8993 136.058 48.7956 136.31 48.7956C136.56 48.7956 136.763 47.8993 136.763 46.794C136.763 45.6887 136.56 41.9523 136.31 41.9523Z" fill="#FBC859"/>
<path d="M136.31 48.7957C136.059 48.7957 135.857 47.8993 135.857 46.794C135.857 45.6888 136.059 41.9523 136.31 41.9523C136.561 41.9523 136.764 45.6888 136.764 46.794C136.764 47.8993 136.561 48.7957 136.31 48.7957Z" fill="#EF9E4E"/>
<path d="M75.1 39.4268C74.8788 39.2742 74.6571 39.1174 74.4365 38.9607C74.3664 37.4499 74.2073 35.4084 74.0215 35.4084C73.859 35.4084 73.7166 36.9756 73.6367 38.3806C73.4482 38.2431 73.2613 38.1029 73.0732 37.9613C73.2787 35.9954 73.627 33.8935 74.022 33.8935C74.5197 33.8935 74.9418 37.2272 75.1 39.4268" fill="#FBC859"/>
<path d="M74.0218 43.7654C73.3888 43.7654 72.877 42.4731 72.877 40.8785C72.877 40.2791 72.9493 39.1449 73.0731 37.9613C73.2611 38.1029 73.4481 38.2431 73.6365 38.3806C73.5926 39.1449 73.5676 39.8612 73.5676 40.2502C73.5676 41.3555 73.7708 42.2504 74.0213 42.2504C74.2728 42.2504 74.4749 41.3555 74.4749 40.2502C74.4749 39.9615 74.4614 39.4941 74.4363 38.9607C74.6569 39.1174 74.8787 39.2742 75.0998 39.4267C75.1427 40.0234 75.166 40.5375 75.166 40.8785C75.166 42.4731 74.6542 43.7654 74.0218 43.7654" fill="#FCCC5D"/>
<path d="M74.4365 38.9607C74.1697 38.771 73.9035 38.5772 73.6367 38.3806C73.7166 36.9756 73.859 35.4084 74.0215 35.4084C74.2073 35.4084 74.3664 37.4499 74.4365 38.9607Z" fill="#EF9E4E"/>
<path d="M74.0216 42.2505C73.7711 42.2505 73.5679 41.3556 73.5679 40.2503C73.5679 39.8612 73.5929 39.145 73.6369 38.3807C73.9036 38.5772 74.1699 38.771 74.4367 38.9608C74.4617 39.4941 74.4752 39.9616 74.4752 40.2503C74.4752 41.3556 74.2731 42.2505 74.0216 42.2505" fill="#EFA252"/>
<path d="M64.5944 163.783C63.9625 163.783 63.4502 162.491 63.4502 160.894C63.4502 159.301 63.9625 153.911 64.5944 153.911C65.2274 153.911 65.7382 159.301 65.7382 160.894C65.7382 162.491 65.2274 163.783 64.5944 163.783ZM64.5944 155.424C64.3439 155.424 64.1407 159.161 64.1407 160.266C64.1407 161.373 64.3439 162.268 64.5944 162.268C64.846 162.268 65.0487 161.373 65.0487 160.266C65.0487 159.161 64.846 155.424 64.5944 155.424Z" fill="#FCCC5D"/>
<path d="M64.5944 162.268C64.3438 162.268 64.1406 161.373 64.1406 160.267C64.1406 159.161 64.3438 155.425 64.5944 155.425C64.846 155.425 65.0486 159.161 65.0486 160.267C65.0486 161.373 64.846 162.268 64.5944 162.268Z" fill="#EFA252"/>
<path d="M148.32 167.332C147.685 167.332 147.175 166.04 147.175 164.445C147.175 164.313 147.178 164.155 147.185 163.978C147.421 164.143 147.655 164.308 147.891 164.474C147.952 165.256 148.119 165.819 148.318 165.819C148.466 165.819 148.595 165.511 148.678 165.035C148.911 165.2 149.146 165.369 149.378 165.535C149.208 166.59 148.798 167.332 148.32 167.332" fill="#FBC859"/>
<path d="M149.378 165.536C149.146 165.369 148.911 165.2 148.678 165.035C148.737 164.697 148.772 164.275 148.772 163.816C148.772 162.711 148.569 158.976 148.318 158.976C148.068 158.976 147.866 162.711 147.866 163.816C147.866 164.047 147.874 164.268 147.891 164.474C147.655 164.308 147.421 164.143 147.185 163.978C147.26 161.997 147.738 157.459 148.32 157.459C148.951 157.459 149.463 162.851 149.463 164.446C149.463 164.83 149.432 165.199 149.378 165.536" fill="#FCCC5D"/>
<path d="M148.318 165.819C148.119 165.819 147.952 165.257 147.891 164.474C148.153 164.66 148.417 164.848 148.678 165.035C148.595 165.511 148.466 165.819 148.318 165.819" fill="#EF9E4E"/>
<path d="M148.679 165.035C148.417 164.848 148.153 164.66 147.891 164.474C147.875 164.268 147.866 164.047 147.866 163.816C147.866 162.71 148.068 158.975 148.318 158.975C148.569 158.975 148.772 162.71 148.772 163.816C148.772 164.275 148.737 164.697 148.679 165.035" fill="#EFA252"/>
<path d="M122.841 126.846C122.21 126.846 121.698 125.553 121.698 123.959C121.698 122.75 121.991 119.364 122.409 117.793C122.666 117.682 122.92 117.566 123.171 117.448C123.642 118.799 123.986 122.653 123.986 123.959C123.986 124.025 123.984 124.089 123.983 124.153C123.726 124.304 123.461 124.461 123.187 124.623C123.254 124.275 123.295 123.823 123.295 123.329C123.295 122.225 123.093 118.489 122.841 118.489C122.591 118.489 122.388 122.225 122.388 123.329C122.388 124.018 122.467 124.624 122.587 124.984C122.449 125.068 122.31 125.152 122.168 125.239C122.744 125.368 123.272 125.519 123.761 125.683C123.552 126.389 123.218 126.846 122.841 126.846" fill="#FBC859"/>
<path d="M122.409 117.793C122.543 117.291 122.689 116.974 122.842 116.974C122.957 116.974 123.067 117.15 123.171 117.448C122.921 117.566 122.667 117.682 122.409 117.793" fill="#FCCC5D"/>
<path d="M123.761 125.683C123.273 125.519 122.744 125.368 122.168 125.239C122.31 125.152 122.449 125.068 122.587 124.984C122.659 125.204 122.747 125.332 122.842 125.332C122.981 125.332 123.106 125.057 123.188 124.623C123.462 124.46 123.726 124.304 123.984 124.153C123.968 124.724 123.888 125.25 123.761 125.683Z" fill="#FCCC5D"/>
<path d="M122.587 124.984C122.467 124.624 122.388 124.017 122.388 123.329C122.388 122.225 122.591 118.488 122.842 118.488C123.093 118.488 123.295 122.225 123.295 123.329C123.295 123.822 123.255 124.275 123.188 124.622C122.993 124.739 122.792 124.86 122.587 124.984Z" fill="#EF9E4E"/>
<path d="M122.841 125.332C122.747 125.332 122.659 125.204 122.587 124.984C122.791 124.86 122.993 124.74 123.188 124.623C123.106 125.057 122.981 125.332 122.841 125.332Z" fill="#EFA252"/>
<path d="M79.4088 112.869C78.8578 112.869 78.3987 111.889 78.29 110.581C78.5894 110.757 78.8888 110.932 79.1898 111.108C79.2545 111.266 79.3295 111.355 79.4088 111.355C79.4463 111.355 79.4832 111.336 79.518 111.298C79.7832 111.45 80.0467 111.603 80.3129 111.755C80.1037 112.433 79.7767 112.869 79.4088 112.869Z" fill="#FBC859"/>
<path d="M80.3125 111.755C80.0463 111.603 79.7829 111.45 79.5176 111.298C79.716 111.082 79.8621 110.294 79.8621 109.352C79.8621 108.248 79.66 104.512 79.4084 104.512C79.1579 104.512 78.9552 108.248 78.9552 109.352C78.9552 110.108 79.0498 110.766 79.1895 111.108C78.8885 110.932 78.589 110.757 78.2897 110.581C78.2734 110.389 78.2646 110.188 78.2646 109.983C78.2646 108.387 78.776 102.998 79.4084 102.998C80.0414 102.998 80.5533 108.387 80.5533 109.983C80.5533 110.652 80.463 111.266 80.3125 111.755" fill="#FCCC5D"/>
<path d="M79.4072 111.355C79.3284 111.355 79.2538 111.266 79.1895 111.108C79.2975 111.17 79.4078 111.234 79.5158 111.297C79.4812 111.336 79.4446 111.355 79.4072 111.355" fill="#EF9E4E"/>
<path d="M79.5174 111.297C79.4088 111.234 79.2979 111.169 79.1893 111.107C79.0497 110.765 78.9551 110.108 78.9551 109.352C78.9551 108.248 79.1577 104.512 79.4082 104.512C79.6599 104.512 79.862 108.248 79.862 109.352C79.862 110.294 79.7158 111.081 79.5174 111.297" fill="#EFA252"/>
<path d="M68.8789 0.000125001C68.8699 0.00464762 68.8564 0.00465645 68.8519 0.00917907C68.8609 0.00465645 68.8699 0.00464762 68.8789 0.000125001ZM68.546 0.0951375L68.5415 0.0996093C68.5415 0.0996093 68.546 0.0996601 68.546 0.0951375Z" fill="#EEDDBC"/>
<path d="M76.5028 17.7789C30.0465 31.0211 3.12333 79.4615 16.3791 125.981C29.6349 172.489 78.045 199.465 124.497 186.223C170.958 172.991 197.876 124.552 184.621 78.0341C171.369 31.5186 122.959 4.5457 76.5028 17.7789Z" fill="#ECC35A"/>
<path d="M82.9254 23.9254C67.7882 28.2355 54.3289 34.6169 45.2429 45.5616C37.5997 54.7516 37.5997 65.3209 35.1304 77.0558C32.2902 90.5811 28.066 105.475 33.276 119.725C38.1153 132.935 48.6711 144.013 58.5394 152.974C70.0179 163.386 82.3827 170.047 97.4656 173.142C108.691 175.445 120.775 174.414 132.435 171.718C141.697 169.568 148.386 164.84 155.731 159.933C163.745 154.582 169.443 148.237 174.694 140.4C181.274 130.573 181.505 121.409 182.703 109.212C183.64 99.8525 185.078 91.0528 182.269 81.2021C177.412 64.1405 170.791 48.8405 157.558 38.1083C136.736 21.2299 109.559 16.3319 82.9254 23.9254" fill="#F7E8E2"/>
<path d="M79.5649 123.218C79.5649 125.912 72.4463 128.514 65.4906 119.757C57.68 109.931 45.1071 101.988 43.1488 100.424C43.0764 100.365 43.0403 100.313 43.0403 100.271C43.0403 99.2109 65.8433 103.755 79.2348 122.25C79.4564 122.561 79.5649 122.889 79.5649 123.218" fill="#EFE9E9"/>
<path d="M126.524 121.274C126.524 122.345 103.866 117.022 91.1073 98.0658C90.9083 97.7655 90.8134 97.4489 90.8134 97.1382C90.8134 94.4228 98.0586 91.9779 104.757 101.03C112.228 111.116 124.52 119.493 126.42 121.12C126.492 121.182 126.524 121.233 126.524 121.274Z" fill="#EFE9E9"/>
<path d="M175.82 104.05C175.82 122.472 170.14 137.192 158.128 137.872C153.754 138.123 140.119 104.303 118.433 79.9808C96.6383 55.5293 67.0468 40.2745 67.0468 36.5841C67.0468 36.5343 67.0514 36.4846 67.0649 36.4348C68.7338 29.6735 127.568 9.48001 156.02 43.5398C168.932 58.9891 175.82 83.7636 175.82 104.05" fill="#EFE9E9"/>
<path d="M70.488 106.196L109.717 145.119C129.422 160.906 135.645 135.275 151.637 144.137C156.576 146.876 131.688 160.978 134.718 164.038C137.527 171.631 132.064 175.272 130.793 184.16C142.28 171.677 151.94 173.396 161.917 159.395C163.505 155.687 132.294 182.762 159.448 146.103C171.293 130.113 143.574 133.812 137.283 139.918C119.066 157.582 92.1333 115.535 70.6328 106.058L70.488 106.196Z" fill="#ECC35A"/>
<path d="M153.325 91.2659C143.348 69.3153 132.883 52.7431 121.192 48.2747C133.521 62.4079 143.927 76.9102 153.325 91.2659" fill="#ECC35A"/>
<path d="M29.418 72.6243C33.9361 69.3205 39.0558 66.9575 44.406 65.7499C62.207 61.7384 78.4884 73.3873 100.016 82.5967C81.3287 70.9618 56.504 48.0258 44.6819 50.6941C36.2246 52.6072 32.4798 64.9946 29.418 72.6243" fill="#ECC35A"/>
<path d="M88.995 151.157C89.7503 151.101 90.5146 151 91.2744 150.827C90.4649 150.977 89.7186 151.085 88.995 151.157Z" fill="#ECC35A"/>
<path d="M60.3798 130.359C63.419 134.035 67.2135 138.132 72.8984 142.591C69.9361 138.927 66.3678 134.546 60.3798 130.359Z" fill="#ECC35A"/>
<path d="M24.304 108.643C24.7743 110.712 24.824 113.18 25.2537 115.095C25.6562 116.847 26.3617 118.135 27.9989 118.225C43.7286 121.14 53.6105 125.625 60.3809 130.358C52.1814 120.44 49.5085 113.621 30.1698 111.349C26.52 111.259 23.6256 105.599 24.304 108.643Z" fill="#ECC35A"/>
<path d="M88.9956 151.157C87.2273 151.3 85.5313 151.11 84.2287 150.286C79.7468 147.619 76.0474 145.053 72.8996 142.591C77.3996 148.155 80.5971 152.063 88.9956 151.157Z" fill="#ECC35A"/>
</svg>
