<svg width="250" height="250" viewBox="0 0 250 250" fill="none" xmlns="http://www.w3.org/2000/svg">
<g filter="url(#filter0_d_240_776)">
<path d="M76.3182 71.6002C69.9321 73.3114 63.6971 70.7505 62.3919 65.8794C61.0869 61.0091 65.206 55.6731 71.5921 53.9619C77.9781 52.2508 84.2134 54.8124 85.5184 59.6827C86.8236 64.5538 82.7043 69.8891 76.3182 71.6002Z" fill="#555468"/>
<path d="M65.946 64.9273C65.1812 62.073 68.2024 58.6792 72.5438 57.5159C76.8853 56.3527 81.2003 57.7807 81.9651 60.635C82.7296 63.4884 79.7068 66.8826 75.3653 68.0459C71.0239 69.2092 66.7106 67.7807 65.946 64.9273Z" fill="#444351"/>
<path d="M48.3138 101.019L48.3138 101.019C47.6757 106.935 51.1237 111.985 55.8023 112.49C60.4817 112.995 64.9261 108.794 65.5638 102.88C66.2011 96.9646 62.7539 91.9137 58.0754 91.409C53.396 90.9046 48.9515 95.1057 48.3138 101.019Z" fill="#555468" stroke="#444351"/>
<path d="M50.6195 101.268C51.0051 97.6965 54.2243 94.9912 57.6488 95.3594C61.0738 95.7294 63.6429 99.0589 63.2583 102.631C62.8719 106.203 59.653 108.909 56.2282 108.54C52.8034 108.171 50.2341 104.84 50.6195 101.268Z" fill="#444351"/>
<path d="M138.317 57.0179L138.317 57.0179C137.679 62.9333 141.127 67.984 145.805 68.4887C150.485 68.9931 154.929 64.792 155.567 58.8784C156.204 52.9631 152.757 47.9122 148.078 47.4076C143.399 46.9031 138.954 51.1042 138.317 57.0179Z" fill="#555468" stroke="#444351"/>
<path d="M140.622 57.2666C141.008 53.695 144.227 50.9897 147.652 51.358C151.077 51.7279 153.646 55.0574 153.261 58.6296C152.875 62.2014 149.656 64.9075 146.231 64.5385C142.806 64.1694 140.237 60.839 140.622 57.2666Z" fill="#444351"/>
<path d="M183.317 119.018L183.317 119.018C182.679 124.934 186.127 129.984 190.806 130.489C195.485 130.993 199.93 126.792 200.567 120.879C201.205 114.963 197.757 109.912 193.079 109.408C188.399 108.903 183.955 113.104 183.317 119.018Z" fill="#555468" stroke="#444351"/>
<path d="M185.623 119.267C186.009 115.695 189.228 112.99 192.652 113.358C196.077 113.728 198.646 117.058 198.262 120.63C197.875 124.202 194.656 126.908 191.232 126.539C187.807 126.17 185.238 122.839 185.623 119.267Z" fill="#444351"/>
<path d="M84.3172 170.018L84.3172 170.018C83.6791 175.934 87.1271 180.984 91.8057 181.489C96.4851 181.993 100.93 177.792 101.567 171.879C102.205 165.963 98.7573 160.912 94.0788 160.408C89.3994 159.903 84.9549 164.104 84.3172 170.018Z" fill="#555468" stroke="#444351"/>
<path d="M86.6229 170.267C87.0085 166.695 90.2277 163.99 93.6522 164.358C97.0772 164.728 99.6463 168.058 99.2617 171.63C98.8753 175.202 95.6564 177.908 92.2316 177.539C88.8068 177.17 86.2376 173.839 86.6229 170.267Z" fill="#444351"/>
<path d="M160.317 187.018L160.317 187.018C159.679 192.934 163.127 197.984 167.806 198.489C172.485 198.993 176.93 194.792 177.567 188.879C178.205 182.963 174.757 177.912 170.079 177.408C165.399 176.903 160.955 181.104 160.317 187.018Z" fill="#555468" stroke="#444351"/>
<path d="M162.623 187.267C163.009 183.695 166.228 180.99 169.652 181.358C173.077 181.728 175.646 185.058 175.262 188.63C174.875 192.202 171.656 194.908 168.232 194.539C164.807 194.17 162.238 190.839 162.623 187.267Z" fill="#444351"/>
<path d="M139.317 130.018L139.317 130.018C138.679 135.934 142.127 140.984 146.806 141.489C151.485 141.993 155.93 137.792 156.567 131.879C157.205 125.963 153.757 120.912 149.079 120.408C144.399 119.903 139.955 124.104 139.317 130.018Z" fill="#555468" stroke="#444351"/>
<path d="M141.623 130.267C142.009 126.695 145.228 123.99 148.652 124.358C152.077 124.728 154.646 128.058 154.262 131.63C153.875 135.202 150.656 137.908 147.232 137.539C143.807 137.17 141.238 133.839 141.623 130.267Z" fill="#444351"/>
</g>
<path d="M250 125C250 194.036 194.035 250 125 250C55.9639 250 -0.000488281 194.036 -0.000488281 125C-0.000488281 55.9644 55.9639 0 125 0C194.035 0 250 55.9644 250 125Z" fill="#E8E8E8" fill-opacity="0.05"/>
<path d="M102.038 82.2284C96.3699 80.6658 92.8066 75.6578 94.0792 71.0421C95.3516 66.4271 100.978 63.9521 106.646 65.5148C112.314 67.0775 115.877 72.0862 114.604 76.7011C113.332 81.3169 107.705 83.7911 102.038 82.2284Z" fill="#555468"/>
<path d="M97.2337 71.912C97.9794 69.2074 101.864 67.82 105.717 68.8823C109.57 69.9447 112.197 73.1272 111.451 75.8318C110.705 78.5356 106.819 79.9227 102.966 78.8603C99.113 77.7979 96.4883 74.6158 97.2337 71.912Z" fill="#444351"/>
<path d="M67.0321 93.4243L67.0321 93.4243C63.7823 98.0077 64.0829 103.757 67.3836 106.323C70.6605 108.871 75.9682 107.533 79.2159 102.953C82.4651 98.3688 82.1651 92.6197 78.8644 90.0536C75.5875 87.5062 70.2798 88.8436 67.0321 93.4243Z" fill="#555468" stroke="#444351"/>
<path d="M68.6214 94.6876C70.5786 91.9279 74.2937 91.1992 76.7343 93.0953C79.1745 94.993 79.5837 98.9281 77.627 101.689C75.6691 104.448 71.9538 105.178 69.5134 103.281C67.073 101.384 66.664 97.4482 68.6214 94.6876Z" fill="#444351"/>
<path d="M156.17 99.084L156.17 99.084C152.92 103.667 153.221 109.417 156.522 111.983C159.799 114.53 165.106 113.193 168.354 108.612C171.603 104.029 171.303 98.2794 168.003 95.7132C164.726 93.1659 159.418 94.5033 156.17 99.084Z" fill="#555468" stroke="#444351"/>
<path d="M157.76 100.347C159.717 97.5873 163.432 96.8586 165.872 98.7547C168.313 100.652 168.722 104.588 166.765 107.348C164.807 110.108 161.092 110.837 158.652 108.94C156.211 107.043 155.802 103.108 157.76 100.347Z" fill="#444351"/>
<path d="M161.625 171.04L161.625 171.04C158.375 175.623 158.676 181.372 161.976 183.939C165.253 186.486 170.561 185.149 173.809 180.568C177.058 175.984 176.758 170.235 173.457 167.669C170.18 165.122 164.873 166.459 161.625 171.04Z" fill="#555468" stroke="#444351"/>
<path d="M163.214 172.303C165.171 169.543 168.886 168.815 171.327 170.711C173.767 172.609 174.176 176.544 172.22 179.304C170.262 182.064 166.547 182.793 164.106 180.896C161.666 179 161.257 175.064 163.214 172.303Z" fill="#444351"/>
<path d="M62.3651 166.954L62.3651 166.954C59.1153 171.537 59.4159 177.287 62.7166 179.853C65.9935 182.4 71.3012 181.063 74.5489 176.482C77.7981 171.899 77.4981 166.15 74.1974 163.583C70.9205 161.036 65.6129 162.373 62.3651 166.954Z" fill="#555468" stroke="#444351"/>
<path d="M63.9544 168.217C65.9116 165.458 69.6267 164.729 72.0673 166.625C74.5075 168.523 74.9167 172.458 72.96 175.219C71.0021 177.978 67.2868 178.708 64.8464 176.811C62.406 174.914 61.997 170.978 63.9544 168.217Z" fill="#444351"/>
<path d="M112.418 216.299L112.418 216.299C109.168 220.883 109.469 226.632 112.77 229.198C116.047 231.746 121.354 230.408 124.602 225.828C127.851 221.244 127.551 215.495 124.251 212.929C120.974 210.381 115.666 211.719 112.418 216.299Z" fill="#555468" stroke="#444351"/>
<path d="M114.008 217.562C115.965 214.803 119.68 214.074 122.121 215.97C124.561 217.868 124.97 221.803 123.013 224.564C121.055 227.323 117.34 228.053 114.9 226.156C112.459 224.259 112.05 220.323 114.008 217.562Z" fill="#444351"/>
<path d="M122.942 159.623L122.942 159.623C119.692 164.207 119.993 169.956 123.294 172.522C126.571 175.07 131.878 173.732 135.126 169.152C138.375 164.568 138.075 158.819 134.775 156.253C131.498 153.705 126.19 155.043 122.942 159.623Z" fill="#555468" stroke="#444351"/>
<path d="M124.532 160.887C126.489 158.127 130.204 157.398 132.644 159.294C135.085 161.192 135.494 165.127 133.537 167.888C131.579 170.647 127.864 171.377 125.424 169.48C122.983 167.583 122.574 163.647 124.532 160.887Z" fill="#444351"/>
<defs>
<filter id="filter0_d_240_776" x="43.7383" y="46.866" width="161.404" height="160.165" filterUnits="userSpaceOnUse" color-interpolation-filters="sRGB">
<feFlood flood-opacity="0" result="BackgroundImageFix"/>
<feColorMatrix in="SourceAlpha" type="matrix" values="0 0 0 0 0 0 0 0 0 0 0 0 0 0 0 0 0 0 127 0" result="hardAlpha"/>
<feOffset dy="4"/>
<feGaussianBlur stdDeviation="2"/>
<feComposite in2="hardAlpha" operator="out"/>
<feColorMatrix type="matrix" values="0 0 0 0 0 0 0 0 0 0 0 0 0 0 0 0 0 0 0.25 0"/>
<feBlend mode="normal" in2="BackgroundImageFix" result="effect1_dropShadow_240_776"/>
<feBlend mode="normal" in="SourceGraphic" in2="effect1_dropShadow_240_776" result="shape"/>
</filter>
</defs>
</svg>
