<svg width="184" height="184" viewBox="0 0 184 184" fill="none" xmlns="http://www.w3.org/2000/svg">
<g clip-path="url(#clip0_1_515)">
<path d="M92 16.583C116.564 16.583 119.477 16.675 129.183 17.1197C154.115 18.2543 165.761 30.084 166.896 54.832C167.34 64.5303 167.425 67.4437 167.425 92.0077C167.425 116.579 167.333 119.485 166.896 129.183C165.753 153.908 154.138 165.761 129.183 166.896C119.477 167.34 116.579 167.432 92 167.432C67.436 167.432 64.5227 167.34 54.8243 166.896C29.831 165.753 18.2467 153.87 17.112 129.176C16.6673 119.477 16.5753 116.572 16.5753 92C16.5753 67.436 16.675 64.5303 17.112 54.8243C18.2543 30.084 29.8693 18.2467 54.8243 17.112C64.5303 16.675 67.436 16.583 92 16.583ZM92 0C67.0143 0 63.8863 0.107333 54.073 0.552C20.6617 2.08533 2.093 20.6233 0.559667 54.0653C0.107333 63.8863 0 67.0143 0 92C0 116.986 0.107333 120.121 0.552 129.935C2.08533 163.346 20.6233 181.915 54.0653 183.448C63.8863 183.893 67.0143 184 92 184C116.986 184 120.121 183.893 129.935 183.448C163.315 181.915 181.93 163.377 183.44 129.935C183.893 120.121 184 116.986 184 92C184 67.0143 183.893 63.8863 183.448 54.073C181.945 20.6923 163.384 2.093 129.942 0.559667C120.121 0.107333 116.986 0 92 0V0ZM92 44.758C65.9103 44.758 44.758 65.9103 44.758 92C44.758 118.09 65.9103 139.25 92 139.25C118.09 139.25 139.242 118.097 139.242 92C139.242 65.9103 118.09 44.758 92 44.758ZM92 122.667C75.0643 122.667 61.3333 108.943 61.3333 92C61.3333 75.0643 75.0643 61.3333 92 61.3333C108.936 61.3333 122.667 75.0643 122.667 92C122.667 108.943 108.936 122.667 92 122.667ZM141.113 31.855C135.01 31.855 130.065 36.8 130.065 42.895C130.065 48.99 135.01 53.935 141.113 53.935C147.208 53.935 152.145 48.99 152.145 42.895C152.145 36.8 147.208 31.855 141.113 31.855Z" fill="white"/>
</g>
<defs>
<clipPath id="clip0_1_515">
<rect width="184" height="184" fill="white"/>
</clipPath>
</defs>
</svg>
